{
  "version": "1.0.0",
  "name": "Untitled Project",
  "tracks": [
    {
      "id": 1,
      "name": "MIDI 1",
      "volume": 0.7,
      "pan": 0.0,
      "muted": false,
      "solo": false,
      "armed": false,
      "is_midi": true,
      "midi_input_port": null,
      "input_device": null,
      "output_device": null,
      "midi_clips": [
        {
          "id": 2,
          "name": "Pattern 1",
          "start_beat": 0.0,
          "length_beats": 640.0,
          "notes": [
            {
              "id": 10,
              "pitch": 60,
              "velocity": 100,
              "start": 0.0,
              "duration": 0.5
            },
            {
              "id": 9,
              "pitch": 62,
              "velocity": 100,
              "start": 0.5,
              "duration": 0.5
            },
            {
              "id": 8,
              "pitch": 64,
              "velocity": 100,
              "start": 1.0,
              "duration": 0.5
            },
            {
              "id": 7,
              "pitch": 65,
              "velocity": 100,
              "start": 1.5,
              "duration": 0.5
            },
            {
              "id": 6,
              "pitch": 67,
              "velocity": 100,
              "start": 2.0,
              "duration": 0.5
            },
            {
              "id": 5,
              "pitch": 69,
              "velocity": 100,
              "start": 2.5,
              "duration": 0.5
            },
            {
              "id": 4,
              "pitch": 71,
              "velocity": 100,
              "start": 3.0,
              "duration": 0.5
            },
            {
              "id": 3,
              "pitch": 72,
              "velocity": 100,
              "start": 3.5,
              "duration": 0.5
            }
          ],
          "color": [
            1,
            1,
            1
          ],
          "velocity_offset": 0,
          "transpose": 0,
          "loop_enabled": false,
          "content_len_beats": 640.0,
          "pattern_id": null,
          "quantize_grid": 0.25,
          "quantize_strength": 1.0,
          "quantize_enabled": false,
          "muted": false,
          "locked": false,
          "groove": null,
          "swing": 0.0,
          "humanize": 0.0,
          "content_offset_beats": 0.0
        },
        {
          "id": 11,
          "name": "Super Mario 64 - Medley",
          "start_beat": 0.0,
          "length_beats": 1728.8330078125,
          "notes": [
            {
              "id": 5446,
              "pitch": 76,
              "velocity": 110,
              "start": 0.0,
              "duration": 0.4892578125
            },
            {
              "id": 5445,
              "pitch": 38,
              "velocity": 110,
              "start": 0.0,
              "duration": 0.4892578125
            },
            {
              "id": 5444,
              "pitch": 76,
              "velocity": 110,
              "start": 0.5,
              "duration": 0.4892578125
            },
            {
              "id": 5443,
              "pitch": 38,
              "velocity": 110,
              "start": 0.5,
              "duration": 0.4892578125
            },
            {
              "id": 5442,
              "pitch": 76,
              "velocity": 110,
              "start": 1.5,
              "duration": 0.4892578125
            },
            {
              "id": 5441,
              "pitch": 38,
              "velocity": 110,
              "start": 1.5,
              "duration": 0.4892578125
            },
            {
              "id": 5440,
              "pitch": 72,
              "velocity": 110,
              "start": 2.5,
              "duration": 0.4892578125
            },
            {
              "id": 5439,
              "pitch": 38,
              "velocity": 110,
              "start": 2.5,
              "duration": 0.4892578125
            },
            {
              "id": 5438,
              "pitch": 76,
              "velocity": 110,
              "start": 3.0,
              "duration": 0.8330078125
            },
            {
              "id": 5437,
              "pitch": 38,
              "velocity": 110,
              "start": 3.0,
              "duration": 0.8330078125
            },
            {
              "id": 5436,
              "pitch": 79,
              "velocity": 110,
              "start": 4.0,
              "duration": 0.8330078125
            },
            {
              "id": 5435,
              "pitch": 43,
              "velocity": 110,
              "start": 4.0,
              "duration": 0.8330078125
            },
            {
              "id": 5434,
              "pitch": 67,
              "velocity": 110,
              "start": 6.0,
              "duration": 0.8330078125
            },
            {
              "id": 5433,
              "pitch": 47,
              "velocity": 110,
              "start": 6.0,
              "duration": 0.8330078125
            },
            {
              "id": 5432,
              "pitch": 67,
              "velocity": 110,
              "start": 8.0,
              "duration": 0.4892578125
            },
            {
              "id": 5431,
              "pitch": 43,
              "velocity": 110,
              "start": 8.0,
              "duration": 5.75
            },
            {
              "id": 5430,
              "pitch": 74,
              "velocity": 110,
              "start": 8.5,
              "duration": 0.4892578125
            },
            {
              "id": 5429,
              "pitch": 74,
              "velocity": 110,
              "start": 9.0,
              "duration": 0.4892578125
            },
            {
              "id": 5428,
              "pitch": 69,
              "velocity": 110,
              "start": 9.5,
              "duration": 0.4892578125
            },
            {
              "id": 5427,
              "pitch": 74,
              "velocity": 110,
              "start": 10.5,
              "duration": 0.4892578125
            },
            {
              "id": 5426,
              "pitch": 71,
              "velocity": 110,
              "start": 11.0,
              "duration": 1.8330078125
            },
            {
              "id": 5425,
              "pitch": 74,
              "velocity": 110,
              "start": 13.5,
              "duration": 0.4892578125
            },
            {
              "id": 5424,
              "pitch": 71,
              "velocity": 110,
              "start": 14.0,
              "duration": 0.4892578125
            },
            {
              "id": 5423,
              "pitch": 72,
              "velocity": 110,
              "start": 14.5,
              "duration": 0.4892578125
            },
            {
              "id": 5422,
              "pitch": 74,
              "velocity": 110,
              "start": 15.0,
              "duration": 0.8330078125
            },
            {
              "id": 5421,
              "pitch": 67,
              "velocity": 110,
              "start": 16.0,
              "duration": 0.4892578125
            },
            {
              "id": 5420,
              "pitch": 48,
              "velocity": 110,
              "start": 16.0,
              "duration": 5.75
            },
            {
              "id": 5419,
              "pitch": 74,
              "velocity": 110,
              "start": 16.5,
              "duration": 0.4892578125
            },
            {
              "id": 5418,
              "pitch": 74,
              "velocity": 110,
              "start": 17.0,
              "duration": 0.4892578125
            },
            {
              "id": 5417,
              "pitch": 69,
              "velocity": 110,
              "start": 17.5,
              "duration": 0.4892578125
            },
            {
              "id": 5416,
              "pitch": 74,
              "velocity": 110,
              "start": 18.5,
              "duration": 0.4892578125
            },
            {
              "id": 5415,
              "pitch": 71,
              "velocity": 110,
              "start": 19.0,
              "duration": 1.8330078125
            },
            {
              "id": 5414,
              "pitch": 67,
              "velocity": 110,
              "start": 24.0,
              "duration": 0.4892578125
            },
            {
              "id": 5413,
              "pitch": 43,
              "velocity": 110,
              "start": 24.0,
              "duration": 5.75
            },
            {
              "id": 5412,
              "pitch": 74,
              "velocity": 110,
              "start": 24.5,
              "duration": 0.4892578125
            },
            {
              "id": 5411,
              "pitch": 74,
              "velocity": 110,
              "start": 25.0,
              "duration": 0.4892578125
            },
            {
              "id": 5410,
              "pitch": 69,
              "velocity": 110,
              "start": 25.5,
              "duration": 0.4892578125
            },
            {
              "id": 5409,
              "pitch": 74,
              "velocity": 110,
              "start": 26.5,
              "duration": 0.4892578125
            },
            {
              "id": 5408,
              "pitch": 71,
              "velocity": 110,
              "start": 27.0,
              "duration": 1.8330078125
            },
            {
              "id": 5407,
              "pitch": 74,
              "velocity": 110,
              "start": 29.5,
              "duration": 0.4892578125
            },
            {
              "id": 5406,
              "pitch": 71,
              "velocity": 110,
              "start": 30.0,
              "duration": 0.4892578125
            },
            {
              "id": 5405,
              "pitch": 72,
              "velocity": 110,
              "start": 30.5,
              "duration": 0.4892578125
            },
            {
              "id": 5404,
              "pitch": 74,
              "velocity": 110,
              "start": 31.0,
              "duration": 0.8330078125
            },
            {
              "id": 5403,
              "pitch": 67,
              "velocity": 110,
              "start": 32.0,
              "duration": 0.4892578125
            },
            {
              "id": 5402,
              "pitch": 48,
              "velocity": 110,
              "start": 32.0,
              "duration": 5.75
            },
            {
              "id": 5401,
              "pitch": 74,
              "velocity": 110,
              "start": 32.5,
              "duration": 0.4892578125
            },
            {
              "id": 5400,
              "pitch": 74,
              "velocity": 110,
              "start": 33.0,
              "duration": 0.4892578125
            },
            {
              "id": 5399,
              "pitch": 69,
              "velocity": 110,
              "start": 33.5,
              "duration": 0.4892578125
            },
            {
              "id": 5398,
              "pitch": 74,
              "velocity": 110,
              "start": 34.5,
              "duration": 0.4892578125
            },
            {
              "id": 5397,
              "pitch": 71,
              "velocity": 110,
              "start": 35.0,
              "duration": 1.8330078125
            },
            {
              "id": 5396,
              "pitch": 74,
              "velocity": 110,
              "start": 40.0,
              "duration": 0.4892578125
            },
            {
              "id": 5395,
              "pitch": 47,
              "velocity": 110,
              "start": 40.0,
              "duration": 5.75
            },
            {
              "id": 5394,
              "pitch": 72,
              "velocity": 110,
              "start": 40.5,
              "duration": 0.4892578125
            },
            {
              "id": 5393,
              "pitch": 74,
              "velocity": 110,
              "start": 41.0,
              "duration": 0.4892578125
            },
            {
              "id": 5392,
              "pitch": 71,
              "velocity": 110,
              "start": 41.5,
              "duration": 0.4892578125
            },
            {
              "id": 5391,
              "pitch": 74,
              "velocity": 110,
              "start": 42.5,
              "duration": 0.4892578125
            },
            {
              "id": 5390,
              "pitch": 79,
              "velocity": 110,
              "start": 43.0,
              "duration": 2.75
            },
            {
              "id": 5389,
              "pitch": 74,
              "velocity": 110,
              "start": 48.0,
              "duration": 0.4892578125
            },
            {
              "id": 5388,
              "pitch": 45,
              "velocity": 110,
              "start": 48.0,
              "duration": 5.75
            },
            {
              "id": 5387,
              "pitch": 72,
              "velocity": 110,
              "start": 48.5,
              "duration": 0.4892578125
            },
            {
              "id": 5386,
              "pitch": 74,
              "velocity": 110,
              "start": 49.0,
              "duration": 0.4892578125
            },
            {
              "id": 5385,
              "pitch": 71,
              "velocity": 110,
              "start": 49.5,
              "duration": 0.4892578125
            },
            {
              "id": 5384,
              "pitch": 74,
              "velocity": 110,
              "start": 50.5,
              "duration": 0.4892578125
            },
            {
              "id": 5383,
              "pitch": 72,
              "velocity": 110,
              "start": 51.0,
              "duration": 2.75
            },
            {
              "id": 5382,
              "pitch": 74,
              "velocity": 110,
              "start": 56.0,
              "duration": 0.4892578125
            },
            {
              "id": 5381,
              "pitch": 47,
              "velocity": 110,
              "start": 56.0,
              "duration": 5.75
            },
            {
              "id": 5380,
              "pitch": 72,
              "velocity": 110,
              "start": 56.5,
              "duration": 0.4892578125
            },
            {
              "id": 5379,
              "pitch": 74,
              "velocity": 110,
              "start": 57.0,
              "duration": 0.4892578125
            },
            {
              "id": 5378,
              "pitch": 71,
              "velocity": 110,
              "start": 57.5,
              "duration": 0.4892578125
            },
            {
              "id": 5377,
              "pitch": 74,
              "velocity": 110,
              "start": 58.5,
              "duration": 0.4892578125
            },
            {
              "id": 5376,
              "pitch": 79,
              "velocity": 110,
              "start": 59.0,
              "duration": 2.75
            },
            {
              "id": 5375,
              "pitch": 81,
              "velocity": 110,
              "start": 64.0,
              "duration": 0.4892578125
            },
            {
              "id": 5374,
              "pitch": 50,
              "velocity": 110,
              "start": 64.0,
              "duration": 5.75
            },
            {
              "id": 5373,
              "pitch": 79,
              "velocity": 110,
              "start": 64.5,
              "duration": 0.4892578125
            },
            {
              "id": 5372,
              "pitch": 81,
              "velocity": 110,
              "start": 65.0,
              "duration": 0.4892578125
            },
            {
              "id": 5371,
              "pitch": 79,
              "velocity": 110,
              "start": 65.5,
              "duration": 0.4892578125
            },
            {
              "id": 5370,
              "pitch": 83,
              "velocity": 110,
              "start": 66.5,
              "duration": 0.4892578125
            },
            {
              "id": 5369,
              "pitch": 79,
              "velocity": 110,
              "start": 67.0,
              "duration": 2.75
            },
            {
              "id": 5368,
              "pitch": 36,
              "velocity": 110,
              "start": 72.0,
              "duration": 7.75
            },
            {
              "id": 5367,
              "pitch": 48,
              "velocity": 110,
              "start": 72.0,
              "duration": 7.75
            },
            {
              "id": 5366,
              "pitch": 64,
              "velocity": 110,
              "start": 76.0,
              "duration": 0.4892578125
            },
            {
              "id": 5365,
              "pitch": 64,
              "velocity": 110,
              "start": 76.5,
              "duration": 0.4892578125
            },
            {
              "id": 5364,
              "pitch": 64,
              "velocity": 110,
              "start": 78.5,
              "duration": 0.4892578125
            },
            {
              "id": 5363,
              "pitch": 64,
              "velocity": 110,
              "start": 79.0,
              "duration": 0.4892578125
            },
            {
              "id": 5362,
              "pitch": 64,
              "velocity": 110,
              "start": 79.5,
              "duration": 0.2392578125
            },
            {
              "id": 5361,
              "pitch": 64,
              "velocity": 110,
              "start": 79.75,
              "duration": 0.2392578125
            },
            {
              "id": 5360,
              "pitch": 65,
              "velocity": 110,
              "start": 80.0,
              "duration": 0.4892578125
            },
            {
              "id": 5359,
              "pitch": 36,
              "velocity": 110,
              "start": 80.0,
              "duration": 3.75
            },
            {
              "id": 5358,
              "pitch": 48,
              "velocity": 110,
              "start": 80.0,
              "duration": 3.75
            },
            {
              "id": 5357,
              "pitch": 65,
              "velocity": 110,
              "start": 80.5,
              "duration": 0.4892578125
            },
            {
              "id": 5356,
              "pitch": 65,
              "velocity": 110,
              "start": 82.5,
              "duration": 0.4892578125
            },
            {
              "id": 5355,
              "pitch": 65,
              "velocity": 110,
              "start": 83.0,
              "duration": 0.4892578125
            },
            {
              "id": 5354,
              "pitch": 65,
              "velocity": 110,
              "start": 83.5,
              "duration": 0.2392578125
            },
            {
              "id": 5353,
              "pitch": 65,
              "velocity": 110,
              "start": 83.75,
              "duration": 0.2392578125
            },
            {
              "id": 5352,
              "pitch": 67,
              "velocity": 110,
              "start": 84.0,
              "duration": 0.4892578125
            },
            {
              "id": 5351,
              "pitch": 36,
              "velocity": 110,
              "start": 84.0,
              "duration": 3.75
            },
            {
              "id": 5350,
              "pitch": 48,
              "velocity": 110,
              "start": 84.0,
              "duration": 3.75
            },
            {
              "id": 5349,
              "pitch": 67,
              "velocity": 110,
              "start": 84.5,
              "duration": 0.4892578125
            },
            {
              "id": 5348,
              "pitch": 67,
              "velocity": 110,
              "start": 86.5,
              "duration": 0.4892578125
            },
            {
              "id": 5347,
              "pitch": 67,
              "velocity": 110,
              "start": 87.0,
              "duration": 0.4892578125
            },
            {
              "id": 5346,
              "pitch": 67,
              "velocity": 110,
              "start": 87.5,
              "duration": 0.2392578125
            },
            {
              "id": 5345,
              "pitch": 67,
              "velocity": 110,
              "start": 87.75,
              "duration": 0.2392578125
            },
            {
              "id": 5344,
              "pitch": 65,
              "velocity": 110,
              "start": 88.0,
              "duration": 0.4892578125
            },
            {
              "id": 5343,
              "pitch": 36,
              "velocity": 110,
              "start": 88.0,
              "duration": 3.75
            },
            {
              "id": 5342,
              "pitch": 48,
              "velocity": 110,
              "start": 88.0,
              "duration": 3.75
            },
            {
              "id": 5341,
              "pitch": 65,
              "velocity": 110,
              "start": 88.5,
              "duration": 0.4892578125
            },
            {
              "id": 5340,
              "pitch": 65,
              "velocity": 110,
              "start": 90.5,
              "duration": 0.4892578125
            },
            {
              "id": 5339,
              "pitch": 65,
              "velocity": 110,
              "start": 91.0,
              "duration": 0.4892578125
            },
            {
              "id": 5338,
              "pitch": 65,
              "velocity": 110,
              "start": 91.5,
              "duration": 0.2392578125
            },
            {
              "id": 5337,
              "pitch": 65,
              "velocity": 110,
              "start": 91.75,
              "duration": 0.2392578125
            },
            {
              "id": 5336,
              "pitch": 64,
              "velocity": 110,
              "start": 92.0,
              "duration": 1.3330078125
            },
            {
              "id": 5335,
              "pitch": 36,
              "velocity": 110,
              "start": 92.0,
              "duration": 3.75
            },
            {
              "id": 5334,
              "pitch": 48,
              "velocity": 110,
              "start": 92.0,
              "duration": 3.75
            },
            {
              "id": 5333,
              "pitch": 64,
              "velocity": 110,
              "start": 93.5,
              "duration": 0.9892578125
            },
            {
              "id": 5332,
              "pitch": 67,
              "velocity": 110,
              "start": 94.5,
              "duration": 0.4892578125
            },
            {
              "id": 5331,
              "pitch": 69,
              "velocity": 110,
              "start": 95.0,
              "duration": 0.4892578125
            },
            {
              "id": 5330,
              "pitch": 67,
              "velocity": 110,
              "start": 95.5,
              "duration": 0.4892578125
            },
            {
              "id": 5329,
              "pitch": 60,
              "velocity": 110,
              "start": 96.0,
              "duration": 3.75
            },
            {
              "id": 5328,
              "pitch": 37,
              "velocity": 110,
              "start": 96.0,
              "duration": 3.75
            },
            {
              "id": 5327,
              "pitch": 49,
              "velocity": 110,
              "start": 96.0,
              "duration": 3.75
            },
            {
              "id": 5326,
              "pitch": 65,
              "velocity": 110,
              "start": 100.0,
              "duration": 1.3330078125
            },
            {
              "id": 5325,
              "pitch": 38,
              "velocity": 110,
              "start": 100.0,
              "duration": 3.75
            },
            {
              "id": 5324,
              "pitch": 50,
              "velocity": 110,
              "start": 100.0,
              "duration": 3.75
            },
            {
              "id": 5323,
              "pitch": 65,
              "velocity": 110,
              "start": 101.5,
              "duration": 0.9892578125
            },
            {
              "id": 5322,
              "pitch": 69,
              "velocity": 110,
              "start": 102.5,
              "duration": 0.4892578125
            },
            {
              "id": 5321,
              "pitch": 71,
              "velocity": 110,
              "start": 103.0,
              "duration": 0.4892578125
            },
            {
              "id": 5320,
              "pitch": 69,
              "velocity": 110,
              "start": 103.5,
              "duration": 0.4892578125
            },
            {
              "id": 5319,
              "pitch": 63,
              "velocity": 110,
              "start": 104.0,
              "duration": 3.75
            },
            {
              "id": 5318,
              "pitch": 39,
              "velocity": 110,
              "start": 104.0,
              "duration": 3.75
            },
            {
              "id": 5317,
              "pitch": 51,
              "velocity": 110,
              "start": 104.0,
              "duration": 3.75
            },
            {
              "id": 5316,
              "pitch": 67,
              "velocity": 110,
              "start": 108.0,
              "duration": 1.3330078125
            },
            {
              "id": 5315,
              "pitch": 40,
              "velocity": 110,
              "start": 108.0,
              "duration": 3.75
            },
            {
              "id": 5314,
              "pitch": 52,
              "velocity": 110,
              "start": 108.0,
              "duration": 3.75
            },
            {
              "id": 5313,
              "pitch": 67,
              "velocity": 110,
              "start": 109.5,
              "duration": 0.9892578125
            },
            {
              "id": 5312,
              "pitch": 72,
              "velocity": 110,
              "start": 110.5,
              "duration": 0.4892578125
            },
            {
              "id": 5311,
              "pitch": 74,
              "velocity": 110,
              "start": 111.0,
              "duration": 0.4892578125
            },
            {
              "id": 5310,
              "pitch": 72,
              "velocity": 110,
              "start": 111.5,
              "duration": 0.4892578125
            },
            {
              "id": 5309,
              "pitch": 79,
              "velocity": 110,
              "start": 112.0,
              "duration": 1.3330078125
            },
            {
              "id": 5308,
              "pitch": 39,
              "velocity": 110,
              "start": 112.0,
              "duration": 3.75
            },
            {
              "id": 5307,
              "pitch": 51,
              "velocity": 110,
              "start": 112.0,
              "duration": 3.75
            },
            {
              "id": 5306,
              "pitch": 77,
              "velocity": 110,
              "start": 113.5,
              "duration": 0.9892578125
            },
            {
              "id": 5305,
              "pitch": 72,
              "velocity": 110,
              "start": 114.5,
              "duration": 0.4892578125
            },
            {
              "id": 5304,
              "pitch": 67,
              "velocity": 110,
              "start": 115.0,
              "duration": 0.4892578125
            },
            {
              "id": 5303,
              "pitch": 65,
              "velocity": 110,
              "start": 115.5,
              "duration": 0.4892578125
            },
            {
              "id": 5302,
              "pitch": 76,
              "velocity": 110,
              "start": 116.0,
              "duration": 1.3330078125
            },
            {
              "id": 5301,
              "pitch": 38,
              "velocity": 110,
              "start": 116.0,
              "duration": 3.75
            },
            {
              "id": 5300,
              "pitch": 50,
              "velocity": 110,
              "start": 116.0,
              "duration": 3.75
            },
            {
              "id": 5299,
              "pitch": 72,
              "velocity": 110,
              "start": 117.5,
              "duration": 0.9892578125
            },
            {
              "id": 5298,
              "pitch": 69,
              "velocity": 110,
              "start": 118.5,
              "duration": 0.4892578125
            },
            {
              "id": 5297,
              "pitch": 65,
              "velocity": 110,
              "start": 119.0,
              "duration": 0.4892578125
            },
            {
              "id": 5296,
              "pitch": 64,
              "velocity": 110,
              "start": 119.5,
              "duration": 0.4892578125
            },
            {
              "id": 5295,
              "pitch": 63,
              "velocity": 110,
              "start": 120.0,
              "duration": 2.75
            },
            {
              "id": 5294,
              "pitch": 37,
              "velocity": 110,
              "start": 120.0,
              "duration": 7.75
            },
            {
              "id": 5293,
              "pitch": 49,
              "velocity": 110,
              "start": 120.0,
              "duration": 7.75
            },
            {
              "id": 5292,
              "pitch": 61,
              "velocity": 110,
              "start": 123.0,
              "duration": 4.75
            },
            {
              "id": 5291,
              "pitch": 48,
              "velocity": 110,
              "start": 128.0,
              "duration": 0.4892578125
            },
            {
              "id": 5290,
              "pitch": 60,
              "velocity": 110,
              "start": 128.0,
              "duration": 0.4892578125
            },
            {
              "id": 5289,
              "pitch": 45,
              "velocity": 110,
              "start": 128.5,
              "duration": 0.4892578125
            },
            {
              "id": 5288,
              "pitch": 57,
              "velocity": 110,
              "start": 128.5,
              "duration": 0.4892578125
            },
            {
              "id": 5287,
              "pitch": 48,
              "velocity": 110,
              "start": 129.0,
              "duration": 0.4892578125
            },
            {
              "id": 5286,
              "pitch": 60,
              "velocity": 110,
              "start": 129.0,
              "duration": 0.4892578125
            },
            {
              "id": 5285,
              "pitch": 62,
              "velocity": 110,
              "start": 129.5,
              "duration": 0.1142578125
            },
            {
              "id": 5284,
              "pitch": 50,
              "velocity": 110,
              "start": 129.625,
              "duration": 0.1142578125
            },
            {
              "id": 5283,
              "pitch": 48,
              "velocity": 110,
              "start": 129.75,
              "duration": 0.2392578125
            },
            {
              "id": 5282,
              "pitch": 60,
              "velocity": 110,
              "start": 129.75,
              "duration": 0.2392578125
            },
            {
              "id": 5281,
              "pitch": 40,
              "velocity": 110,
              "start": 130.25,
              "duration": 0.7392578125
            },
            {
              "id": 5280,
              "pitch": 52,
              "velocity": 110,
              "start": 130.25,
              "duration": 0.7392578125
            },
            {
              "id": 5279,
              "pitch": 41,
              "velocity": 110,
              "start": 131.0,
              "duration": 0.4892578125
            },
            {
              "id": 5278,
              "pitch": 53,
              "velocity": 110,
              "start": 131.0,
              "duration": 0.4892578125
            },
            {
              "id": 5277,
              "pitch": 42,
              "velocity": 110,
              "start": 131.5,
              "duration": 0.4892578125
            },
            {
              "id": 5276,
              "pitch": 54,
              "velocity": 110,
              "start": 131.5,
              "duration": 0.4892578125
            },
            {
              "id": 5275,
              "pitch": 43,
              "velocity": 110,
              "start": 132.0,
              "duration": 0.8330078125
            },
            {
              "id": 5274,
              "pitch": 55,
              "velocity": 110,
              "start": 132.0,
              "duration": 0.8330078125
            },
            {
              "id": 5273,
              "pitch": 43,
              "velocity": 110,
              "start": 133.0,
              "duration": 0.2392578125
            },
            {
              "id": 5272,
              "pitch": 55,
              "velocity": 110,
              "start": 133.0,
              "duration": 0.2392578125
            },
            {
              "id": 5271,
              "pitch": 43,
              "velocity": 110,
              "start": 133.25,
              "duration": 0.4892578125
            },
            {
              "id": 5270,
              "pitch": 55,
              "velocity": 110,
              "start": 133.25,
              "duration": 0.4892578125
            },
            {
              "id": 5269,
              "pitch": 43,
              "velocity": 110,
              "start": 133.75,
              "duration": 0.2392578125
            },
            {
              "id": 5268,
              "pitch": 55,
              "velocity": 110,
              "start": 133.75,
              "duration": 0.2392578125
            },
            {
              "id": 5267,
              "pitch": 62,
              "velocity": 110,
              "start": 135.5,
              "duration": 0.3642578125
            },
            {
              "id": 5266,
              "pitch": 64,
              "velocity": 110,
              "start": 136.0,
              "duration": 0.2392578125
            },
            {
              "id": 5265,
              "pitch": 52,
              "velocity": 110,
              "start": 136.0,
              "duration": 0.8330078125
            },
            {
              "id": 5264,
              "pitch": 55,
              "velocity": 110,
              "start": 136.0,
              "duration": 0.8330078125
            },
            {
              "id": 5263,
              "pitch": 63,
              "velocity": 110,
              "start": 136.25,
              "duration": 0.2392578125
            },
            {
              "id": 5262,
              "pitch": 64,
              "velocity": 110,
              "start": 136.5,
              "duration": 0.2392578125
            },
            {
              "id": 5261,
              "pitch": 67,
              "velocity": 110,
              "start": 136.75,
              "duration": 0.4892578125
            },
            {
              "id": 5260,
              "pitch": 52,
              "velocity": 110,
              "start": 137.0,
              "duration": 0.4892578125
            },
            {
              "id": 5259,
              "pitch": 55,
              "velocity": 110,
              "start": 137.0,
              "duration": 0.4892578125
            },
            {
              "id": 5258,
              "pitch": 69,
              "velocity": 110,
              "start": 137.25,
              "duration": 0.2392578125
            },
            {
              "id": 5257,
              "pitch": 67,
              "velocity": 110,
              "start": 137.5,
              "duration": 0.4892578125
            },
            {
              "id": 5256,
              "pitch": 52,
              "velocity": 110,
              "start": 137.5,
              "duration": 0.4892578125
            },
            {
              "id": 5255,
              "pitch": 55,
              "velocity": 110,
              "start": 137.5,
              "duration": 0.4892578125
            },
            {
              "id": 5254,
              "pitch": 60,
              "velocity": 110,
              "start": 138.0,
              "duration": 0.8330078125
            },
            {
              "id": 5253,
              "pitch": 52,
              "velocity": 110,
              "start": 138.5,
              "duration": 0.4892578125
            },
            {
              "id": 5252,
              "pitch": 55,
              "velocity": 110,
              "start": 138.5,
              "duration": 0.4892578125
            },
            {
              "id": 5251,
              "pitch": 52,
              "velocity": 110,
              "start": 139.0,
              "duration": 0.8330078125
            },
            {
              "id": 5250,
              "pitch": 55,
              "velocity": 110,
              "start": 139.0,
              "duration": 0.8330078125
            },
            {
              "id": 5249,
              "pitch": 55,
              "velocity": 110,
              "start": 139.5,
              "duration": 0.2392578125
            },
            {
              "id": 5248,
              "pitch": 56,
              "velocity": 110,
              "start": 139.75,
              "duration": 0.2392578125
            },
            {
              "id": 5247,
              "pitch": 57,
              "velocity": 110,
              "start": 140.0,
              "duration": 0.2392578125
            },
            {
              "id": 5246,
              "pitch": 53,
              "velocity": 110,
              "start": 140.0,
              "duration": 0.8330078125
            },
            {
              "id": 5245,
              "pitch": 57,
              "velocity": 110,
              "start": 140.0,
              "duration": 0.8330078125
            },
            {
              "id": 5244,
              "pitch": 56,
              "velocity": 110,
              "start": 140.25,
              "duration": 0.2392578125
            },
            {
              "id": 5243,
              "pitch": 57,
              "velocity": 110,
              "start": 140.5,
              "duration": 0.2392578125
            },
            {
              "id": 5242,
              "pitch": 60,
              "velocity": 110,
              "start": 140.75,
              "duration": 0.4892578125
            },
            {
              "id": 5241,
              "pitch": 53,
              "velocity": 110,
              "start": 141.0,
              "duration": 0.7392578125
            },
            {
              "id": 5240,
              "pitch": 57,
              "velocity": 110,
              "start": 141.0,
              "duration": 0.7392578125
            },
            {
              "id": 5239,
              "pitch": 62,
              "velocity": 110,
              "start": 141.25,
              "duration": 0.2392578125
            },
            {
              "id": 5238,
              "pitch": 60,
              "velocity": 110,
              "start": 141.5,
              "duration": 0.4892578125
            },
            {
              "id": 5237,
              "pitch": 53,
              "velocity": 110,
              "start": 141.75,
              "duration": 0.2392578125
            },
            {
              "id": 5236,
              "pitch": 57,
              "velocity": 110,
              "start": 141.75,
              "duration": 0.2392578125
            },
            {
              "id": 5235,
              "pitch": 57,
              "velocity": 110,
              "start": 142.0,
              "duration": 0.8330078125
            },
            {
              "id": 5234,
              "pitch": 53,
              "velocity": 110,
              "start": 142.5,
              "duration": 1.3330078125
            },
            {
              "id": 5233,
              "pitch": 57,
              "velocity": 110,
              "start": 142.5,
              "duration": 1.3330078125
            },
            {
              "id": 5232,
              "pitch": 57,
              "velocity": 110,
              "start": 143.5,
              "duration": 0.4892578125
            },
            {
              "id": 5231,
              "pitch": 55,
              "velocity": 110,
              "start": 144.0,
              "duration": 0.2392578125
            },
            {
              "id": 5230,
              "pitch": 52,
              "velocity": 110,
              "start": 144.0,
              "duration": 0.8330078125
            },
            {
              "id": 5229,
              "pitch": 55,
              "velocity": 110,
              "start": 144.0,
              "duration": 0.8330078125
            },
            {
              "id": 5228,
              "pitch": 52,
              "velocity": 110,
              "start": 144.25,
              "duration": 0.2392578125
            },
            {
              "id": 5227,
              "pitch": 53,
              "velocity": 110,
              "start": 144.5,
              "duration": 0.2392578125
            },
            {
              "id": 5226,
              "pitch": 67,
              "velocity": 110,
              "start": 144.75,
              "duration": 0.7392578125
            },
            {
              "id": 5225,
              "pitch": 52,
              "velocity": 110,
              "start": 145.0,
              "duration": 0.7392578125
            },
            {
              "id": 5224,
              "pitch": 55,
              "velocity": 110,
              "start": 145.0,
              "duration": 0.7392578125
            },
            {
              "id": 5223,
              "pitch": 55,
              "velocity": 110,
              "start": 145.5,
              "duration": 0.2392578125
            },
            {
              "id": 5222,
              "pitch": 52,
              "velocity": 110,
              "start": 145.75,
              "duration": 0.2392578125
            },
            {
              "id": 5221,
              "pitch": 52,
              "velocity": 110,
              "start": 145.75,
              "duration": 0.2392578125
            },
            {
              "id": 5220,
              "pitch": 55,
              "velocity": 110,
              "start": 145.75,
              "duration": 0.2392578125
            },
            {
              "id": 5219,
              "pitch": 53,
              "velocity": 110,
              "start": 146.0,
              "duration": 0.2392578125
            },
            {
              "id": 5218,
              "pitch": 67,
              "velocity": 110,
              "start": 146.25,
              "duration": 0.7392578125
            },
            {
              "id": 5217,
              "pitch": 52,
              "velocity": 110,
              "start": 146.5,
              "duration": 0.4892578125
            },
            {
              "id": 5216,
              "pitch": 55,
              "velocity": 110,
              "start": 146.5,
              "duration": 0.4892578125
            },
            {
              "id": 5215,
              "pitch": 55,
              "velocity": 110,
              "start": 147.0,
              "duration": 0.615234375
            },
            {
              "id": 5214,
              "pitch": 52,
              "velocity": 110,
              "start": 147.0,
              "duration": 0.8330078125
            },
            {
              "id": 5213,
              "pitch": 55,
              "velocity": 110,
              "start": 147.0,
              "duration": 0.8330078125
            },
            {
              "id": 5212,
              "pitch": 67,
              "velocity": 110,
              "start": 147.6259765625,
              "duration": 0.36328125
            },
            {
              "id": 5211,
              "pitch": 65,
              "velocity": 110,
              "start": 148.0,
              "duration": 0.4892578125
            },
            {
              "id": 5210,
              "pitch": 50,
              "velocity": 110,
              "start": 148.0,
              "duration": 0.8330078125
            },
            {
              "id": 5209,
              "pitch": 53,
              "velocity": 110,
              "start": 148.0,
              "duration": 0.8330078125
            },
            {
              "id": 5208,
              "pitch": 67,
              "velocity": 110,
              "start": 148.5,
              "duration": 0.4892578125
            },
            {
              "id": 5207,
              "pitch": 69,
              "velocity": 110,
              "start": 149.0,
              "duration": 0.2392578125
            },
            {
              "id": 5206,
              "pitch": 50,
              "velocity": 110,
              "start": 149.0,
              "duration": 0.7392578125
            },
            {
              "id": 5205,
              "pitch": 53,
              "velocity": 110,
              "start": 149.0,
              "duration": 0.7392578125
            },
            {
              "id": 5204,
              "pitch": 67,
              "velocity": 110,
              "start": 149.25,
              "duration": 0.4892578125
            },
            {
              "id": 5203,
              "pitch": 62,
              "velocity": 110,
              "start": 149.75,
              "duration": 1.0830078125
            },
            {
              "id": 5202,
              "pitch": 50,
              "velocity": 110,
              "start": 149.75,
              "duration": 0.2392578125
            },
            {
              "id": 5201,
              "pitch": 55,
              "velocity": 110,
              "start": 149.75,
              "duration": 0.2392578125
            },
            {
              "id": 5200,
              "pitch": 50,
              "velocity": 110,
              "start": 150.5,
              "duration": 0.9892578125
            },
            {
              "id": 5199,
              "pitch": 55,
              "velocity": 110,
              "start": 150.5,
              "duration": 0.9892578125
            },
            {
              "id": 5198,
              "pitch": 62,
              "velocity": 110,
              "start": 151.5,
              "duration": 0.3642578125
            },
            {
              "id": 5197,
              "pitch": 52,
              "velocity": 110,
              "start": 151.5,
              "duration": 0.4892578125
            },
            {
              "id": 5196,
              "pitch": 55,
              "velocity": 110,
              "start": 151.5,
              "duration": 0.4892578125
            },
            {
              "id": 5195,
              "pitch": 64,
              "velocity": 110,
              "start": 152.0,
              "duration": 0.2392578125
            },
            {
              "id": 5194,
              "pitch": 52,
              "velocity": 110,
              "start": 152.0,
              "duration": 0.8330078125
            },
            {
              "id": 5193,
              "pitch": 55,
              "velocity": 110,
              "start": 152.0,
              "duration": 0.8330078125
            },
            {
              "id": 5192,
              "pitch": 63,
              "velocity": 110,
              "start": 152.25,
              "duration": 0.2392578125
            },
            {
              "id": 5191,
              "pitch": 64,
              "velocity": 110,
              "start": 152.5,
              "duration": 0.2392578125
            },
            {
              "id": 5190,
              "pitch": 67,
              "velocity": 110,
              "start": 152.75,
              "duration": 0.4892578125
            },
            {
              "id": 5189,
              "pitch": 52,
              "velocity": 110,
              "start": 153.0,
              "duration": 0.4892578125
            },
            {
              "id": 5188,
              "pitch": 55,
              "velocity": 110,
              "start": 153.0,
              "duration": 0.4892578125
            },
            {
              "id": 5187,
              "pitch": 69,
              "velocity": 110,
              "start": 153.25,
              "duration": 0.2392578125
            },
            {
              "id": 5186,
              "pitch": 67,
              "velocity": 110,
              "start": 153.5,
              "duration": 0.4892578125
            },
            {
              "id": 5185,
              "pitch": 52,
              "velocity": 110,
              "start": 153.5,
              "duration": 0.4892578125
            },
            {
              "id": 5184,
              "pitch": 55,
              "velocity": 110,
              "start": 153.5,
              "duration": 0.4892578125
            },
            {
              "id": 5183,
              "pitch": 70,
              "velocity": 110,
              "start": 154.0,
              "duration": 0.8330078125
            },
            {
              "id": 5182,
              "pitch": 52,
              "velocity": 110,
              "start": 154.5,
              "duration": 0.4892578125
            },
            {
              "id": 5181,
              "pitch": 55,
              "velocity": 110,
              "start": 154.5,
              "duration": 0.4892578125
            },
            {
              "id": 5180,
              "pitch": 52,
              "velocity": 110,
              "start": 155.0,
              "duration": 0.8330078125
            },
            {
              "id": 5179,
              "pitch": 55,
              "velocity": 110,
              "start": 155.0,
              "duration": 0.8330078125
            },
            {
              "id": 5178,
              "pitch": 68,
              "velocity": 110,
              "start": 155.5,
              "duration": 0.4892578125
            },
            {
              "id": 5177,
              "pitch": 69,
              "velocity": 110,
              "start": 156.0,
              "duration": 0.2392578125
            },
            {
              "id": 5176,
              "pitch": 53,
              "velocity": 110,
              "start": 156.0,
              "duration": 0.8330078125
            },
            {
              "id": 5175,
              "pitch": 57,
              "velocity": 110,
              "start": 156.0,
              "duration": 0.8330078125
            },
            {
              "id": 5174,
              "pitch": 68,
              "velocity": 110,
              "start": 156.25,
              "duration": 0.2392578125
            },
            {
              "id": 5173,
              "pitch": 69,
              "velocity": 110,
              "start": 156.5,
              "duration": 0.2392578125
            },
            {
              "id": 5172,
              "pitch": 72,
              "velocity": 110,
              "start": 156.75,
              "duration": 0.4892578125
            },
            {
              "id": 5171,
              "pitch": 53,
              "velocity": 110,
              "start": 157.0,
              "duration": 0.7392578125
            },
            {
              "id": 5170,
              "pitch": 57,
              "velocity": 110,
              "start": 157.0,
              "duration": 0.7392578125
            },
            {
              "id": 5169,
              "pitch": 74,
              "velocity": 110,
              "start": 157.25,
              "duration": 0.2392578125
            },
            {
              "id": 5168,
              "pitch": 72,
              "velocity": 110,
              "start": 157.5,
              "duration": 0.4892578125
            },
            {
              "id": 5167,
              "pitch": 54,
              "velocity": 110,
              "start": 157.75,
              "duration": 0.2392578125
            },
            {
              "id": 5166,
              "pitch": 57,
              "velocity": 110,
              "start": 157.75,
              "duration": 0.2392578125
            },
            {
              "id": 5165,
              "pitch": 69,
              "velocity": 110,
              "start": 158.0,
              "duration": 0.8330078125
            },
            {
              "id": 5164,
              "pitch": 54,
              "velocity": 110,
              "start": 158.5,
              "duration": 0.4892578125
            },
            {
              "id": 5163,
              "pitch": 57,
              "velocity": 110,
              "start": 158.5,
              "duration": 0.4892578125
            },
            {
              "id": 5162,
              "pitch": 54,
              "velocity": 110,
              "start": 159.0,
              "duration": 0.8330078125
            },
            {
              "id": 5161,
              "pitch": 57,
              "velocity": 110,
              "start": 159.0,
              "duration": 0.8330078125
            },
            {
              "id": 5160,
              "pitch": 69,
              "velocity": 110,
              "start": 159.5,
              "duration": 0.4892578125
            },
            {
              "id": 5159,
              "pitch": 67,
              "velocity": 110,
              "start": 160.0,
              "duration": 0.2392578125
            },
            {
              "id": 5158,
              "pitch": 52,
              "velocity": 110,
              "start": 160.0,
              "duration": 0.8330078125
            },
            {
              "id": 5157,
              "pitch": 55,
              "velocity": 110,
              "start": 160.0,
              "duration": 0.8330078125
            },
            {
              "id": 5156,
              "pitch": 66,
              "velocity": 110,
              "start": 160.25,
              "duration": 0.2392578125
            },
            {
              "id": 5155,
              "pitch": 67,
              "velocity": 110,
              "start": 160.5,
              "duration": 0.2392578125
            },
            {
              "id": 5154,
              "pitch": 55,
              "velocity": 110,
              "start": 160.75,
              "duration": 0.7392578125
            },
            {
              "id": 5153,
              "pitch": 52,
              "velocity": 110,
              "start": 161.0,
              "duration": 0.4892578125
            },
            {
              "id": 5152,
              "pitch": 55,
              "velocity": 110,
              "start": 161.0,
              "duration": 0.4892578125
            },
            {
              "id": 5151,
              "pitch": 67,
              "velocity": 110,
              "start": 161.5,
              "duration": 0.2392578125
            },
            {
              "id": 5150,
              "pitch": 52,
              "velocity": 110,
              "start": 161.5,
              "duration": 0.4892578125
            },
            {
              "id": 5149,
              "pitch": 55,
              "velocity": 110,
              "start": 161.5,
              "duration": 0.4892578125
            },
            {
              "id": 5148,
              "pitch": 66,
              "velocity": 110,
              "start": 161.75,
              "duration": 0.2392578125
            },
            {
              "id": 5147,
              "pitch": 67,
              "velocity": 110,
              "start": 162.0,
              "duration": 0.2392578125
            },
            {
              "id": 5146,
              "pitch": 55,
              "velocity": 110,
              "start": 162.25,
              "duration": 0.4892578125
            },
            {
              "id": 5145,
              "pitch": 52,
              "velocity": 110,
              "start": 162.5,
              "duration": 0.4892578125
            },
            {
              "id": 5144,
              "pitch": 55,
              "velocity": 110,
              "start": 162.5,
              "duration": 0.4892578125
            },
            {
              "id": 5143,
              "pitch": 55,
              "velocity": 110,
              "start": 162.75,
              "duration": 0.2392578125
            },
            {
              "id": 5142,
              "pitch": 62,
              "velocity": 110,
              "start": 163.0,
              "duration": 0.4892578125
            },
            {
              "id": 5141,
              "pitch": 65,
              "velocity": 110,
              "start": 163.0,
              "duration": 0.4892578125
            },
            {
              "id": 5140,
              "pitch": 52,
              "velocity": 110,
              "start": 163.0,
              "duration": 0.8330078125
            },
            {
              "id": 5139,
              "pitch": 55,
              "velocity": 110,
              "start": 163.0,
              "duration": 0.8330078125
            },
            {
              "id": 5138,
              "pitch": 64,
              "velocity": 110,
              "start": 163.5,
              "duration": 0.4892578125
            },
            {
              "id": 5137,
              "pitch": 52,
              "velocity": 110,
              "start": 164.0,
              "duration": 2.75
            },
            {
              "id": 5136,
              "pitch": 60,
              "velocity": 110,
              "start": 164.0,
              "duration": 2.75
            },
            {
              "id": 5135,
              "pitch": 48,
              "velocity": 110,
              "start": 164.0,
              "duration": 0.8330078125
            },
            {
              "id": 5134,
              "pitch": 55,
              "velocity": 110,
              "start": 164.0,
              "duration": 0.8330078125
            },
            {
              "id": 5133,
              "pitch": 55,
              "velocity": 110,
              "start": 165.0,
              "duration": 0.2392578125
            },
            {
              "id": 5132,
              "pitch": 57,
              "velocity": 110,
              "start": 165.25,
              "duration": 0.4892578125
            },
            {
              "id": 5131,
              "pitch": 60,
              "velocity": 110,
              "start": 165.75,
              "duration": 0.2392578125
            },
            {
              "id": 5130,
              "pitch": 62,
              "velocity": 110,
              "start": 167.5,
              "duration": 0.2392578125
            },
            {
              "id": 5129,
              "pitch": 63,
              "velocity": 110,
              "start": 167.75,
              "duration": 0.2392578125
            },
            {
              "id": 5128,
              "pitch": 64,
              "velocity": 110,
              "start": 168.0,
              "duration": 0.2392578125
            },
            {
              "id": 5127,
              "pitch": 52,
              "velocity": 110,
              "start": 168.0,
              "duration": 0.4892578125
            },
            {
              "id": 5126,
              "pitch": 55,
              "velocity": 110,
              "start": 168.0,
              "duration": 0.4892578125
            },
            {
              "id": 5125,
              "pitch": 63,
              "velocity": 110,
              "start": 168.25,
              "duration": 0.2392578125
            },
            {
              "id": 5124,
              "pitch": 64,
              "velocity": 110,
              "start": 168.5,
              "duration": 0.2392578125
            },
            {
              "id": 5123,
              "pitch": 52,
              "velocity": 110,
              "start": 168.5,
              "duration": 0.4892578125
            },
            {
              "id": 5122,
              "pitch": 55,
              "velocity": 110,
              "start": 168.5,
              "duration": 0.4892578125
            },
            {
              "id": 5121,
              "pitch": 67,
              "velocity": 110,
              "start": 168.75,
              "duration": 0.4892578125
            },
            {
              "id": 5120,
              "pitch": 69,
              "velocity": 110,
              "start": 169.25,
              "duration": 0.2392578125
            },
            {
              "id": 5119,
              "pitch": 67,
              "velocity": 110,
              "start": 169.5,
              "duration": 0.4892578125
            },
            {
              "id": 5118,
              "pitch": 52,
              "velocity": 110,
              "start": 169.75,
              "duration": 0.2392578125
            },
            {
              "id": 5117,
              "pitch": 55,
              "velocity": 110,
              "start": 169.75,
              "duration": 0.2392578125
            },
            {
              "id": 5116,
              "pitch": 60,
              "velocity": 110,
              "start": 170.0,
              "duration": 0.8330078125
            },
            {
              "id": 5115,
              "pitch": 52,
              "velocity": 110,
              "start": 170.5,
              "duration": 0.4892578125
            },
            {
              "id": 5114,
              "pitch": 55,
              "velocity": 110,
              "start": 170.5,
              "duration": 0.4892578125
            },
            {
              "id": 5113,
              "pitch": 67,
              "velocity": 110,
              "start": 171.0,
              "duration": 0.4892578125
            },
            {
              "id": 5112,
              "pitch": 55,
              "velocity": 110,
              "start": 171.5,
              "duration": 0.2392578125
            },
            {
              "id": 5111,
              "pitch": 65,
              "velocity": 110,
              "start": 171.5,
              "duration": 0.1142578125
            },
            {
              "id": 5110,
              "pitch": 64,
              "velocity": 110,
              "start": 171.625,
              "duration": 0.1142578125
            },
            {
              "id": 5109,
              "pitch": 56,
              "velocity": 110,
              "start": 171.75,
              "duration": 0.2392578125
            },
            {
              "id": 5108,
              "pitch": 62,
              "velocity": 110,
              "start": 171.75,
              "duration": 0.1142578125
            },
            {
              "id": 5107,
              "pitch": 57,
              "velocity": 110,
              "start": 172.0,
              "duration": 0.2392578125
            },
            {
              "id": 5106,
              "pitch": 59,
              "velocity": 110,
              "start": 172.0,
              "duration": 0.1142578125
            },
            {
              "id": 5105,
              "pitch": 57,
              "velocity": 110,
              "start": 172.125,
              "duration": 0.1142578125
            },
            {
              "id": 5104,
              "pitch": 56,
              "velocity": 110,
              "start": 172.25,
              "duration": 0.2392578125
            },
            {
              "id": 5103,
              "pitch": 55,
              "velocity": 110,
              "start": 172.25,
              "duration": 0.1142578125
            },
            {
              "id": 5102,
              "pitch": 53,
              "velocity": 110,
              "start": 172.375,
              "duration": 0.1142578125
            },
            {
              "id": 5101,
              "pitch": 57,
              "velocity": 110,
              "start": 172.5,
              "duration": 0.2392578125
            },
            {
              "id": 5100,
              "pitch": 53,
              "velocity": 110,
              "start": 172.5,
              "duration": 0.4892578125
            },
            {
              "id": 5099,
              "pitch": 57,
              "velocity": 110,
              "start": 172.5,
              "duration": 0.4892578125
            },
            {
              "id": 5098,
              "pitch": 60,
              "velocity": 110,
              "start": 172.75,
              "duration": 0.4892578125
            },
            {
              "id": 5097,
              "pitch": 62,
              "velocity": 110,
              "start": 173.25,
              "duration": 0.2392578125
            },
            {
              "id": 5096,
              "pitch": 60,
              "velocity": 110,
              "start": 173.5,
              "duration": 0.4892578125
            },
            {
              "id": 5095,
              "pitch": 53,
              "velocity": 110,
              "start": 173.75,
              "duration": 0.2392578125
            },
            {
              "id": 5094,
              "pitch": 57,
              "velocity": 110,
              "start": 173.75,
              "duration": 0.2392578125
            },
            {
              "id": 5093,
              "pitch": 57,
              "velocity": 110,
              "start": 174.0,
              "duration": 0.8330078125
            },
            {
              "id": 5092,
              "pitch": 53,
              "velocity": 110,
              "start": 174.5,
              "duration": 0.4892578125
            },
            {
              "id": 5091,
              "pitch": 57,
              "velocity": 110,
              "start": 174.5,
              "duration": 0.4892578125
            },
            {
              "id": 5090,
              "pitch": 65,
              "velocity": 110,
              "start": 175.0,
              "duration": 0.4892578125
            },
            {
              "id": 5089,
              "pitch": 57,
              "velocity": 110,
              "start": 175.5,
              "duration": 0.4892578125
            },
            {
              "id": 5088,
              "pitch": 64,
              "velocity": 110,
              "start": 175.5,
              "duration": 0.1142578125
            },
            {
              "id": 5087,
              "pitch": 62,
              "velocity": 110,
              "start": 175.625,
              "duration": 0.1142578125
            },
            {
              "id": 5086,
              "pitch": 60,
              "velocity": 110,
              "start": 175.75,
              "duration": 0.1142578125
            },
            {
              "id": 5085,
              "pitch": 55,
              "velocity": 110,
              "start": 176.0,
              "duration": 0.2392578125
            },
            {
              "id": 5084,
              "pitch": 57,
              "velocity": 110,
              "start": 176.0,
              "duration": 0.1142578125
            },
            {
              "id": 5083,
              "pitch": 55,
              "velocity": 110,
              "start": 176.125,
              "duration": 0.1142578125
            },
            {
              "id": 5082,
              "pitch": 52,
              "velocity": 110,
              "start": 176.25,
              "duration": 0.2392578125
            },
            {
              "id": 5081,
              "pitch": 53,
              "velocity": 110,
              "start": 176.25,
              "duration": 0.1142578125
            },
            {
              "id": 5080,
              "pitch": 52,
              "velocity": 110,
              "start": 176.375,
              "duration": 0.3642578125
            },
            {
              "id": 5079,
              "pitch": 55,
              "velocity": 110,
              "start": 176.375,
              "duration": 0.3642578125
            },
            {
              "id": 5078,
              "pitch": 53,
              "velocity": 110,
              "start": 176.5,
              "duration": 0.2392578125
            },
            {
              "id": 5077,
              "pitch": 67,
              "velocity": 110,
              "start": 176.75,
              "duration": 0.8642578125
            },
            {
              "id": 5076,
              "pitch": 52,
              "velocity": 110,
              "start": 176.75,
              "duration": 0.2392578125
            },
            {
              "id": 5075,
              "pitch": 55,
              "velocity": 110,
              "start": 176.75,
              "duration": 0.2392578125
            },
            {
              "id": 5074,
              "pitch": 52,
              "velocity": 110,
              "start": 177.5,
              "duration": 0.4892578125
            },
            {
              "id": 5073,
              "pitch": 55,
              "velocity": 110,
              "start": 177.5,
              "duration": 0.4892578125
            },
            {
              "id": 5072,
              "pitch": 55,
              "velocity": 110,
              "start": 177.625,
              "duration": 0.1142578125
            },
            {
              "id": 5071,
              "pitch": 53,
              "velocity": 110,
              "start": 177.75,
              "duration": 0.2392578125
            },
            {
              "id": 5070,
              "pitch": 52,
              "velocity": 110,
              "start": 178.0,
              "duration": 0.2392578125
            },
            {
              "id": 5069,
              "pitch": 52,
              "velocity": 110,
              "start": 178.0,
              "duration": 1.75
            },
            {
              "id": 5068,
              "pitch": 55,
              "velocity": 110,
              "start": 178.0,
              "duration": 1.75
            },
            {
              "id": 5067,
              "pitch": 55,
              "velocity": 110,
              "start": 178.25,
              "duration": 0.7392578125
            },
            {
              "id": 5066,
              "pitch": 55,
              "velocity": 110,
              "start": 179.0,
              "duration": 0.615234375
            },
            {
              "id": 5065,
              "pitch": 67,
              "velocity": 110,
              "start": 179.6259765625,
              "duration": 0.36328125
            },
            {
              "id": 5064,
              "pitch": 65,
              "velocity": 110,
              "start": 180.0,
              "duration": 0.4892578125
            },
            {
              "id": 5063,
              "pitch": 53,
              "velocity": 110,
              "start": 180.0,
              "duration": 0.7392578125
            },
            {
              "id": 5062,
              "pitch": 57,
              "velocity": 110,
              "start": 180.0,
              "duration": 0.7392578125
            },
            {
              "id": 5061,
              "pitch": 67,
              "velocity": 110,
              "start": 180.5,
              "duration": 0.4892578125
            },
            {
              "id": 5060,
              "pitch": 60,
              "velocity": 110,
              "start": 180.75,
              "duration": 0.1142578125
            },
            {
              "id": 5059,
              "pitch": 55,
              "velocity": 110,
              "start": 180.875,
              "duration": 0.1142578125
            },
            {
              "id": 5058,
              "pitch": 69,
              "velocity": 110,
              "start": 181.0,
              "duration": 0.2392578125
            },
            {
              "id": 5057,
              "pitch": 67,
              "velocity": 110,
              "start": 181.25,
              "duration": 0.4892578125
            },
            {
              "id": 5056,
              "pitch": 55,
              "velocity": 110,
              "start": 181.5,
              "duration": 1.1142578125
            },
            {
              "id": 5055,
              "pitch": 62,
              "velocity": 110,
              "start": 181.5,
              "duration": 1.1142578125
            },
            {
              "id": 5054,
              "pitch": 62,
              "velocity": 110,
              "start": 181.75,
              "duration": 1.0830078125
            },
            {
              "id": 5053,
              "pitch": 60,
              "velocity": 110,
              "start": 182.625,
              "duration": 0.1142578125
            },
            {
              "id": 5052,
              "pitch": 59,
              "velocity": 110,
              "start": 182.75,
              "duration": 0.1142578125
            },
            {
              "id": 5051,
              "pitch": 57,
              "velocity": 110,
              "start": 182.875,
              "duration": 0.1142578125
            },
            {
              "id": 5050,
              "pitch": 55,
              "velocity": 110,
              "start": 183.0,
              "duration": 0.1142578125
            },
            {
              "id": 5049,
              "pitch": 53,
              "velocity": 110,
              "start": 183.125,
              "duration": 0.1142578125
            },
            {
              "id": 5048,
              "pitch": 50,
              "velocity": 110,
              "start": 183.25,
              "duration": 0.2392578125
            },
            {
              "id": 5047,
              "pitch": 62,
              "velocity": 110,
              "start": 183.5,
              "duration": 0.3642578125
            },
            {
              "id": 5046,
              "pitch": 48,
              "velocity": 110,
              "start": 183.5,
              "duration": 0.4892578125
            },
            {
              "id": 5045,
              "pitch": 52,
              "velocity": 110,
              "start": 183.5,
              "duration": 0.4892578125
            },
            {
              "id": 5044,
              "pitch": 64,
              "velocity": 110,
              "start": 184.0,
              "duration": 0.2392578125
            },
            {
              "id": 5043,
              "pitch": 52,
              "velocity": 110,
              "start": 184.0,
              "duration": 0.7392578125
            },
            {
              "id": 5042,
              "pitch": 55,
              "velocity": 110,
              "start": 184.0,
              "duration": 0.7392578125
            },
            {
              "id": 5041,
              "pitch": 63,
              "velocity": 110,
              "start": 184.25,
              "duration": 0.2392578125
            },
            {
              "id": 5040,
              "pitch": 64,
              "velocity": 110,
              "start": 184.5,
              "duration": 0.2392578125
            },
            {
              "id": 5039,
              "pitch": 67,
              "velocity": 110,
              "start": 184.75,
              "duration": 0.4892578125
            },
            {
              "id": 5038,
              "pitch": 52,
              "velocity": 110,
              "start": 184.75,
              "duration": 0.2392578125
            },
            {
              "id": 5037,
              "pitch": 55,
              "velocity": 110,
              "start": 184.75,
              "duration": 0.2392578125
            },
            {
              "id": 5036,
              "pitch": 69,
              "velocity": 110,
              "start": 185.25,
              "duration": 0.2392578125
            },
            {
              "id": 5035,
              "pitch": 67,
              "velocity": 110,
              "start": 185.5,
              "duration": 0.4892578125
            },
            {
              "id": 5034,
              "pitch": 52,
              "velocity": 110,
              "start": 185.5,
              "duration": 0.4892578125
            },
            {
              "id": 5033,
              "pitch": 55,
              "velocity": 110,
              "start": 185.5,
              "duration": 0.4892578125
            },
            {
              "id": 5032,
              "pitch": 70,
              "velocity": 110,
              "start": 186.0,
              "duration": 0.8330078125
            },
            {
              "id": 5031,
              "pitch": 52,
              "velocity": 110,
              "start": 186.5,
              "duration": 0.4892578125
            },
            {
              "id": 5030,
              "pitch": 60,
              "velocity": 110,
              "start": 186.5,
              "duration": 0.4892578125
            },
            {
              "id": 5029,
              "pitch": 62,
              "velocity": 110,
              "start": 187.0,
              "duration": 0.2392578125
            },
            {
              "id": 5028,
              "pitch": 64,
              "velocity": 110,
              "start": 187.25,
              "duration": 0.4892578125
            },
            {
              "id": 5027,
              "pitch": 68,
              "velocity": 110,
              "start": 187.5,
              "duration": 0.4892578125
            },
            {
              "id": 5026,
              "pitch": 60,
              "velocity": 110,
              "start": 187.75,
              "duration": 0.2392578125
            },
            {
              "id": 5025,
              "pitch": 69,
              "velocity": 110,
              "start": 188.0,
              "duration": 0.2392578125
            },
            {
              "id": 5024,
              "pitch": 53,
              "velocity": 110,
              "start": 188.0,
              "duration": 0.8330078125
            },
            {
              "id": 5023,
              "pitch": 57,
              "velocity": 110,
              "start": 188.0,
              "duration": 0.8330078125
            },
            {
              "id": 5022,
              "pitch": 68,
              "velocity": 110,
              "start": 188.25,
              "duration": 0.2392578125
            },
            {
              "id": 5021,
              "pitch": 69,
              "velocity": 110,
              "start": 188.5,
              "duration": 0.2392578125
            },
            {
              "id": 5020,
              "pitch": 72,
              "velocity": 110,
              "start": 188.75,
              "duration": 0.2392578125
            },
            {
              "id": 5019,
              "pitch": 53,
              "velocity": 110,
              "start": 189.0,
              "duration": 0.7392578125
            },
            {
              "id": 5018,
              "pitch": 57,
              "velocity": 110,
              "start": 189.0,
              "duration": 0.7392578125
            },
            {
              "id": 5017,
              "pitch": 74,
              "velocity": 110,
              "start": 189.25,
              "duration": 0.2392578125
            },
            {
              "id": 5016,
              "pitch": 72,
              "velocity": 110,
              "start": 189.5,
              "duration": 0.4892578125
            },
            {
              "id": 5015,
              "pitch": 54,
              "velocity": 110,
              "start": 189.75,
              "duration": 0.2392578125
            },
            {
              "id": 5014,
              "pitch": 57,
              "velocity": 110,
              "start": 189.75,
              "duration": 0.2392578125
            },
            {
              "id": 5013,
              "pitch": 69,
              "velocity": 110,
              "start": 190.0,
              "duration": 0.8330078125
            },
            {
              "id": 5012,
              "pitch": 54,
              "velocity": 110,
              "start": 190.5,
              "duration": 0.4892578125
            },
            {
              "id": 5011,
              "pitch": 60,
              "velocity": 110,
              "start": 190.5,
              "duration": 0.4892578125
            },
            {
              "id": 5010,
              "pitch": 63,
              "velocity": 110,
              "start": 191.0,
              "duration": 0.2392578125
            },
            {
              "id": 5009,
              "pitch": 62,
              "velocity": 110,
              "start": 191.25,
              "duration": 0.4892578125
            },
            {
              "id": 5008,
              "pitch": 69,
              "velocity": 110,
              "start": 191.5,
              "duration": 0.4892578125
            },
            {
              "id": 5007,
              "pitch": 55,
              "velocity": 110,
              "start": 191.75,
              "duration": 0.2392578125
            },
            {
              "id": 5006,
              "pitch": 60,
              "velocity": 110,
              "start": 191.75,
              "duration": 0.2392578125
            },
            {
              "id": 5005,
              "pitch": 67,
              "velocity": 110,
              "start": 192.0,
              "duration": 0.2392578125
            },
            {
              "id": 5004,
              "pitch": 66,
              "velocity": 110,
              "start": 192.25,
              "duration": 0.2392578125
            },
            {
              "id": 5003,
              "pitch": 67,
              "velocity": 110,
              "start": 192.5,
              "duration": 0.2392578125
            },
            {
              "id": 5002,
              "pitch": 52,
              "velocity": 110,
              "start": 192.5,
              "duration": 0.4892578125
            },
            {
              "id": 5001,
              "pitch": 55,
              "velocity": 110,
              "start": 192.5,
              "duration": 0.4892578125
            },
            {
              "id": 5000,
              "pitch": 55,
              "velocity": 110,
              "start": 192.75,
              "duration": 0.7392578125
            },
            {
              "id": 4999,
              "pitch": 67,
              "velocity": 110,
              "start": 193.5,
              "duration": 0.2392578125
            },
            {
              "id": 4998,
              "pitch": 66,
              "velocity": 110,
              "start": 193.75,
              "duration": 0.2392578125
            },
            {
              "id": 4997,
              "pitch": 52,
              "velocity": 110,
              "start": 193.75,
              "duration": 0.2392578125
            },
            {
              "id": 4996,
              "pitch": 55,
              "velocity": 110,
              "start": 193.75,
              "duration": 0.2392578125
            },
            {
              "id": 4995,
              "pitch": 67,
              "velocity": 110,
              "start": 194.0,
              "duration": 0.2392578125
            },
            {
              "id": 4994,
              "pitch": 55,
              "velocity": 110,
              "start": 194.25,
              "duration": 0.4892578125
            },
            {
              "id": 4993,
              "pitch": 52,
              "velocity": 110,
              "start": 194.5,
              "duration": 0.4892578125
            },
            {
              "id": 4992,
              "pitch": 55,
              "velocity": 110,
              "start": 194.5,
              "duration": 0.4892578125
            },
            {
              "id": 4991,
              "pitch": 55,
              "velocity": 110,
              "start": 194.75,
              "duration": 0.2392578125
            },
            {
              "id": 4990,
              "pitch": 65,
              "velocity": 110,
              "start": 195.0,
              "duration": 0.4892578125
            },
            {
              "id": 4989,
              "pitch": 64,
              "velocity": 110,
              "start": 195.5,
              "duration": 0.4892578125
            },
            {
              "id": 4988,
              "pitch": 52,
              "velocity": 110,
              "start": 195.5,
              "duration": 0.4892578125
            },
            {
              "id": 4987,
              "pitch": 55,
              "velocity": 110,
              "start": 195.5,
              "duration": 0.4892578125
            },
            {
              "id": 4986,
              "pitch": 60,
              "velocity": 110,
              "start": 196.0,
              "duration": 3.75
            },
            {
              "id": 4985,
              "pitch": 52,
              "velocity": 110,
              "start": 196.0,
              "duration": 0.8330078125
            },
            {
              "id": 4984,
              "pitch": 55,
              "velocity": 110,
              "start": 196.0,
              "duration": 0.8330078125
            },
            {
              "id": 4983,
              "pitch": 58,
              "velocity": 110,
              "start": 197.0,
              "duration": 0.2392578125
            },
            {
              "id": 4982,
              "pitch": 59,
              "velocity": 110,
              "start": 197.25,
              "duration": 0.4892578125
            },
            {
              "id": 4981,
              "pitch": 60,
              "velocity": 110,
              "start": 197.75,
              "duration": 1.0830078125
            },
            {
              "id": 4980,
              "pitch": 64,
              "velocity": 110,
              "start": 199.0,
              "duration": 0.3642578125
            },
            {
              "id": 4979,
              "pitch": 65,
              "velocity": 110,
              "start": 199.375,
              "duration": 0.1142578125
            },
            {
              "id": 4978,
              "pitch": 67,
              "velocity": 110,
              "start": 199.5,
              "duration": 0.2392578125
            },
            {
              "id": 4977,
              "pitch": 68,
              "velocity": 110,
              "start": 199.75,
              "duration": 0.2392578125
            },
            {
              "id": 4976,
              "pitch": 77,
              "velocity": 110,
              "start": 200.0,
              "duration": 1.3330078125
            },
            {
              "id": 4975,
              "pitch": 81,
              "velocity": 110,
              "start": 200.0,
              "duration": 1.3330078125
            },
            {
              "id": 4974,
              "pitch": 65,
              "velocity": 110,
              "start": 200.0,
              "duration": 1.3330078125
            },
            {
              "id": 4973,
              "pitch": 69,
              "velocity": 110,
              "start": 200.0,
              "duration": 1.3330078125
            },
            {
              "id": 4972,
              "pitch": 72,
              "velocity": 110,
              "start": 201.5,
              "duration": 0.4892578125
            },
            {
              "id": 4971,
              "pitch": 77,
              "velocity": 110,
              "start": 201.5,
              "duration": 0.4892578125
            },
            {
              "id": 4970,
              "pitch": 60,
              "velocity": 110,
              "start": 201.5,
              "duration": 0.4892578125
            },
            {
              "id": 4969,
              "pitch": 65,
              "velocity": 110,
              "start": 201.5,
              "duration": 0.4892578125
            },
            {
              "id": 4968,
              "pitch": 76,
              "velocity": 110,
              "start": 202.0,
              "duration": 1.3330078125
            },
            {
              "id": 4967,
              "pitch": 79,
              "velocity": 110,
              "start": 202.0,
              "duration": 1.3330078125
            },
            {
              "id": 4966,
              "pitch": 64,
              "velocity": 110,
              "start": 202.0,
              "duration": 1.3330078125
            },
            {
              "id": 4965,
              "pitch": 67,
              "velocity": 110,
              "start": 202.0,
              "duration": 1.3330078125
            },
            {
              "id": 4964,
              "pitch": 72,
              "velocity": 110,
              "start": 203.5,
              "duration": 0.4892578125
            },
            {
              "id": 4963,
              "pitch": 76,
              "velocity": 110,
              "start": 203.5,
              "duration": 0.4892578125
            },
            {
              "id": 4962,
              "pitch": 60,
              "velocity": 110,
              "start": 203.5,
              "duration": 0.4892578125
            },
            {
              "id": 4961,
              "pitch": 64,
              "velocity": 110,
              "start": 203.5,
              "duration": 0.4892578125
            },
            {
              "id": 4960,
              "pitch": 77,
              "velocity": 110,
              "start": 204.0,
              "duration": 0.7392578125
            },
            {
              "id": 4959,
              "pitch": 65,
              "velocity": 110,
              "start": 204.0,
              "duration": 0.7392578125
            },
            {
              "id": 4958,
              "pitch": 79,
              "velocity": 110,
              "start": 204.75,
              "duration": 0.2392578125
            },
            {
              "id": 4957,
              "pitch": 67,
              "velocity": 110,
              "start": 204.75,
              "duration": 0.2392578125
            },
            {
              "id": 4956,
              "pitch": 76,
              "velocity": 110,
              "start": 205.6259765625,
              "duration": 0.20703125
            },
            {
              "id": 4955,
              "pitch": 64,
              "velocity": 110,
              "start": 205.6259765625,
              "duration": 0.20703125
            },
            {
              "id": 4954,
              "pitch": 76,
              "velocity": 110,
              "start": 206.0,
              "duration": 0.3642578125
            },
            {
              "id": 4953,
              "pitch": 64,
              "velocity": 110,
              "start": 206.0,
              "duration": 0.3642578125
            },
            {
              "id": 4952,
              "pitch": 77,
              "velocity": 110,
              "start": 206.375,
              "duration": 0.1142578125
            },
            {
              "id": 4951,
              "pitch": 65,
              "velocity": 110,
              "start": 206.375,
              "duration": 0.1142578125
            },
            {
              "id": 4950,
              "pitch": 79,
              "velocity": 110,
              "start": 206.5,
              "duration": 0.2392578125
            },
            {
              "id": 4949,
              "pitch": 67,
              "velocity": 110,
              "start": 206.5,
              "duration": 0.2392578125
            },
            {
              "id": 4948,
              "pitch": 80,
              "velocity": 110,
              "start": 206.75,
              "duration": 0.2392578125
            },
            {
              "id": 4947,
              "pitch": 68,
              "velocity": 110,
              "start": 206.75,
              "duration": 0.2392578125
            },
            {
              "id": 4946,
              "pitch": 77,
              "velocity": 110,
              "start": 208.0,
              "duration": 1.3330078125
            },
            {
              "id": 4945,
              "pitch": 81,
              "velocity": 110,
              "start": 208.0,
              "duration": 1.3330078125
            },
            {
              "id": 4944,
              "pitch": 65,
              "velocity": 110,
              "start": 208.0,
              "duration": 1.3330078125
            },
            {
              "id": 4943,
              "pitch": 69,
              "velocity": 110,
              "start": 208.0,
              "duration": 1.3330078125
            },
            {
              "id": 4942,
              "pitch": 77,
              "velocity": 110,
              "start": 209.5,
              "duration": 0.4892578125
            },
            {
              "id": 4941,
              "pitch": 80,
              "velocity": 110,
              "start": 209.5,
              "duration": 0.4892578125
            },
            {
              "id": 4940,
              "pitch": 65,
              "velocity": 110,
              "start": 209.5,
              "duration": 0.4892578125
            },
            {
              "id": 4939,
              "pitch": 68,
              "velocity": 110,
              "start": 209.5,
              "duration": 0.4892578125
            },
            {
              "id": 4938,
              "pitch": 76,
              "velocity": 110,
              "start": 210.0,
              "duration": 1.3330078125
            },
            {
              "id": 4937,
              "pitch": 79,
              "velocity": 110,
              "start": 210.0,
              "duration": 1.3330078125
            },
            {
              "id": 4936,
              "pitch": 64,
              "velocity": 110,
              "start": 210.0,
              "duration": 1.3330078125
            },
            {
              "id": 4935,
              "pitch": 67,
              "velocity": 110,
              "start": 210.0,
              "duration": 1.3330078125
            },
            {
              "id": 4934,
              "pitch": 78,
              "velocity": 110,
              "start": 211.5,
              "duration": 0.4892578125
            },
            {
              "id": 4933,
              "pitch": 66,
              "velocity": 110,
              "start": 211.5,
              "duration": 0.4892578125
            },
            {
              "id": 4932,
              "pitch": 77,
              "velocity": 110,
              "start": 212.0,
              "duration": 0.7392578125
            },
            {
              "id": 4931,
              "pitch": 65,
              "velocity": 110,
              "start": 212.0,
              "duration": 0.7392578125
            },
            {
              "id": 4930,
              "pitch": 76,
              "velocity": 110,
              "start": 212.75,
              "duration": 0.7392578125
            },
            {
              "id": 4929,
              "pitch": 64,
              "velocity": 110,
              "start": 212.75,
              "duration": 0.7392578125
            },
            {
              "id": 4928,
              "pitch": 72,
              "velocity": 110,
              "start": 213.5,
              "duration": 1.3330078125
            },
            {
              "id": 4927,
              "pitch": 60,
              "velocity": 110,
              "start": 213.5,
              "duration": 1.3330078125
            },
            {
              "id": 4926,
              "pitch": 77,
              "velocity": 110,
              "start": 216.0,
              "duration": 0.4892578125
            },
            {
              "id": 4925,
              "pitch": 81,
              "velocity": 110,
              "start": 216.0,
              "duration": 0.4892578125
            },
            {
              "id": 4924,
              "pitch": 65,
              "velocity": 110,
              "start": 216.0,
              "duration": 0.4892578125
            },
            {
              "id": 4923,
              "pitch": 69,
              "velocity": 110,
              "start": 216.0,
              "duration": 0.4892578125
            },
            {
              "id": 4922,
              "pitch": 77,
              "velocity": 110,
              "start": 216.5,
              "duration": 0.4892578125
            },
            {
              "id": 4921,
              "pitch": 81,
              "velocity": 110,
              "start": 216.5,
              "duration": 0.4892578125
            },
            {
              "id": 4920,
              "pitch": 65,
              "velocity": 110,
              "start": 216.5,
              "duration": 0.4892578125
            },
            {
              "id": 4919,
              "pitch": 69,
              "velocity": 110,
              "start": 216.5,
              "duration": 0.4892578125
            },
            {
              "id": 4918,
              "pitch": 77,
              "velocity": 110,
              "start": 217.0,
              "duration": 0.4892578125
            },
            {
              "id": 4917,
              "pitch": 80,
              "velocity": 110,
              "start": 217.0,
              "duration": 0.4892578125
            },
            {
              "id": 4916,
              "pitch": 65,
              "velocity": 110,
              "start": 217.0,
              "duration": 0.4892578125
            },
            {
              "id": 4915,
              "pitch": 68,
              "velocity": 110,
              "start": 217.0,
              "duration": 0.4892578125
            },
            {
              "id": 4914,
              "pitch": 77,
              "velocity": 110,
              "start": 217.5,
              "duration": 0.4892578125
            },
            {
              "id": 4913,
              "pitch": 80,
              "velocity": 110,
              "start": 217.5,
              "duration": 0.4892578125
            },
            {
              "id": 4912,
              "pitch": 65,
              "velocity": 110,
              "start": 217.5,
              "duration": 0.4892578125
            },
            {
              "id": 4911,
              "pitch": 68,
              "velocity": 110,
              "start": 217.5,
              "duration": 0.4892578125
            },
            {
              "id": 4910,
              "pitch": 76,
              "velocity": 110,
              "start": 218.0,
              "duration": 0.4892578125
            },
            {
              "id": 4909,
              "pitch": 79,
              "velocity": 110,
              "start": 218.0,
              "duration": 0.4892578125
            },
            {
              "id": 4908,
              "pitch": 64,
              "velocity": 110,
              "start": 218.0,
              "duration": 0.4892578125
            },
            {
              "id": 4907,
              "pitch": 67,
              "velocity": 110,
              "start": 218.0,
              "duration": 0.4892578125
            },
            {
              "id": 4906,
              "pitch": 76,
              "velocity": 110,
              "start": 218.5,
              "duration": 0.4892578125
            },
            {
              "id": 4905,
              "pitch": 79,
              "velocity": 110,
              "start": 218.5,
              "duration": 0.4892578125
            },
            {
              "id": 4904,
              "pitch": 64,
              "velocity": 110,
              "start": 218.5,
              "duration": 0.4892578125
            },
            {
              "id": 4903,
              "pitch": 67,
              "velocity": 110,
              "start": 218.5,
              "duration": 0.4892578125
            },
            {
              "id": 4902,
              "pitch": 75,
              "velocity": 110,
              "start": 219.0,
              "duration": 0.4892578125
            },
            {
              "id": 4901,
              "pitch": 78,
              "velocity": 110,
              "start": 219.0,
              "duration": 0.4892578125
            },
            {
              "id": 4900,
              "pitch": 63,
              "velocity": 110,
              "start": 219.0,
              "duration": 0.4892578125
            },
            {
              "id": 4899,
              "pitch": 66,
              "velocity": 110,
              "start": 219.0,
              "duration": 0.4892578125
            },
            {
              "id": 4898,
              "pitch": 75,
              "velocity": 110,
              "start": 219.5,
              "duration": 0.4892578125
            },
            {
              "id": 4897,
              "pitch": 78,
              "velocity": 110,
              "start": 219.5,
              "duration": 0.4892578125
            },
            {
              "id": 4896,
              "pitch": 63,
              "velocity": 110,
              "start": 219.5,
              "duration": 0.4892578125
            },
            {
              "id": 4895,
              "pitch": 66,
              "velocity": 110,
              "start": 219.5,
              "duration": 0.4892578125
            },
            {
              "id": 4894,
              "pitch": 74,
              "velocity": 110,
              "start": 220.0,
              "duration": 0.7392578125
            },
            {
              "id": 4893,
              "pitch": 77,
              "velocity": 110,
              "start": 220.0,
              "duration": 0.7392578125
            },
            {
              "id": 4892,
              "pitch": 62,
              "velocity": 110,
              "start": 220.0,
              "duration": 0.7392578125
            },
            {
              "id": 4891,
              "pitch": 65,
              "velocity": 110,
              "start": 220.0,
              "duration": 0.7392578125
            },
            {
              "id": 4890,
              "pitch": 76,
              "velocity": 110,
              "start": 220.75,
              "duration": 0.2392578125
            },
            {
              "id": 4889,
              "pitch": 79,
              "velocity": 110,
              "start": 220.75,
              "duration": 0.2392578125
            },
            {
              "id": 4888,
              "pitch": 64,
              "velocity": 110,
              "start": 220.75,
              "duration": 0.2392578125
            },
            {
              "id": 4887,
              "pitch": 67,
              "velocity": 110,
              "start": 220.75,
              "duration": 0.2392578125
            },
            {
              "id": 4886,
              "pitch": 72,
              "velocity": 110,
              "start": 221.5,
              "duration": 2.25
            },
            {
              "id": 4885,
              "pitch": 76,
              "velocity": 110,
              "start": 221.5,
              "duration": 2.25
            },
            {
              "id": 4884,
              "pitch": 60,
              "velocity": 110,
              "start": 221.5,
              "duration": 2.25
            },
            {
              "id": 4883,
              "pitch": 64,
              "velocity": 110,
              "start": 221.5,
              "duration": 2.25
            },
            {
              "id": 4882,
              "pitch": 77,
              "velocity": 110,
              "start": 224.0,
              "duration": 0.4892578125
            },
            {
              "id": 4881,
              "pitch": 81,
              "velocity": 110,
              "start": 224.0,
              "duration": 0.4892578125
            },
            {
              "id": 4880,
              "pitch": 65,
              "velocity": 110,
              "start": 224.0,
              "duration": 0.4892578125
            },
            {
              "id": 4879,
              "pitch": 69,
              "velocity": 110,
              "start": 224.0,
              "duration": 0.4892578125
            },
            {
              "id": 4878,
              "pitch": 77,
              "velocity": 110,
              "start": 224.5,
              "duration": 0.4892578125
            },
            {
              "id": 4877,
              "pitch": 81,
              "velocity": 110,
              "start": 224.5,
              "duration": 0.4892578125
            },
            {
              "id": 4876,
              "pitch": 65,
              "velocity": 110,
              "start": 224.5,
              "duration": 0.4892578125
            },
            {
              "id": 4875,
              "pitch": 69,
              "velocity": 110,
              "start": 224.5,
              "duration": 0.4892578125
            },
            {
              "id": 4874,
              "pitch": 77,
              "velocity": 110,
              "start": 225.0,
              "duration": 0.4892578125
            },
            {
              "id": 4873,
              "pitch": 80,
              "velocity": 110,
              "start": 225.0,
              "duration": 0.4892578125
            },
            {
              "id": 4872,
              "pitch": 65,
              "velocity": 110,
              "start": 225.0,
              "duration": 0.4892578125
            },
            {
              "id": 4871,
              "pitch": 68,
              "velocity": 110,
              "start": 225.0,
              "duration": 0.4892578125
            },
            {
              "id": 4870,
              "pitch": 77,
              "velocity": 110,
              "start": 225.5,
              "duration": 0.4892578125
            },
            {
              "id": 4869,
              "pitch": 80,
              "velocity": 110,
              "start": 225.5,
              "duration": 0.4892578125
            },
            {
              "id": 4868,
              "pitch": 65,
              "velocity": 110,
              "start": 225.5,
              "duration": 0.4892578125
            },
            {
              "id": 4867,
              "pitch": 68,
              "velocity": 110,
              "start": 225.5,
              "duration": 0.4892578125
            },
            {
              "id": 4866,
              "pitch": 76,
              "velocity": 110,
              "start": 226.0,
              "duration": 0.4892578125
            },
            {
              "id": 4865,
              "pitch": 79,
              "velocity": 110,
              "start": 226.0,
              "duration": 0.4892578125
            },
            {
              "id": 4864,
              "pitch": 64,
              "velocity": 110,
              "start": 226.0,
              "duration": 0.4892578125
            },
            {
              "id": 4863,
              "pitch": 67,
              "velocity": 110,
              "start": 226.0,
              "duration": 0.4892578125
            },
            {
              "id": 4862,
              "pitch": 76,
              "velocity": 110,
              "start": 226.5,
              "duration": 0.4892578125
            },
            {
              "id": 4861,
              "pitch": 79,
              "velocity": 110,
              "start": 226.5,
              "duration": 0.4892578125
            },
            {
              "id": 4860,
              "pitch": 64,
              "velocity": 110,
              "start": 226.5,
              "duration": 0.4892578125
            },
            {
              "id": 4859,
              "pitch": 67,
              "velocity": 110,
              "start": 226.5,
              "duration": 0.4892578125
            },
            {
              "id": 4858,
              "pitch": 75,
              "velocity": 110,
              "start": 227.0,
              "duration": 0.4892578125
            },
            {
              "id": 4857,
              "pitch": 78,
              "velocity": 110,
              "start": 227.0,
              "duration": 0.4892578125
            },
            {
              "id": 4856,
              "pitch": 63,
              "velocity": 110,
              "start": 227.0,
              "duration": 0.4892578125
            },
            {
              "id": 4855,
              "pitch": 66,
              "velocity": 110,
              "start": 227.0,
              "duration": 0.4892578125
            },
            {
              "id": 4854,
              "pitch": 75,
              "velocity": 110,
              "start": 227.5,
              "duration": 0.4892578125
            },
            {
              "id": 4853,
              "pitch": 78,
              "velocity": 110,
              "start": 227.5,
              "duration": 0.4892578125
            },
            {
              "id": 4852,
              "pitch": 63,
              "velocity": 110,
              "start": 227.5,
              "duration": 0.4892578125
            },
            {
              "id": 4851,
              "pitch": 66,
              "velocity": 110,
              "start": 227.5,
              "duration": 0.4892578125
            },
            {
              "id": 4850,
              "pitch": 74,
              "velocity": 110,
              "start": 228.0,
              "duration": 0.7392578125
            },
            {
              "id": 4849,
              "pitch": 77,
              "velocity": 110,
              "start": 228.0,
              "duration": 0.7392578125
            },
            {
              "id": 4848,
              "pitch": 62,
              "velocity": 110,
              "start": 228.0,
              "duration": 0.7392578125
            },
            {
              "id": 4847,
              "pitch": 65,
              "velocity": 110,
              "start": 228.0,
              "duration": 0.7392578125
            },
            {
              "id": 4846,
              "pitch": 72,
              "velocity": 110,
              "start": 228.75,
              "duration": 0.2392578125
            },
            {
              "id": 4845,
              "pitch": 76,
              "velocity": 110,
              "start": 228.75,
              "duration": 0.2392578125
            },
            {
              "id": 4844,
              "pitch": 60,
              "velocity": 110,
              "start": 228.75,
              "duration": 0.2392578125
            },
            {
              "id": 4843,
              "pitch": 64,
              "velocity": 110,
              "start": 228.75,
              "duration": 0.2392578125
            },
            {
              "id": 4842,
              "pitch": 67,
              "velocity": 110,
              "start": 229.5,
              "duration": 2.25
            },
            {
              "id": 4841,
              "pitch": 72,
              "velocity": 110,
              "start": 229.5,
              "duration": 2.25
            },
            {
              "id": 4840,
              "pitch": 55,
              "velocity": 110,
              "start": 229.5,
              "duration": 2.25
            },
            {
              "id": 4839,
              "pitch": 60,
              "velocity": 110,
              "start": 229.5,
              "duration": 2.25
            },
            {
              "id": 4838,
              "pitch": 72,
              "velocity": 110,
              "start": 232.0,
              "duration": 0.2392578125
            },
            {
              "id": 4837,
              "pitch": 60,
              "velocity": 110,
              "start": 232.0,
              "duration": 0.2392578125
            },
            {
              "id": 4836,
              "pitch": 64,
              "velocity": 110,
              "start": 232.25,
              "duration": 0.4892578125
            },
            {
              "id": 4835,
              "pitch": 52,
              "velocity": 110,
              "start": 232.25,
              "duration": 0.4892578125
            },
            {
              "id": 4834,
              "pitch": 70,
              "velocity": 110,
              "start": 232.75,
              "duration": 0.2392578125
            },
            {
              "id": 4833,
              "pitch": 58,
              "velocity": 110,
              "start": 232.75,
              "duration": 0.2392578125
            },
            {
              "id": 4832,
              "pitch": 72,
              "velocity": 110,
              "start": 234.0,
              "duration": 0.2392578125
            },
            {
              "id": 4831,
              "pitch": 60,
              "velocity": 110,
              "start": 234.0,
              "duration": 0.2392578125
            },
            {
              "id": 4830,
              "pitch": 64,
              "velocity": 110,
              "start": 234.25,
              "duration": 0.4892578125
            },
            {
              "id": 4829,
              "pitch": 52,
              "velocity": 110,
              "start": 234.25,
              "duration": 0.4892578125
            },
            {
              "id": 4828,
              "pitch": 70,
              "velocity": 110,
              "start": 234.75,
              "duration": 0.2392578125
            },
            {
              "id": 4827,
              "pitch": 58,
              "velocity": 110,
              "start": 234.75,
              "duration": 0.2392578125
            },
            {
              "id": 4826,
              "pitch": 69,
              "velocity": 110,
              "start": 236.0,
              "duration": 0.2392578125
            },
            {
              "id": 4825,
              "pitch": 57,
              "velocity": 110,
              "start": 236.0,
              "duration": 0.2392578125
            },
            {
              "id": 4824,
              "pitch": 60,
              "velocity": 110,
              "start": 236.25,
              "duration": 0.4892578125
            },
            {
              "id": 4823,
              "pitch": 48,
              "velocity": 110,
              "start": 236.25,
              "duration": 0.4892578125
            },
            {
              "id": 4822,
              "pitch": 63,
              "velocity": 110,
              "start": 236.75,
              "duration": 0.2392578125
            },
            {
              "id": 4821,
              "pitch": 51,
              "velocity": 110,
              "start": 236.75,
              "duration": 0.2392578125
            },
            {
              "id": 4820,
              "pitch": 69,
              "velocity": 110,
              "start": 238.0,
              "duration": 0.2392578125
            },
            {
              "id": 4819,
              "pitch": 57,
              "velocity": 110,
              "start": 238.0,
              "duration": 0.2392578125
            },
            {
              "id": 4818,
              "pitch": 60,
              "velocity": 110,
              "start": 238.25,
              "duration": 0.4892578125
            },
            {
              "id": 4817,
              "pitch": 48,
              "velocity": 110,
              "start": 238.25,
              "duration": 0.4892578125
            },
            {
              "id": 4816,
              "pitch": 63,
              "velocity": 110,
              "start": 238.75,
              "duration": 0.2392578125
            },
            {
              "id": 4815,
              "pitch": 51,
              "velocity": 110,
              "start": 238.75,
              "duration": 0.2392578125
            },
            {
              "id": 4814,
              "pitch": 72,
              "velocity": 110,
              "start": 240.0,
              "duration": 0.2392578125
            },
            {
              "id": 4813,
              "pitch": 60,
              "velocity": 110,
              "start": 240.0,
              "duration": 0.2392578125
            },
            {
              "id": 4812,
              "pitch": 64,
              "velocity": 110,
              "start": 240.25,
              "duration": 0.4892578125
            },
            {
              "id": 4811,
              "pitch": 52,
              "velocity": 110,
              "start": 240.25,
              "duration": 0.4892578125
            },
            {
              "id": 4810,
              "pitch": 70,
              "velocity": 110,
              "start": 240.75,
              "duration": 0.2392578125
            },
            {
              "id": 4809,
              "pitch": 58,
              "velocity": 110,
              "start": 240.75,
              "duration": 0.2392578125
            },
            {
              "id": 4808,
              "pitch": 72,
              "velocity": 110,
              "start": 242.0,
              "duration": 0.2392578125
            },
            {
              "id": 4807,
              "pitch": 60,
              "velocity": 110,
              "start": 242.0,
              "duration": 0.2392578125
            },
            {
              "id": 4806,
              "pitch": 64,
              "velocity": 110,
              "start": 242.25,
              "duration": 0.4892578125
            },
            {
              "id": 4805,
              "pitch": 52,
              "velocity": 110,
              "start": 242.25,
              "duration": 0.4892578125
            },
            {
              "id": 4804,
              "pitch": 70,
              "velocity": 110,
              "start": 242.75,
              "duration": 0.2392578125
            },
            {
              "id": 4803,
              "pitch": 58,
              "velocity": 110,
              "start": 242.75,
              "duration": 0.2392578125
            },
            {
              "id": 4802,
              "pitch": 65,
              "velocity": 110,
              "start": 244.0,
              "duration": 0.4892578125
            },
            {
              "id": 4801,
              "pitch": 69,
              "velocity": 110,
              "start": 244.0,
              "duration": 0.4892578125
            },
            {
              "id": 4800,
              "pitch": 53,
              "velocity": 110,
              "start": 244.0,
              "duration": 0.4892578125
            },
            {
              "id": 4799,
              "pitch": 57,
              "velocity": 110,
              "start": 244.0,
              "duration": 0.4892578125
            },
            {
              "id": 4798,
              "pitch": 65,
              "velocity": 110,
              "start": 244.5,
              "duration": 0.4892578125
            },
            {
              "id": 4797,
              "pitch": 69,
              "velocity": 110,
              "start": 244.5,
              "duration": 0.4892578125
            },
            {
              "id": 4796,
              "pitch": 53,
              "velocity": 110,
              "start": 244.5,
              "duration": 0.4892578125
            },
            {
              "id": 4795,
              "pitch": 57,
              "velocity": 110,
              "start": 244.5,
              "duration": 0.4892578125
            },
            {
              "id": 4794,
              "pitch": 65,
              "velocity": 110,
              "start": 245.0,
              "duration": 0.4892578125
            },
            {
              "id": 4793,
              "pitch": 69,
              "velocity": 110,
              "start": 245.0,
              "duration": 0.4892578125
            },
            {
              "id": 4792,
              "pitch": 53,
              "velocity": 110,
              "start": 245.0,
              "duration": 0.4892578125
            },
            {
              "id": 4791,
              "pitch": 57,
              "velocity": 110,
              "start": 245.0,
              "duration": 0.4892578125
            },
            {
              "id": 4790,
              "pitch": 65,
              "velocity": 110,
              "start": 245.5,
              "duration": 0.4892578125
            },
            {
              "id": 4789,
              "pitch": 69,
              "velocity": 110,
              "start": 245.5,
              "duration": 0.4892578125
            },
            {
              "id": 4788,
              "pitch": 53,
              "velocity": 110,
              "start": 245.5,
              "duration": 0.4892578125
            },
            {
              "id": 4787,
              "pitch": 57,
              "velocity": 110,
              "start": 245.5,
              "duration": 0.4892578125
            },
            {
              "id": 4786,
              "pitch": 65,
              "velocity": 110,
              "start": 246.0,
              "duration": 0.8330078125
            },
            {
              "id": 4785,
              "pitch": 68,
              "velocity": 110,
              "start": 246.0,
              "duration": 0.8330078125
            },
            {
              "id": 4784,
              "pitch": 53,
              "velocity": 110,
              "start": 246.0,
              "duration": 0.8330078125
            },
            {
              "id": 4783,
              "pitch": 56,
              "velocity": 110,
              "start": 246.0,
              "duration": 0.8330078125
            },
            {
              "id": 4782,
              "pitch": 67,
              "velocity": 110,
              "start": 247.0,
              "duration": 0.1142578125
            },
            {
              "id": 4781,
              "pitch": 55,
              "velocity": 110,
              "start": 247.0,
              "duration": 0.1142578125
            },
            {
              "id": 4780,
              "pitch": 65,
              "velocity": 110,
              "start": 247.125,
              "duration": 0.1142578125
            },
            {
              "id": 4779,
              "pitch": 53,
              "velocity": 110,
              "start": 247.125,
              "duration": 0.1142578125
            },
            {
              "id": 4778,
              "pitch": 64,
              "velocity": 110,
              "start": 247.25,
              "duration": 0.1142578125
            },
            {
              "id": 4777,
              "pitch": 52,
              "velocity": 110,
              "start": 247.25,
              "duration": 0.1142578125
            },
            {
              "id": 4776,
              "pitch": 62,
              "velocity": 110,
              "start": 247.375,
              "duration": 0.1142578125
            },
            {
              "id": 4775,
              "pitch": 50,
              "velocity": 110,
              "start": 247.375,
              "duration": 0.1142578125
            },
            {
              "id": 4774,
              "pitch": 60,
              "velocity": 110,
              "start": 247.5,
              "duration": 0.1142578125
            },
            {
              "id": 4773,
              "pitch": 48,
              "velocity": 110,
              "start": 247.5,
              "duration": 0.1142578125
            },
            {
              "id": 4772,
              "pitch": 58,
              "velocity": 110,
              "start": 247.625,
              "duration": 0.1142578125
            },
            {
              "id": 4771,
              "pitch": 46,
              "velocity": 110,
              "start": 247.625,
              "duration": 0.1142578125
            },
            {
              "id": 4770,
              "pitch": 55,
              "velocity": 110,
              "start": 247.75,
              "duration": 0.2392578125
            },
            {
              "id": 4769,
              "pitch": 43,
              "velocity": 110,
              "start": 247.75,
              "duration": 0.2392578125
            },
            {
              "id": 4768,
              "pitch": 72,
              "velocity": 110,
              "start": 248.0,
              "duration": 0.2392578125
            },
            {
              "id": 4767,
              "pitch": 60,
              "velocity": 110,
              "start": 248.0,
              "duration": 0.2392578125
            },
            {
              "id": 4766,
              "pitch": 64,
              "velocity": 110,
              "start": 248.25,
              "duration": 0.4892578125
            },
            {
              "id": 4765,
              "pitch": 52,
              "velocity": 110,
              "start": 248.25,
              "duration": 0.4892578125
            },
            {
              "id": 4764,
              "pitch": 70,
              "velocity": 110,
              "start": 248.75,
              "duration": 0.2392578125
            },
            {
              "id": 4763,
              "pitch": 58,
              "velocity": 110,
              "start": 248.75,
              "duration": 0.2392578125
            },
            {
              "id": 4762,
              "pitch": 72,
              "velocity": 110,
              "start": 250.0,
              "duration": 0.2392578125
            },
            {
              "id": 4761,
              "pitch": 60,
              "velocity": 110,
              "start": 250.0,
              "duration": 0.2392578125
            },
            {
              "id": 4760,
              "pitch": 64,
              "velocity": 110,
              "start": 250.25,
              "duration": 0.4892578125
            },
            {
              "id": 4759,
              "pitch": 52,
              "velocity": 110,
              "start": 250.25,
              "duration": 0.4892578125
            },
            {
              "id": 4758,
              "pitch": 70,
              "velocity": 110,
              "start": 250.75,
              "duration": 0.2392578125
            },
            {
              "id": 4757,
              "pitch": 58,
              "velocity": 110,
              "start": 250.75,
              "duration": 0.2392578125
            },
            {
              "id": 4756,
              "pitch": 69,
              "velocity": 110,
              "start": 252.0,
              "duration": 0.2392578125
            },
            {
              "id": 4755,
              "pitch": 57,
              "velocity": 110,
              "start": 252.0,
              "duration": 0.2392578125
            },
            {
              "id": 4754,
              "pitch": 60,
              "velocity": 110,
              "start": 252.25,
              "duration": 0.4892578125
            },
            {
              "id": 4753,
              "pitch": 48,
              "velocity": 110,
              "start": 252.25,
              "duration": 0.4892578125
            },
            {
              "id": 4752,
              "pitch": 63,
              "velocity": 110,
              "start": 252.75,
              "duration": 0.2392578125
            },
            {
              "id": 4751,
              "pitch": 51,
              "velocity": 110,
              "start": 252.75,
              "duration": 0.2392578125
            },
            {
              "id": 4750,
              "pitch": 69,
              "velocity": 110,
              "start": 254.0,
              "duration": 0.2392578125
            },
            {
              "id": 4749,
              "pitch": 57,
              "velocity": 110,
              "start": 254.0,
              "duration": 0.2392578125
            },
            {
              "id": 4748,
              "pitch": 60,
              "velocity": 110,
              "start": 254.25,
              "duration": 0.4892578125
            },
            {
              "id": 4747,
              "pitch": 48,
              "velocity": 110,
              "start": 254.25,
              "duration": 0.4892578125
            },
            {
              "id": 4746,
              "pitch": 63,
              "velocity": 110,
              "start": 254.75,
              "duration": 0.2392578125
            },
            {
              "id": 4745,
              "pitch": 51,
              "velocity": 110,
              "start": 254.75,
              "duration": 0.2392578125
            },
            {
              "id": 4744,
              "pitch": 72,
              "velocity": 110,
              "start": 256.0,
              "duration": 0.2392578125
            },
            {
              "id": 4743,
              "pitch": 60,
              "velocity": 110,
              "start": 256.0,
              "duration": 0.2392578125
            },
            {
              "id": 4742,
              "pitch": 64,
              "velocity": 110,
              "start": 256.25,
              "duration": 0.4892578125
            },
            {
              "id": 4741,
              "pitch": 52,
              "velocity": 110,
              "start": 256.25,
              "duration": 0.4892578125
            },
            {
              "id": 4740,
              "pitch": 70,
              "velocity": 110,
              "start": 256.75,
              "duration": 0.2392578125
            },
            {
              "id": 4739,
              "pitch": 58,
              "velocity": 110,
              "start": 256.75,
              "duration": 0.2392578125
            },
            {
              "id": 4738,
              "pitch": 72,
              "velocity": 110,
              "start": 258.0,
              "duration": 0.2392578125
            },
            {
              "id": 4737,
              "pitch": 60,
              "velocity": 110,
              "start": 258.0,
              "duration": 0.2392578125
            },
            {
              "id": 4736,
              "pitch": 64,
              "velocity": 110,
              "start": 258.25,
              "duration": 0.4892578125
            },
            {
              "id": 4735,
              "pitch": 52,
              "velocity": 110,
              "start": 258.25,
              "duration": 0.4892578125
            },
            {
              "id": 4734,
              "pitch": 70,
              "velocity": 110,
              "start": 258.75,
              "duration": 0.2392578125
            },
            {
              "id": 4733,
              "pitch": 58,
              "velocity": 110,
              "start": 258.75,
              "duration": 0.2392578125
            },
            {
              "id": 4732,
              "pitch": 72,
              "velocity": 110,
              "start": 260.0,
              "duration": 0.8330078125
            },
            {
              "id": 4731,
              "pitch": 76,
              "velocity": 110,
              "start": 260.0,
              "duration": 0.8330078125
            },
            {
              "id": 4730,
              "pitch": 79,
              "velocity": 110,
              "start": 260.0,
              "duration": 0.8330078125
            },
            {
              "id": 4729,
              "pitch": 52,
              "velocity": 110,
              "start": 260.0,
              "duration": 0.8330078125
            },
            {
              "id": 4728,
              "pitch": 60,
              "velocity": 110,
              "start": 260.0,
              "duration": 0.8330078125
            },
            {
              "id": 4727,
              "pitch": 72,
              "velocity": 110,
              "start": 261.5,
              "duration": 0.4892578125
            },
            {
              "id": 4726,
              "pitch": 77,
              "velocity": 110,
              "start": 261.5,
              "duration": 0.4892578125
            },
            {
              "id": 4725,
              "pitch": 81,
              "velocity": 110,
              "start": 261.5,
              "duration": 0.4892578125
            },
            {
              "id": 4724,
              "pitch": 53,
              "velocity": 110,
              "start": 261.5,
              "duration": 0.4892578125
            },
            {
              "id": 4723,
              "pitch": 60,
              "velocity": 110,
              "start": 261.5,
              "duration": 0.4892578125
            },
            {
              "id": 4722,
              "pitch": 72,
              "velocity": 110,
              "start": 262.5,
              "duration": 0.4892578125
            },
            {
              "id": 4721,
              "pitch": 76,
              "velocity": 110,
              "start": 262.5,
              "duration": 0.4892578125
            },
            {
              "id": 4720,
              "pitch": 79,
              "velocity": 110,
              "start": 262.5,
              "duration": 0.4892578125
            },
            {
              "id": 4719,
              "pitch": 52,
              "velocity": 110,
              "start": 262.5,
              "duration": 0.4892578125
            },
            {
              "id": 4718,
              "pitch": 60,
              "velocity": 110,
              "start": 262.5,
              "duration": 0.4892578125
            },
            {
              "id": 4717,
              "pitch": 72,
              "velocity": 110,
              "start": 263.5,
              "duration": 0.4892578125
            },
            {
              "id": 4716,
              "pitch": 75,
              "velocity": 110,
              "start": 263.5,
              "duration": 0.4892578125
            },
            {
              "id": 4715,
              "pitch": 78,
              "velocity": 110,
              "start": 263.5,
              "duration": 0.4892578125
            },
            {
              "id": 4714,
              "pitch": 51,
              "velocity": 110,
              "start": 263.5,
              "duration": 0.4892578125
            },
            {
              "id": 4713,
              "pitch": 55,
              "velocity": 110,
              "start": 263.5,
              "duration": 0.4892578125
            },
            {
              "id": 4712,
              "pitch": 72,
              "velocity": 110,
              "start": 264.0,
              "duration": 0.4892578125
            },
            {
              "id": 4711,
              "pitch": 76,
              "velocity": 110,
              "start": 264.0,
              "duration": 0.4892578125
            },
            {
              "id": 4710,
              "pitch": 79,
              "velocity": 110,
              "start": 264.0,
              "duration": 0.4892578125
            },
            {
              "id": 4709,
              "pitch": 52,
              "velocity": 110,
              "start": 264.0,
              "duration": 0.4892578125
            },
            {
              "id": 4708,
              "pitch": 60,
              "velocity": 110,
              "start": 264.0,
              "duration": 0.4892578125
            },
            {
              "id": 4707,
              "pitch": 76,
              "velocity": 110,
              "start": 264.5,
              "duration": 0.4892578125
            },
            {
              "id": 4706,
              "pitch": 79,
              "velocity": 110,
              "start": 264.5,
              "duration": 0.4892578125
            },
            {
              "id": 4705,
              "pitch": 84,
              "velocity": 110,
              "start": 264.5,
              "duration": 0.4892578125
            },
            {
              "id": 4704,
              "pitch": 55,
              "velocity": 110,
              "start": 264.5,
              "duration": 0.4892578125
            },
            {
              "id": 4703,
              "pitch": 60,
              "velocity": 110,
              "start": 264.5,
              "duration": 0.4892578125
            },
            {
              "id": 4702,
              "pitch": 79,
              "velocity": 110,
              "start": 265.0,
              "duration": 0.8330078125
            },
            {
              "id": 4701,
              "pitch": 84,
              "velocity": 110,
              "start": 265.0,
              "duration": 0.8330078125
            },
            {
              "id": 4700,
              "pitch": 88,
              "velocity": 110,
              "start": 265.0,
              "duration": 0.8330078125
            },
            {
              "id": 4699,
              "pitch": 60,
              "velocity": 110,
              "start": 265.0,
              "duration": 0.8330078125
            },
            {
              "id": 4698,
              "pitch": 67,
              "velocity": 110,
              "start": 267.0,
              "duration": 0.4892578125
            },
            {
              "id": 4697,
              "pitch": 72,
              "velocity": 110,
              "start": 267.5,
              "duration": 0.4892578125
            },
            {
              "id": 4696,
              "pitch": 71,
              "velocity": 110,
              "start": 268.0,
              "duration": 0.8330078125
            },
            {
              "id": 4695,
              "pitch": 74,
              "velocity": 110,
              "start": 268.0,
              "duration": 0.8330078125
            },
            {
              "id": 4694,
              "pitch": 77,
              "velocity": 110,
              "start": 268.0,
              "duration": 0.8330078125
            },
            {
              "id": 4693,
              "pitch": 50,
              "velocity": 110,
              "start": 268.0,
              "duration": 0.8330078125
            },
            {
              "id": 4692,
              "pitch": 59,
              "velocity": 110,
              "start": 268.0,
              "duration": 0.8330078125
            },
            {
              "id": 4691,
              "pitch": 71,
              "velocity": 110,
              "start": 269.5,
              "duration": 0.4892578125
            },
            {
              "id": 4690,
              "pitch": 76,
              "velocity": 110,
              "start": 269.5,
              "duration": 0.4892578125
            },
            {
              "id": 4689,
              "pitch": 79,
              "velocity": 110,
              "start": 269.5,
              "duration": 0.4892578125
            },
            {
              "id": 4688,
              "pitch": 52,
              "velocity": 110,
              "start": 269.5,
              "duration": 0.4892578125
            },
            {
              "id": 4687,
              "pitch": 59,
              "velocity": 110,
              "start": 269.5,
              "duration": 0.4892578125
            },
            {
              "id": 4686,
              "pitch": 71,
              "velocity": 110,
              "start": 270.5,
              "duration": 0.4892578125
            },
            {
              "id": 4685,
              "pitch": 74,
              "velocity": 110,
              "start": 270.5,
              "duration": 0.4892578125
            },
            {
              "id": 4684,
              "pitch": 77,
              "velocity": 110,
              "start": 270.5,
              "duration": 0.4892578125
            },
            {
              "id": 4683,
              "pitch": 50,
              "velocity": 110,
              "start": 270.5,
              "duration": 0.4892578125
            },
            {
              "id": 4682,
              "pitch": 59,
              "velocity": 110,
              "start": 270.5,
              "duration": 0.4892578125
            },
            {
              "id": 4681,
              "pitch": 70,
              "velocity": 110,
              "start": 271.5,
              "duration": 0.4892578125
            },
            {
              "id": 4680,
              "pitch": 73,
              "velocity": 110,
              "start": 271.5,
              "duration": 0.4892578125
            },
            {
              "id": 4679,
              "pitch": 76,
              "velocity": 110,
              "start": 271.5,
              "duration": 0.4892578125
            },
            {
              "id": 4678,
              "pitch": 49,
              "velocity": 110,
              "start": 271.5,
              "duration": 0.4892578125
            },
            {
              "id": 4677,
              "pitch": 55,
              "velocity": 110,
              "start": 271.5,
              "duration": 0.4892578125
            },
            {
              "id": 4676,
              "pitch": 71,
              "velocity": 110,
              "start": 272.0,
              "duration": 0.4892578125
            },
            {
              "id": 4675,
              "pitch": 74,
              "velocity": 110,
              "start": 272.0,
              "duration": 0.4892578125
            },
            {
              "id": 4674,
              "pitch": 77,
              "velocity": 110,
              "start": 272.0,
              "duration": 0.4892578125
            },
            {
              "id": 4673,
              "pitch": 50,
              "velocity": 110,
              "start": 272.0,
              "duration": 0.4892578125
            },
            {
              "id": 4672,
              "pitch": 59,
              "velocity": 110,
              "start": 272.0,
              "duration": 0.4892578125
            },
            {
              "id": 4671,
              "pitch": 74,
              "velocity": 110,
              "start": 272.5,
              "duration": 0.4892578125
            },
            {
              "id": 4670,
              "pitch": 79,
              "velocity": 110,
              "start": 272.5,
              "duration": 0.4892578125
            },
            {
              "id": 4669,
              "pitch": 83,
              "velocity": 110,
              "start": 272.5,
              "duration": 0.4892578125
            },
            {
              "id": 4668,
              "pitch": 55,
              "velocity": 110,
              "start": 272.5,
              "duration": 0.4892578125
            },
            {
              "id": 4667,
              "pitch": 59,
              "velocity": 110,
              "start": 272.5,
              "duration": 0.4892578125
            },
            {
              "id": 4666,
              "pitch": 79,
              "velocity": 110,
              "start": 273.0,
              "duration": 0.8330078125
            },
            {
              "id": 4665,
              "pitch": 83,
              "velocity": 110,
              "start": 273.0,
              "duration": 0.8330078125
            },
            {
              "id": 4664,
              "pitch": 86,
              "velocity": 110,
              "start": 273.0,
              "duration": 0.8330078125
            },
            {
              "id": 4663,
              "pitch": 59,
              "velocity": 110,
              "start": 273.0,
              "duration": 0.8330078125
            },
            {
              "id": 4662,
              "pitch": 67,
              "velocity": 110,
              "start": 275.0,
              "duration": 0.4892578125
            },
            {
              "id": 4661,
              "pitch": 71,
              "velocity": 110,
              "start": 275.5,
              "duration": 0.4892578125
            },
            {
              "id": 4660,
              "pitch": 69,
              "velocity": 110,
              "start": 276.0,
              "duration": 0.8330078125
            },
            {
              "id": 4659,
              "pitch": 72,
              "velocity": 110,
              "start": 276.0,
              "duration": 0.8330078125
            },
            {
              "id": 4658,
              "pitch": 76,
              "velocity": 110,
              "start": 276.0,
              "duration": 0.8330078125
            },
            {
              "id": 4657,
              "pitch": 48,
              "velocity": 110,
              "start": 276.0,
              "duration": 0.8330078125
            },
            {
              "id": 4656,
              "pitch": 57,
              "velocity": 110,
              "start": 276.0,
              "duration": 0.8330078125
            },
            {
              "id": 4655,
              "pitch": 69,
              "velocity": 110,
              "start": 277.5,
              "duration": 0.4892578125
            },
            {
              "id": 4654,
              "pitch": 74,
              "velocity": 110,
              "start": 277.5,
              "duration": 0.4892578125
            },
            {
              "id": 4653,
              "pitch": 77,
              "velocity": 110,
              "start": 277.5,
              "duration": 0.4892578125
            },
            {
              "id": 4652,
              "pitch": 50,
              "velocity": 110,
              "start": 277.5,
              "duration": 0.4892578125
            },
            {
              "id": 4651,
              "pitch": 57,
              "velocity": 110,
              "start": 277.5,
              "duration": 0.4892578125
            },
            {
              "id": 4650,
              "pitch": 69,
              "velocity": 110,
              "start": 278.5,
              "duration": 0.4892578125
            },
            {
              "id": 4649,
              "pitch": 72,
              "velocity": 110,
              "start": 278.5,
              "duration": 0.4892578125
            },
            {
              "id": 4648,
              "pitch": 76,
              "velocity": 110,
              "start": 278.5,
              "duration": 0.4892578125
            },
            {
              "id": 4647,
              "pitch": 48,
              "velocity": 110,
              "start": 278.5,
              "duration": 0.4892578125
            },
            {
              "id": 4646,
              "pitch": 57,
              "velocity": 110,
              "start": 278.5,
              "duration": 0.4892578125
            },
            {
              "id": 4645,
              "pitch": 68,
              "velocity": 110,
              "start": 279.5,
              "duration": 0.4892578125
            },
            {
              "id": 4644,
              "pitch": 71,
              "velocity": 110,
              "start": 279.5,
              "duration": 0.4892578125
            },
            {
              "id": 4643,
              "pitch": 75,
              "velocity": 110,
              "start": 279.5,
              "duration": 0.4892578125
            },
            {
              "id": 4642,
              "pitch": 47,
              "velocity": 110,
              "start": 279.5,
              "duration": 0.4892578125
            },
            {
              "id": 4641,
              "pitch": 52,
              "velocity": 110,
              "start": 279.5,
              "duration": 0.4892578125
            },
            {
              "id": 4640,
              "pitch": 69,
              "velocity": 110,
              "start": 280.0,
              "duration": 0.4892578125
            },
            {
              "id": 4639,
              "pitch": 72,
              "velocity": 110,
              "start": 280.0,
              "duration": 0.4892578125
            },
            {
              "id": 4638,
              "pitch": 76,
              "velocity": 110,
              "start": 280.0,
              "duration": 0.4892578125
            },
            {
              "id": 4637,
              "pitch": 48,
              "velocity": 110,
              "start": 280.0,
              "duration": 0.4892578125
            },
            {
              "id": 4636,
              "pitch": 57,
              "velocity": 110,
              "start": 280.0,
              "duration": 0.4892578125
            },
            {
              "id": 4635,
              "pitch": 72,
              "velocity": 110,
              "start": 280.5,
              "duration": 0.4892578125
            },
            {
              "id": 4634,
              "pitch": 76,
              "velocity": 110,
              "start": 280.5,
              "duration": 0.4892578125
            },
            {
              "id": 4633,
              "pitch": 81,
              "velocity": 110,
              "start": 280.5,
              "duration": 0.4892578125
            },
            {
              "id": 4632,
              "pitch": 52,
              "velocity": 110,
              "start": 280.5,
              "duration": 0.4892578125
            },
            {
              "id": 4631,
              "pitch": 57,
              "velocity": 110,
              "start": 280.5,
              "duration": 0.4892578125
            },
            {
              "id": 4630,
              "pitch": 76,
              "velocity": 110,
              "start": 281.0,
              "duration": 0.8330078125
            },
            {
              "id": 4629,
              "pitch": 81,
              "velocity": 110,
              "start": 281.0,
              "duration": 0.8330078125
            },
            {
              "id": 4628,
              "pitch": 84,
              "velocity": 110,
              "start": 281.0,
              "duration": 0.8330078125
            },
            {
              "id": 4627,
              "pitch": 57,
              "velocity": 110,
              "start": 281.0,
              "duration": 0.8330078125
            },
            {
              "id": 4626,
              "pitch": 72,
              "velocity": 110,
              "start": 282.5,
              "duration": 0.4892578125
            },
            {
              "id": 4625,
              "pitch": 76,
              "velocity": 110,
              "start": 282.5,
              "duration": 0.4892578125
            },
            {
              "id": 4624,
              "pitch": 81,
              "velocity": 110,
              "start": 282.5,
              "duration": 0.4892578125
            },
            {
              "id": 4623,
              "pitch": 48,
              "velocity": 110,
              "start": 282.5,
              "duration": 0.4892578125
            },
            {
              "id": 4622,
              "pitch": 57,
              "velocity": 110,
              "start": 282.5,
              "duration": 0.4892578125
            },
            {
              "id": 4621,
              "pitch": 74,
              "velocity": 110,
              "start": 283.0,
              "duration": 0.4892578125
            },
            {
              "id": 4620,
              "pitch": 78,
              "velocity": 110,
              "start": 283.0,
              "duration": 0.4892578125
            },
            {
              "id": 4619,
              "pitch": 83,
              "velocity": 110,
              "start": 283.0,
              "duration": 0.4892578125
            },
            {
              "id": 4618,
              "pitch": 50,
              "velocity": 110,
              "start": 283.0,
              "duration": 0.4892578125
            },
            {
              "id": 4617,
              "pitch": 59,
              "velocity": 110,
              "start": 283.0,
              "duration": 0.4892578125
            },
            {
              "id": 4616,
              "pitch": 69,
              "velocity": 110,
              "start": 283.5,
              "duration": 0.4892578125
            },
            {
              "id": 4615,
              "pitch": 76,
              "velocity": 110,
              "start": 283.5,
              "duration": 0.4892578125
            },
            {
              "id": 4614,
              "pitch": 81,
              "velocity": 110,
              "start": 283.5,
              "duration": 0.4892578125
            },
            {
              "id": 4613,
              "pitch": 84,
              "velocity": 110,
              "start": 283.5,
              "duration": 0.4892578125
            },
            {
              "id": 4612,
              "pitch": 52,
              "velocity": 110,
              "start": 283.5,
              "duration": 0.4892578125
            },
            {
              "id": 4611,
              "pitch": 60,
              "velocity": 110,
              "start": 283.5,
              "duration": 0.4892578125
            },
            {
              "id": 4610,
              "pitch": 78,
              "velocity": 110,
              "start": 284.0,
              "duration": 0.4892578125
            },
            {
              "id": 4609,
              "pitch": 83,
              "velocity": 110,
              "start": 284.0,
              "duration": 0.4892578125
            },
            {
              "id": 4608,
              "pitch": 86,
              "velocity": 110,
              "start": 284.0,
              "duration": 0.4892578125
            },
            {
              "id": 4607,
              "pitch": 54,
              "velocity": 110,
              "start": 284.0,
              "duration": 0.4892578125
            },
            {
              "id": 4606,
              "pitch": 62,
              "velocity": 110,
              "start": 284.0,
              "duration": 0.4892578125
            },
            {
              "id": 4605,
              "pitch": 78,
              "velocity": 110,
              "start": 284.5,
              "duration": 0.4892578125
            },
            {
              "id": 4604,
              "pitch": 81,
              "velocity": 110,
              "start": 284.5,
              "duration": 0.4892578125
            },
            {
              "id": 4603,
              "pitch": 84,
              "velocity": 110,
              "start": 284.5,
              "duration": 0.4892578125
            },
            {
              "id": 4602,
              "pitch": 54,
              "velocity": 110,
              "start": 284.5,
              "duration": 0.4892578125
            },
            {
              "id": 4601,
              "pitch": 60,
              "velocity": 110,
              "start": 284.5,
              "duration": 0.4892578125
            },
            {
              "id": 4600,
              "pitch": 78,
              "velocity": 110,
              "start": 285.0,
              "duration": 0.4892578125
            },
            {
              "id": 4599,
              "pitch": 83,
              "velocity": 110,
              "start": 285.0,
              "duration": 0.4892578125
            },
            {
              "id": 4598,
              "pitch": 86,
              "velocity": 110,
              "start": 285.0,
              "duration": 0.4892578125
            },
            {
              "id": 4597,
              "pitch": 54,
              "velocity": 110,
              "start": 285.0,
              "duration": 0.4892578125
            },
            {
              "id": 4596,
              "pitch": 62,
              "velocity": 110,
              "start": 285.0,
              "duration": 0.4892578125
            },
            {
              "id": 4595,
              "pitch": 78,
              "velocity": 110,
              "start": 285.5,
              "duration": 0.9892578125
            },
            {
              "id": 4594,
              "pitch": 81,
              "velocity": 110,
              "start": 285.5,
              "duration": 0.9892578125
            },
            {
              "id": 4593,
              "pitch": 84,
              "velocity": 110,
              "start": 285.5,
              "duration": 0.9892578125
            },
            {
              "id": 4592,
              "pitch": 54,
              "velocity": 110,
              "start": 285.5,
              "duration": 0.9892578125
            },
            {
              "id": 4591,
              "pitch": 60,
              "velocity": 110,
              "start": 285.5,
              "duration": 0.9892578125
            },
            {
              "id": 4590,
              "pitch": 74,
              "velocity": 110,
              "start": 286.5,
              "duration": 0.4892578125
            },
            {
              "id": 4589,
              "pitch": 78,
              "velocity": 110,
              "start": 286.5,
              "duration": 0.4892578125
            },
            {
              "id": 4588,
              "pitch": 81,
              "velocity": 110,
              "start": 286.5,
              "duration": 0.4892578125
            },
            {
              "id": 4587,
              "pitch": 50,
              "velocity": 110,
              "start": 286.5,
              "duration": 0.4892578125
            },
            {
              "id": 4586,
              "pitch": 57,
              "velocity": 110,
              "start": 286.5,
              "duration": 0.4892578125
            },
            {
              "id": 4585,
              "pitch": 72,
              "velocity": 110,
              "start": 287.0,
              "duration": 0.4892578125
            },
            {
              "id": 4584,
              "pitch": 74,
              "velocity": 110,
              "start": 287.0,
              "duration": 0.4892578125
            },
            {
              "id": 4583,
              "pitch": 78,
              "velocity": 110,
              "start": 287.0,
              "duration": 0.4892578125
            },
            {
              "id": 4582,
              "pitch": 48,
              "velocity": 110,
              "start": 287.0,
              "duration": 0.4892578125
            },
            {
              "id": 4581,
              "pitch": 54,
              "velocity": 110,
              "start": 287.0,
              "duration": 0.4892578125
            },
            {
              "id": 4580,
              "pitch": 69,
              "velocity": 110,
              "start": 287.5,
              "duration": 0.4892578125
            },
            {
              "id": 4579,
              "pitch": 72,
              "velocity": 110,
              "start": 287.5,
              "duration": 0.4892578125
            },
            {
              "id": 4578,
              "pitch": 74,
              "velocity": 110,
              "start": 287.5,
              "duration": 0.4892578125
            },
            {
              "id": 4577,
              "pitch": 45,
              "velocity": 110,
              "start": 287.5,
              "duration": 0.4892578125
            },
            {
              "id": 4576,
              "pitch": 50,
              "velocity": 110,
              "start": 287.5,
              "duration": 0.4892578125
            },
            {
              "id": 4575,
              "pitch": 69,
              "velocity": 110,
              "start": 288.0,
              "duration": 0.4892578125
            },
            {
              "id": 4574,
              "pitch": 72,
              "velocity": 110,
              "start": 288.0,
              "duration": 0.4892578125
            },
            {
              "id": 4573,
              "pitch": 45,
              "velocity": 110,
              "start": 288.0,
              "duration": 0.4892578125
            },
            {
              "id": 4572,
              "pitch": 50,
              "velocity": 110,
              "start": 288.0,
              "duration": 0.4892578125
            },
            {
              "id": 4571,
              "pitch": 69,
              "velocity": 110,
              "start": 288.5,
              "duration": 0.4892578125
            },
            {
              "id": 4570,
              "pitch": 47,
              "velocity": 110,
              "start": 288.5,
              "duration": 0.4892578125
            },
            {
              "id": 4569,
              "pitch": 52,
              "velocity": 110,
              "start": 288.5,
              "duration": 0.4892578125
            },
            {
              "id": 4568,
              "pitch": 49,
              "velocity": 110,
              "start": 289.0,
              "duration": 0.4892578125
            },
            {
              "id": 4567,
              "pitch": 53,
              "velocity": 110,
              "start": 289.0,
              "duration": 0.4892578125
            },
            {
              "id": 4566,
              "pitch": 50,
              "velocity": 110,
              "start": 289.5,
              "duration": 2.25
            },
            {
              "id": 4565,
              "pitch": 54,
              "velocity": 110,
              "start": 289.5,
              "duration": 2.25
            },
            {
              "id": 4564,
              "pitch": 43,
              "velocity": 110,
              "start": 292.0,
              "duration": 0.4892578125
            },
            {
              "id": 4563,
              "pitch": 50,
              "velocity": 110,
              "start": 292.5,
              "duration": 0.4892578125
            },
            {
              "id": 4562,
              "pitch": 55,
              "velocity": 110,
              "start": 293.0,
              "duration": 0.8330078125
            },
            {
              "id": 4561,
              "pitch": 57,
              "velocity": 110,
              "start": 293.5,
              "duration": 0.4892578125
            },
            {
              "id": 4560,
              "pitch": 59,
              "velocity": 110,
              "start": 294.5,
              "duration": 0.4892578125
            },
            {
              "id": 4559,
              "pitch": 62,
              "velocity": 110,
              "start": 295.5,
              "duration": 0.4892578125
            },
            {
              "id": 4558,
              "pitch": 67,
              "velocity": 110,
              "start": 296.0,
              "duration": 0.8330078125
            },
            {
              "id": 4557,
              "pitch": 43,
              "velocity": 110,
              "start": 296.0,
              "duration": 0.4892578125
            },
            {
              "id": 4556,
              "pitch": 50,
              "velocity": 110,
              "start": 296.5,
              "duration": 0.4892578125
            },
            {
              "id": 4555,
              "pitch": 55,
              "velocity": 110,
              "start": 297.0,
              "duration": 0.8330078125
            },
            {
              "id": 4554,
              "pitch": 74,
              "velocity": 110,
              "start": 297.5,
              "duration": 0.4892578125
            },
            {
              "id": 4553,
              "pitch": 79,
              "velocity": 110,
              "start": 297.5,
              "duration": 0.4892578125
            },
            {
              "id": 4552,
              "pitch": 41,
              "velocity": 110,
              "start": 300.0,
              "duration": 0.4892578125
            },
            {
              "id": 4551,
              "pitch": 48,
              "velocity": 110,
              "start": 300.5,
              "duration": 0.4892578125
            },
            {
              "id": 4550,
              "pitch": 53,
              "velocity": 110,
              "start": 301.0,
              "duration": 0.8330078125
            },
            {
              "id": 4549,
              "pitch": 57,
              "velocity": 110,
              "start": 301.5,
              "duration": 0.4892578125
            },
            {
              "id": 4548,
              "pitch": 59,
              "velocity": 110,
              "start": 302.5,
              "duration": 0.4892578125
            },
            {
              "id": 4547,
              "pitch": 62,
              "velocity": 110,
              "start": 303.5,
              "duration": 0.4892578125
            },
            {
              "id": 4546,
              "pitch": 67,
              "velocity": 110,
              "start": 304.0,
              "duration": 0.8330078125
            },
            {
              "id": 4545,
              "pitch": 41,
              "velocity": 110,
              "start": 304.0,
              "duration": 0.4892578125
            },
            {
              "id": 4544,
              "pitch": 48,
              "velocity": 110,
              "start": 304.5,
              "duration": 0.4892578125
            },
            {
              "id": 4543,
              "pitch": 53,
              "velocity": 110,
              "start": 305.0,
              "duration": 0.8330078125
            },
            {
              "id": 4542,
              "pitch": 74,
              "velocity": 110,
              "start": 305.5,
              "duration": 0.4892578125
            },
            {
              "id": 4541,
              "pitch": 79,
              "velocity": 110,
              "start": 305.5,
              "duration": 0.4892578125
            },
            {
              "id": 4540,
              "pitch": 48,
              "velocity": 110,
              "start": 307.0,
              "duration": 0.8330078125
            },
            {
              "id": 4539,
              "pitch": 43,
              "velocity": 110,
              "start": 308.0,
              "duration": 0.4892578125
            },
            {
              "id": 4538,
              "pitch": 50,
              "velocity": 110,
              "start": 308.5,
              "duration": 0.4892578125
            },
            {
              "id": 4537,
              "pitch": 55,
              "velocity": 110,
              "start": 309.0,
              "duration": 0.8330078125
            },
            {
              "id": 4536,
              "pitch": 57,
              "velocity": 110,
              "start": 309.5,
              "duration": 0.4892578125
            },
            {
              "id": 4535,
              "pitch": 59,
              "velocity": 110,
              "start": 310.5,
              "duration": 0.4892578125
            },
            {
              "id": 4534,
              "pitch": 62,
              "velocity": 110,
              "start": 311.5,
              "duration": 0.4892578125
            },
            {
              "id": 4533,
              "pitch": 67,
              "velocity": 110,
              "start": 312.0,
              "duration": 0.8330078125
            },
            {
              "id": 4532,
              "pitch": 43,
              "velocity": 110,
              "start": 312.0,
              "duration": 0.4892578125
            },
            {
              "id": 4531,
              "pitch": 50,
              "velocity": 110,
              "start": 312.5,
              "duration": 0.4892578125
            },
            {
              "id": 4530,
              "pitch": 55,
              "velocity": 110,
              "start": 313.0,
              "duration": 0.8330078125
            },
            {
              "id": 4529,
              "pitch": 74,
              "velocity": 110,
              "start": 313.5,
              "duration": 0.4892578125
            },
            {
              "id": 4528,
              "pitch": 79,
              "velocity": 110,
              "start": 313.5,
              "duration": 0.4892578125
            },
            {
              "id": 4527,
              "pitch": 41,
              "velocity": 110,
              "start": 316.0,
              "duration": 0.4892578125
            },
            {
              "id": 4526,
              "pitch": 48,
              "velocity": 110,
              "start": 316.5,
              "duration": 0.4892578125
            },
            {
              "id": 4525,
              "pitch": 53,
              "velocity": 110,
              "start": 317.0,
              "duration": 0.8330078125
            },
            {
              "id": 4524,
              "pitch": 57,
              "velocity": 110,
              "start": 317.5,
              "duration": 0.4892578125
            },
            {
              "id": 4523,
              "pitch": 59,
              "velocity": 110,
              "start": 318.5,
              "duration": 0.4892578125
            },
            {
              "id": 4522,
              "pitch": 62,
              "velocity": 110,
              "start": 319.5,
              "duration": 0.4892578125
            },
            {
              "id": 4521,
              "pitch": 67,
              "velocity": 110,
              "start": 320.0,
              "duration": 0.8330078125
            },
            {
              "id": 4520,
              "pitch": 41,
              "velocity": 110,
              "start": 320.0,
              "duration": 0.4892578125
            },
            {
              "id": 4519,
              "pitch": 48,
              "velocity": 110,
              "start": 320.5,
              "duration": 0.4892578125
            },
            {
              "id": 4518,
              "pitch": 53,
              "velocity": 110,
              "start": 321.0,
              "duration": 0.8330078125
            },
            {
              "id": 4517,
              "pitch": 74,
              "velocity": 110,
              "start": 321.5,
              "duration": 0.4892578125
            },
            {
              "id": 4516,
              "pitch": 79,
              "velocity": 110,
              "start": 321.5,
              "duration": 0.4892578125
            },
            {
              "id": 4515,
              "pitch": 39,
              "velocity": 110,
              "start": 324.0,
              "duration": 0.4892578125
            },
            {
              "id": 4514,
              "pitch": 46,
              "velocity": 110,
              "start": 324.5,
              "duration": 0.4892578125
            },
            {
              "id": 4513,
              "pitch": 51,
              "velocity": 110,
              "start": 325.0,
              "duration": 0.8330078125
            },
            {
              "id": 4512,
              "pitch": 57,
              "velocity": 110,
              "start": 325.5,
              "duration": 0.4892578125
            },
            {
              "id": 4511,
              "pitch": 58,
              "velocity": 110,
              "start": 326.5,
              "duration": 0.4892578125
            },
            {
              "id": 4510,
              "pitch": 62,
              "velocity": 110,
              "start": 327.5,
              "duration": 0.4892578125
            },
            {
              "id": 4509,
              "pitch": 67,
              "velocity": 110,
              "start": 328.0,
              "duration": 0.8330078125
            },
            {
              "id": 4508,
              "pitch": 39,
              "velocity": 110,
              "start": 328.0,
              "duration": 0.4892578125
            },
            {
              "id": 4507,
              "pitch": 46,
              "velocity": 110,
              "start": 328.5,
              "duration": 0.4892578125
            },
            {
              "id": 4506,
              "pitch": 51,
              "velocity": 110,
              "start": 329.0,
              "duration": 0.8330078125
            },
            {
              "id": 4505,
              "pitch": 74,
              "velocity": 110,
              "start": 329.5,
              "duration": 0.4892578125
            },
            {
              "id": 4504,
              "pitch": 79,
              "velocity": 110,
              "start": 329.5,
              "duration": 0.4892578125
            },
            {
              "id": 4503,
              "pitch": 41,
              "velocity": 110,
              "start": 332.0,
              "duration": 0.4892578125
            },
            {
              "id": 4502,
              "pitch": 48,
              "velocity": 110,
              "start": 332.5,
              "duration": 0.4892578125
            },
            {
              "id": 4501,
              "pitch": 53,
              "velocity": 110,
              "start": 333.0,
              "duration": 0.8330078125
            },
            {
              "id": 4500,
              "pitch": 57,
              "velocity": 110,
              "start": 333.5,
              "duration": 0.4892578125
            },
            {
              "id": 4499,
              "pitch": 58,
              "velocity": 110,
              "start": 334.5,
              "duration": 0.4892578125
            },
            {
              "id": 4498,
              "pitch": 62,
              "velocity": 110,
              "start": 335.5,
              "duration": 0.4892578125
            },
            {
              "id": 4497,
              "pitch": 67,
              "velocity": 110,
              "start": 336.0,
              "duration": 0.8330078125
            },
            {
              "id": 4496,
              "pitch": 41,
              "velocity": 110,
              "start": 336.0,
              "duration": 0.4892578125
            },
            {
              "id": 4495,
              "pitch": 48,
              "velocity": 110,
              "start": 336.5,
              "duration": 0.4892578125
            },
            {
              "id": 4494,
              "pitch": 53,
              "velocity": 110,
              "start": 337.0,
              "duration": 0.8330078125
            },
            {
              "id": 4493,
              "pitch": 74,
              "velocity": 110,
              "start": 337.5,
              "duration": 0.4892578125
            },
            {
              "id": 4492,
              "pitch": 79,
              "velocity": 110,
              "start": 337.5,
              "duration": 0.4892578125
            },
            {
              "id": 4491,
              "pitch": 48,
              "velocity": 110,
              "start": 339.0,
              "duration": 0.8330078125
            },
            {
              "id": 4490,
              "pitch": 43,
              "velocity": 110,
              "start": 340.0,
              "duration": 0.4892578125
            },
            {
              "id": 4489,
              "pitch": 62,
              "velocity": 110,
              "start": 340.5,
              "duration": 0.4892578125
            },
            {
              "id": 4488,
              "pitch": 50,
              "velocity": 110,
              "start": 340.5,
              "duration": 0.4892578125
            },
            {
              "id": 4487,
              "pitch": 67,
              "velocity": 110,
              "start": 341.0,
              "duration": 0.4892578125
            },
            {
              "id": 4486,
              "pitch": 69,
              "velocity": 110,
              "start": 341.5,
              "duration": 0.4892578125
            },
            {
              "id": 4485,
              "pitch": 71,
              "velocity": 110,
              "start": 342.0,
              "duration": 0.4892578125
            },
            {
              "id": 4484,
              "pitch": 72,
              "velocity": 110,
              "start": 342.5,
              "duration": 0.4892578125
            },
            {
              "id": 4483,
              "pitch": 71,
              "velocity": 110,
              "start": 343.0,
              "duration": 0.4892578125
            },
            {
              "id": 4482,
              "pitch": 55,
              "velocity": 110,
              "start": 343.0,
              "duration": 0.4892578125
            },
            {
              "id": 4481,
              "pitch": 69,
              "velocity": 110,
              "start": 343.5,
              "duration": 0.4892578125
            },
            {
              "id": 4480,
              "pitch": 50,
              "velocity": 110,
              "start": 343.5,
              "duration": 0.4892578125
            },
            {
              "id": 4479,
              "pitch": 67,
              "velocity": 110,
              "start": 344.0,
              "duration": 0.8330078125
            },
            {
              "id": 4478,
              "pitch": 41,
              "velocity": 110,
              "start": 344.0,
              "duration": 0.4892578125
            },
            {
              "id": 4477,
              "pitch": 48,
              "velocity": 110,
              "start": 344.5,
              "duration": 0.4892578125
            },
            {
              "id": 4476,
              "pitch": 62,
              "velocity": 110,
              "start": 345.0,
              "duration": 0.8330078125
            },
            {
              "id": 4475,
              "pitch": 53,
              "velocity": 110,
              "start": 345.0,
              "duration": 0.8330078125
            },
            {
              "id": 4474,
              "pitch": 60,
              "velocity": 110,
              "start": 346.0,
              "duration": 0.8330078125
            },
            {
              "id": 4473,
              "pitch": 67,
              "velocity": 110,
              "start": 347.0,
              "duration": 0.8330078125
            },
            {
              "id": 4472,
              "pitch": 62,
              "velocity": 110,
              "start": 348.0,
              "duration": 0.8330078125
            },
            {
              "id": 4471,
              "pitch": 39,
              "velocity": 110,
              "start": 348.0,
              "duration": 0.4892578125
            },
            {
              "id": 4470,
              "pitch": 46,
              "velocity": 110,
              "start": 348.5,
              "duration": 0.4892578125
            },
            {
              "id": 4469,
              "pitch": 51,
              "velocity": 110,
              "start": 349.0,
              "duration": 0.8330078125
            },
            {
              "id": 4468,
              "pitch": 55,
              "velocity": 110,
              "start": 349.5,
              "duration": 0.4892578125
            },
            {
              "id": 4467,
              "pitch": 51,
              "velocity": 110,
              "start": 351.0,
              "duration": 0.8330078125
            },
            {
              "id": 4466,
              "pitch": 55,
              "velocity": 110,
              "start": 351.5,
              "duration": 0.4892578125
            },
            {
              "id": 4465,
              "pitch": 41,
              "velocity": 110,
              "start": 352.0,
              "duration": 0.4892578125
            },
            {
              "id": 4464,
              "pitch": 48,
              "velocity": 110,
              "start": 352.5,
              "duration": 0.4892578125
            },
            {
              "id": 4463,
              "pitch": 53,
              "velocity": 110,
              "start": 353.0,
              "duration": 0.8330078125
            },
            {
              "id": 4462,
              "pitch": 60,
              "velocity": 110,
              "start": 354.5,
              "duration": 0.4892578125
            },
            {
              "id": 4461,
              "pitch": 48,
              "velocity": 110,
              "start": 355.0,
              "duration": 0.4892578125
            },
            {
              "id": 4460,
              "pitch": 60,
              "velocity": 110,
              "start": 355.5,
              "duration": 0.4892578125
            },
            {
              "id": 4459,
              "pitch": 53,
              "velocity": 110,
              "start": 355.5,
              "duration": 0.4892578125
            },
            {
              "id": 4458,
              "pitch": 59,
              "velocity": 110,
              "start": 356.0,
              "duration": 0.4892578125
            },
            {
              "id": 4457,
              "pitch": 43,
              "velocity": 110,
              "start": 356.0,
              "duration": 0.4892578125
            },
            {
              "id": 4456,
              "pitch": 62,
              "velocity": 110,
              "start": 356.5,
              "duration": 0.4892578125
            },
            {
              "id": 4455,
              "pitch": 50,
              "velocity": 110,
              "start": 356.5,
              "duration": 0.4892578125
            },
            {
              "id": 4454,
              "pitch": 67,
              "velocity": 110,
              "start": 357.0,
              "duration": 0.8330078125
            },
            {
              "id": 4453,
              "pitch": 55,
              "velocity": 110,
              "start": 357.0,
              "duration": 0.8330078125
            },
            {
              "id": 4452,
              "pitch": 57,
              "velocity": 110,
              "start": 358.5,
              "duration": 0.4892578125
            },
            {
              "id": 4451,
              "pitch": 59,
              "velocity": 110,
              "start": 359.5,
              "duration": 0.4892578125
            },
            {
              "id": 4450,
              "pitch": 55,
              "velocity": 110,
              "start": 359.5,
              "duration": 0.4892578125
            },
            {
              "id": 4449,
              "pitch": 43,
              "velocity": 110,
              "start": 360.0,
              "duration": 0.4892578125
            },
            {
              "id": 4448,
              "pitch": 50,
              "velocity": 110,
              "start": 360.5,
              "duration": 0.4892578125
            },
            {
              "id": 4447,
              "pitch": 55,
              "velocity": 110,
              "start": 361.0,
              "duration": 0.8330078125
            },
            {
              "id": 4446,
              "pitch": 62,
              "velocity": 110,
              "start": 361.5,
              "duration": 0.4892578125
            },
            {
              "id": 4445,
              "pitch": 67,
              "velocity": 110,
              "start": 362.5,
              "duration": 0.4892578125
            },
            {
              "id": 4444,
              "pitch": 43,
              "velocity": 110,
              "start": 364.0,
              "duration": 0.4892578125
            },
            {
              "id": 4443,
              "pitch": 62,
              "velocity": 110,
              "start": 364.5,
              "duration": 0.4892578125
            },
            {
              "id": 4442,
              "pitch": 50,
              "velocity": 110,
              "start": 364.5,
              "duration": 0.4892578125
            },
            {
              "id": 4441,
              "pitch": 67,
              "velocity": 110,
              "start": 365.0,
              "duration": 0.4892578125
            },
            {
              "id": 4440,
              "pitch": 69,
              "velocity": 110,
              "start": 365.5,
              "duration": 0.4892578125
            },
            {
              "id": 4439,
              "pitch": 71,
              "velocity": 110,
              "start": 366.0,
              "duration": 0.4892578125
            },
            {
              "id": 4438,
              "pitch": 72,
              "velocity": 110,
              "start": 366.5,
              "duration": 0.4892578125
            },
            {
              "id": 4437,
              "pitch": 71,
              "velocity": 110,
              "start": 367.0,
              "duration": 0.4892578125
            },
            {
              "id": 4436,
              "pitch": 55,
              "velocity": 110,
              "start": 367.0,
              "duration": 0.4892578125
            },
            {
              "id": 4435,
              "pitch": 69,
              "velocity": 110,
              "start": 367.5,
              "duration": 0.4892578125
            },
            {
              "id": 4434,
              "pitch": 50,
              "velocity": 110,
              "start": 367.5,
              "duration": 0.4892578125
            },
            {
              "id": 4433,
              "pitch": 67,
              "velocity": 110,
              "start": 368.0,
              "duration": 0.8330078125
            },
            {
              "id": 4432,
              "pitch": 41,
              "velocity": 110,
              "start": 368.0,
              "duration": 0.4892578125
            },
            {
              "id": 4431,
              "pitch": 48,
              "velocity": 110,
              "start": 368.5,
              "duration": 0.4892578125
            },
            {
              "id": 4430,
              "pitch": 62,
              "velocity": 110,
              "start": 369.0,
              "duration": 0.8330078125
            },
            {
              "id": 4429,
              "pitch": 53,
              "velocity": 110,
              "start": 369.0,
              "duration": 0.8330078125
            },
            {
              "id": 4428,
              "pitch": 60,
              "velocity": 110,
              "start": 370.0,
              "duration": 0.8330078125
            },
            {
              "id": 4427,
              "pitch": 67,
              "velocity": 110,
              "start": 371.0,
              "duration": 0.8330078125
            },
            {
              "id": 4426,
              "pitch": 62,
              "velocity": 110,
              "start": 372.0,
              "duration": 0.8330078125
            },
            {
              "id": 4425,
              "pitch": 39,
              "velocity": 110,
              "start": 372.0,
              "duration": 0.4892578125
            },
            {
              "id": 4424,
              "pitch": 46,
              "velocity": 110,
              "start": 372.5,
              "duration": 0.4892578125
            },
            {
              "id": 4423,
              "pitch": 51,
              "velocity": 110,
              "start": 373.0,
              "duration": 0.8330078125
            },
            {
              "id": 4422,
              "pitch": 55,
              "velocity": 110,
              "start": 373.5,
              "duration": 0.4892578125
            },
            {
              "id": 4421,
              "pitch": 55,
              "velocity": 110,
              "start": 374.5,
              "duration": 0.4892578125
            },
            {
              "id": 4420,
              "pitch": 51,
              "velocity": 110,
              "start": 375.0,
              "duration": 0.8330078125
            },
            {
              "id": 4419,
              "pitch": 55,
              "velocity": 110,
              "start": 375.5,
              "duration": 0.4892578125
            },
            {
              "id": 4418,
              "pitch": 41,
              "velocity": 110,
              "start": 376.0,
              "duration": 0.4892578125
            },
            {
              "id": 4417,
              "pitch": 48,
              "velocity": 110,
              "start": 376.5,
              "duration": 0.4892578125
            },
            {
              "id": 4416,
              "pitch": 60,
              "velocity": 110,
              "start": 377.5,
              "duration": 0.4892578125
            },
            {
              "id": 4415,
              "pitch": 53,
              "velocity": 110,
              "start": 377.5,
              "duration": 0.4892578125
            },
            {
              "id": 4414,
              "pitch": 60,
              "velocity": 110,
              "start": 378.5,
              "duration": 0.4892578125
            },
            {
              "id": 4413,
              "pitch": 48,
              "velocity": 110,
              "start": 379.0,
              "duration": 0.8330078125
            },
            {
              "id": 4412,
              "pitch": 60,
              "velocity": 110,
              "start": 379.5,
              "duration": 0.4892578125
            },
            {
              "id": 4411,
              "pitch": 59,
              "velocity": 110,
              "start": 380.0,
              "duration": 0.4892578125
            },
            {
              "id": 4410,
              "pitch": 43,
              "velocity": 110,
              "start": 380.0,
              "duration": 0.4892578125
            },
            {
              "id": 4409,
              "pitch": 62,
              "velocity": 110,
              "start": 380.5,
              "duration": 0.4892578125
            },
            {
              "id": 4408,
              "pitch": 50,
              "velocity": 110,
              "start": 380.5,
              "duration": 0.4892578125
            },
            {
              "id": 4407,
              "pitch": 67,
              "velocity": 110,
              "start": 381.0,
              "duration": 0.8330078125
            },
            {
              "id": 4406,
              "pitch": 55,
              "velocity": 110,
              "start": 381.5,
              "duration": 0.4892578125
            },
            {
              "id": 4405,
              "pitch": 57,
              "velocity": 110,
              "start": 382.5,
              "duration": 0.4892578125
            },
            {
              "id": 4404,
              "pitch": 50,
              "velocity": 110,
              "start": 383.0,
              "duration": 0.8330078125
            },
            {
              "id": 4403,
              "pitch": 59,
              "velocity": 110,
              "start": 383.5,
              "duration": 0.4892578125
            },
            {
              "id": 4402,
              "pitch": 43,
              "velocity": 110,
              "start": 384.0,
              "duration": 0.4892578125
            },
            {
              "id": 4401,
              "pitch": 50,
              "velocity": 110,
              "start": 384.5,
              "duration": 0.4892578125
            },
            {
              "id": 4400,
              "pitch": 55,
              "velocity": 110,
              "start": 385.0,
              "duration": 0.8330078125
            },
            {
              "id": 4399,
              "pitch": 59,
              "velocity": 110,
              "start": 385.5,
              "duration": 0.4892578125
            },
            {
              "id": 4398,
              "pitch": 48,
              "velocity": 110,
              "start": 388.0,
              "duration": 0.4892578125
            },
            {
              "id": 4397,
              "pitch": 55,
              "velocity": 110,
              "start": 388.5,
              "duration": 0.4892578125
            },
            {
              "id": 4396,
              "pitch": 60,
              "velocity": 110,
              "start": 389.0,
              "duration": 0.8330078125
            },
            {
              "id": 4395,
              "pitch": 67,
              "velocity": 110,
              "start": 389.5,
              "duration": 0.4892578125
            },
            {
              "id": 4394,
              "pitch": 76,
              "velocity": 110,
              "start": 390.0,
              "duration": 0.4892578125
            },
            {
              "id": 4393,
              "pitch": 74,
              "velocity": 110,
              "start": 390.5,
              "duration": 0.4892578125
            },
            {
              "id": 4392,
              "pitch": 72,
              "velocity": 110,
              "start": 391.0,
              "duration": 0.4892578125
            },
            {
              "id": 4391,
              "pitch": 76,
              "velocity": 110,
              "start": 391.5,
              "duration": 0.4892578125
            },
            {
              "id": 4390,
              "pitch": 74,
              "velocity": 110,
              "start": 392.0,
              "duration": 0.8330078125
            },
            {
              "id": 4389,
              "pitch": 47,
              "velocity": 110,
              "start": 392.0,
              "duration": 0.4892578125
            },
            {
              "id": 4388,
              "pitch": 55,
              "velocity": 110,
              "start": 392.5,
              "duration": 0.4892578125
            },
            {
              "id": 4387,
              "pitch": 59,
              "velocity": 110,
              "start": 393.0,
              "duration": 0.8330078125
            },
            {
              "id": 4386,
              "pitch": 67,
              "velocity": 110,
              "start": 393.5,
              "duration": 0.4892578125
            },
            {
              "id": 4385,
              "pitch": 55,
              "velocity": 110,
              "start": 394.5,
              "duration": 0.4892578125
            },
            {
              "id": 4384,
              "pitch": 59,
              "velocity": 110,
              "start": 395.0,
              "duration": 0.8330078125
            },
            {
              "id": 4383,
              "pitch": 45,
              "velocity": 110,
              "start": 396.0,
              "duration": 0.4892578125
            },
            {
              "id": 4382,
              "pitch": 52,
              "velocity": 110,
              "start": 396.5,
              "duration": 0.4892578125
            },
            {
              "id": 4381,
              "pitch": 57,
              "velocity": 110,
              "start": 397.0,
              "duration": 0.8330078125
            },
            {
              "id": 4380,
              "pitch": 64,
              "velocity": 110,
              "start": 397.5,
              "duration": 0.4892578125
            },
            {
              "id": 4379,
              "pitch": 74,
              "velocity": 110,
              "start": 398.0,
              "duration": 0.4892578125
            },
            {
              "id": 4378,
              "pitch": 72,
              "velocity": 110,
              "start": 398.5,
              "duration": 0.4892578125
            },
            {
              "id": 4377,
              "pitch": 71,
              "velocity": 110,
              "start": 399.0,
              "duration": 0.4892578125
            },
            {
              "id": 4376,
              "pitch": 52,
              "velocity": 110,
              "start": 399.0,
              "duration": 0.8330078125
            },
            {
              "id": 4375,
              "pitch": 72,
              "velocity": 110,
              "start": 399.5,
              "duration": 0.4892578125
            },
            {
              "id": 4374,
              "pitch": 71,
              "velocity": 110,
              "start": 400.0,
              "duration": 0.8330078125
            },
            {
              "id": 4373,
              "pitch": 43,
              "velocity": 110,
              "start": 400.0,
              "duration": 0.4892578125
            },
            {
              "id": 4372,
              "pitch": 50,
              "velocity": 110,
              "start": 400.5,
              "duration": 0.4892578125
            },
            {
              "id": 4371,
              "pitch": 55,
              "velocity": 110,
              "start": 401.0,
              "duration": 0.8330078125
            },
            {
              "id": 4370,
              "pitch": 67,
              "velocity": 110,
              "start": 401.5,
              "duration": 0.4892578125
            },
            {
              "id": 4369,
              "pitch": 50,
              "velocity": 110,
              "start": 403.0,
              "duration": 0.8330078125
            },
            {
              "id": 4368,
              "pitch": 48,
              "velocity": 110,
              "start": 404.0,
              "duration": 0.4892578125
            },
            {
              "id": 4367,
              "pitch": 55,
              "velocity": 110,
              "start": 404.5,
              "duration": 0.4892578125
            },
            {
              "id": 4366,
              "pitch": 60,
              "velocity": 110,
              "start": 405.0,
              "duration": 0.8330078125
            },
            {
              "id": 4365,
              "pitch": 67,
              "velocity": 110,
              "start": 405.5,
              "duration": 0.4892578125
            },
            {
              "id": 4364,
              "pitch": 76,
              "velocity": 110,
              "start": 406.0,
              "duration": 0.4892578125
            },
            {
              "id": 4363,
              "pitch": 74,
              "velocity": 110,
              "start": 406.5,
              "duration": 0.4892578125
            },
            {
              "id": 4362,
              "pitch": 72,
              "velocity": 110,
              "start": 407.0,
              "duration": 0.4892578125
            },
            {
              "id": 4361,
              "pitch": 76,
              "velocity": 110,
              "start": 407.5,
              "duration": 0.4892578125
            },
            {
              "id": 4360,
              "pitch": 74,
              "velocity": 110,
              "start": 408.0,
              "duration": 0.8330078125
            },
            {
              "id": 4359,
              "pitch": 47,
              "velocity": 110,
              "start": 408.0,
              "duration": 0.4892578125
            },
            {
              "id": 4358,
              "pitch": 55,
              "velocity": 110,
              "start": 408.5,
              "duration": 0.4892578125
            },
            {
              "id": 4357,
              "pitch": 59,
              "velocity": 110,
              "start": 409.0,
              "duration": 0.8330078125
            },
            {
              "id": 4356,
              "pitch": 67,
              "velocity": 110,
              "start": 409.5,
              "duration": 0.4892578125
            },
            {
              "id": 4355,
              "pitch": 59,
              "velocity": 110,
              "start": 411.0,
              "duration": 0.8330078125
            },
            {
              "id": 4354,
              "pitch": 46,
              "velocity": 110,
              "start": 412.0,
              "duration": 0.4892578125
            },
            {
              "id": 4353,
              "pitch": 53,
              "velocity": 110,
              "start": 412.5,
              "duration": 0.4892578125
            },
            {
              "id": 4352,
              "pitch": 58,
              "velocity": 110,
              "start": 413.0,
              "duration": 0.8330078125
            },
            {
              "id": 4351,
              "pitch": 72,
              "velocity": 110,
              "start": 414.0,
              "duration": 0.4892578125
            },
            {
              "id": 4350,
              "pitch": 74,
              "velocity": 110,
              "start": 414.5,
              "duration": 0.4892578125
            },
            {
              "id": 4349,
              "pitch": 72,
              "velocity": 110,
              "start": 415.0,
              "duration": 0.4892578125
            },
            {
              "id": 4348,
              "pitch": 58,
              "velocity": 110,
              "start": 415.0,
              "duration": 0.8330078125
            },
            {
              "id": 4347,
              "pitch": 71,
              "velocity": 110,
              "start": 415.5,
              "duration": 0.4892578125
            },
            {
              "id": 4346,
              "pitch": 45,
              "velocity": 110,
              "start": 416.0,
              "duration": 0.4892578125
            },
            {
              "id": 4345,
              "pitch": 57,
              "velocity": 110,
              "start": 416.5,
              "duration": 0.4892578125
            },
            {
              "id": 4344,
              "pitch": 67,
              "velocity": 110,
              "start": 417.0,
              "duration": 0.8330078125
            },
            {
              "id": 4343,
              "pitch": 64,
              "velocity": 110,
              "start": 418.0,
              "duration": 0.8330078125
            },
            {
              "id": 4342,
              "pitch": 50,
              "velocity": 110,
              "start": 418.0,
              "duration": 0.4892578125
            },
            {
              "id": 4341,
              "pitch": 57,
              "velocity": 110,
              "start": 418.5,
              "duration": 0.4892578125
            },
            {
              "id": 4340,
              "pitch": 43,
              "velocity": 110,
              "start": 420.0,
              "duration": 0.4892578125
            },
            {
              "id": 4339,
              "pitch": 62,
              "velocity": 110,
              "start": 420.5,
              "duration": 0.4892578125
            },
            {
              "id": 4338,
              "pitch": 50,
              "velocity": 110,
              "start": 420.5,
              "duration": 0.4892578125
            },
            {
              "id": 4337,
              "pitch": 67,
              "velocity": 110,
              "start": 421.0,
              "duration": 0.4892578125
            },
            {
              "id": 4336,
              "pitch": 69,
              "velocity": 110,
              "start": 421.5,
              "duration": 0.4892578125
            },
            {
              "id": 4335,
              "pitch": 71,
              "velocity": 110,
              "start": 422.0,
              "duration": 0.4892578125
            },
            {
              "id": 4334,
              "pitch": 72,
              "velocity": 110,
              "start": 422.5,
              "duration": 0.4892578125
            },
            {
              "id": 4333,
              "pitch": 71,
              "velocity": 110,
              "start": 423.0,
              "duration": 0.4892578125
            },
            {
              "id": 4332,
              "pitch": 55,
              "velocity": 110,
              "start": 423.0,
              "duration": 0.8330078125
            },
            {
              "id": 4331,
              "pitch": 69,
              "velocity": 110,
              "start": 423.5,
              "duration": 0.4892578125
            },
            {
              "id": 4330,
              "pitch": 67,
              "velocity": 110,
              "start": 424.0,
              "duration": 0.8330078125
            },
            {
              "id": 4329,
              "pitch": 41,
              "velocity": 110,
              "start": 424.0,
              "duration": 0.4892578125
            },
            {
              "id": 4328,
              "pitch": 48,
              "velocity": 110,
              "start": 424.5,
              "duration": 0.4892578125
            },
            {
              "id": 4327,
              "pitch": 62,
              "velocity": 110,
              "start": 425.0,
              "duration": 0.8330078125
            },
            {
              "id": 4326,
              "pitch": 53,
              "velocity": 110,
              "start": 425.0,
              "duration": 0.8330078125
            },
            {
              "id": 4325,
              "pitch": 60,
              "velocity": 110,
              "start": 426.0,
              "duration": 0.8330078125
            },
            {
              "id": 4324,
              "pitch": 48,
              "velocity": 110,
              "start": 426.5,
              "duration": 0.4892578125
            },
            {
              "id": 4323,
              "pitch": 67,
              "velocity": 110,
              "start": 427.0,
              "duration": 0.8330078125
            },
            {
              "id": 4322,
              "pitch": 53,
              "velocity": 110,
              "start": 427.0,
              "duration": 0.8330078125
            },
            {
              "id": 4321,
              "pitch": 62,
              "velocity": 110,
              "start": 428.0,
              "duration": 0.8330078125
            },
            {
              "id": 4320,
              "pitch": 39,
              "velocity": 110,
              "start": 428.0,
              "duration": 0.4892578125
            },
            {
              "id": 4319,
              "pitch": 46,
              "velocity": 110,
              "start": 428.5,
              "duration": 0.4892578125
            },
            {
              "id": 4318,
              "pitch": 51,
              "velocity": 110,
              "start": 429.0,
              "duration": 0.8330078125
            },
            {
              "id": 4317,
              "pitch": 55,
              "velocity": 110,
              "start": 429.5,
              "duration": 0.4892578125
            },
            {
              "id": 4316,
              "pitch": 46,
              "velocity": 110,
              "start": 431.0,
              "duration": 0.8330078125
            },
            {
              "id": 4315,
              "pitch": 55,
              "velocity": 110,
              "start": 431.5,
              "duration": 0.4892578125
            },
            {
              "id": 4314,
              "pitch": 41,
              "velocity": 110,
              "start": 432.0,
              "duration": 0.4892578125
            },
            {
              "id": 4313,
              "pitch": 48,
              "velocity": 110,
              "start": 432.5,
              "duration": 0.4892578125
            },
            {
              "id": 4312,
              "pitch": 53,
              "velocity": 110,
              "start": 433.0,
              "duration": 0.8330078125
            },
            {
              "id": 4311,
              "pitch": 48,
              "velocity": 110,
              "start": 435.0,
              "duration": 0.8330078125
            },
            {
              "id": 4310,
              "pitch": 60,
              "velocity": 110,
              "start": 435.5,
              "duration": 0.4892578125
            },
            {
              "id": 4309,
              "pitch": 59,
              "velocity": 110,
              "start": 436.0,
              "duration": 0.4892578125
            },
            {
              "id": 4308,
              "pitch": 43,
              "velocity": 110,
              "start": 436.0,
              "duration": 0.4892578125
            },
            {
              "id": 4307,
              "pitch": 62,
              "velocity": 110,
              "start": 436.5,
              "duration": 0.4892578125
            },
            {
              "id": 4306,
              "pitch": 50,
              "velocity": 110,
              "start": 436.5,
              "duration": 0.4892578125
            },
            {
              "id": 4305,
              "pitch": 67,
              "velocity": 110,
              "start": 437.0,
              "duration": 0.8330078125
            },
            {
              "id": 4304,
              "pitch": 55,
              "velocity": 110,
              "start": 437.0,
              "duration": 0.8330078125
            },
            {
              "id": 4303,
              "pitch": 57,
              "velocity": 110,
              "start": 438.5,
              "duration": 0.4892578125
            },
            {
              "id": 4302,
              "pitch": 55,
              "velocity": 110,
              "start": 439.0,
              "duration": 0.8330078125
            },
            {
              "id": 4301,
              "pitch": 59,
              "velocity": 110,
              "start": 439.5,
              "duration": 0.4892578125
            },
            {
              "id": 4300,
              "pitch": 43,
              "velocity": 110,
              "start": 440.0,
              "duration": 0.8330078125
            },
            {
              "id": 4299,
              "pitch": 50,
              "velocity": 110,
              "start": 441.0,
              "duration": 0.8330078125
            },
            {
              "id": 4298,
              "pitch": 62,
              "velocity": 110,
              "start": 441.5,
              "duration": 0.4892578125
            },
            {
              "id": 4297,
              "pitch": 43,
              "velocity": 110,
              "start": 444.0,
              "duration": 0.4892578125
            },
            {
              "id": 4296,
              "pitch": 62,
              "velocity": 110,
              "start": 444.5,
              "duration": 0.4892578125
            },
            {
              "id": 4295,
              "pitch": 50,
              "velocity": 110,
              "start": 444.5,
              "duration": 0.4892578125
            },
            {
              "id": 4294,
              "pitch": 67,
              "velocity": 110,
              "start": 445.0,
              "duration": 0.4892578125
            },
            {
              "id": 4293,
              "pitch": 69,
              "velocity": 110,
              "start": 445.5,
              "duration": 0.4892578125
            },
            {
              "id": 4292,
              "pitch": 71,
              "velocity": 110,
              "start": 446.0,
              "duration": 0.4892578125
            },
            {
              "id": 4291,
              "pitch": 72,
              "velocity": 110,
              "start": 446.5,
              "duration": 0.4892578125
            },
            {
              "id": 4290,
              "pitch": 71,
              "velocity": 110,
              "start": 447.0,
              "duration": 0.4892578125
            },
            {
              "id": 4289,
              "pitch": 55,
              "velocity": 110,
              "start": 447.0,
              "duration": 0.4892578125
            },
            {
              "id": 4288,
              "pitch": 69,
              "velocity": 110,
              "start": 447.5,
              "duration": 0.4892578125
            },
            {
              "id": 4287,
              "pitch": 50,
              "velocity": 110,
              "start": 447.5,
              "duration": 0.4892578125
            },
            {
              "id": 4286,
              "pitch": 67,
              "velocity": 110,
              "start": 448.0,
              "duration": 0.8330078125
            },
            {
              "id": 4285,
              "pitch": 41,
              "velocity": 110,
              "start": 448.0,
              "duration": 0.4892578125
            },
            {
              "id": 4284,
              "pitch": 48,
              "velocity": 110,
              "start": 448.5,
              "duration": 0.4892578125
            },
            {
              "id": 4283,
              "pitch": 62,
              "velocity": 110,
              "start": 449.0,
              "duration": 0.8330078125
            },
            {
              "id": 4282,
              "pitch": 53,
              "velocity": 110,
              "start": 449.0,
              "duration": 0.8330078125
            },
            {
              "id": 4281,
              "pitch": 60,
              "velocity": 110,
              "start": 450.0,
              "duration": 0.8330078125
            },
            {
              "id": 4280,
              "pitch": 48,
              "velocity": 110,
              "start": 450.5,
              "duration": 0.4892578125
            },
            {
              "id": 4279,
              "pitch": 67,
              "velocity": 110,
              "start": 451.0,
              "duration": 0.8330078125
            },
            {
              "id": 4278,
              "pitch": 62,
              "velocity": 110,
              "start": 452.0,
              "duration": 0.8330078125
            },
            {
              "id": 4277,
              "pitch": 39,
              "velocity": 110,
              "start": 452.0,
              "duration": 0.4892578125
            },
            {
              "id": 4276,
              "pitch": 46,
              "velocity": 110,
              "start": 452.5,
              "duration": 0.4892578125
            },
            {
              "id": 4275,
              "pitch": 51,
              "velocity": 110,
              "start": 453.0,
              "duration": 0.8330078125
            },
            {
              "id": 4274,
              "pitch": 55,
              "velocity": 110,
              "start": 453.5,
              "duration": 0.4892578125
            },
            {
              "id": 4273,
              "pitch": 60,
              "velocity": 110,
              "start": 454.5,
              "duration": 0.4892578125
            },
            {
              "id": 4272,
              "pitch": 51,
              "velocity": 110,
              "start": 455.0,
              "duration": 0.8330078125
            },
            {
              "id": 4271,
              "pitch": 55,
              "velocity": 110,
              "start": 455.5,
              "duration": 0.4892578125
            },
            {
              "id": 4270,
              "pitch": 41,
              "velocity": 110,
              "start": 456.0,
              "duration": 0.4892578125
            },
            {
              "id": 4269,
              "pitch": 48,
              "velocity": 110,
              "start": 456.5,
              "duration": 0.4892578125
            },
            {
              "id": 4268,
              "pitch": 53,
              "velocity": 110,
              "start": 457.0,
              "duration": 0.8330078125
            },
            {
              "id": 4267,
              "pitch": 60,
              "velocity": 110,
              "start": 458.5,
              "duration": 0.4892578125
            },
            {
              "id": 4266,
              "pitch": 48,
              "velocity": 110,
              "start": 459.0,
              "duration": 0.8330078125
            },
            {
              "id": 4265,
              "pitch": 60,
              "velocity": 110,
              "start": 459.5,
              "duration": 0.4892578125
            },
            {
              "id": 4264,
              "pitch": 59,
              "velocity": 110,
              "start": 460.0,
              "duration": 0.4892578125
            },
            {
              "id": 4263,
              "pitch": 43,
              "velocity": 110,
              "start": 460.0,
              "duration": 0.4892578125
            },
            {
              "id": 4262,
              "pitch": 62,
              "velocity": 110,
              "start": 460.5,
              "duration": 0.4892578125
            },
            {
              "id": 4261,
              "pitch": 50,
              "velocity": 110,
              "start": 460.5,
              "duration": 0.4892578125
            },
            {
              "id": 4260,
              "pitch": 67,
              "velocity": 110,
              "start": 461.0,
              "duration": 0.8330078125
            },
            {
              "id": 4259,
              "pitch": 55,
              "velocity": 110,
              "start": 461.0,
              "duration": 0.8330078125
            },
            {
              "id": 4258,
              "pitch": 57,
              "velocity": 110,
              "start": 462.5,
              "duration": 0.4892578125
            },
            {
              "id": 4257,
              "pitch": 55,
              "velocity": 110,
              "start": 463.0,
              "duration": 0.8330078125
            },
            {
              "id": 4256,
              "pitch": 59,
              "velocity": 110,
              "start": 463.5,
              "duration": 0.4892578125
            },
            {
              "id": 4255,
              "pitch": 43,
              "velocity": 110,
              "start": 464.0,
              "duration": 0.4892578125
            },
            {
              "id": 4254,
              "pitch": 50,
              "velocity": 110,
              "start": 464.5,
              "duration": 0.4892578125
            },
            {
              "id": 4253,
              "pitch": 55,
              "velocity": 110,
              "start": 465.0,
              "duration": 0.8330078125
            },
            {
              "id": 4252,
              "pitch": 59,
              "velocity": 110,
              "start": 466.5,
              "duration": 0.4892578125
            },
            {
              "id": 4251,
              "pitch": 67,
              "velocity": 110,
              "start": 466.5,
              "duration": 0.4892578125
            },
            {
              "id": 4250,
              "pitch": 41,
              "velocity": 110,
              "start": 468.0,
              "duration": 0.4892578125
            },
            {
              "id": 4249,
              "pitch": 48,
              "velocity": 110,
              "start": 468.5,
              "duration": 0.4892578125
            },
            {
              "id": 4248,
              "pitch": 53,
              "velocity": 110,
              "start": 469.0,
              "duration": 0.8330078125
            },
            {
              "id": 4247,
              "pitch": 57,
              "velocity": 110,
              "start": 469.5,
              "duration": 0.4892578125
            },
            {
              "id": 4246,
              "pitch": 65,
              "velocity": 110,
              "start": 469.5,
              "duration": 0.4892578125
            },
            {
              "id": 4245,
              "pitch": 57,
              "velocity": 110,
              "start": 470.5,
              "duration": 0.4892578125
            },
            {
              "id": 4244,
              "pitch": 65,
              "velocity": 110,
              "start": 470.5,
              "duration": 0.4892578125
            },
            {
              "id": 4243,
              "pitch": 57,
              "velocity": 110,
              "start": 471.0,
              "duration": 0.4892578125
            },
            {
              "id": 4242,
              "pitch": 65,
              "velocity": 110,
              "start": 471.0,
              "duration": 0.4892578125
            },
            {
              "id": 4241,
              "pitch": 57,
              "velocity": 110,
              "start": 471.5,
              "duration": 0.4892578125
            },
            {
              "id": 4240,
              "pitch": 65,
              "velocity": 110,
              "start": 471.5,
              "duration": 0.4892578125
            },
            {
              "id": 4239,
              "pitch": 41,
              "velocity": 110,
              "start": 472.0,
              "duration": 0.8330078125
            },
            {
              "id": 4238,
              "pitch": 57,
              "velocity": 110,
              "start": 472.5,
              "duration": 0.4892578125
            },
            {
              "id": 4237,
              "pitch": 65,
              "velocity": 110,
              "start": 472.5,
              "duration": 0.4892578125
            },
            {
              "id": 4236,
              "pitch": 57,
              "velocity": 110,
              "start": 473.0,
              "duration": 0.4892578125
            },
            {
              "id": 4235,
              "pitch": 65,
              "velocity": 110,
              "start": 473.0,
              "duration": 0.4892578125
            },
            {
              "id": 4234,
              "pitch": 57,
              "velocity": 110,
              "start": 473.5,
              "duration": 0.4892578125
            },
            {
              "id": 4233,
              "pitch": 65,
              "velocity": 110,
              "start": 473.5,
              "duration": 0.4892578125
            },
            {
              "id": 4232,
              "pitch": 48,
              "velocity": 110,
              "start": 474.0,
              "duration": 0.8330078125
            },
            {
              "id": 4231,
              "pitch": 57,
              "velocity": 110,
              "start": 474.5,
              "duration": 0.4892578125
            },
            {
              "id": 4230,
              "pitch": 65,
              "velocity": 110,
              "start": 474.5,
              "duration": 0.4892578125
            },
            {
              "id": 4229,
              "pitch": 57,
              "velocity": 110,
              "start": 475.0,
              "duration": 0.4892578125
            },
            {
              "id": 4228,
              "pitch": 65,
              "velocity": 110,
              "start": 475.0,
              "duration": 0.4892578125
            },
            {
              "id": 4227,
              "pitch": 53,
              "velocity": 110,
              "start": 475.0,
              "duration": 0.8330078125
            },
            {
              "id": 4226,
              "pitch": 57,
              "velocity": 110,
              "start": 475.5,
              "duration": 0.4892578125
            },
            {
              "id": 4225,
              "pitch": 65,
              "velocity": 110,
              "start": 475.5,
              "duration": 0.4892578125
            },
            {
              "id": 4224,
              "pitch": 39,
              "velocity": 110,
              "start": 476.0,
              "duration": 0.4892578125
            },
            {
              "id": 4223,
              "pitch": 46,
              "velocity": 110,
              "start": 476.5,
              "duration": 0.4892578125
            },
            {
              "id": 4222,
              "pitch": 51,
              "velocity": 110,
              "start": 477.0,
              "duration": 0.8330078125
            },
            {
              "id": 4221,
              "pitch": 58,
              "velocity": 110,
              "start": 477.5,
              "duration": 0.4892578125
            },
            {
              "id": 4220,
              "pitch": 67,
              "velocity": 110,
              "start": 477.5,
              "duration": 0.4892578125
            },
            {
              "id": 4219,
              "pitch": 58,
              "velocity": 110,
              "start": 478.5,
              "duration": 0.4892578125
            },
            {
              "id": 4218,
              "pitch": 67,
              "velocity": 110,
              "start": 478.5,
              "duration": 0.4892578125
            },
            {
              "id": 4217,
              "pitch": 51,
              "velocity": 110,
              "start": 479.0,
              "duration": 0.8330078125
            },
            {
              "id": 4216,
              "pitch": 58,
              "velocity": 110,
              "start": 479.5,
              "duration": 0.4892578125
            },
            {
              "id": 4215,
              "pitch": 67,
              "velocity": 110,
              "start": 479.5,
              "duration": 0.4892578125
            },
            {
              "id": 4214,
              "pitch": 39,
              "velocity": 110,
              "start": 480.0,
              "duration": 0.8330078125
            },
            {
              "id": 4213,
              "pitch": 58,
              "velocity": 110,
              "start": 480.5,
              "duration": 0.4892578125
            },
            {
              "id": 4212,
              "pitch": 67,
              "velocity": 110,
              "start": 480.5,
              "duration": 0.4892578125
            },
            {
              "id": 4211,
              "pitch": 58,
              "velocity": 110,
              "start": 481.0,
              "duration": 0.4892578125
            },
            {
              "id": 4210,
              "pitch": 58,
              "velocity": 110,
              "start": 481.5,
              "duration": 0.4892578125
            },
            {
              "id": 4209,
              "pitch": 67,
              "velocity": 110,
              "start": 481.5,
              "duration": 0.4892578125
            },
            {
              "id": 4208,
              "pitch": 51,
              "velocity": 110,
              "start": 481.75,
              "duration": 0.2392578125
            },
            {
              "id": 4207,
              "pitch": 58,
              "velocity": 110,
              "start": 482.0,
              "duration": 0.4892578125
            },
            {
              "id": 4206,
              "pitch": 67,
              "velocity": 110,
              "start": 482.0,
              "duration": 0.4892578125
            },
            {
              "id": 4205,
              "pitch": 58,
              "velocity": 110,
              "start": 482.5,
              "duration": 0.4892578125
            },
            {
              "id": 4204,
              "pitch": 67,
              "velocity": 110,
              "start": 482.5,
              "duration": 0.4892578125
            },
            {
              "id": 4203,
              "pitch": 58,
              "velocity": 110,
              "start": 483.0,
              "duration": 0.4892578125
            },
            {
              "id": 4202,
              "pitch": 67,
              "velocity": 110,
              "start": 483.0,
              "duration": 0.4892578125
            },
            {
              "id": 4201,
              "pitch": 58,
              "velocity": 110,
              "start": 483.5,
              "duration": 0.4892578125
            },
            {
              "id": 4200,
              "pitch": 67,
              "velocity": 110,
              "start": 483.5,
              "duration": 0.4892578125
            },
            {
              "id": 4199,
              "pitch": 38,
              "velocity": 110,
              "start": 484.0,
              "duration": 0.4892578125
            },
            {
              "id": 4198,
              "pitch": 45,
              "velocity": 110,
              "start": 484.5,
              "duration": 0.4892578125
            },
            {
              "id": 4197,
              "pitch": 50,
              "velocity": 110,
              "start": 485.0,
              "duration": 0.8330078125
            },
            {
              "id": 4196,
              "pitch": 60,
              "velocity": 110,
              "start": 485.5,
              "duration": 0.4892578125
            },
            {
              "id": 4195,
              "pitch": 67,
              "velocity": 110,
              "start": 485.5,
              "duration": 0.4892578125
            },
            {
              "id": 4194,
              "pitch": 60,
              "velocity": 110,
              "start": 486.5,
              "duration": 0.4892578125
            },
            {
              "id": 4193,
              "pitch": 67,
              "velocity": 110,
              "start": 486.5,
              "duration": 0.4892578125
            },
            {
              "id": 4192,
              "pitch": 50,
              "velocity": 110,
              "start": 487.0,
              "duration": 0.8330078125
            },
            {
              "id": 4191,
              "pitch": 60,
              "velocity": 110,
              "start": 487.5,
              "duration": 0.4892578125
            },
            {
              "id": 4190,
              "pitch": 67,
              "velocity": 110,
              "start": 487.5,
              "duration": 0.4892578125
            },
            {
              "id": 4189,
              "pitch": 38,
              "velocity": 110,
              "start": 488.0,
              "duration": 0.8330078125
            },
            {
              "id": 4188,
              "pitch": 60,
              "velocity": 110,
              "start": 488.5,
              "duration": 0.4892578125
            },
            {
              "id": 4187,
              "pitch": 69,
              "velocity": 110,
              "start": 488.5,
              "duration": 0.4892578125
            },
            {
              "id": 4186,
              "pitch": 50,
              "velocity": 110,
              "start": 489.0,
              "duration": 0.8330078125
            },
            {
              "id": 4185,
              "pitch": 60,
              "velocity": 110,
              "start": 489.5,
              "duration": 0.4892578125
            },
            {
              "id": 4184,
              "pitch": 69,
              "velocity": 110,
              "start": 489.5,
              "duration": 0.4892578125
            },
            {
              "id": 4183,
              "pitch": 60,
              "velocity": 110,
              "start": 490.5,
              "duration": 0.4892578125
            },
            {
              "id": 4182,
              "pitch": 69,
              "velocity": 110,
              "start": 490.5,
              "duration": 0.4892578125
            },
            {
              "id": 4181,
              "pitch": 50,
              "velocity": 110,
              "start": 490.5,
              "duration": 0.4892578125
            },
            {
              "id": 4180,
              "pitch": 50,
              "velocity": 110,
              "start": 491.5,
              "duration": 0.4892578125
            },
            {
              "id": 4179,
              "pitch": 45,
              "velocity": 110,
              "start": 492.0,
              "duration": 0.4892578125
            },
            {
              "id": 4178,
              "pitch": 50,
              "velocity": 110,
              "start": 492.0,
              "duration": 0.4892578125
            },
            {
              "id": 4177,
              "pitch": 38,
              "velocity": 110,
              "start": 492.5,
              "duration": 0.4892578125
            },
            {
              "id": 4176,
              "pitch": 53,
              "velocity": 110,
              "start": 492.5,
              "duration": 0.4892578125
            },
            {
              "id": 4175,
              "pitch": 45,
              "velocity": 110,
              "start": 493.0,
              "duration": 0.4892578125
            },
            {
              "id": 4174,
              "pitch": 57,
              "velocity": 110,
              "start": 493.0,
              "duration": 0.4892578125
            },
            {
              "id": 4173,
              "pitch": 44,
              "velocity": 110,
              "start": 493.5,
              "duration": 2.3330078125
            },
            {
              "id": 4172,
              "pitch": 56,
              "velocity": 110,
              "start": 493.5,
              "duration": 2.3330078125
            },
            {
              "id": 4171,
              "pitch": 57,
              "velocity": 110,
              "start": 495.0,
              "duration": 0.8330078125
            },
            {
              "id": 4170,
              "pitch": 62,
              "velocity": 110,
              "start": 495.0,
              "duration": 0.8330078125
            },
            {
              "id": 4169,
              "pitch": 74,
              "velocity": 110,
              "start": 496.0,
              "duration": 0.3642578125
            },
            {
              "id": 4168,
              "pitch": 62,
              "velocity": 110,
              "start": 496.0,
              "duration": 0.3642578125
            },
            {
              "id": 4167,
              "pitch": 72,
              "velocity": 110,
              "start": 496.375,
              "duration": 0.3642578125
            },
            {
              "id": 4166,
              "pitch": 60,
              "velocity": 110,
              "start": 496.375,
              "duration": 0.3642578125
            },
            {
              "id": 4165,
              "pitch": 67,
              "velocity": 110,
              "start": 496.75,
              "duration": 0.2392578125
            },
            {
              "id": 4164,
              "pitch": 55,
              "velocity": 110,
              "start": 496.75,
              "duration": 0.2392578125
            },
            {
              "id": 4163,
              "pitch": 62,
              "velocity": 110,
              "start": 497.0,
              "duration": 0.3642578125
            },
            {
              "id": 4162,
              "pitch": 50,
              "velocity": 110,
              "start": 497.0,
              "duration": 0.3642578125
            },
            {
              "id": 4161,
              "pitch": 60,
              "velocity": 110,
              "start": 497.375,
              "duration": 0.3642578125
            },
            {
              "id": 4160,
              "pitch": 48,
              "velocity": 110,
              "start": 497.375,
              "duration": 0.3642578125
            },
            {
              "id": 4159,
              "pitch": 55,
              "velocity": 110,
              "start": 497.75,
              "duration": 0.2392578125
            },
            {
              "id": 4158,
              "pitch": 43,
              "velocity": 110,
              "start": 497.75,
              "duration": 0.2392578125
            },
            {
              "id": 4157,
              "pitch": 50,
              "velocity": 110,
              "start": 498.0,
              "duration": 0.8330078125
            },
            {
              "id": 4156,
              "pitch": 38,
              "velocity": 110,
              "start": 498.0,
              "duration": 5.75
            },
            {
              "id": 4155,
              "pitch": 45,
              "velocity": 110,
              "start": 498.0,
              "duration": 5.75
            },
            {
              "id": 4154,
              "pitch": 50,
              "velocity": 110,
              "start": 498.0,
              "duration": 5.75
            },
            {
              "id": 4153,
              "pitch": 57,
              "velocity": 110,
              "start": 504.0,
              "duration": 3.75
            },
            {
              "id": 4152,
              "pitch": 62,
              "velocity": 110,
              "start": 504.0,
              "duration": 3.75
            },
            {
              "id": 4151,
              "pitch": 38,
              "velocity": 110,
              "start": 504.0,
              "duration": 15.75
            },
            {
              "id": 4150,
              "pitch": 45,
              "velocity": 110,
              "start": 504.0,
              "duration": 15.75
            },
            {
              "id": 4149,
              "pitch": 50,
              "velocity": 110,
              "start": 504.0,
              "duration": 15.75
            },
            {
              "id": 4148,
              "pitch": 59,
              "velocity": 110,
              "start": 508.0,
              "duration": 3.75
            },
            {
              "id": 4147,
              "pitch": 64,
              "velocity": 110,
              "start": 508.0,
              "duration": 3.75
            },
            {
              "id": 4146,
              "pitch": 60,
              "velocity": 110,
              "start": 512.0,
              "duration": 3.75
            },
            {
              "id": 4145,
              "pitch": 65,
              "velocity": 110,
              "start": 512.0,
              "duration": 3.75
            },
            {
              "id": 4144,
              "pitch": 62,
              "velocity": 110,
              "start": 516.0,
              "duration": 3.75
            },
            {
              "id": 4143,
              "pitch": 67,
              "velocity": 110,
              "start": 516.0,
              "duration": 3.75
            },
            {
              "id": 4142,
              "pitch": 57,
              "velocity": 110,
              "start": 520.0,
              "duration": 3.75
            },
            {
              "id": 4141,
              "pitch": 62,
              "velocity": 110,
              "start": 520.0,
              "duration": 3.75
            },
            {
              "id": 4140,
              "pitch": 38,
              "velocity": 110,
              "start": 520.0,
              "duration": 13.75
            },
            {
              "id": 4139,
              "pitch": 45,
              "velocity": 110,
              "start": 520.0,
              "duration": 13.75
            },
            {
              "id": 4138,
              "pitch": 50,
              "velocity": 110,
              "start": 520.0,
              "duration": 13.75
            },
            {
              "id": 4137,
              "pitch": 59,
              "velocity": 110,
              "start": 524.0,
              "duration": 3.75
            },
            {
              "id": 4136,
              "pitch": 64,
              "velocity": 110,
              "start": 524.0,
              "duration": 3.75
            },
            {
              "id": 4135,
              "pitch": 60,
              "velocity": 110,
              "start": 528.0,
              "duration": 3.75
            },
            {
              "id": 4134,
              "pitch": 65,
              "velocity": 110,
              "start": 528.0,
              "duration": 3.75
            },
            {
              "id": 4133,
              "pitch": 62,
              "velocity": 110,
              "start": 532.0,
              "duration": 1.75
            },
            {
              "id": 4132,
              "pitch": 67,
              "velocity": 110,
              "start": 532.0,
              "duration": 1.75
            },
            {
              "id": 4131,
              "pitch": 62,
              "velocity": 110,
              "start": 536.0,
              "duration": 2.4892578125
            },
            {
              "id": 4130,
              "pitch": 50,
              "velocity": 110,
              "start": 536.0,
              "duration": 0.8330078125
            },
            {
              "id": 4129,
              "pitch": 57,
              "velocity": 110,
              "start": 536.0,
              "duration": 0.8330078125
            },
            {
              "id": 4128,
              "pitch": 62,
              "velocity": 110,
              "start": 536.0,
              "duration": 0.8330078125
            },
            {
              "id": 4127,
              "pitch": 50,
              "velocity": 110,
              "start": 537.0,
              "duration": 0.8330078125
            },
            {
              "id": 4126,
              "pitch": 57,
              "velocity": 110,
              "start": 537.0,
              "duration": 0.8330078125
            },
            {
              "id": 4125,
              "pitch": 62,
              "velocity": 110,
              "start": 537.0,
              "duration": 0.8330078125
            },
            {
              "id": 4124,
              "pitch": 57,
              "velocity": 110,
              "start": 538.5,
              "duration": 0.4892578125
            },
            {
              "id": 4123,
              "pitch": 50,
              "velocity": 110,
              "start": 538.5,
              "duration": 0.4892578125
            },
            {
              "id": 4122,
              "pitch": 57,
              "velocity": 110,
              "start": 538.5,
              "duration": 0.4892578125
            },
            {
              "id": 4121,
              "pitch": 62,
              "velocity": 110,
              "start": 538.5,
              "duration": 0.4892578125
            },
            {
              "id": 4120,
              "pitch": 62,
              "velocity": 110,
              "start": 539.0,
              "duration": 0.4892578125
            },
            {
              "id": 4119,
              "pitch": 50,
              "velocity": 110,
              "start": 539.0,
              "duration": 0.2392578125
            },
            {
              "id": 4118,
              "pitch": 57,
              "velocity": 110,
              "start": 539.0,
              "duration": 0.2392578125
            },
            {
              "id": 4117,
              "pitch": 62,
              "velocity": 110,
              "start": 539.0,
              "duration": 0.2392578125
            },
            {
              "id": 4116,
              "pitch": 50,
              "velocity": 110,
              "start": 539.25,
              "duration": 0.2392578125
            },
            {
              "id": 4115,
              "pitch": 57,
              "velocity": 110,
              "start": 539.25,
              "duration": 0.2392578125
            },
            {
              "id": 4114,
              "pitch": 62,
              "velocity": 110,
              "start": 539.25,
              "duration": 0.2392578125
            },
            {
              "id": 4113,
              "pitch": 72,
              "velocity": 110,
              "start": 539.5,
              "duration": 0.4892578125
            },
            {
              "id": 4112,
              "pitch": 50,
              "velocity": 110,
              "start": 539.5,
              "duration": 0.2392578125
            },
            {
              "id": 4111,
              "pitch": 57,
              "velocity": 110,
              "start": 539.5,
              "duration": 0.2392578125
            },
            {
              "id": 4110,
              "pitch": 62,
              "velocity": 110,
              "start": 539.5,
              "duration": 0.2392578125
            },
            {
              "id": 4109,
              "pitch": 50,
              "velocity": 110,
              "start": 539.75,
              "duration": 0.2392578125
            },
            {
              "id": 4108,
              "pitch": 57,
              "velocity": 110,
              "start": 539.75,
              "duration": 0.2392578125
            },
            {
              "id": 4107,
              "pitch": 62,
              "velocity": 110,
              "start": 539.75,
              "duration": 0.2392578125
            },
            {
              "id": 4106,
              "pitch": 71,
              "velocity": 110,
              "start": 540.0,
              "duration": 0.4892578125
            },
            {
              "id": 4105,
              "pitch": 52,
              "velocity": 110,
              "start": 540.0,
              "duration": 0.8330078125
            },
            {
              "id": 4104,
              "pitch": 59,
              "velocity": 110,
              "start": 540.0,
              "duration": 0.8330078125
            },
            {
              "id": 4103,
              "pitch": 64,
              "velocity": 110,
              "start": 540.0,
              "duration": 0.8330078125
            },
            {
              "id": 4102,
              "pitch": 67,
              "velocity": 110,
              "start": 540.5,
              "duration": 0.4892578125
            },
            {
              "id": 4101,
              "pitch": 62,
              "velocity": 110,
              "start": 541.0,
              "duration": 2.75
            },
            {
              "id": 4100,
              "pitch": 52,
              "velocity": 110,
              "start": 541.0,
              "duration": 0.8330078125
            },
            {
              "id": 4099,
              "pitch": 59,
              "velocity": 110,
              "start": 541.0,
              "duration": 0.8330078125
            },
            {
              "id": 4098,
              "pitch": 64,
              "velocity": 110,
              "start": 541.0,
              "duration": 0.8330078125
            },
            {
              "id": 4097,
              "pitch": 52,
              "velocity": 110,
              "start": 542.5,
              "duration": 0.4892578125
            },
            {
              "id": 4096,
              "pitch": 59,
              "velocity": 110,
              "start": 542.5,
              "duration": 0.4892578125
            },
            {
              "id": 4095,
              "pitch": 64,
              "velocity": 110,
              "start": 542.5,
              "duration": 0.4892578125
            },
            {
              "id": 4094,
              "pitch": 52,
              "velocity": 110,
              "start": 543.0,
              "duration": 0.2392578125
            },
            {
              "id": 4093,
              "pitch": 59,
              "velocity": 110,
              "start": 543.0,
              "duration": 0.2392578125
            },
            {
              "id": 4092,
              "pitch": 64,
              "velocity": 110,
              "start": 543.0,
              "duration": 0.2392578125
            },
            {
              "id": 4091,
              "pitch": 52,
              "velocity": 110,
              "start": 543.25,
              "duration": 0.2392578125
            },
            {
              "id": 4090,
              "pitch": 59,
              "velocity": 110,
              "start": 543.25,
              "duration": 0.2392578125
            },
            {
              "id": 4089,
              "pitch": 64,
              "velocity": 110,
              "start": 543.25,
              "duration": 0.2392578125
            },
            {
              "id": 4088,
              "pitch": 52,
              "velocity": 110,
              "start": 543.5,
              "duration": 0.2392578125
            },
            {
              "id": 4087,
              "pitch": 59,
              "velocity": 110,
              "start": 543.5,
              "duration": 0.2392578125
            },
            {
              "id": 4086,
              "pitch": 64,
              "velocity": 110,
              "start": 543.5,
              "duration": 0.2392578125
            },
            {
              "id": 4085,
              "pitch": 52,
              "velocity": 110,
              "start": 543.75,
              "duration": 0.2392578125
            },
            {
              "id": 4084,
              "pitch": 59,
              "velocity": 110,
              "start": 543.75,
              "duration": 0.2392578125
            },
            {
              "id": 4083,
              "pitch": 64,
              "velocity": 110,
              "start": 543.75,
              "duration": 0.2392578125
            },
            {
              "id": 4082,
              "pitch": 62,
              "velocity": 110,
              "start": 544.0,
              "duration": 1.3330078125
            },
            {
              "id": 4081,
              "pitch": 53,
              "velocity": 110,
              "start": 544.0,
              "duration": 0.8330078125
            },
            {
              "id": 4080,
              "pitch": 60,
              "velocity": 110,
              "start": 544.0,
              "duration": 0.8330078125
            },
            {
              "id": 4079,
              "pitch": 65,
              "velocity": 110,
              "start": 544.0,
              "duration": 0.8330078125
            },
            {
              "id": 4078,
              "pitch": 53,
              "velocity": 110,
              "start": 545.0,
              "duration": 0.8330078125
            },
            {
              "id": 4077,
              "pitch": 60,
              "velocity": 110,
              "start": 545.0,
              "duration": 0.8330078125
            },
            {
              "id": 4076,
              "pitch": 65,
              "velocity": 110,
              "start": 545.0,
              "duration": 0.8330078125
            },
            {
              "id": 4075,
              "pitch": 60,
              "velocity": 110,
              "start": 545.5,
              "duration": 0.9892578125
            },
            {
              "id": 4074,
              "pitch": 62,
              "velocity": 110,
              "start": 546.5,
              "duration": 0.4892578125
            },
            {
              "id": 4073,
              "pitch": 53,
              "velocity": 110,
              "start": 546.5,
              "duration": 0.4892578125
            },
            {
              "id": 4072,
              "pitch": 60,
              "velocity": 110,
              "start": 546.5,
              "duration": 0.4892578125
            },
            {
              "id": 4071,
              "pitch": 65,
              "velocity": 110,
              "start": 546.5,
              "duration": 0.4892578125
            },
            {
              "id": 4070,
              "pitch": 67,
              "velocity": 110,
              "start": 547.0,
              "duration": 0.4892578125
            },
            {
              "id": 4069,
              "pitch": 53,
              "velocity": 110,
              "start": 547.0,
              "duration": 0.2392578125
            },
            {
              "id": 4068,
              "pitch": 60,
              "velocity": 110,
              "start": 547.0,
              "duration": 0.2392578125
            },
            {
              "id": 4067,
              "pitch": 65,
              "velocity": 110,
              "start": 547.0,
              "duration": 0.2392578125
            },
            {
              "id": 4066,
              "pitch": 53,
              "velocity": 110,
              "start": 547.25,
              "duration": 0.2392578125
            },
            {
              "id": 4065,
              "pitch": 60,
              "velocity": 110,
              "start": 547.25,
              "duration": 0.2392578125
            },
            {
              "id": 4064,
              "pitch": 65,
              "velocity": 110,
              "start": 547.25,
              "duration": 0.2392578125
            },
            {
              "id": 4063,
              "pitch": 65,
              "velocity": 110,
              "start": 547.5,
              "duration": 0.4892578125
            },
            {
              "id": 4062,
              "pitch": 53,
              "velocity": 110,
              "start": 547.5,
              "duration": 0.2392578125
            },
            {
              "id": 4061,
              "pitch": 60,
              "velocity": 110,
              "start": 547.5,
              "duration": 0.2392578125
            },
            {
              "id": 4060,
              "pitch": 65,
              "velocity": 110,
              "start": 547.5,
              "duration": 0.2392578125
            },
            {
              "id": 4059,
              "pitch": 53,
              "velocity": 110,
              "start": 547.75,
              "duration": 0.2392578125
            },
            {
              "id": 4058,
              "pitch": 60,
              "velocity": 110,
              "start": 547.75,
              "duration": 0.2392578125
            },
            {
              "id": 4057,
              "pitch": 65,
              "velocity": 110,
              "start": 547.75,
              "duration": 0.2392578125
            },
            {
              "id": 4056,
              "pitch": 67,
              "velocity": 110,
              "start": 548.0,
              "duration": 3.75
            },
            {
              "id": 4055,
              "pitch": 55,
              "velocity": 110,
              "start": 548.0,
              "duration": 0.8330078125
            },
            {
              "id": 4054,
              "pitch": 62,
              "velocity": 110,
              "start": 548.0,
              "duration": 0.8330078125
            },
            {
              "id": 4053,
              "pitch": 67,
              "velocity": 110,
              "start": 548.0,
              "duration": 0.8330078125
            },
            {
              "id": 4052,
              "pitch": 55,
              "velocity": 110,
              "start": 549.0,
              "duration": 0.8330078125
            },
            {
              "id": 4051,
              "pitch": 62,
              "velocity": 110,
              "start": 549.0,
              "duration": 0.8330078125
            },
            {
              "id": 4050,
              "pitch": 67,
              "velocity": 110,
              "start": 549.0,
              "duration": 0.8330078125
            },
            {
              "id": 4049,
              "pitch": 55,
              "velocity": 110,
              "start": 550.5,
              "duration": 0.4892578125
            },
            {
              "id": 4048,
              "pitch": 62,
              "velocity": 110,
              "start": 550.5,
              "duration": 0.4892578125
            },
            {
              "id": 4047,
              "pitch": 67,
              "velocity": 110,
              "start": 550.5,
              "duration": 0.4892578125
            },
            {
              "id": 4046,
              "pitch": 55,
              "velocity": 110,
              "start": 551.0,
              "duration": 0.2392578125
            },
            {
              "id": 4045,
              "pitch": 62,
              "velocity": 110,
              "start": 551.0,
              "duration": 0.2392578125
            },
            {
              "id": 4044,
              "pitch": 67,
              "velocity": 110,
              "start": 551.0,
              "duration": 0.2392578125
            },
            {
              "id": 4043,
              "pitch": 55,
              "velocity": 110,
              "start": 551.25,
              "duration": 0.2392578125
            },
            {
              "id": 4042,
              "pitch": 62,
              "velocity": 110,
              "start": 551.25,
              "duration": 0.2392578125
            },
            {
              "id": 4041,
              "pitch": 67,
              "velocity": 110,
              "start": 551.25,
              "duration": 0.2392578125
            },
            {
              "id": 4040,
              "pitch": 55,
              "velocity": 110,
              "start": 551.5,
              "duration": 0.2392578125
            },
            {
              "id": 4039,
              "pitch": 62,
              "velocity": 110,
              "start": 551.5,
              "duration": 0.2392578125
            },
            {
              "id": 4038,
              "pitch": 67,
              "velocity": 110,
              "start": 551.5,
              "duration": 0.2392578125
            },
            {
              "id": 4037,
              "pitch": 55,
              "velocity": 110,
              "start": 551.75,
              "duration": 0.2392578125
            },
            {
              "id": 4036,
              "pitch": 62,
              "velocity": 110,
              "start": 551.75,
              "duration": 0.2392578125
            },
            {
              "id": 4035,
              "pitch": 67,
              "velocity": 110,
              "start": 551.75,
              "duration": 0.2392578125
            },
            {
              "id": 4034,
              "pitch": 62,
              "velocity": 110,
              "start": 552.0,
              "duration": 2.4892578125
            },
            {
              "id": 4033,
              "pitch": 50,
              "velocity": 110,
              "start": 552.0,
              "duration": 0.8330078125
            },
            {
              "id": 4032,
              "pitch": 57,
              "velocity": 110,
              "start": 552.0,
              "duration": 0.8330078125
            },
            {
              "id": 4031,
              "pitch": 62,
              "velocity": 110,
              "start": 552.0,
              "duration": 0.8330078125
            },
            {
              "id": 4030,
              "pitch": 50,
              "velocity": 110,
              "start": 553.0,
              "duration": 0.8330078125
            },
            {
              "id": 4029,
              "pitch": 57,
              "velocity": 110,
              "start": 553.0,
              "duration": 0.8330078125
            },
            {
              "id": 4028,
              "pitch": 62,
              "velocity": 110,
              "start": 553.0,
              "duration": 0.8330078125
            },
            {
              "id": 4027,
              "pitch": 57,
              "velocity": 110,
              "start": 554.5,
              "duration": 0.4892578125
            },
            {
              "id": 4026,
              "pitch": 50,
              "velocity": 110,
              "start": 554.5,
              "duration": 0.4892578125
            },
            {
              "id": 4025,
              "pitch": 57,
              "velocity": 110,
              "start": 554.5,
              "duration": 0.4892578125
            },
            {
              "id": 4024,
              "pitch": 62,
              "velocity": 110,
              "start": 554.5,
              "duration": 0.4892578125
            },
            {
              "id": 4023,
              "pitch": 62,
              "velocity": 110,
              "start": 555.0,
              "duration": 0.4892578125
            },
            {
              "id": 4022,
              "pitch": 50,
              "velocity": 110,
              "start": 555.0,
              "duration": 0.2392578125
            },
            {
              "id": 4021,
              "pitch": 57,
              "velocity": 110,
              "start": 555.0,
              "duration": 0.2392578125
            },
            {
              "id": 4020,
              "pitch": 62,
              "velocity": 110,
              "start": 555.0,
              "duration": 0.2392578125
            },
            {
              "id": 4019,
              "pitch": 50,
              "velocity": 110,
              "start": 555.25,
              "duration": 0.2392578125
            },
            {
              "id": 4018,
              "pitch": 57,
              "velocity": 110,
              "start": 555.25,
              "duration": 0.2392578125
            },
            {
              "id": 4017,
              "pitch": 62,
              "velocity": 110,
              "start": 555.25,
              "duration": 0.2392578125
            },
            {
              "id": 4016,
              "pitch": 72,
              "velocity": 110,
              "start": 555.5,
              "duration": 0.4892578125
            },
            {
              "id": 4015,
              "pitch": 50,
              "velocity": 110,
              "start": 555.5,
              "duration": 0.2392578125
            },
            {
              "id": 4014,
              "pitch": 57,
              "velocity": 110,
              "start": 555.5,
              "duration": 0.2392578125
            },
            {
              "id": 4013,
              "pitch": 62,
              "velocity": 110,
              "start": 555.5,
              "duration": 0.2392578125
            },
            {
              "id": 4012,
              "pitch": 50,
              "velocity": 110,
              "start": 555.75,
              "duration": 0.2392578125
            },
            {
              "id": 4011,
              "pitch": 57,
              "velocity": 110,
              "start": 555.75,
              "duration": 0.2392578125
            },
            {
              "id": 4010,
              "pitch": 62,
              "velocity": 110,
              "start": 555.75,
              "duration": 0.2392578125
            },
            {
              "id": 4009,
              "pitch": 71,
              "velocity": 110,
              "start": 556.0,
              "duration": 0.4892578125
            },
            {
              "id": 4008,
              "pitch": 52,
              "velocity": 110,
              "start": 556.0,
              "duration": 0.8330078125
            },
            {
              "id": 4007,
              "pitch": 59,
              "velocity": 110,
              "start": 556.0,
              "duration": 0.8330078125
            },
            {
              "id": 4006,
              "pitch": 64,
              "velocity": 110,
              "start": 556.0,
              "duration": 0.8330078125
            },
            {
              "id": 4005,
              "pitch": 67,
              "velocity": 110,
              "start": 556.5,
              "duration": 0.4892578125
            },
            {
              "id": 4004,
              "pitch": 62,
              "velocity": 110,
              "start": 557.0,
              "duration": 1.3330078125
            },
            {
              "id": 4003,
              "pitch": 52,
              "velocity": 110,
              "start": 557.0,
              "duration": 0.8330078125
            },
            {
              "id": 4002,
              "pitch": 59,
              "velocity": 110,
              "start": 557.0,
              "duration": 0.8330078125
            },
            {
              "id": 4001,
              "pitch": 64,
              "velocity": 110,
              "start": 557.0,
              "duration": 0.8330078125
            },
            {
              "id": 4000,
              "pitch": 57,
              "velocity": 110,
              "start": 558.5,
              "duration": 0.4892578125
            },
            {
              "id": 3999,
              "pitch": 52,
              "velocity": 110,
              "start": 558.5,
              "duration": 0.4892578125
            },
            {
              "id": 3998,
              "pitch": 59,
              "velocity": 110,
              "start": 558.5,
              "duration": 0.4892578125
            },
            {
              "id": 3997,
              "pitch": 64,
              "velocity": 110,
              "start": 558.5,
              "duration": 0.4892578125
            },
            {
              "id": 3996,
              "pitch": 62,
              "velocity": 110,
              "start": 559.0,
              "duration": 0.4892578125
            },
            {
              "id": 3995,
              "pitch": 52,
              "velocity": 110,
              "start": 559.0,
              "duration": 0.2392578125
            },
            {
              "id": 3994,
              "pitch": 59,
              "velocity": 110,
              "start": 559.0,
              "duration": 0.2392578125
            },
            {
              "id": 3993,
              "pitch": 64,
              "velocity": 110,
              "start": 559.0,
              "duration": 0.2392578125
            },
            {
              "id": 3992,
              "pitch": 52,
              "velocity": 110,
              "start": 559.25,
              "duration": 0.2392578125
            },
            {
              "id": 3991,
              "pitch": 59,
              "velocity": 110,
              "start": 559.25,
              "duration": 0.2392578125
            },
            {
              "id": 3990,
              "pitch": 64,
              "velocity": 110,
              "start": 559.25,
              "duration": 0.2392578125
            },
            {
              "id": 3989,
              "pitch": 74,
              "velocity": 110,
              "start": 559.5,
              "duration": 0.4892578125
            },
            {
              "id": 3988,
              "pitch": 52,
              "velocity": 110,
              "start": 559.5,
              "duration": 0.2392578125
            },
            {
              "id": 3987,
              "pitch": 59,
              "velocity": 110,
              "start": 559.5,
              "duration": 0.2392578125
            },
            {
              "id": 3986,
              "pitch": 64,
              "velocity": 110,
              "start": 559.5,
              "duration": 0.2392578125
            },
            {
              "id": 3985,
              "pitch": 52,
              "velocity": 110,
              "start": 559.75,
              "duration": 0.2392578125
            },
            {
              "id": 3984,
              "pitch": 59,
              "velocity": 110,
              "start": 559.75,
              "duration": 0.2392578125
            },
            {
              "id": 3983,
              "pitch": 64,
              "velocity": 110,
              "start": 559.75,
              "duration": 0.2392578125
            },
            {
              "id": 3982,
              "pitch": 72,
              "velocity": 110,
              "start": 560.0,
              "duration": 0.8330078125
            },
            {
              "id": 3981,
              "pitch": 53,
              "velocity": 110,
              "start": 560.0,
              "duration": 0.8330078125
            },
            {
              "id": 3980,
              "pitch": 60,
              "velocity": 110,
              "start": 560.0,
              "duration": 0.8330078125
            },
            {
              "id": 3979,
              "pitch": 65,
              "velocity": 110,
              "start": 560.0,
              "duration": 0.8330078125
            },
            {
              "id": 3978,
              "pitch": 71,
              "velocity": 110,
              "start": 561.0,
              "duration": 2.4892578125
            },
            {
              "id": 3977,
              "pitch": 53,
              "velocity": 110,
              "start": 561.0,
              "duration": 0.8330078125
            },
            {
              "id": 3976,
              "pitch": 60,
              "velocity": 110,
              "start": 561.0,
              "duration": 0.8330078125
            },
            {
              "id": 3975,
              "pitch": 65,
              "velocity": 110,
              "start": 561.0,
              "duration": 0.8330078125
            },
            {
              "id": 3974,
              "pitch": 53,
              "velocity": 110,
              "start": 562.5,
              "duration": 0.4892578125
            },
            {
              "id": 3973,
              "pitch": 60,
              "velocity": 110,
              "start": 562.5,
              "duration": 0.4892578125
            },
            {
              "id": 3972,
              "pitch": 65,
              "velocity": 110,
              "start": 562.5,
              "duration": 0.4892578125
            },
            {
              "id": 3971,
              "pitch": 53,
              "velocity": 110,
              "start": 563.0,
              "duration": 0.2392578125
            },
            {
              "id": 3970,
              "pitch": 60,
              "velocity": 110,
              "start": 563.0,
              "duration": 0.2392578125
            },
            {
              "id": 3969,
              "pitch": 65,
              "velocity": 110,
              "start": 563.0,
              "duration": 0.2392578125
            },
            {
              "id": 3968,
              "pitch": 53,
              "velocity": 110,
              "start": 563.25,
              "duration": 0.2392578125
            },
            {
              "id": 3967,
              "pitch": 60,
              "velocity": 110,
              "start": 563.25,
              "duration": 0.2392578125
            },
            {
              "id": 3966,
              "pitch": 65,
              "velocity": 110,
              "start": 563.25,
              "duration": 0.2392578125
            },
            {
              "id": 3965,
              "pitch": 69,
              "velocity": 110,
              "start": 563.5,
              "duration": 0.4892578125
            },
            {
              "id": 3964,
              "pitch": 53,
              "velocity": 110,
              "start": 563.5,
              "duration": 0.2392578125
            },
            {
              "id": 3963,
              "pitch": 60,
              "velocity": 110,
              "start": 563.5,
              "duration": 0.2392578125
            },
            {
              "id": 3962,
              "pitch": 65,
              "velocity": 110,
              "start": 563.5,
              "duration": 0.2392578125
            },
            {
              "id": 3961,
              "pitch": 53,
              "velocity": 110,
              "start": 563.75,
              "duration": 0.2392578125
            },
            {
              "id": 3960,
              "pitch": 60,
              "velocity": 110,
              "start": 563.75,
              "duration": 0.2392578125
            },
            {
              "id": 3959,
              "pitch": 65,
              "velocity": 110,
              "start": 563.75,
              "duration": 0.2392578125
            },
            {
              "id": 3958,
              "pitch": 67,
              "velocity": 110,
              "start": 564.0,
              "duration": 3.75
            },
            {
              "id": 3957,
              "pitch": 71,
              "velocity": 110,
              "start": 564.0,
              "duration": 3.75
            },
            {
              "id": 3956,
              "pitch": 55,
              "velocity": 110,
              "start": 564.0,
              "duration": 0.8330078125
            },
            {
              "id": 3955,
              "pitch": 62,
              "velocity": 110,
              "start": 564.0,
              "duration": 0.8330078125
            },
            {
              "id": 3954,
              "pitch": 67,
              "velocity": 110,
              "start": 564.0,
              "duration": 0.8330078125
            },
            {
              "id": 3953,
              "pitch": 55,
              "velocity": 110,
              "start": 565.0,
              "duration": 0.8330078125
            },
            {
              "id": 3952,
              "pitch": 62,
              "velocity": 110,
              "start": 565.0,
              "duration": 0.8330078125
            },
            {
              "id": 3951,
              "pitch": 67,
              "velocity": 110,
              "start": 565.0,
              "duration": 0.8330078125
            },
            {
              "id": 3950,
              "pitch": 55,
              "velocity": 110,
              "start": 566.5,
              "duration": 0.4892578125
            },
            {
              "id": 3949,
              "pitch": 62,
              "velocity": 110,
              "start": 566.5,
              "duration": 0.4892578125
            },
            {
              "id": 3948,
              "pitch": 67,
              "velocity": 110,
              "start": 566.5,
              "duration": 0.4892578125
            },
            {
              "id": 3947,
              "pitch": 55,
              "velocity": 110,
              "start": 567.0,
              "duration": 0.2392578125
            },
            {
              "id": 3946,
              "pitch": 62,
              "velocity": 110,
              "start": 567.0,
              "duration": 0.2392578125
            },
            {
              "id": 3945,
              "pitch": 67,
              "velocity": 110,
              "start": 567.0,
              "duration": 0.2392578125
            },
            {
              "id": 3944,
              "pitch": 55,
              "velocity": 110,
              "start": 567.25,
              "duration": 0.2392578125
            },
            {
              "id": 3943,
              "pitch": 62,
              "velocity": 110,
              "start": 567.25,
              "duration": 0.2392578125
            },
            {
              "id": 3942,
              "pitch": 67,
              "velocity": 110,
              "start": 567.25,
              "duration": 0.2392578125
            },
            {
              "id": 3941,
              "pitch": 55,
              "velocity": 110,
              "start": 567.5,
              "duration": 0.2392578125
            },
            {
              "id": 3940,
              "pitch": 62,
              "velocity": 110,
              "start": 567.5,
              "duration": 0.2392578125
            },
            {
              "id": 3939,
              "pitch": 67,
              "velocity": 110,
              "start": 567.5,
              "duration": 0.2392578125
            },
            {
              "id": 3938,
              "pitch": 55,
              "velocity": 110,
              "start": 567.75,
              "duration": 0.2392578125
            },
            {
              "id": 3937,
              "pitch": 62,
              "velocity": 110,
              "start": 567.75,
              "duration": 0.2392578125
            },
            {
              "id": 3936,
              "pitch": 67,
              "velocity": 110,
              "start": 567.75,
              "duration": 0.2392578125
            },
            {
              "id": 3935,
              "pitch": 63,
              "velocity": 110,
              "start": 568.0,
              "duration": 2.4892578125
            },
            {
              "id": 3934,
              "pitch": 65,
              "velocity": 110,
              "start": 568.0,
              "duration": 2.4892578125
            },
            {
              "id": 3933,
              "pitch": 53,
              "velocity": 110,
              "start": 568.0,
              "duration": 0.8330078125
            },
            {
              "id": 3932,
              "pitch": 60,
              "velocity": 110,
              "start": 568.0,
              "duration": 0.8330078125
            },
            {
              "id": 3931,
              "pitch": 65,
              "velocity": 110,
              "start": 568.0,
              "duration": 0.8330078125
            },
            {
              "id": 3930,
              "pitch": 53,
              "velocity": 110,
              "start": 569.0,
              "duration": 0.8330078125
            },
            {
              "id": 3929,
              "pitch": 60,
              "velocity": 110,
              "start": 569.0,
              "duration": 0.8330078125
            },
            {
              "id": 3928,
              "pitch": 65,
              "velocity": 110,
              "start": 569.0,
              "duration": 0.8330078125
            },
            {
              "id": 3927,
              "pitch": 60,
              "velocity": 110,
              "start": 570.5,
              "duration": 0.4892578125
            },
            {
              "id": 3926,
              "pitch": 53,
              "velocity": 110,
              "start": 570.5,
              "duration": 0.4892578125
            },
            {
              "id": 3925,
              "pitch": 60,
              "velocity": 110,
              "start": 570.5,
              "duration": 0.4892578125
            },
            {
              "id": 3924,
              "pitch": 65,
              "velocity": 110,
              "start": 570.5,
              "duration": 0.4892578125
            },
            {
              "id": 3923,
              "pitch": 65,
              "velocity": 110,
              "start": 571.0,
              "duration": 0.4892578125
            },
            {
              "id": 3922,
              "pitch": 53,
              "velocity": 110,
              "start": 571.0,
              "duration": 0.2392578125
            },
            {
              "id": 3921,
              "pitch": 60,
              "velocity": 110,
              "start": 571.0,
              "duration": 0.2392578125
            },
            {
              "id": 3920,
              "pitch": 65,
              "velocity": 110,
              "start": 571.0,
              "duration": 0.2392578125
            },
            {
              "id": 3919,
              "pitch": 53,
              "velocity": 110,
              "start": 571.25,
              "duration": 0.2392578125
            },
            {
              "id": 3918,
              "pitch": 60,
              "velocity": 110,
              "start": 571.25,
              "duration": 0.2392578125
            },
            {
              "id": 3917,
              "pitch": 65,
              "velocity": 110,
              "start": 571.25,
              "duration": 0.2392578125
            },
            {
              "id": 3916,
              "pitch": 75,
              "velocity": 110,
              "start": 571.5,
              "duration": 0.4892578125
            },
            {
              "id": 3915,
              "pitch": 53,
              "velocity": 110,
              "start": 571.5,
              "duration": 0.2392578125
            },
            {
              "id": 3914,
              "pitch": 60,
              "velocity": 110,
              "start": 571.5,
              "duration": 0.2392578125
            },
            {
              "id": 3913,
              "pitch": 65,
              "velocity": 110,
              "start": 571.5,
              "duration": 0.2392578125
            },
            {
              "id": 3912,
              "pitch": 53,
              "velocity": 110,
              "start": 571.75,
              "duration": 0.2392578125
            },
            {
              "id": 3911,
              "pitch": 60,
              "velocity": 110,
              "start": 571.75,
              "duration": 0.2392578125
            },
            {
              "id": 3910,
              "pitch": 65,
              "velocity": 110,
              "start": 571.75,
              "duration": 0.2392578125
            },
            {
              "id": 3909,
              "pitch": 74,
              "velocity": 110,
              "start": 572.0,
              "duration": 0.4892578125
            },
            {
              "id": 3908,
              "pitch": 55,
              "velocity": 110,
              "start": 572.0,
              "duration": 0.8330078125
            },
            {
              "id": 3907,
              "pitch": 62,
              "velocity": 110,
              "start": 572.0,
              "duration": 0.8330078125
            },
            {
              "id": 3906,
              "pitch": 67,
              "velocity": 110,
              "start": 572.0,
              "duration": 0.8330078125
            },
            {
              "id": 3905,
              "pitch": 70,
              "velocity": 110,
              "start": 572.5,
              "duration": 0.4892578125
            },
            {
              "id": 3904,
              "pitch": 65,
              "velocity": 110,
              "start": 573.0,
              "duration": 2.7392578125
            },
            {
              "id": 3903,
              "pitch": 55,
              "velocity": 110,
              "start": 573.0,
              "duration": 0.8330078125
            },
            {
              "id": 3902,
              "pitch": 62,
              "velocity": 110,
              "start": 573.0,
              "duration": 0.8330078125
            },
            {
              "id": 3901,
              "pitch": 67,
              "velocity": 110,
              "start": 573.0,
              "duration": 0.8330078125
            },
            {
              "id": 3900,
              "pitch": 55,
              "velocity": 110,
              "start": 574.5,
              "duration": 0.4892578125
            },
            {
              "id": 3899,
              "pitch": 62,
              "velocity": 110,
              "start": 574.5,
              "duration": 0.4892578125
            },
            {
              "id": 3898,
              "pitch": 67,
              "velocity": 110,
              "start": 574.5,
              "duration": 0.4892578125
            },
            {
              "id": 3897,
              "pitch": 55,
              "velocity": 110,
              "start": 575.0,
              "duration": 0.2392578125
            },
            {
              "id": 3896,
              "pitch": 62,
              "velocity": 110,
              "start": 575.0,
              "duration": 0.2392578125
            },
            {
              "id": 3895,
              "pitch": 67,
              "velocity": 110,
              "start": 575.0,
              "duration": 0.2392578125
            },
            {
              "id": 3894,
              "pitch": 55,
              "velocity": 110,
              "start": 575.25,
              "duration": 0.2392578125
            },
            {
              "id": 3893,
              "pitch": 62,
              "velocity": 110,
              "start": 575.25,
              "duration": 0.2392578125
            },
            {
              "id": 3892,
              "pitch": 67,
              "velocity": 110,
              "start": 575.25,
              "duration": 0.2392578125
            },
            {
              "id": 3891,
              "pitch": 55,
              "velocity": 110,
              "start": 575.5,
              "duration": 0.2392578125
            },
            {
              "id": 3890,
              "pitch": 62,
              "velocity": 110,
              "start": 575.5,
              "duration": 0.2392578125
            },
            {
              "id": 3889,
              "pitch": 67,
              "velocity": 110,
              "start": 575.5,
              "duration": 0.2392578125
            },
            {
              "id": 3888,
              "pitch": 63,
              "velocity": 110,
              "start": 575.75,
              "duration": 0.7392578125
            },
            {
              "id": 3887,
              "pitch": 55,
              "velocity": 110,
              "start": 575.75,
              "duration": 0.2392578125
            },
            {
              "id": 3886,
              "pitch": 62,
              "velocity": 110,
              "start": 575.75,
              "duration": 0.2392578125
            },
            {
              "id": 3885,
              "pitch": 67,
              "velocity": 110,
              "start": 575.75,
              "duration": 0.2392578125
            },
            {
              "id": 3884,
              "pitch": 56,
              "velocity": 110,
              "start": 576.0,
              "duration": 0.8330078125
            },
            {
              "id": 3883,
              "pitch": 63,
              "velocity": 110,
              "start": 576.0,
              "duration": 0.8330078125
            },
            {
              "id": 3882,
              "pitch": 68,
              "velocity": 110,
              "start": 576.0,
              "duration": 0.8330078125
            },
            {
              "id": 3881,
              "pitch": 65,
              "velocity": 110,
              "start": 576.5,
              "duration": 2.9892578125
            },
            {
              "id": 3880,
              "pitch": 56,
              "velocity": 110,
              "start": 577.0,
              "duration": 0.8330078125
            },
            {
              "id": 3879,
              "pitch": 63,
              "velocity": 110,
              "start": 577.0,
              "duration": 0.8330078125
            },
            {
              "id": 3878,
              "pitch": 68,
              "velocity": 110,
              "start": 577.0,
              "duration": 0.8330078125
            },
            {
              "id": 3877,
              "pitch": 56,
              "velocity": 110,
              "start": 578.5,
              "duration": 0.4892578125
            },
            {
              "id": 3876,
              "pitch": 63,
              "velocity": 110,
              "start": 578.5,
              "duration": 0.4892578125
            },
            {
              "id": 3875,
              "pitch": 68,
              "velocity": 110,
              "start": 578.5,
              "duration": 0.4892578125
            },
            {
              "id": 3874,
              "pitch": 56,
              "velocity": 110,
              "start": 579.0,
              "duration": 0.2392578125
            },
            {
              "id": 3873,
              "pitch": 63,
              "velocity": 110,
              "start": 579.0,
              "duration": 0.2392578125
            },
            {
              "id": 3872,
              "pitch": 68,
              "velocity": 110,
              "start": 579.0,
              "duration": 0.2392578125
            },
            {
              "id": 3871,
              "pitch": 56,
              "velocity": 110,
              "start": 579.25,
              "duration": 0.2392578125
            },
            {
              "id": 3870,
              "pitch": 63,
              "velocity": 110,
              "start": 579.25,
              "duration": 0.2392578125
            },
            {
              "id": 3869,
              "pitch": 68,
              "velocity": 110,
              "start": 579.25,
              "duration": 0.2392578125
            },
            {
              "id": 3868,
              "pitch": 68,
              "velocity": 110,
              "start": 579.5,
              "duration": 0.4892578125
            },
            {
              "id": 3867,
              "pitch": 56,
              "velocity": 110,
              "start": 579.5,
              "duration": 0.2392578125
            },
            {
              "id": 3866,
              "pitch": 63,
              "velocity": 110,
              "start": 579.5,
              "duration": 0.2392578125
            },
            {
              "id": 3865,
              "pitch": 68,
              "velocity": 110,
              "start": 579.5,
              "duration": 0.2392578125
            },
            {
              "id": 3864,
              "pitch": 56,
              "velocity": 110,
              "start": 579.75,
              "duration": 0.2392578125
            },
            {
              "id": 3863,
              "pitch": 63,
              "velocity": 110,
              "start": 579.75,
              "duration": 0.2392578125
            },
            {
              "id": 3862,
              "pitch": 68,
              "velocity": 110,
              "start": 579.75,
              "duration": 0.2392578125
            },
            {
              "id": 3861,
              "pitch": 65,
              "velocity": 110,
              "start": 580.0,
              "duration": 3.75
            },
            {
              "id": 3860,
              "pitch": 58,
              "velocity": 110,
              "start": 580.0,
              "duration": 0.8330078125
            },
            {
              "id": 3859,
              "pitch": 65,
              "velocity": 110,
              "start": 580.0,
              "duration": 0.8330078125
            },
            {
              "id": 3858,
              "pitch": 70,
              "velocity": 110,
              "start": 580.0,
              "duration": 0.8330078125
            },
            {
              "id": 3857,
              "pitch": 58,
              "velocity": 110,
              "start": 581.0,
              "duration": 0.8330078125
            },
            {
              "id": 3856,
              "pitch": 65,
              "velocity": 110,
              "start": 581.0,
              "duration": 0.8330078125
            },
            {
              "id": 3855,
              "pitch": 70,
              "velocity": 110,
              "start": 581.0,
              "duration": 0.8330078125
            },
            {
              "id": 3854,
              "pitch": 58,
              "velocity": 110,
              "start": 582.5,
              "duration": 0.4892578125
            },
            {
              "id": 3853,
              "pitch": 65,
              "velocity": 110,
              "start": 582.5,
              "duration": 0.4892578125
            },
            {
              "id": 3852,
              "pitch": 70,
              "velocity": 110,
              "start": 582.5,
              "duration": 0.4892578125
            },
            {
              "id": 3851,
              "pitch": 58,
              "velocity": 110,
              "start": 583.0,
              "duration": 0.2392578125
            },
            {
              "id": 3850,
              "pitch": 65,
              "velocity": 110,
              "start": 583.0,
              "duration": 0.2392578125
            },
            {
              "id": 3849,
              "pitch": 70,
              "velocity": 110,
              "start": 583.0,
              "duration": 0.2392578125
            },
            {
              "id": 3848,
              "pitch": 58,
              "velocity": 110,
              "start": 583.25,
              "duration": 0.2392578125
            },
            {
              "id": 3847,
              "pitch": 65,
              "velocity": 110,
              "start": 583.25,
              "duration": 0.2392578125
            },
            {
              "id": 3846,
              "pitch": 70,
              "velocity": 110,
              "start": 583.25,
              "duration": 0.2392578125
            },
            {
              "id": 3845,
              "pitch": 58,
              "velocity": 110,
              "start": 583.5,
              "duration": 0.2392578125
            },
            {
              "id": 3844,
              "pitch": 65,
              "velocity": 110,
              "start": 583.5,
              "duration": 0.2392578125
            },
            {
              "id": 3843,
              "pitch": 70,
              "velocity": 110,
              "start": 583.5,
              "duration": 0.2392578125
            },
            {
              "id": 3842,
              "pitch": 58,
              "velocity": 110,
              "start": 583.75,
              "duration": 0.2392578125
            },
            {
              "id": 3841,
              "pitch": 65,
              "velocity": 110,
              "start": 583.75,
              "duration": 0.2392578125
            },
            {
              "id": 3840,
              "pitch": 70,
              "velocity": 110,
              "start": 583.75,
              "duration": 0.2392578125
            },
            {
              "id": 3839,
              "pitch": 62,
              "velocity": 110,
              "start": 584.0,
              "duration": 2.4892578125
            },
            {
              "id": 3838,
              "pitch": 50,
              "velocity": 110,
              "start": 584.0,
              "duration": 0.8330078125
            },
            {
              "id": 3837,
              "pitch": 57,
              "velocity": 110,
              "start": 584.0,
              "duration": 0.8330078125
            },
            {
              "id": 3836,
              "pitch": 62,
              "velocity": 110,
              "start": 584.0,
              "duration": 0.8330078125
            },
            {
              "id": 3835,
              "pitch": 50,
              "velocity": 110,
              "start": 585.0,
              "duration": 0.8330078125
            },
            {
              "id": 3834,
              "pitch": 57,
              "velocity": 110,
              "start": 585.0,
              "duration": 0.8330078125
            },
            {
              "id": 3833,
              "pitch": 62,
              "velocity": 110,
              "start": 585.0,
              "duration": 0.8330078125
            },
            {
              "id": 3832,
              "pitch": 57,
              "velocity": 110,
              "start": 586.5,
              "duration": 0.4892578125
            },
            {
              "id": 3831,
              "pitch": 50,
              "velocity": 110,
              "start": 586.5,
              "duration": 0.4892578125
            },
            {
              "id": 3830,
              "pitch": 57,
              "velocity": 110,
              "start": 586.5,
              "duration": 0.4892578125
            },
            {
              "id": 3829,
              "pitch": 62,
              "velocity": 110,
              "start": 586.5,
              "duration": 0.4892578125
            },
            {
              "id": 3828,
              "pitch": 62,
              "velocity": 110,
              "start": 587.0,
              "duration": 0.4892578125
            },
            {
              "id": 3827,
              "pitch": 50,
              "velocity": 110,
              "start": 587.0,
              "duration": 0.2392578125
            },
            {
              "id": 3826,
              "pitch": 57,
              "velocity": 110,
              "start": 587.0,
              "duration": 0.2392578125
            },
            {
              "id": 3825,
              "pitch": 62,
              "velocity": 110,
              "start": 587.0,
              "duration": 0.2392578125
            },
            {
              "id": 3824,
              "pitch": 50,
              "velocity": 110,
              "start": 587.25,
              "duration": 0.2392578125
            },
            {
              "id": 3823,
              "pitch": 57,
              "velocity": 110,
              "start": 587.25,
              "duration": 0.2392578125
            },
            {
              "id": 3822,
              "pitch": 62,
              "velocity": 110,
              "start": 587.25,
              "duration": 0.2392578125
            },
            {
              "id": 3821,
              "pitch": 72,
              "velocity": 110,
              "start": 587.5,
              "duration": 0.4892578125
            },
            {
              "id": 3820,
              "pitch": 50,
              "velocity": 110,
              "start": 587.5,
              "duration": 0.2392578125
            },
            {
              "id": 3819,
              "pitch": 57,
              "velocity": 110,
              "start": 587.5,
              "duration": 0.2392578125
            },
            {
              "id": 3818,
              "pitch": 62,
              "velocity": 110,
              "start": 587.5,
              "duration": 0.2392578125
            },
            {
              "id": 3817,
              "pitch": 50,
              "velocity": 110,
              "start": 587.75,
              "duration": 0.2392578125
            },
            {
              "id": 3816,
              "pitch": 57,
              "velocity": 110,
              "start": 587.75,
              "duration": 0.2392578125
            },
            {
              "id": 3815,
              "pitch": 62,
              "velocity": 110,
              "start": 587.75,
              "duration": 0.2392578125
            },
            {
              "id": 3814,
              "pitch": 71,
              "velocity": 110,
              "start": 588.0,
              "duration": 0.4892578125
            },
            {
              "id": 3813,
              "pitch": 52,
              "velocity": 110,
              "start": 588.0,
              "duration": 0.8330078125
            },
            {
              "id": 3812,
              "pitch": 59,
              "velocity": 110,
              "start": 588.0,
              "duration": 0.8330078125
            },
            {
              "id": 3811,
              "pitch": 64,
              "velocity": 110,
              "start": 588.0,
              "duration": 0.8330078125
            },
            {
              "id": 3810,
              "pitch": 67,
              "velocity": 110,
              "start": 588.5,
              "duration": 0.4892578125
            },
            {
              "id": 3809,
              "pitch": 62,
              "velocity": 110,
              "start": 589.0,
              "duration": 2.75
            },
            {
              "id": 3808,
              "pitch": 52,
              "velocity": 110,
              "start": 589.0,
              "duration": 0.8330078125
            },
            {
              "id": 3807,
              "pitch": 59,
              "velocity": 110,
              "start": 589.0,
              "duration": 0.8330078125
            },
            {
              "id": 3806,
              "pitch": 64,
              "velocity": 110,
              "start": 589.0,
              "duration": 0.8330078125
            },
            {
              "id": 3805,
              "pitch": 52,
              "velocity": 110,
              "start": 590.5,
              "duration": 0.4892578125
            },
            {
              "id": 3804,
              "pitch": 59,
              "velocity": 110,
              "start": 590.5,
              "duration": 0.4892578125
            },
            {
              "id": 3803,
              "pitch": 64,
              "velocity": 110,
              "start": 590.5,
              "duration": 0.4892578125
            },
            {
              "id": 3802,
              "pitch": 52,
              "velocity": 110,
              "start": 591.0,
              "duration": 0.2392578125
            },
            {
              "id": 3801,
              "pitch": 59,
              "velocity": 110,
              "start": 591.0,
              "duration": 0.2392578125
            },
            {
              "id": 3800,
              "pitch": 64,
              "velocity": 110,
              "start": 591.0,
              "duration": 0.2392578125
            },
            {
              "id": 3799,
              "pitch": 52,
              "velocity": 110,
              "start": 591.25,
              "duration": 0.2392578125
            },
            {
              "id": 3798,
              "pitch": 59,
              "velocity": 110,
              "start": 591.25,
              "duration": 0.2392578125
            },
            {
              "id": 3797,
              "pitch": 64,
              "velocity": 110,
              "start": 591.25,
              "duration": 0.2392578125
            },
            {
              "id": 3796,
              "pitch": 52,
              "velocity": 110,
              "start": 591.5,
              "duration": 0.2392578125
            },
            {
              "id": 3795,
              "pitch": 59,
              "velocity": 110,
              "start": 591.5,
              "duration": 0.2392578125
            },
            {
              "id": 3794,
              "pitch": 64,
              "velocity": 110,
              "start": 591.5,
              "duration": 0.2392578125
            },
            {
              "id": 3793,
              "pitch": 52,
              "velocity": 110,
              "start": 591.75,
              "duration": 0.2392578125
            },
            {
              "id": 3792,
              "pitch": 59,
              "velocity": 110,
              "start": 591.75,
              "duration": 0.2392578125
            },
            {
              "id": 3791,
              "pitch": 64,
              "velocity": 110,
              "start": 591.75,
              "duration": 0.2392578125
            },
            {
              "id": 3790,
              "pitch": 63,
              "velocity": 110,
              "start": 592.0,
              "duration": 3.75
            },
            {
              "id": 3789,
              "pitch": 67,
              "velocity": 110,
              "start": 592.0,
              "duration": 3.75
            },
            {
              "id": 3788,
              "pitch": 53,
              "velocity": 110,
              "start": 592.0,
              "duration": 0.8330078125
            },
            {
              "id": 3787,
              "pitch": 60,
              "velocity": 110,
              "start": 592.0,
              "duration": 0.8330078125
            },
            {
              "id": 3786,
              "pitch": 65,
              "velocity": 110,
              "start": 592.0,
              "duration": 0.8330078125
            },
            {
              "id": 3785,
              "pitch": 53,
              "velocity": 110,
              "start": 593.0,
              "duration": 0.8330078125
            },
            {
              "id": 3784,
              "pitch": 60,
              "velocity": 110,
              "start": 593.0,
              "duration": 0.8330078125
            },
            {
              "id": 3783,
              "pitch": 65,
              "velocity": 110,
              "start": 593.0,
              "duration": 0.8330078125
            },
            {
              "id": 3782,
              "pitch": 53,
              "velocity": 110,
              "start": 594.5,
              "duration": 0.4892578125
            },
            {
              "id": 3781,
              "pitch": 60,
              "velocity": 110,
              "start": 594.5,
              "duration": 0.4892578125
            },
            {
              "id": 3780,
              "pitch": 65,
              "velocity": 110,
              "start": 594.5,
              "duration": 0.4892578125
            },
            {
              "id": 3779,
              "pitch": 53,
              "velocity": 110,
              "start": 595.0,
              "duration": 0.2392578125
            },
            {
              "id": 3778,
              "pitch": 60,
              "velocity": 110,
              "start": 595.0,
              "duration": 0.2392578125
            },
            {
              "id": 3777,
              "pitch": 65,
              "velocity": 110,
              "start": 595.0,
              "duration": 0.2392578125
            },
            {
              "id": 3776,
              "pitch": 53,
              "velocity": 110,
              "start": 595.25,
              "duration": 0.2392578125
            },
            {
              "id": 3775,
              "pitch": 60,
              "velocity": 110,
              "start": 595.25,
              "duration": 0.2392578125
            },
            {
              "id": 3774,
              "pitch": 65,
              "velocity": 110,
              "start": 595.25,
              "duration": 0.2392578125
            },
            {
              "id": 3773,
              "pitch": 53,
              "velocity": 110,
              "start": 595.5,
              "duration": 0.2392578125
            },
            {
              "id": 3772,
              "pitch": 60,
              "velocity": 110,
              "start": 595.5,
              "duration": 0.2392578125
            },
            {
              "id": 3771,
              "pitch": 65,
              "velocity": 110,
              "start": 595.5,
              "duration": 0.2392578125
            },
            {
              "id": 3770,
              "pitch": 53,
              "velocity": 110,
              "start": 595.75,
              "duration": 0.2392578125
            },
            {
              "id": 3769,
              "pitch": 60,
              "velocity": 110,
              "start": 595.75,
              "duration": 0.2392578125
            },
            {
              "id": 3768,
              "pitch": 65,
              "velocity": 110,
              "start": 595.75,
              "duration": 0.2392578125
            },
            {
              "id": 3767,
              "pitch": 65,
              "velocity": 110,
              "start": 596.0,
              "duration": 3.75
            },
            {
              "id": 3766,
              "pitch": 67,
              "velocity": 110,
              "start": 596.0,
              "duration": 3.75
            },
            {
              "id": 3765,
              "pitch": 55,
              "velocity": 110,
              "start": 596.0,
              "duration": 0.8330078125
            },
            {
              "id": 3764,
              "pitch": 62,
              "velocity": 110,
              "start": 596.0,
              "duration": 0.8330078125
            },
            {
              "id": 3763,
              "pitch": 67,
              "velocity": 110,
              "start": 596.0,
              "duration": 0.8330078125
            },
            {
              "id": 3762,
              "pitch": 55,
              "velocity": 110,
              "start": 597.0,
              "duration": 0.8330078125
            },
            {
              "id": 3761,
              "pitch": 62,
              "velocity": 110,
              "start": 597.0,
              "duration": 0.8330078125
            },
            {
              "id": 3760,
              "pitch": 67,
              "velocity": 110,
              "start": 597.0,
              "duration": 0.8330078125
            },
            {
              "id": 3759,
              "pitch": 55,
              "velocity": 110,
              "start": 598.5,
              "duration": 0.4892578125
            },
            {
              "id": 3758,
              "pitch": 62,
              "velocity": 110,
              "start": 598.5,
              "duration": 0.4892578125
            },
            {
              "id": 3757,
              "pitch": 67,
              "velocity": 110,
              "start": 598.5,
              "duration": 0.4892578125
            },
            {
              "id": 3756,
              "pitch": 55,
              "velocity": 110,
              "start": 599.0,
              "duration": 0.2392578125
            },
            {
              "id": 3755,
              "pitch": 62,
              "velocity": 110,
              "start": 599.0,
              "duration": 0.2392578125
            },
            {
              "id": 3754,
              "pitch": 67,
              "velocity": 110,
              "start": 599.0,
              "duration": 0.2392578125
            },
            {
              "id": 3753,
              "pitch": 55,
              "velocity": 110,
              "start": 599.25,
              "duration": 0.2392578125
            },
            {
              "id": 3752,
              "pitch": 62,
              "velocity": 110,
              "start": 599.25,
              "duration": 0.2392578125
            },
            {
              "id": 3751,
              "pitch": 67,
              "velocity": 110,
              "start": 599.25,
              "duration": 0.2392578125
            },
            {
              "id": 3750,
              "pitch": 55,
              "velocity": 110,
              "start": 599.5,
              "duration": 0.2392578125
            },
            {
              "id": 3749,
              "pitch": 62,
              "velocity": 110,
              "start": 599.5,
              "duration": 0.2392578125
            },
            {
              "id": 3748,
              "pitch": 67,
              "velocity": 110,
              "start": 599.5,
              "duration": 0.2392578125
            },
            {
              "id": 3747,
              "pitch": 55,
              "velocity": 110,
              "start": 599.75,
              "duration": 0.2392578125
            },
            {
              "id": 3746,
              "pitch": 62,
              "velocity": 110,
              "start": 599.75,
              "duration": 0.2392578125
            },
            {
              "id": 3745,
              "pitch": 67,
              "velocity": 110,
              "start": 599.75,
              "duration": 0.2392578125
            },
            {
              "id": 3744,
              "pitch": 68,
              "velocity": 110,
              "start": 600.0,
              "duration": 1.75
            },
            {
              "id": 3743,
              "pitch": 72,
              "velocity": 110,
              "start": 600.0,
              "duration": 1.75
            },
            {
              "id": 3742,
              "pitch": 79,
              "velocity": 110,
              "start": 602.0,
              "duration": 1.75
            },
            {
              "id": 3741,
              "pitch": 77,
              "velocity": 110,
              "start": 604.0,
              "duration": 0.8330078125
            },
            {
              "id": 3740,
              "pitch": 71,
              "velocity": 110,
              "start": 605.0,
              "duration": 2.75
            },
            {
              "id": 3739,
              "pitch": 74,
              "velocity": 110,
              "start": 605.0,
              "duration": 2.75
            },
            {
              "id": 3738,
              "pitch": 68,
              "velocity": 110,
              "start": 608.0,
              "duration": 1.75
            },
            {
              "id": 3737,
              "pitch": 72,
              "velocity": 110,
              "start": 608.0,
              "duration": 1.75
            },
            {
              "id": 3736,
              "pitch": 79,
              "velocity": 110,
              "start": 610.0,
              "duration": 1.75
            },
            {
              "id": 3735,
              "pitch": 77,
              "velocity": 110,
              "start": 612.0,
              "duration": 0.8330078125
            },
            {
              "id": 3734,
              "pitch": 74,
              "velocity": 110,
              "start": 613.0,
              "duration": 1.75
            },
            {
              "id": 3733,
              "pitch": 83,
              "velocity": 110,
              "start": 615.0,
              "duration": 0.8330078125
            },
            {
              "id": 3732,
              "pitch": 72,
              "velocity": 110,
              "start": 616.0,
              "duration": 1.75
            },
            {
              "id": 3731,
              "pitch": 67,
              "velocity": 110,
              "start": 618.0,
              "duration": 1.75
            },
            {
              "id": 3730,
              "pitch": 79,
              "velocity": 110,
              "start": 618.0,
              "duration": 1.75
            },
            {
              "id": 3729,
              "pitch": 67,
              "velocity": 110,
              "start": 620.0,
              "duration": 1.75
            },
            {
              "id": 3728,
              "pitch": 77,
              "velocity": 110,
              "start": 620.0,
              "duration": 1.75
            },
            {
              "id": 3727,
              "pitch": 67,
              "velocity": 110,
              "start": 622.0,
              "duration": 1.75
            },
            {
              "id": 3726,
              "pitch": 74,
              "velocity": 110,
              "start": 622.0,
              "duration": 1.75
            },
            {
              "id": 3725,
              "pitch": 68,
              "velocity": 110,
              "start": 624.0,
              "duration": 5.75
            },
            {
              "id": 3724,
              "pitch": 75,
              "velocity": 110,
              "start": 624.0,
              "duration": 5.75
            },
            {
              "id": 3723,
              "pitch": 72,
              "velocity": 110,
              "start": 630.0,
              "duration": 1.75
            },
            {
              "id": 3722,
              "pitch": 74,
              "velocity": 110,
              "start": 632.0,
              "duration": 7.75
            },
            {
              "id": 3721,
              "pitch": 68,
              "velocity": 110,
              "start": 640.0,
              "duration": 3.75
            },
            {
              "id": 3720,
              "pitch": 75,
              "velocity": 110,
              "start": 640.0,
              "duration": 3.75
            },
            {
              "id": 3719,
              "pitch": 80,
              "velocity": 110,
              "start": 644.0,
              "duration": 1.75
            },
            {
              "id": 3718,
              "pitch": 75,
              "velocity": 110,
              "start": 646.0,
              "duration": 1.75
            },
            {
              "id": 3717,
              "pitch": 67,
              "velocity": 110,
              "start": 648.0,
              "duration": 3.75
            },
            {
              "id": 3716,
              "pitch": 74,
              "velocity": 110,
              "start": 648.0,
              "duration": 3.75
            },
            {
              "id": 3715,
              "pitch": 79,
              "velocity": 110,
              "start": 652.0,
              "duration": 2.4892578125
            },
            {
              "id": 3714,
              "pitch": 67,
              "velocity": 110,
              "start": 654.5,
              "duration": 0.1142578125
            },
            {
              "id": 3713,
              "pitch": 65,
              "velocity": 110,
              "start": 654.625,
              "duration": 0.1142578125
            },
            {
              "id": 3712,
              "pitch": 64,
              "velocity": 110,
              "start": 654.75,
              "duration": 0.1142578125
            },
            {
              "id": 3711,
              "pitch": 62,
              "velocity": 110,
              "start": 654.875,
              "duration": 0.1142578125
            },
            {
              "id": 3710,
              "pitch": 67,
              "velocity": 110,
              "start": 655.0,
              "duration": 0.1142578125
            },
            {
              "id": 3709,
              "pitch": 65,
              "velocity": 110,
              "start": 655.125,
              "duration": 0.1142578125
            },
            {
              "id": 3708,
              "pitch": 64,
              "velocity": 110,
              "start": 655.25,
              "duration": 0.1142578125
            },
            {
              "id": 3707,
              "pitch": 62,
              "velocity": 110,
              "start": 655.375,
              "duration": 0.1142578125
            },
            {
              "id": 3706,
              "pitch": 67,
              "velocity": 110,
              "start": 655.5,
              "duration": 0.1142578125
            },
            {
              "id": 3705,
              "pitch": 65,
              "velocity": 110,
              "start": 655.625,
              "duration": 0.1142578125
            },
            {
              "id": 3704,
              "pitch": 64,
              "velocity": 110,
              "start": 655.75,
              "duration": 0.1142578125
            },
            {
              "id": 3703,
              "pitch": 33,
              "velocity": 110,
              "start": 656.0,
              "duration": 0.4892578125
            },
            {
              "id": 3702,
              "pitch": 38,
              "velocity": 110,
              "start": 656.5,
              "duration": 0.4892578125
            },
            {
              "id": 3701,
              "pitch": 45,
              "velocity": 110,
              "start": 657.0,
              "duration": 0.4892578125
            },
            {
              "id": 3700,
              "pitch": 44,
              "velocity": 110,
              "start": 657.5,
              "duration": 2.25
            },
            {
              "id": 3699,
              "pitch": 33,
              "velocity": 110,
              "start": 660.0,
              "duration": 0.4892578125
            },
            {
              "id": 3698,
              "pitch": 38,
              "velocity": 110,
              "start": 660.5,
              "duration": 0.4892578125
            },
            {
              "id": 3697,
              "pitch": 43,
              "velocity": 110,
              "start": 661.0,
              "duration": 0.4892578125
            },
            {
              "id": 3696,
              "pitch": 41,
              "velocity": 110,
              "start": 661.5,
              "duration": 2.25
            },
            {
              "id": 3695,
              "pitch": 33,
              "velocity": 110,
              "start": 664.0,
              "duration": 0.4892578125
            },
            {
              "id": 3694,
              "pitch": 38,
              "velocity": 110,
              "start": 664.5,
              "duration": 0.4892578125
            },
            {
              "id": 3693,
              "pitch": 45,
              "velocity": 110,
              "start": 665.0,
              "duration": 0.4892578125
            },
            {
              "id": 3692,
              "pitch": 44,
              "velocity": 110,
              "start": 665.5,
              "duration": 0.9892578125
            },
            {
              "id": 3691,
              "pitch": 43,
              "velocity": 110,
              "start": 666.5,
              "duration": 0.9892578125
            },
            {
              "id": 3690,
              "pitch": 41,
              "velocity": 110,
              "start": 667.5,
              "duration": 0.9892578125
            },
            {
              "id": 3689,
              "pitch": 38,
              "velocity": 110,
              "start": 668.5,
              "duration": 3.25
            },
            {
              "id": 3688,
              "pitch": 74,
              "velocity": 110,
              "start": 672.0,
              "duration": 1.3330078125
            },
            {
              "id": 3687,
              "pitch": 81,
              "velocity": 110,
              "start": 672.0,
              "duration": 1.3330078125
            },
            {
              "id": 3686,
              "pitch": 33,
              "velocity": 110,
              "start": 672.0,
              "duration": 0.4892578125
            },
            {
              "id": 3685,
              "pitch": 38,
              "velocity": 110,
              "start": 672.5,
              "duration": 0.4892578125
            },
            {
              "id": 3684,
              "pitch": 45,
              "velocity": 110,
              "start": 673.0,
              "duration": 0.4892578125
            },
            {
              "id": 3683,
              "pitch": 73,
              "velocity": 110,
              "start": 673.5,
              "duration": 2.25
            },
            {
              "id": 3682,
              "pitch": 80,
              "velocity": 110,
              "start": 673.5,
              "duration": 2.25
            },
            {
              "id": 3681,
              "pitch": 44,
              "velocity": 110,
              "start": 673.5,
              "duration": 2.25
            },
            {
              "id": 3680,
              "pitch": 72,
              "velocity": 110,
              "start": 676.0,
              "duration": 1.3330078125
            },
            {
              "id": 3679,
              "pitch": 79,
              "velocity": 110,
              "start": 676.0,
              "duration": 1.3330078125
            },
            {
              "id": 3678,
              "pitch": 33,
              "velocity": 110,
              "start": 676.0,
              "duration": 0.4892578125
            },
            {
              "id": 3677,
              "pitch": 38,
              "velocity": 110,
              "start": 676.5,
              "duration": 0.4892578125
            },
            {
              "id": 3676,
              "pitch": 43,
              "velocity": 110,
              "start": 677.0,
              "duration": 0.4892578125
            },
            {
              "id": 3675,
              "pitch": 69,
              "velocity": 110,
              "start": 677.5,
              "duration": 2.25
            },
            {
              "id": 3674,
              "pitch": 77,
              "velocity": 110,
              "start": 677.5,
              "duration": 2.25
            },
            {
              "id": 3673,
              "pitch": 41,
              "velocity": 110,
              "start": 677.5,
              "duration": 2.25
            },
            {
              "id": 3672,
              "pitch": 74,
              "velocity": 110,
              "start": 680.0,
              "duration": 1.3330078125
            },
            {
              "id": 3671,
              "pitch": 81,
              "velocity": 110,
              "start": 680.0,
              "duration": 1.3330078125
            },
            {
              "id": 3670,
              "pitch": 33,
              "velocity": 110,
              "start": 680.0,
              "duration": 0.4892578125
            },
            {
              "id": 3669,
              "pitch": 38,
              "velocity": 110,
              "start": 680.5,
              "duration": 0.4892578125
            },
            {
              "id": 3668,
              "pitch": 45,
              "velocity": 110,
              "start": 681.0,
              "duration": 0.4892578125
            },
            {
              "id": 3667,
              "pitch": 73,
              "velocity": 110,
              "start": 681.5,
              "duration": 0.9892578125
            },
            {
              "id": 3666,
              "pitch": 80,
              "velocity": 110,
              "start": 681.5,
              "duration": 0.9892578125
            },
            {
              "id": 3665,
              "pitch": 44,
              "velocity": 110,
              "start": 681.5,
              "duration": 0.9892578125
            },
            {
              "id": 3664,
              "pitch": 72,
              "velocity": 110,
              "start": 682.5,
              "duration": 0.9892578125
            },
            {
              "id": 3663,
              "pitch": 79,
              "velocity": 110,
              "start": 682.5,
              "duration": 0.9892578125
            },
            {
              "id": 3662,
              "pitch": 43,
              "velocity": 110,
              "start": 682.5,
              "duration": 0.9892578125
            },
            {
              "id": 3661,
              "pitch": 69,
              "velocity": 110,
              "start": 683.5,
              "duration": 0.9892578125
            },
            {
              "id": 3660,
              "pitch": 77,
              "velocity": 110,
              "start": 683.5,
              "duration": 0.9892578125
            },
            {
              "id": 3659,
              "pitch": 41,
              "velocity": 110,
              "start": 683.5,
              "duration": 0.9892578125
            },
            {
              "id": 3658,
              "pitch": 69,
              "velocity": 110,
              "start": 684.5,
              "duration": 3.25
            },
            {
              "id": 3657,
              "pitch": 74,
              "velocity": 110,
              "start": 684.5,
              "duration": 3.25
            },
            {
              "id": 3656,
              "pitch": 38,
              "velocity": 110,
              "start": 684.5,
              "duration": 3.25
            },
            {
              "id": 3655,
              "pitch": 74,
              "velocity": 110,
              "start": 688.0,
              "duration": 1.3330078125
            },
            {
              "id": 3654,
              "pitch": 81,
              "velocity": 110,
              "start": 688.0,
              "duration": 1.3330078125
            },
            {
              "id": 3653,
              "pitch": 33,
              "velocity": 110,
              "start": 688.0,
              "duration": 0.4892578125
            },
            {
              "id": 3652,
              "pitch": 38,
              "velocity": 110,
              "start": 688.5,
              "duration": 0.4892578125
            },
            {
              "id": 3651,
              "pitch": 45,
              "velocity": 110,
              "start": 689.0,
              "duration": 0.4892578125
            },
            {
              "id": 3650,
              "pitch": 73,
              "velocity": 110,
              "start": 689.5,
              "duration": 2.25
            },
            {
              "id": 3649,
              "pitch": 80,
              "velocity": 110,
              "start": 689.5,
              "duration": 2.25
            },
            {
              "id": 3648,
              "pitch": 44,
              "velocity": 110,
              "start": 689.5,
              "duration": 2.25
            },
            {
              "id": 3647,
              "pitch": 72,
              "velocity": 110,
              "start": 692.0,
              "duration": 1.3330078125
            },
            {
              "id": 3646,
              "pitch": 79,
              "velocity": 110,
              "start": 692.0,
              "duration": 1.3330078125
            },
            {
              "id": 3645,
              "pitch": 33,
              "velocity": 110,
              "start": 692.0,
              "duration": 0.4892578125
            },
            {
              "id": 3644,
              "pitch": 38,
              "velocity": 110,
              "start": 692.5,
              "duration": 0.4892578125
            },
            {
              "id": 3643,
              "pitch": 43,
              "velocity": 110,
              "start": 693.0,
              "duration": 0.4892578125
            },
            {
              "id": 3642,
              "pitch": 69,
              "velocity": 110,
              "start": 693.5,
              "duration": 2.25
            },
            {
              "id": 3641,
              "pitch": 77,
              "velocity": 110,
              "start": 693.5,
              "duration": 2.25
            },
            {
              "id": 3640,
              "pitch": 41,
              "velocity": 110,
              "start": 693.5,
              "duration": 2.25
            },
            {
              "id": 3639,
              "pitch": 74,
              "velocity": 110,
              "start": 696.0,
              "duration": 1.3330078125
            },
            {
              "id": 3638,
              "pitch": 81,
              "velocity": 110,
              "start": 696.0,
              "duration": 1.3330078125
            },
            {
              "id": 3637,
              "pitch": 33,
              "velocity": 110,
              "start": 696.0,
              "duration": 0.4892578125
            },
            {
              "id": 3636,
              "pitch": 38,
              "velocity": 110,
              "start": 696.5,
              "duration": 0.4892578125
            },
            {
              "id": 3635,
              "pitch": 45,
              "velocity": 110,
              "start": 697.0,
              "duration": 0.4892578125
            },
            {
              "id": 3634,
              "pitch": 73,
              "velocity": 110,
              "start": 697.5,
              "duration": 0.9892578125
            },
            {
              "id": 3633,
              "pitch": 80,
              "velocity": 110,
              "start": 697.5,
              "duration": 0.9892578125
            },
            {
              "id": 3632,
              "pitch": 44,
              "velocity": 110,
              "start": 697.5,
              "duration": 0.9892578125
            },
            {
              "id": 3631,
              "pitch": 72,
              "velocity": 110,
              "start": 698.5,
              "duration": 0.9892578125
            },
            {
              "id": 3630,
              "pitch": 79,
              "velocity": 110,
              "start": 698.5,
              "duration": 0.9892578125
            },
            {
              "id": 3629,
              "pitch": 43,
              "velocity": 110,
              "start": 698.5,
              "duration": 0.9892578125
            },
            {
              "id": 3628,
              "pitch": 69,
              "velocity": 110,
              "start": 699.5,
              "duration": 0.9892578125
            },
            {
              "id": 3627,
              "pitch": 77,
              "velocity": 110,
              "start": 699.5,
              "duration": 0.9892578125
            },
            {
              "id": 3626,
              "pitch": 41,
              "velocity": 110,
              "start": 699.5,
              "duration": 0.9892578125
            },
            {
              "id": 3625,
              "pitch": 69,
              "velocity": 110,
              "start": 700.5,
              "duration": 3.25
            },
            {
              "id": 3624,
              "pitch": 74,
              "velocity": 110,
              "start": 700.5,
              "duration": 3.25
            },
            {
              "id": 3623,
              "pitch": 38,
              "velocity": 110,
              "start": 700.5,
              "duration": 3.25
            },
            {
              "id": 3622,
              "pitch": 69,
              "velocity": 110,
              "start": 704.0,
              "duration": 1.3330078125
            },
            {
              "id": 3621,
              "pitch": 74,
              "velocity": 110,
              "start": 704.0,
              "duration": 1.3330078125
            },
            {
              "id": 3620,
              "pitch": 38,
              "velocity": 110,
              "start": 704.0,
              "duration": 0.4892578125
            },
            {
              "id": 3619,
              "pitch": 33,
              "velocity": 110,
              "start": 704.5,
              "duration": 0.4892578125
            },
            {
              "id": 3618,
              "pitch": 38,
              "velocity": 110,
              "start": 705.0,
              "duration": 0.4892578125
            },
            {
              "id": 3617,
              "pitch": 69,
              "velocity": 110,
              "start": 705.5,
              "duration": 2.25
            },
            {
              "id": 3616,
              "pitch": 73,
              "velocity": 110,
              "start": 705.5,
              "duration": 2.25
            },
            {
              "id": 3615,
              "pitch": 37,
              "velocity": 110,
              "start": 705.5,
              "duration": 2.25
            },
            {
              "id": 3614,
              "pitch": 69,
              "velocity": 110,
              "start": 708.0,
              "duration": 1.3330078125
            },
            {
              "id": 3613,
              "pitch": 72,
              "velocity": 110,
              "start": 708.0,
              "duration": 1.3330078125
            },
            {
              "id": 3612,
              "pitch": 36,
              "velocity": 110,
              "start": 708.0,
              "duration": 0.4892578125
            },
            {
              "id": 3611,
              "pitch": 33,
              "velocity": 110,
              "start": 708.5,
              "duration": 0.4892578125
            },
            {
              "id": 3610,
              "pitch": 36,
              "velocity": 110,
              "start": 709.0,
              "duration": 0.4892578125
            },
            {
              "id": 3609,
              "pitch": 68,
              "velocity": 110,
              "start": 709.5,
              "duration": 2.25
            },
            {
              "id": 3608,
              "pitch": 71,
              "velocity": 110,
              "start": 709.5,
              "duration": 2.25
            },
            {
              "id": 3607,
              "pitch": 35,
              "velocity": 110,
              "start": 709.5,
              "duration": 2.25
            },
            {
              "id": 3606,
              "pitch": 69,
              "velocity": 110,
              "start": 712.0,
              "duration": 1.3330078125
            },
            {
              "id": 3605,
              "pitch": 74,
              "velocity": 110,
              "start": 712.0,
              "duration": 1.3330078125
            },
            {
              "id": 3604,
              "pitch": 38,
              "velocity": 110,
              "start": 712.0,
              "duration": 0.4892578125
            },
            {
              "id": 3603,
              "pitch": 33,
              "velocity": 110,
              "start": 712.5,
              "duration": 0.4892578125
            },
            {
              "id": 3602,
              "pitch": 38,
              "velocity": 110,
              "start": 713.0,
              "duration": 0.4892578125
            },
            {
              "id": 3601,
              "pitch": 69,
              "velocity": 110,
              "start": 713.5,
              "duration": 2.25
            },
            {
              "id": 3600,
              "pitch": 73,
              "velocity": 110,
              "start": 713.5,
              "duration": 2.25
            },
            {
              "id": 3599,
              "pitch": 37,
              "velocity": 110,
              "start": 713.5,
              "duration": 2.25
            },
            {
              "id": 3598,
              "pitch": 69,
              "velocity": 110,
              "start": 716.0,
              "duration": 1.3330078125
            },
            {
              "id": 3597,
              "pitch": 72,
              "velocity": 110,
              "start": 716.0,
              "duration": 1.3330078125
            },
            {
              "id": 3596,
              "pitch": 36,
              "velocity": 110,
              "start": 716.0,
              "duration": 0.4892578125
            },
            {
              "id": 3595,
              "pitch": 33,
              "velocity": 110,
              "start": 716.5,
              "duration": 0.4892578125
            },
            {
              "id": 3594,
              "pitch": 36,
              "velocity": 110,
              "start": 717.0,
              "duration": 0.4892578125
            },
            {
              "id": 3593,
              "pitch": 68,
              "velocity": 110,
              "start": 717.5,
              "duration": 2.25
            },
            {
              "id": 3592,
              "pitch": 71,
              "velocity": 110,
              "start": 717.5,
              "duration": 2.25
            },
            {
              "id": 3591,
              "pitch": 35,
              "velocity": 110,
              "start": 717.5,
              "duration": 2.25
            },
            {
              "id": 3590,
              "pitch": 69,
              "velocity": 110,
              "start": 720.0,
              "duration": 1.3330078125
            },
            {
              "id": 3589,
              "pitch": 74,
              "velocity": 110,
              "start": 720.0,
              "duration": 1.3330078125
            },
            {
              "id": 3588,
              "pitch": 38,
              "velocity": 110,
              "start": 720.0,
              "duration": 0.4892578125
            },
            {
              "id": 3587,
              "pitch": 33,
              "velocity": 110,
              "start": 720.5,
              "duration": 0.4892578125
            },
            {
              "id": 3586,
              "pitch": 38,
              "velocity": 110,
              "start": 721.0,
              "duration": 0.4892578125
            },
            {
              "id": 3585,
              "pitch": 69,
              "velocity": 110,
              "start": 721.5,
              "duration": 2.25
            },
            {
              "id": 3584,
              "pitch": 73,
              "velocity": 110,
              "start": 721.5,
              "duration": 2.25
            },
            {
              "id": 3583,
              "pitch": 37,
              "velocity": 110,
              "start": 721.5,
              "duration": 0.9892578125
            },
            {
              "id": 3582,
              "pitch": 40,
              "velocity": 110,
              "start": 722.5,
              "duration": 1.3330078125
            },
            {
              "id": 3581,
              "pitch": 69,
              "velocity": 110,
              "start": 724.0,
              "duration": 1.3330078125
            },
            {
              "id": 3580,
              "pitch": 74,
              "velocity": 110,
              "start": 724.0,
              "duration": 1.3330078125
            },
            {
              "id": 3579,
              "pitch": 38,
              "velocity": 110,
              "start": 724.0,
              "duration": 0.4892578125
            },
            {
              "id": 3578,
              "pitch": 33,
              "velocity": 110,
              "start": 724.5,
              "duration": 0.4892578125
            },
            {
              "id": 3577,
              "pitch": 38,
              "velocity": 110,
              "start": 725.0,
              "duration": 0.4892578125
            },
            {
              "id": 3576,
              "pitch": 68,
              "velocity": 110,
              "start": 725.5,
              "duration": 2.25
            },
            {
              "id": 3575,
              "pitch": 73,
              "velocity": 110,
              "start": 725.5,
              "duration": 2.25
            },
            {
              "id": 3574,
              "pitch": 37,
              "velocity": 110,
              "start": 725.5,
              "duration": 2.25
            },
            {
              "id": 3573,
              "pitch": 69,
              "velocity": 110,
              "start": 728.0,
              "duration": 1.3330078125
            },
            {
              "id": 3572,
              "pitch": 74,
              "velocity": 110,
              "start": 728.0,
              "duration": 1.3330078125
            },
            {
              "id": 3571,
              "pitch": 38,
              "velocity": 110,
              "start": 728.0,
              "duration": 0.4892578125
            },
            {
              "id": 3570,
              "pitch": 33,
              "velocity": 110,
              "start": 728.5,
              "duration": 0.4892578125
            },
            {
              "id": 3569,
              "pitch": 38,
              "velocity": 110,
              "start": 729.0,
              "duration": 0.4892578125
            },
            {
              "id": 3568,
              "pitch": 69,
              "velocity": 110,
              "start": 729.5,
              "duration": 2.25
            },
            {
              "id": 3567,
              "pitch": 73,
              "velocity": 110,
              "start": 729.5,
              "duration": 2.25
            },
            {
              "id": 3566,
              "pitch": 37,
              "velocity": 110,
              "start": 729.5,
              "duration": 2.25
            },
            {
              "id": 3565,
              "pitch": 69,
              "velocity": 110,
              "start": 732.0,
              "duration": 1.3330078125
            },
            {
              "id": 3564,
              "pitch": 72,
              "velocity": 110,
              "start": 732.0,
              "duration": 1.3330078125
            },
            {
              "id": 3563,
              "pitch": 36,
              "velocity": 110,
              "start": 732.0,
              "duration": 0.4892578125
            },
            {
              "id": 3562,
              "pitch": 33,
              "velocity": 110,
              "start": 732.5,
              "duration": 0.4892578125
            },
            {
              "id": 3561,
              "pitch": 36,
              "velocity": 110,
              "start": 733.0,
              "duration": 0.4892578125
            },
            {
              "id": 3560,
              "pitch": 68,
              "velocity": 110,
              "start": 733.5,
              "duration": 2.25
            },
            {
              "id": 3559,
              "pitch": 71,
              "velocity": 110,
              "start": 733.5,
              "duration": 2.25
            },
            {
              "id": 3558,
              "pitch": 35,
              "velocity": 110,
              "start": 733.5,
              "duration": 2.25
            },
            {
              "id": 3557,
              "pitch": 26,
              "velocity": 110,
              "start": 736.0,
              "duration": 0.4892578125
            },
            {
              "id": 3556,
              "pitch": 33,
              "velocity": 110,
              "start": 736.5,
              "duration": 0.4892578125
            },
            {
              "id": 3555,
              "pitch": 38,
              "velocity": 110,
              "start": 737.0,
              "duration": 0.4892578125
            },
            {
              "id": 3554,
              "pitch": 26,
              "velocity": 110,
              "start": 737.5,
              "duration": 0.4892578125
            },
            {
              "id": 3553,
              "pitch": 33,
              "velocity": 110,
              "start": 738.0,
              "duration": 0.4892578125
            },
            {
              "id": 3552,
              "pitch": 37,
              "velocity": 110,
              "start": 738.5,
              "duration": 0.4892578125
            },
            {
              "id": 3551,
              "pitch": 26,
              "velocity": 110,
              "start": 739.0,
              "duration": 0.4892578125
            },
            {
              "id": 3550,
              "pitch": 33,
              "velocity": 110,
              "start": 739.5,
              "duration": 0.4892578125
            },
            {
              "id": 3549,
              "pitch": 36,
              "velocity": 110,
              "start": 740.0,
              "duration": 0.4892578125
            },
            {
              "id": 3548,
              "pitch": 26,
              "velocity": 110,
              "start": 740.5,
              "duration": 0.4892578125
            },
            {
              "id": 3547,
              "pitch": 29,
              "velocity": 110,
              "start": 741.0,
              "duration": 0.4892578125
            },
            {
              "id": 3546,
              "pitch": 36,
              "velocity": 110,
              "start": 741.5,
              "duration": 0.4892578125
            },
            {
              "id": 3545,
              "pitch": 35,
              "velocity": 110,
              "start": 742.0,
              "duration": 0.4892578125
            },
            {
              "id": 3544,
              "pitch": 31,
              "velocity": 110,
              "start": 742.5,
              "duration": 1.3330078125
            },
            {
              "id": 3543,
              "pitch": 26,
              "velocity": 110,
              "start": 744.0,
              "duration": 0.4892578125
            },
            {
              "id": 3542,
              "pitch": 33,
              "velocity": 110,
              "start": 744.5,
              "duration": 0.4892578125
            },
            {
              "id": 3541,
              "pitch": 38,
              "velocity": 110,
              "start": 745.0,
              "duration": 0.4892578125
            },
            {
              "id": 3540,
              "pitch": 26,
              "velocity": 110,
              "start": 745.5,
              "duration": 0.4892578125
            },
            {
              "id": 3539,
              "pitch": 33,
              "velocity": 110,
              "start": 746.0,
              "duration": 0.4892578125
            },
            {
              "id": 3538,
              "pitch": 37,
              "velocity": 110,
              "start": 746.5,
              "duration": 0.4892578125
            },
            {
              "id": 3537,
              "pitch": 26,
              "velocity": 110,
              "start": 747.0,
              "duration": 0.4892578125
            },
            {
              "id": 3536,
              "pitch": 33,
              "velocity": 110,
              "start": 747.5,
              "duration": 0.4892578125
            },
            {
              "id": 3535,
              "pitch": 36,
              "velocity": 110,
              "start": 748.0,
              "duration": 0.4892578125
            },
            {
              "id": 3534,
              "pitch": 26,
              "velocity": 110,
              "start": 748.5,
              "duration": 0.4892578125
            },
            {
              "id": 3533,
              "pitch": 29,
              "velocity": 110,
              "start": 749.0,
              "duration": 0.4892578125
            },
            {
              "id": 3532,
              "pitch": 36,
              "velocity": 110,
              "start": 749.5,
              "duration": 0.4892578125
            },
            {
              "id": 3531,
              "pitch": 35,
              "velocity": 110,
              "start": 750.0,
              "duration": 0.4892578125
            },
            {
              "id": 3530,
              "pitch": 31,
              "velocity": 110,
              "start": 750.5,
              "duration": 1.3330078125
            },
            {
              "id": 3529,
              "pitch": 48,
              "velocity": 110,
              "start": 752.0,
              "duration": 0.8330078125
            },
            {
              "id": 3528,
              "pitch": 46,
              "velocity": 110,
              "start": 754.0,
              "duration": 0.8330078125
            },
            {
              "id": 3527,
              "pitch": 43,
              "velocity": 110,
              "start": 755.0,
              "duration": 0.8330078125
            },
            {
              "id": 3526,
              "pitch": 48,
              "velocity": 110,
              "start": 756.0,
              "duration": 0.8330078125
            },
            {
              "id": 3525,
              "pitch": 46,
              "velocity": 110,
              "start": 758.0,
              "duration": 0.8330078125
            },
            {
              "id": 3524,
              "pitch": 43,
              "velocity": 110,
              "start": 759.0,
              "duration": 0.8330078125
            },
            {
              "id": 3523,
              "pitch": 48,
              "velocity": 110,
              "start": 760.0,
              "duration": 0.8330078125
            },
            {
              "id": 3522,
              "pitch": 46,
              "velocity": 110,
              "start": 762.0,
              "duration": 0.8330078125
            },
            {
              "id": 3521,
              "pitch": 43,
              "velocity": 110,
              "start": 763.0,
              "duration": 0.8330078125
            },
            {
              "id": 3520,
              "pitch": 48,
              "velocity": 110,
              "start": 764.0,
              "duration": 0.8330078125
            },
            {
              "id": 3519,
              "pitch": 46,
              "velocity": 110,
              "start": 766.0,
              "duration": 0.8330078125
            },
            {
              "id": 3518,
              "pitch": 43,
              "velocity": 110,
              "start": 767.0,
              "duration": 0.8330078125
            },
            {
              "id": 3517,
              "pitch": 72,
              "velocity": 110,
              "start": 767.5,
              "duration": 0.9892578125
            },
            {
              "id": 3516,
              "pitch": 48,
              "velocity": 110,
              "start": 768.0,
              "duration": 0.8330078125
            },
            {
              "id": 3515,
              "pitch": 72,
              "velocity": 110,
              "start": 768.5,
              "duration": 0.4892578125
            },
            {
              "id": 3514,
              "pitch": 69,
              "velocity": 110,
              "start": 769.0,
              "duration": 0.4892578125
            },
            {
              "id": 3513,
              "pitch": 69,
              "velocity": 110,
              "start": 769.5,
              "duration": 0.4892578125
            },
            {
              "id": 3512,
              "pitch": 70,
              "velocity": 110,
              "start": 770.0,
              "duration": 0.4892578125
            },
            {
              "id": 3511,
              "pitch": 46,
              "velocity": 110,
              "start": 770.0,
              "duration": 0.8330078125
            },
            {
              "id": 3510,
              "pitch": 70,
              "velocity": 110,
              "start": 770.5,
              "duration": 0.4892578125
            },
            {
              "id": 3509,
              "pitch": 43,
              "velocity": 110,
              "start": 771.0,
              "duration": 0.8330078125
            },
            {
              "id": 3508,
              "pitch": 48,
              "velocity": 110,
              "start": 772.0,
              "duration": 0.8330078125
            },
            {
              "id": 3507,
              "pitch": 46,
              "velocity": 110,
              "start": 774.0,
              "duration": 0.8330078125
            },
            {
              "id": 3506,
              "pitch": 43,
              "velocity": 110,
              "start": 775.0,
              "duration": 0.8330078125
            },
            {
              "id": 3505,
              "pitch": 48,
              "velocity": 110,
              "start": 776.0,
              "duration": 0.8330078125
            },
            {
              "id": 3504,
              "pitch": 46,
              "velocity": 110,
              "start": 778.0,
              "duration": 0.8330078125
            },
            {
              "id": 3503,
              "pitch": 43,
              "velocity": 110,
              "start": 779.0,
              "duration": 0.8330078125
            },
            {
              "id": 3502,
              "pitch": 72,
              "velocity": 110,
              "start": 779.5,
              "duration": 0.9892578125
            },
            {
              "id": 3501,
              "pitch": 48,
              "velocity": 110,
              "start": 780.0,
              "duration": 0.8330078125
            },
            {
              "id": 3500,
              "pitch": 72,
              "velocity": 110,
              "start": 780.5,
              "duration": 0.4892578125
            },
            {
              "id": 3499,
              "pitch": 69,
              "velocity": 110,
              "start": 781.0,
              "duration": 0.4892578125
            },
            {
              "id": 3498,
              "pitch": 69,
              "velocity": 110,
              "start": 781.5,
              "duration": 0.4892578125
            },
            {
              "id": 3497,
              "pitch": 70,
              "velocity": 110,
              "start": 782.0,
              "duration": 0.4892578125
            },
            {
              "id": 3496,
              "pitch": 46,
              "velocity": 110,
              "start": 782.0,
              "duration": 0.8330078125
            },
            {
              "id": 3495,
              "pitch": 70,
              "velocity": 110,
              "start": 782.5,
              "duration": 0.4892578125
            },
            {
              "id": 3494,
              "pitch": 43,
              "velocity": 110,
              "start": 783.0,
              "duration": 0.8330078125
            },
            {
              "id": 3493,
              "pitch": 48,
              "velocity": 110,
              "start": 784.0,
              "duration": 0.8330078125
            },
            {
              "id": 3492,
              "pitch": 46,
              "velocity": 110,
              "start": 786.0,
              "duration": 0.8330078125
            },
            {
              "id": 3491,
              "pitch": 43,
              "velocity": 110,
              "start": 787.0,
              "duration": 0.8330078125
            },
            {
              "id": 3490,
              "pitch": 65,
              "velocity": 110,
              "start": 787.5,
              "duration": 0.9892578125
            },
            {
              "id": 3489,
              "pitch": 48,
              "velocity": 110,
              "start": 788.0,
              "duration": 0.8330078125
            },
            {
              "id": 3488,
              "pitch": 65,
              "velocity": 110,
              "start": 788.5,
              "duration": 0.4892578125
            },
            {
              "id": 3487,
              "pitch": 62,
              "velocity": 110,
              "start": 789.0,
              "duration": 0.4892578125
            },
            {
              "id": 3486,
              "pitch": 62,
              "velocity": 110,
              "start": 789.5,
              "duration": 0.4892578125
            },
            {
              "id": 3485,
              "pitch": 63,
              "velocity": 110,
              "start": 790.0,
              "duration": 0.4892578125
            },
            {
              "id": 3484,
              "pitch": 46,
              "velocity": 110,
              "start": 790.0,
              "duration": 0.8330078125
            },
            {
              "id": 3483,
              "pitch": 63,
              "velocity": 110,
              "start": 790.5,
              "duration": 0.4892578125
            },
            {
              "id": 3482,
              "pitch": 43,
              "velocity": 110,
              "start": 791.0,
              "duration": 0.8330078125
            },
            {
              "id": 3481,
              "pitch": 48,
              "velocity": 110,
              "start": 792.0,
              "duration": 0.8330078125
            },
            {
              "id": 3480,
              "pitch": 46,
              "velocity": 110,
              "start": 794.0,
              "duration": 0.8330078125
            },
            {
              "id": 3479,
              "pitch": 43,
              "velocity": 110,
              "start": 795.0,
              "duration": 0.8330078125
            },
            {
              "id": 3478,
              "pitch": 65,
              "velocity": 110,
              "start": 795.5,
              "duration": 0.9892578125
            },
            {
              "id": 3477,
              "pitch": 48,
              "velocity": 110,
              "start": 796.0,
              "duration": 0.8330078125
            },
            {
              "id": 3476,
              "pitch": 65,
              "velocity": 110,
              "start": 796.5,
              "duration": 0.4892578125
            },
            {
              "id": 3475,
              "pitch": 62,
              "velocity": 110,
              "start": 797.0,
              "duration": 0.4892578125
            },
            {
              "id": 3474,
              "pitch": 62,
              "velocity": 110,
              "start": 797.5,
              "duration": 0.4892578125
            },
            {
              "id": 3473,
              "pitch": 63,
              "velocity": 110,
              "start": 798.0,
              "duration": 0.4892578125
            },
            {
              "id": 3472,
              "pitch": 46,
              "velocity": 110,
              "start": 798.0,
              "duration": 0.8330078125
            },
            {
              "id": 3471,
              "pitch": 63,
              "velocity": 110,
              "start": 798.5,
              "duration": 0.4892578125
            },
            {
              "id": 3470,
              "pitch": 43,
              "velocity": 110,
              "start": 799.0,
              "duration": 0.8330078125
            },
            {
              "id": 3469,
              "pitch": 48,
              "velocity": 110,
              "start": 800.0,
              "duration": 0.8330078125
            },
            {
              "id": 3468,
              "pitch": 46,
              "velocity": 110,
              "start": 802.0,
              "duration": 0.8330078125
            },
            {
              "id": 3467,
              "pitch": 43,
              "velocity": 110,
              "start": 803.0,
              "duration": 0.8330078125
            },
            {
              "id": 3466,
              "pitch": 48,
              "velocity": 110,
              "start": 804.0,
              "duration": 0.8330078125
            },
            {
              "id": 3465,
              "pitch": 46,
              "velocity": 110,
              "start": 806.0,
              "duration": 0.8330078125
            },
            {
              "id": 3464,
              "pitch": 43,
              "velocity": 110,
              "start": 807.0,
              "duration": 0.8330078125
            },
            {
              "id": 3463,
              "pitch": 60,
              "velocity": 110,
              "start": 808.0,
              "duration": 0.4892578125
            },
            {
              "id": 3462,
              "pitch": 48,
              "velocity": 110,
              "start": 808.0,
              "duration": 0.8330078125
            },
            {
              "id": 3461,
              "pitch": 72,
              "velocity": 110,
              "start": 808.5,
              "duration": 0.4892578125
            },
            {
              "id": 3460,
              "pitch": 57,
              "velocity": 110,
              "start": 809.0,
              "duration": 0.4892578125
            },
            {
              "id": 3459,
              "pitch": 69,
              "velocity": 110,
              "start": 809.5,
              "duration": 0.4892578125
            },
            {
              "id": 3458,
              "pitch": 58,
              "velocity": 110,
              "start": 810.0,
              "duration": 0.4892578125
            },
            {
              "id": 3457,
              "pitch": 46,
              "velocity": 110,
              "start": 810.0,
              "duration": 0.8330078125
            },
            {
              "id": 3456,
              "pitch": 70,
              "velocity": 110,
              "start": 810.5,
              "duration": 0.4892578125
            },
            {
              "id": 3455,
              "pitch": 43,
              "velocity": 110,
              "start": 811.0,
              "duration": 0.8330078125
            },
            {
              "id": 3454,
              "pitch": 48,
              "velocity": 110,
              "start": 812.0,
              "duration": 0.8330078125
            },
            {
              "id": 3453,
              "pitch": 46,
              "velocity": 110,
              "start": 814.0,
              "duration": 0.8330078125
            },
            {
              "id": 3452,
              "pitch": 43,
              "velocity": 110,
              "start": 815.0,
              "duration": 0.8330078125
            },
            {
              "id": 3451,
              "pitch": 60,
              "velocity": 110,
              "start": 816.0,
              "duration": 0.4892578125
            },
            {
              "id": 3450,
              "pitch": 48,
              "velocity": 110,
              "start": 816.0,
              "duration": 0.8330078125
            },
            {
              "id": 3449,
              "pitch": 72,
              "velocity": 110,
              "start": 816.5,
              "duration": 0.4892578125
            },
            {
              "id": 3448,
              "pitch": 57,
              "velocity": 110,
              "start": 817.0,
              "duration": 0.4892578125
            },
            {
              "id": 3447,
              "pitch": 69,
              "velocity": 110,
              "start": 817.5,
              "duration": 0.4892578125
            },
            {
              "id": 3446,
              "pitch": 58,
              "velocity": 110,
              "start": 818.0,
              "duration": 0.4892578125
            },
            {
              "id": 3445,
              "pitch": 46,
              "velocity": 110,
              "start": 818.0,
              "duration": 0.8330078125
            },
            {
              "id": 3444,
              "pitch": 70,
              "velocity": 110,
              "start": 818.5,
              "duration": 0.4892578125
            },
            {
              "id": 3443,
              "pitch": 43,
              "velocity": 110,
              "start": 819.0,
              "duration": 0.8330078125
            },
            {
              "id": 3442,
              "pitch": 48,
              "velocity": 110,
              "start": 820.0,
              "duration": 0.8330078125
            },
            {
              "id": 3441,
              "pitch": 46,
              "velocity": 110,
              "start": 822.0,
              "duration": 0.8330078125
            },
            {
              "id": 3440,
              "pitch": 43,
              "velocity": 110,
              "start": 823.0,
              "duration": 0.8330078125
            },
            {
              "id": 3439,
              "pitch": 53,
              "velocity": 110,
              "start": 824.0,
              "duration": 0.4892578125
            },
            {
              "id": 3438,
              "pitch": 41,
              "velocity": 110,
              "start": 824.0,
              "duration": 0.8330078125
            },
            {
              "id": 3437,
              "pitch": 65,
              "velocity": 110,
              "start": 824.5,
              "duration": 0.4892578125
            },
            {
              "id": 3436,
              "pitch": 50,
              "velocity": 110,
              "start": 825.0,
              "duration": 0.4892578125
            },
            {
              "id": 3435,
              "pitch": 62,
              "velocity": 110,
              "start": 825.5,
              "duration": 0.4892578125
            },
            {
              "id": 3434,
              "pitch": 51,
              "velocity": 110,
              "start": 826.0,
              "duration": 0.4892578125
            },
            {
              "id": 3433,
              "pitch": 39,
              "velocity": 110,
              "start": 826.0,
              "duration": 0.8330078125
            },
            {
              "id": 3432,
              "pitch": 63,
              "velocity": 110,
              "start": 826.5,
              "duration": 0.4892578125
            },
            {
              "id": 3431,
              "pitch": 43,
              "velocity": 110,
              "start": 827.0,
              "duration": 0.8330078125
            },
            {
              "id": 3430,
              "pitch": 48,
              "velocity": 110,
              "start": 828.0,
              "duration": 0.8330078125
            },
            {
              "id": 3429,
              "pitch": 46,
              "velocity": 110,
              "start": 830.0,
              "duration": 0.8330078125
            },
            {
              "id": 3428,
              "pitch": 43,
              "velocity": 110,
              "start": 831.0,
              "duration": 0.8330078125
            },
            {
              "id": 3427,
              "pitch": 53,
              "velocity": 110,
              "start": 832.0,
              "duration": 0.4892578125
            },
            {
              "id": 3426,
              "pitch": 41,
              "velocity": 110,
              "start": 832.0,
              "duration": 0.8330078125
            },
            {
              "id": 3425,
              "pitch": 65,
              "velocity": 110,
              "start": 832.5,
              "duration": 0.4892578125
            },
            {
              "id": 3424,
              "pitch": 50,
              "velocity": 110,
              "start": 833.0,
              "duration": 0.4892578125
            },
            {
              "id": 3423,
              "pitch": 62,
              "velocity": 110,
              "start": 833.5,
              "duration": 0.4892578125
            },
            {
              "id": 3422,
              "pitch": 51,
              "velocity": 110,
              "start": 834.0,
              "duration": 0.4892578125
            },
            {
              "id": 3421,
              "pitch": 39,
              "velocity": 110,
              "start": 834.0,
              "duration": 0.8330078125
            },
            {
              "id": 3420,
              "pitch": 63,
              "velocity": 110,
              "start": 834.5,
              "duration": 0.4892578125
            },
            {
              "id": 3419,
              "pitch": 43,
              "velocity": 110,
              "start": 835.0,
              "duration": 0.8330078125
            },
            {
              "id": 3418,
              "pitch": 48,
              "velocity": 110,
              "start": 836.0,
              "duration": 0.8330078125
            },
            {
              "id": 3417,
              "pitch": 46,
              "velocity": 110,
              "start": 838.0,
              "duration": 0.8330078125
            },
            {
              "id": 3416,
              "pitch": 43,
              "velocity": 110,
              "start": 839.0,
              "duration": 0.8330078125
            },
            {
              "id": 3415,
              "pitch": 63,
              "velocity": 110,
              "start": 839.25,
              "duration": 0.2392578125
            },
            {
              "id": 3414,
              "pitch": 62,
              "velocity": 110,
              "start": 839.5,
              "duration": 0.2392578125
            },
            {
              "id": 3413,
              "pitch": 61,
              "velocity": 110,
              "start": 839.75,
              "duration": 0.2392578125
            },
            {
              "id": 3412,
              "pitch": 60,
              "velocity": 110,
              "start": 840.0,
              "duration": 0.8330078125
            },
            {
              "id": 3411,
              "pitch": 48,
              "velocity": 110,
              "start": 840.0,
              "duration": 0.8330078125
            },
            {
              "id": 3410,
              "pitch": 63,
              "velocity": 110,
              "start": 841.0,
              "duration": 0.8330078125
            },
            {
              "id": 3409,
              "pitch": 62,
              "velocity": 110,
              "start": 842.0,
              "duration": 0.8330078125
            },
            {
              "id": 3408,
              "pitch": 46,
              "velocity": 110,
              "start": 842.0,
              "duration": 0.8330078125
            },
            {
              "id": 3407,
              "pitch": 56,
              "velocity": 110,
              "start": 843.0,
              "duration": 0.8330078125
            },
            {
              "id": 3406,
              "pitch": 43,
              "velocity": 110,
              "start": 843.0,
              "duration": 0.8330078125
            },
            {
              "id": 3405,
              "pitch": 55,
              "velocity": 110,
              "start": 844.0,
              "duration": 0.8330078125
            },
            {
              "id": 3404,
              "pitch": 41,
              "velocity": 110,
              "start": 844.0,
              "duration": 0.8330078125
            },
            {
              "id": 3403,
              "pitch": 61,
              "velocity": 110,
              "start": 845.0,
              "duration": 0.8330078125
            },
            {
              "id": 3402,
              "pitch": 60,
              "velocity": 110,
              "start": 846.0,
              "duration": 0.3642578125
            },
            {
              "id": 3401,
              "pitch": 39,
              "velocity": 110,
              "start": 846.0,
              "duration": 0.8330078125
            },
            {
              "id": 3400,
              "pitch": 66,
              "velocity": 110,
              "start": 846.375,
              "duration": 0.3642578125
            },
            {
              "id": 3399,
              "pitch": 65,
              "velocity": 110,
              "start": 846.75,
              "duration": 0.2392578125
            },
            {
              "id": 3398,
              "pitch": 64,
              "velocity": 110,
              "start": 847.0,
              "duration": 0.3642578125
            },
            {
              "id": 3397,
              "pitch": 43,
              "velocity": 110,
              "start": 847.0,
              "duration": 0.8330078125
            },
            {
              "id": 3396,
              "pitch": 71,
              "velocity": 110,
              "start": 847.375,
              "duration": 0.3642578125
            },
            {
              "id": 3395,
              "pitch": 70,
              "velocity": 110,
              "start": 847.75,
              "duration": 0.2392578125
            },
            {
              "id": 3394,
              "pitch": 69,
              "velocity": 110,
              "start": 848.0,
              "duration": 0.7392578125
            },
            {
              "id": 3393,
              "pitch": 48,
              "velocity": 110,
              "start": 848.0,
              "duration": 0.8330078125
            },
            {
              "id": 3392,
              "pitch": 63,
              "velocity": 110,
              "start": 848.75,
              "duration": 0.2392578125
            },
            {
              "id": 3391,
              "pitch": 59,
              "velocity": 110,
              "start": 849.25,
              "duration": 0.7392578125
            },
            {
              "id": 3390,
              "pitch": 58,
              "velocity": 110,
              "start": 850.0,
              "duration": 0.7392578125
            },
            {
              "id": 3389,
              "pitch": 46,
              "velocity": 110,
              "start": 850.0,
              "duration": 0.8330078125
            },
            {
              "id": 3388,
              "pitch": 57,
              "velocity": 110,
              "start": 850.75,
              "duration": 0.2392578125
            },
            {
              "id": 3387,
              "pitch": 43,
              "velocity": 110,
              "start": 851.0,
              "duration": 0.8330078125
            },
            {
              "id": 3386,
              "pitch": 56,
              "velocity": 110,
              "start": 851.5,
              "duration": 0.4892578125
            },
            {
              "id": 3385,
              "pitch": 48,
              "velocity": 110,
              "start": 852.0,
              "duration": 0.8330078125
            },
            {
              "id": 3384,
              "pitch": 46,
              "velocity": 110,
              "start": 854.0,
              "duration": 0.8330078125
            },
            {
              "id": 3383,
              "pitch": 43,
              "velocity": 110,
              "start": 855.0,
              "duration": 0.8330078125
            },
            {
              "id": 3382,
              "pitch": 60,
              "velocity": 110,
              "start": 856.0,
              "duration": 0.4892578125
            },
            {
              "id": 3381,
              "pitch": 48,
              "velocity": 110,
              "start": 856.0,
              "duration": 0.8330078125
            },
            {
              "id": 3380,
              "pitch": 72,
              "velocity": 110,
              "start": 856.5,
              "duration": 0.4892578125
            },
            {
              "id": 3379,
              "pitch": 57,
              "velocity": 110,
              "start": 857.0,
              "duration": 0.4892578125
            },
            {
              "id": 3378,
              "pitch": 69,
              "velocity": 110,
              "start": 857.5,
              "duration": 0.4892578125
            },
            {
              "id": 3377,
              "pitch": 58,
              "velocity": 110,
              "start": 858.0,
              "duration": 0.4892578125
            },
            {
              "id": 3376,
              "pitch": 46,
              "velocity": 110,
              "start": 858.0,
              "duration": 0.8330078125
            },
            {
              "id": 3375,
              "pitch": 70,
              "velocity": 110,
              "start": 858.5,
              "duration": 0.4892578125
            },
            {
              "id": 3374,
              "pitch": 43,
              "velocity": 110,
              "start": 859.0,
              "duration": 0.8330078125
            },
            {
              "id": 3373,
              "pitch": 48,
              "velocity": 110,
              "start": 860.0,
              "duration": 0.8330078125
            },
            {
              "id": 3372,
              "pitch": 46,
              "velocity": 110,
              "start": 862.0,
              "duration": 0.8330078125
            },
            {
              "id": 3371,
              "pitch": 43,
              "velocity": 110,
              "start": 863.0,
              "duration": 0.8330078125
            },
            {
              "id": 3370,
              "pitch": 60,
              "velocity": 110,
              "start": 864.0,
              "duration": 0.4892578125
            },
            {
              "id": 3369,
              "pitch": 48,
              "velocity": 110,
              "start": 864.0,
              "duration": 0.8330078125
            },
            {
              "id": 3368,
              "pitch": 72,
              "velocity": 110,
              "start": 864.5,
              "duration": 0.4892578125
            },
            {
              "id": 3367,
              "pitch": 57,
              "velocity": 110,
              "start": 865.0,
              "duration": 0.4892578125
            },
            {
              "id": 3366,
              "pitch": 69,
              "velocity": 110,
              "start": 865.5,
              "duration": 0.4892578125
            },
            {
              "id": 3365,
              "pitch": 58,
              "velocity": 110,
              "start": 866.0,
              "duration": 0.4892578125
            },
            {
              "id": 3364,
              "pitch": 46,
              "velocity": 110,
              "start": 866.0,
              "duration": 0.8330078125
            },
            {
              "id": 3363,
              "pitch": 70,
              "velocity": 110,
              "start": 866.5,
              "duration": 0.4892578125
            },
            {
              "id": 3362,
              "pitch": 43,
              "velocity": 110,
              "start": 867.0,
              "duration": 0.8330078125
            },
            {
              "id": 3361,
              "pitch": 48,
              "velocity": 110,
              "start": 868.0,
              "duration": 0.8330078125
            },
            {
              "id": 3360,
              "pitch": 46,
              "velocity": 110,
              "start": 870.0,
              "duration": 0.8330078125
            },
            {
              "id": 3359,
              "pitch": 43,
              "velocity": 110,
              "start": 871.0,
              "duration": 0.8330078125
            },
            {
              "id": 3358,
              "pitch": 53,
              "velocity": 110,
              "start": 872.0,
              "duration": 0.4892578125
            },
            {
              "id": 3357,
              "pitch": 41,
              "velocity": 110,
              "start": 872.0,
              "duration": 0.8330078125
            },
            {
              "id": 3356,
              "pitch": 65,
              "velocity": 110,
              "start": 872.5,
              "duration": 0.4892578125
            },
            {
              "id": 3355,
              "pitch": 50,
              "velocity": 110,
              "start": 873.0,
              "duration": 0.4892578125
            },
            {
              "id": 3354,
              "pitch": 62,
              "velocity": 110,
              "start": 873.5,
              "duration": 0.4892578125
            },
            {
              "id": 3353,
              "pitch": 51,
              "velocity": 110,
              "start": 874.0,
              "duration": 0.4892578125
            },
            {
              "id": 3352,
              "pitch": 39,
              "velocity": 110,
              "start": 874.0,
              "duration": 0.8330078125
            },
            {
              "id": 3351,
              "pitch": 63,
              "velocity": 110,
              "start": 874.5,
              "duration": 0.4892578125
            },
            {
              "id": 3350,
              "pitch": 43,
              "velocity": 110,
              "start": 875.0,
              "duration": 0.8330078125
            },
            {
              "id": 3349,
              "pitch": 48,
              "velocity": 110,
              "start": 876.0,
              "duration": 0.8330078125
            },
            {
              "id": 3348,
              "pitch": 46,
              "velocity": 110,
              "start": 878.0,
              "duration": 0.8330078125
            },
            {
              "id": 3347,
              "pitch": 43,
              "velocity": 110,
              "start": 879.0,
              "duration": 0.8330078125
            },
            {
              "id": 3346,
              "pitch": 53,
              "velocity": 110,
              "start": 880.0,
              "duration": 0.4892578125
            },
            {
              "id": 3345,
              "pitch": 41,
              "velocity": 110,
              "start": 880.0,
              "duration": 0.8330078125
            },
            {
              "id": 3344,
              "pitch": 65,
              "velocity": 110,
              "start": 880.5,
              "duration": 0.4892578125
            },
            {
              "id": 3343,
              "pitch": 50,
              "velocity": 110,
              "start": 881.0,
              "duration": 0.4892578125
            },
            {
              "id": 3342,
              "pitch": 62,
              "velocity": 110,
              "start": 881.5,
              "duration": 0.4892578125
            },
            {
              "id": 3341,
              "pitch": 51,
              "velocity": 110,
              "start": 882.0,
              "duration": 0.4892578125
            },
            {
              "id": 3340,
              "pitch": 39,
              "velocity": 110,
              "start": 882.0,
              "duration": 0.8330078125
            },
            {
              "id": 3339,
              "pitch": 63,
              "velocity": 110,
              "start": 882.5,
              "duration": 0.4892578125
            },
            {
              "id": 3338,
              "pitch": 43,
              "velocity": 110,
              "start": 883.0,
              "duration": 0.8330078125
            },
            {
              "id": 3337,
              "pitch": 48,
              "velocity": 110,
              "start": 884.0,
              "duration": 0.8330078125
            },
            {
              "id": 3336,
              "pitch": 46,
              "velocity": 110,
              "start": 886.0,
              "duration": 0.8330078125
            },
            {
              "id": 3335,
              "pitch": 43,
              "velocity": 110,
              "start": 887.0,
              "duration": 0.8330078125
            },
            {
              "id": 3334,
              "pitch": 63,
              "velocity": 110,
              "start": 887.25,
              "duration": 0.2392578125
            },
            {
              "id": 3333,
              "pitch": 62,
              "velocity": 110,
              "start": 887.5,
              "duration": 0.2392578125
            },
            {
              "id": 3332,
              "pitch": 61,
              "velocity": 110,
              "start": 887.75,
              "duration": 0.2392578125
            },
            {
              "id": 3331,
              "pitch": 60,
              "velocity": 110,
              "start": 888.0,
              "duration": 0.8330078125
            },
            {
              "id": 3330,
              "pitch": 48,
              "velocity": 110,
              "start": 888.0,
              "duration": 0.8330078125
            },
            {
              "id": 3329,
              "pitch": 63,
              "velocity": 110,
              "start": 889.0,
              "duration": 0.8330078125
            },
            {
              "id": 3328,
              "pitch": 62,
              "velocity": 110,
              "start": 890.0,
              "duration": 0.8330078125
            },
            {
              "id": 3327,
              "pitch": 46,
              "velocity": 110,
              "start": 890.0,
              "duration": 0.8330078125
            },
            {
              "id": 3326,
              "pitch": 56,
              "velocity": 110,
              "start": 891.0,
              "duration": 0.8330078125
            },
            {
              "id": 3325,
              "pitch": 43,
              "velocity": 110,
              "start": 891.0,
              "duration": 0.8330078125
            },
            {
              "id": 3324,
              "pitch": 55,
              "velocity": 110,
              "start": 892.0,
              "duration": 0.8330078125
            },
            {
              "id": 3323,
              "pitch": 41,
              "velocity": 110,
              "start": 892.0,
              "duration": 0.8330078125
            },
            {
              "id": 3322,
              "pitch": 61,
              "velocity": 110,
              "start": 893.0,
              "duration": 0.8330078125
            },
            {
              "id": 3321,
              "pitch": 60,
              "velocity": 110,
              "start": 894.0,
              "duration": 0.3642578125
            },
            {
              "id": 3320,
              "pitch": 39,
              "velocity": 110,
              "start": 894.0,
              "duration": 0.8330078125
            },
            {
              "id": 3319,
              "pitch": 66,
              "velocity": 110,
              "start": 894.375,
              "duration": 0.3642578125
            },
            {
              "id": 3318,
              "pitch": 65,
              "velocity": 110,
              "start": 894.75,
              "duration": 0.2392578125
            },
            {
              "id": 3317,
              "pitch": 64,
              "velocity": 110,
              "start": 895.0,
              "duration": 0.3642578125
            },
            {
              "id": 3316,
              "pitch": 43,
              "velocity": 110,
              "start": 895.0,
              "duration": 0.8330078125
            },
            {
              "id": 3315,
              "pitch": 71,
              "velocity": 110,
              "start": 895.375,
              "duration": 0.3642578125
            },
            {
              "id": 3314,
              "pitch": 70,
              "velocity": 110,
              "start": 895.75,
              "duration": 0.2392578125
            },
            {
              "id": 3313,
              "pitch": 69,
              "velocity": 110,
              "start": 896.0,
              "duration": 0.7392578125
            },
            {
              "id": 3312,
              "pitch": 48,
              "velocity": 110,
              "start": 896.0,
              "duration": 0.8330078125
            },
            {
              "id": 3311,
              "pitch": 63,
              "velocity": 110,
              "start": 896.75,
              "duration": 0.2392578125
            },
            {
              "id": 3310,
              "pitch": 59,
              "velocity": 110,
              "start": 897.25,
              "duration": 0.7392578125
            },
            {
              "id": 3309,
              "pitch": 58,
              "velocity": 110,
              "start": 898.0,
              "duration": 0.7392578125
            },
            {
              "id": 3308,
              "pitch": 46,
              "velocity": 110,
              "start": 898.0,
              "duration": 0.8330078125
            },
            {
              "id": 3307,
              "pitch": 57,
              "velocity": 110,
              "start": 898.75,
              "duration": 0.2392578125
            },
            {
              "id": 3306,
              "pitch": 43,
              "velocity": 110,
              "start": 899.0,
              "duration": 0.8330078125
            },
            {
              "id": 3305,
              "pitch": 56,
              "velocity": 110,
              "start": 899.5,
              "duration": 0.4892578125
            },
            {
              "id": 3304,
              "pitch": 48,
              "velocity": 110,
              "start": 900.0,
              "duration": 0.8330078125
            },
            {
              "id": 3303,
              "pitch": 46,
              "velocity": 110,
              "start": 902.0,
              "duration": 0.8330078125
            },
            {
              "id": 3302,
              "pitch": 43,
              "velocity": 110,
              "start": 903.0,
              "duration": 0.8330078125
            },
            {
              "id": 3301,
              "pitch": 72,
              "velocity": 110,
              "start": 904.0,
              "duration": 0.8330078125
            },
            {
              "id": 3300,
              "pitch": 76,
              "velocity": 110,
              "start": 904.0,
              "duration": 0.8330078125
            },
            {
              "id": 3299,
              "pitch": 79,
              "velocity": 110,
              "start": 904.0,
              "duration": 0.8330078125
            },
            {
              "id": 3298,
              "pitch": 52,
              "velocity": 110,
              "start": 904.0,
              "duration": 0.8330078125
            },
            {
              "id": 3297,
              "pitch": 60,
              "velocity": 110,
              "start": 904.0,
              "duration": 0.8330078125
            },
            {
              "id": 3296,
              "pitch": 72,
              "velocity": 110,
              "start": 905.5,
              "duration": 0.4892578125
            },
            {
              "id": 3295,
              "pitch": 77,
              "velocity": 110,
              "start": 905.5,
              "duration": 0.4892578125
            },
            {
              "id": 3294,
              "pitch": 81,
              "velocity": 110,
              "start": 905.5,
              "duration": 0.4892578125
            },
            {
              "id": 3293,
              "pitch": 53,
              "velocity": 110,
              "start": 905.5,
              "duration": 0.4892578125
            },
            {
              "id": 3292,
              "pitch": 60,
              "velocity": 110,
              "start": 905.5,
              "duration": 0.4892578125
            },
            {
              "id": 3291,
              "pitch": 72,
              "velocity": 110,
              "start": 906.5,
              "duration": 0.4892578125
            },
            {
              "id": 3290,
              "pitch": 76,
              "velocity": 110,
              "start": 906.5,
              "duration": 0.4892578125
            },
            {
              "id": 3289,
              "pitch": 79,
              "velocity": 110,
              "start": 906.5,
              "duration": 0.4892578125
            },
            {
              "id": 3288,
              "pitch": 52,
              "velocity": 110,
              "start": 906.5,
              "duration": 0.4892578125
            },
            {
              "id": 3287,
              "pitch": 60,
              "velocity": 110,
              "start": 906.5,
              "duration": 0.4892578125
            },
            {
              "id": 3286,
              "pitch": 72,
              "velocity": 110,
              "start": 907.5,
              "duration": 0.4892578125
            },
            {
              "id": 3285,
              "pitch": 75,
              "velocity": 110,
              "start": 907.5,
              "duration": 0.4892578125
            },
            {
              "id": 3284,
              "pitch": 78,
              "velocity": 110,
              "start": 907.5,
              "duration": 0.4892578125
            },
            {
              "id": 3283,
              "pitch": 51,
              "velocity": 110,
              "start": 907.5,
              "duration": 0.4892578125
            },
            {
              "id": 3282,
              "pitch": 55,
              "velocity": 110,
              "start": 907.5,
              "duration": 0.4892578125
            },
            {
              "id": 3281,
              "pitch": 72,
              "velocity": 110,
              "start": 908.0,
              "duration": 0.4892578125
            },
            {
              "id": 3280,
              "pitch": 76,
              "velocity": 110,
              "start": 908.0,
              "duration": 0.4892578125
            },
            {
              "id": 3279,
              "pitch": 79,
              "velocity": 110,
              "start": 908.0,
              "duration": 0.4892578125
            },
            {
              "id": 3278,
              "pitch": 52,
              "velocity": 110,
              "start": 908.0,
              "duration": 0.4892578125
            },
            {
              "id": 3277,
              "pitch": 60,
              "velocity": 110,
              "start": 908.0,
              "duration": 0.4892578125
            },
            {
              "id": 3276,
              "pitch": 76,
              "velocity": 110,
              "start": 908.5,
              "duration": 0.4892578125
            },
            {
              "id": 3275,
              "pitch": 79,
              "velocity": 110,
              "start": 908.5,
              "duration": 0.4892578125
            },
            {
              "id": 3274,
              "pitch": 84,
              "velocity": 110,
              "start": 908.5,
              "duration": 0.4892578125
            },
            {
              "id": 3273,
              "pitch": 55,
              "velocity": 110,
              "start": 908.5,
              "duration": 0.4892578125
            },
            {
              "id": 3272,
              "pitch": 60,
              "velocity": 110,
              "start": 908.5,
              "duration": 0.4892578125
            },
            {
              "id": 3271,
              "pitch": 79,
              "velocity": 110,
              "start": 909.0,
              "duration": 0.8330078125
            },
            {
              "id": 3270,
              "pitch": 84,
              "velocity": 110,
              "start": 909.0,
              "duration": 0.8330078125
            },
            {
              "id": 3269,
              "pitch": 88,
              "velocity": 110,
              "start": 909.0,
              "duration": 0.8330078125
            },
            {
              "id": 3268,
              "pitch": 60,
              "velocity": 110,
              "start": 909.0,
              "duration": 0.8330078125
            },
            {
              "id": 3267,
              "pitch": 67,
              "velocity": 110,
              "start": 911.0,
              "duration": 0.4892578125
            },
            {
              "id": 3266,
              "pitch": 72,
              "velocity": 110,
              "start": 911.5,
              "duration": 0.4892578125
            },
            {
              "id": 3265,
              "pitch": 71,
              "velocity": 110,
              "start": 912.0,
              "duration": 0.8330078125
            },
            {
              "id": 3264,
              "pitch": 74,
              "velocity": 110,
              "start": 912.0,
              "duration": 0.8330078125
            },
            {
              "id": 3263,
              "pitch": 77,
              "velocity": 110,
              "start": 912.0,
              "duration": 0.8330078125
            },
            {
              "id": 3262,
              "pitch": 50,
              "velocity": 110,
              "start": 912.0,
              "duration": 0.8330078125
            },
            {
              "id": 3261,
              "pitch": 59,
              "velocity": 110,
              "start": 912.0,
              "duration": 0.8330078125
            },
            {
              "id": 3260,
              "pitch": 71,
              "velocity": 110,
              "start": 913.5,
              "duration": 0.4892578125
            },
            {
              "id": 3259,
              "pitch": 76,
              "velocity": 110,
              "start": 913.5,
              "duration": 0.4892578125
            },
            {
              "id": 3258,
              "pitch": 79,
              "velocity": 110,
              "start": 913.5,
              "duration": 0.4892578125
            },
            {
              "id": 3257,
              "pitch": 52,
              "velocity": 110,
              "start": 913.5,
              "duration": 0.4892578125
            },
            {
              "id": 3256,
              "pitch": 59,
              "velocity": 110,
              "start": 913.5,
              "duration": 0.4892578125
            },
            {
              "id": 3255,
              "pitch": 71,
              "velocity": 110,
              "start": 914.5,
              "duration": 0.4892578125
            },
            {
              "id": 3254,
              "pitch": 74,
              "velocity": 110,
              "start": 914.5,
              "duration": 0.4892578125
            },
            {
              "id": 3253,
              "pitch": 77,
              "velocity": 110,
              "start": 914.5,
              "duration": 0.4892578125
            },
            {
              "id": 3252,
              "pitch": 50,
              "velocity": 110,
              "start": 914.5,
              "duration": 0.4892578125
            },
            {
              "id": 3251,
              "pitch": 59,
              "velocity": 110,
              "start": 914.5,
              "duration": 0.4892578125
            },
            {
              "id": 3250,
              "pitch": 70,
              "velocity": 110,
              "start": 915.5,
              "duration": 0.4892578125
            },
            {
              "id": 3249,
              "pitch": 73,
              "velocity": 110,
              "start": 915.5,
              "duration": 0.4892578125
            },
            {
              "id": 3248,
              "pitch": 76,
              "velocity": 110,
              "start": 915.5,
              "duration": 0.4892578125
            },
            {
              "id": 3247,
              "pitch": 49,
              "velocity": 110,
              "start": 915.5,
              "duration": 0.4892578125
            },
            {
              "id": 3246,
              "pitch": 55,
              "velocity": 110,
              "start": 915.5,
              "duration": 0.4892578125
            },
            {
              "id": 3245,
              "pitch": 71,
              "velocity": 110,
              "start": 916.0,
              "duration": 0.4892578125
            },
            {
              "id": 3244,
              "pitch": 74,
              "velocity": 110,
              "start": 916.0,
              "duration": 0.4892578125
            },
            {
              "id": 3243,
              "pitch": 77,
              "velocity": 110,
              "start": 916.0,
              "duration": 0.4892578125
            },
            {
              "id": 3242,
              "pitch": 50,
              "velocity": 110,
              "start": 916.0,
              "duration": 0.4892578125
            },
            {
              "id": 3241,
              "pitch": 59,
              "velocity": 110,
              "start": 916.0,
              "duration": 0.4892578125
            },
            {
              "id": 3240,
              "pitch": 74,
              "velocity": 110,
              "start": 916.5,
              "duration": 0.4892578125
            },
            {
              "id": 3239,
              "pitch": 79,
              "velocity": 110,
              "start": 916.5,
              "duration": 0.4892578125
            },
            {
              "id": 3238,
              "pitch": 83,
              "velocity": 110,
              "start": 916.5,
              "duration": 0.4892578125
            },
            {
              "id": 3237,
              "pitch": 55,
              "velocity": 110,
              "start": 916.5,
              "duration": 0.4892578125
            },
            {
              "id": 3236,
              "pitch": 59,
              "velocity": 110,
              "start": 916.5,
              "duration": 0.4892578125
            },
            {
              "id": 3235,
              "pitch": 79,
              "velocity": 110,
              "start": 917.0,
              "duration": 0.8330078125
            },
            {
              "id": 3234,
              "pitch": 83,
              "velocity": 110,
              "start": 917.0,
              "duration": 0.8330078125
            },
            {
              "id": 3233,
              "pitch": 86,
              "velocity": 110,
              "start": 917.0,
              "duration": 0.8330078125
            },
            {
              "id": 3232,
              "pitch": 59,
              "velocity": 110,
              "start": 917.0,
              "duration": 0.8330078125
            },
            {
              "id": 3231,
              "pitch": 67,
              "velocity": 110,
              "start": 919.0,
              "duration": 0.4892578125
            },
            {
              "id": 3230,
              "pitch": 71,
              "velocity": 110,
              "start": 919.5,
              "duration": 0.4892578125
            },
            {
              "id": 3229,
              "pitch": 69,
              "velocity": 110,
              "start": 920.0,
              "duration": 0.8330078125
            },
            {
              "id": 3228,
              "pitch": 72,
              "velocity": 110,
              "start": 920.0,
              "duration": 0.8330078125
            },
            {
              "id": 3227,
              "pitch": 76,
              "velocity": 110,
              "start": 920.0,
              "duration": 0.8330078125
            },
            {
              "id": 3226,
              "pitch": 48,
              "velocity": 110,
              "start": 920.0,
              "duration": 0.8330078125
            },
            {
              "id": 3225,
              "pitch": 57,
              "velocity": 110,
              "start": 920.0,
              "duration": 0.8330078125
            },
            {
              "id": 3224,
              "pitch": 69,
              "velocity": 110,
              "start": 921.5,
              "duration": 0.4892578125
            },
            {
              "id": 3223,
              "pitch": 74,
              "velocity": 110,
              "start": 921.5,
              "duration": 0.4892578125
            },
            {
              "id": 3222,
              "pitch": 77,
              "velocity": 110,
              "start": 921.5,
              "duration": 0.4892578125
            },
            {
              "id": 3221,
              "pitch": 50,
              "velocity": 110,
              "start": 921.5,
              "duration": 0.4892578125
            },
            {
              "id": 3220,
              "pitch": 57,
              "velocity": 110,
              "start": 921.5,
              "duration": 0.4892578125
            },
            {
              "id": 3219,
              "pitch": 69,
              "velocity": 110,
              "start": 922.5,
              "duration": 0.4892578125
            },
            {
              "id": 3218,
              "pitch": 72,
              "velocity": 110,
              "start": 922.5,
              "duration": 0.4892578125
            },
            {
              "id": 3217,
              "pitch": 76,
              "velocity": 110,
              "start": 922.5,
              "duration": 0.4892578125
            },
            {
              "id": 3216,
              "pitch": 48,
              "velocity": 110,
              "start": 922.5,
              "duration": 0.4892578125
            },
            {
              "id": 3215,
              "pitch": 57,
              "velocity": 110,
              "start": 922.5,
              "duration": 0.4892578125
            },
            {
              "id": 3214,
              "pitch": 68,
              "velocity": 110,
              "start": 923.5,
              "duration": 0.4892578125
            },
            {
              "id": 3213,
              "pitch": 71,
              "velocity": 110,
              "start": 923.5,
              "duration": 0.4892578125
            },
            {
              "id": 3212,
              "pitch": 75,
              "velocity": 110,
              "start": 923.5,
              "duration": 0.4892578125
            },
            {
              "id": 3211,
              "pitch": 47,
              "velocity": 110,
              "start": 923.5,
              "duration": 0.4892578125
            },
            {
              "id": 3210,
              "pitch": 52,
              "velocity": 110,
              "start": 923.5,
              "duration": 0.4892578125
            },
            {
              "id": 3209,
              "pitch": 69,
              "velocity": 110,
              "start": 924.0,
              "duration": 0.4892578125
            },
            {
              "id": 3208,
              "pitch": 72,
              "velocity": 110,
              "start": 924.0,
              "duration": 0.4892578125
            },
            {
              "id": 3207,
              "pitch": 76,
              "velocity": 110,
              "start": 924.0,
              "duration": 0.4892578125
            },
            {
              "id": 3206,
              "pitch": 48,
              "velocity": 110,
              "start": 924.0,
              "duration": 0.4892578125
            },
            {
              "id": 3205,
              "pitch": 57,
              "velocity": 110,
              "start": 924.0,
              "duration": 0.4892578125
            },
            {
              "id": 3204,
              "pitch": 72,
              "velocity": 110,
              "start": 924.5,
              "duration": 0.4892578125
            },
            {
              "id": 3203,
              "pitch": 76,
              "velocity": 110,
              "start": 924.5,
              "duration": 0.4892578125
            },
            {
              "id": 3202,
              "pitch": 81,
              "velocity": 110,
              "start": 924.5,
              "duration": 0.4892578125
            },
            {
              "id": 3201,
              "pitch": 52,
              "velocity": 110,
              "start": 924.5,
              "duration": 0.4892578125
            },
            {
              "id": 3200,
              "pitch": 57,
              "velocity": 110,
              "start": 924.5,
              "duration": 0.4892578125
            },
            {
              "id": 3199,
              "pitch": 76,
              "velocity": 110,
              "start": 925.0,
              "duration": 0.8330078125
            },
            {
              "id": 3198,
              "pitch": 81,
              "velocity": 110,
              "start": 925.0,
              "duration": 0.8330078125
            },
            {
              "id": 3197,
              "pitch": 84,
              "velocity": 110,
              "start": 925.0,
              "duration": 0.8330078125
            },
            {
              "id": 3196,
              "pitch": 57,
              "velocity": 110,
              "start": 925.0,
              "duration": 0.8330078125
            },
            {
              "id": 3195,
              "pitch": 72,
              "velocity": 110,
              "start": 926.5,
              "duration": 0.4892578125
            },
            {
              "id": 3194,
              "pitch": 76,
              "velocity": 110,
              "start": 926.5,
              "duration": 0.4892578125
            },
            {
              "id": 3193,
              "pitch": 81,
              "velocity": 110,
              "start": 926.5,
              "duration": 0.4892578125
            },
            {
              "id": 3192,
              "pitch": 48,
              "velocity": 110,
              "start": 926.5,
              "duration": 0.4892578125
            },
            {
              "id": 3191,
              "pitch": 57,
              "velocity": 110,
              "start": 926.5,
              "duration": 0.4892578125
            },
            {
              "id": 3190,
              "pitch": 74,
              "velocity": 110,
              "start": 927.0,
              "duration": 0.4892578125
            },
            {
              "id": 3189,
              "pitch": 78,
              "velocity": 110,
              "start": 927.0,
              "duration": 0.4892578125
            },
            {
              "id": 3188,
              "pitch": 83,
              "velocity": 110,
              "start": 927.0,
              "duration": 0.4892578125
            },
            {
              "id": 3187,
              "pitch": 50,
              "velocity": 110,
              "start": 927.0,
              "duration": 0.4892578125
            },
            {
              "id": 3186,
              "pitch": 59,
              "velocity": 110,
              "start": 927.0,
              "duration": 0.4892578125
            },
            {
              "id": 3185,
              "pitch": 69,
              "velocity": 110,
              "start": 927.5,
              "duration": 0.4892578125
            },
            {
              "id": 3184,
              "pitch": 76,
              "velocity": 110,
              "start": 927.5,
              "duration": 0.4892578125
            },
            {
              "id": 3183,
              "pitch": 81,
              "velocity": 110,
              "start": 927.5,
              "duration": 0.4892578125
            },
            {
              "id": 3182,
              "pitch": 84,
              "velocity": 110,
              "start": 927.5,
              "duration": 0.4892578125
            },
            {
              "id": 3181,
              "pitch": 52,
              "velocity": 110,
              "start": 927.5,
              "duration": 0.4892578125
            },
            {
              "id": 3180,
              "pitch": 60,
              "velocity": 110,
              "start": 927.5,
              "duration": 0.4892578125
            },
            {
              "id": 3179,
              "pitch": 78,
              "velocity": 110,
              "start": 928.0,
              "duration": 0.4892578125
            },
            {
              "id": 3178,
              "pitch": 83,
              "velocity": 110,
              "start": 928.0,
              "duration": 0.4892578125
            },
            {
              "id": 3177,
              "pitch": 86,
              "velocity": 110,
              "start": 928.0,
              "duration": 0.4892578125
            },
            {
              "id": 3176,
              "pitch": 54,
              "velocity": 110,
              "start": 928.0,
              "duration": 0.4892578125
            },
            {
              "id": 3175,
              "pitch": 62,
              "velocity": 110,
              "start": 928.0,
              "duration": 0.4892578125
            },
            {
              "id": 3174,
              "pitch": 78,
              "velocity": 110,
              "start": 928.5,
              "duration": 0.4892578125
            },
            {
              "id": 3173,
              "pitch": 81,
              "velocity": 110,
              "start": 928.5,
              "duration": 0.4892578125
            },
            {
              "id": 3172,
              "pitch": 84,
              "velocity": 110,
              "start": 928.5,
              "duration": 0.4892578125
            },
            {
              "id": 3171,
              "pitch": 54,
              "velocity": 110,
              "start": 928.5,
              "duration": 0.4892578125
            },
            {
              "id": 3170,
              "pitch": 60,
              "velocity": 110,
              "start": 928.5,
              "duration": 0.4892578125
            },
            {
              "id": 3169,
              "pitch": 78,
              "velocity": 110,
              "start": 929.0,
              "duration": 0.4892578125
            },
            {
              "id": 3168,
              "pitch": 83,
              "velocity": 110,
              "start": 929.0,
              "duration": 0.4892578125
            },
            {
              "id": 3167,
              "pitch": 86,
              "velocity": 110,
              "start": 929.0,
              "duration": 0.4892578125
            },
            {
              "id": 3166,
              "pitch": 54,
              "velocity": 110,
              "start": 929.0,
              "duration": 0.4892578125
            },
            {
              "id": 3165,
              "pitch": 62,
              "velocity": 110,
              "start": 929.0,
              "duration": 0.4892578125
            },
            {
              "id": 3164,
              "pitch": 78,
              "velocity": 110,
              "start": 929.5,
              "duration": 0.9892578125
            },
            {
              "id": 3163,
              "pitch": 81,
              "velocity": 110,
              "start": 929.5,
              "duration": 0.9892578125
            },
            {
              "id": 3162,
              "pitch": 84,
              "velocity": 110,
              "start": 929.5,
              "duration": 0.9892578125
            },
            {
              "id": 3161,
              "pitch": 54,
              "velocity": 110,
              "start": 929.5,
              "duration": 0.9892578125
            },
            {
              "id": 3160,
              "pitch": 60,
              "velocity": 110,
              "start": 929.5,
              "duration": 0.9892578125
            },
            {
              "id": 3159,
              "pitch": 74,
              "velocity": 110,
              "start": 930.5,
              "duration": 0.4892578125
            },
            {
              "id": 3158,
              "pitch": 78,
              "velocity": 110,
              "start": 930.5,
              "duration": 0.4892578125
            },
            {
              "id": 3157,
              "pitch": 81,
              "velocity": 110,
              "start": 930.5,
              "duration": 0.4892578125
            },
            {
              "id": 3156,
              "pitch": 50,
              "velocity": 110,
              "start": 930.5,
              "duration": 0.4892578125
            },
            {
              "id": 3155,
              "pitch": 57,
              "velocity": 110,
              "start": 930.5,
              "duration": 0.4892578125
            },
            {
              "id": 3154,
              "pitch": 72,
              "velocity": 110,
              "start": 931.0,
              "duration": 0.4892578125
            },
            {
              "id": 3153,
              "pitch": 74,
              "velocity": 110,
              "start": 931.0,
              "duration": 0.4892578125
            },
            {
              "id": 3152,
              "pitch": 78,
              "velocity": 110,
              "start": 931.0,
              "duration": 0.4892578125
            },
            {
              "id": 3151,
              "pitch": 48,
              "velocity": 110,
              "start": 931.0,
              "duration": 0.4892578125
            },
            {
              "id": 3150,
              "pitch": 54,
              "velocity": 110,
              "start": 931.0,
              "duration": 0.4892578125
            },
            {
              "id": 3149,
              "pitch": 69,
              "velocity": 110,
              "start": 931.5,
              "duration": 0.4892578125
            },
            {
              "id": 3148,
              "pitch": 72,
              "velocity": 110,
              "start": 931.5,
              "duration": 0.4892578125
            },
            {
              "id": 3147,
              "pitch": 74,
              "velocity": 110,
              "start": 931.5,
              "duration": 0.4892578125
            },
            {
              "id": 3146,
              "pitch": 45,
              "velocity": 110,
              "start": 931.5,
              "duration": 0.4892578125
            },
            {
              "id": 3145,
              "pitch": 50,
              "velocity": 110,
              "start": 931.5,
              "duration": 0.4892578125
            },
            {
              "id": 3144,
              "pitch": 69,
              "velocity": 110,
              "start": 932.0,
              "duration": 0.4892578125
            },
            {
              "id": 3143,
              "pitch": 72,
              "velocity": 110,
              "start": 932.0,
              "duration": 0.4892578125
            },
            {
              "id": 3142,
              "pitch": 45,
              "velocity": 110,
              "start": 932.0,
              "duration": 0.4892578125
            },
            {
              "id": 3141,
              "pitch": 50,
              "velocity": 110,
              "start": 932.0,
              "duration": 0.4892578125
            },
            {
              "id": 3140,
              "pitch": 69,
              "velocity": 110,
              "start": 932.5,
              "duration": 0.4892578125
            },
            {
              "id": 3139,
              "pitch": 47,
              "velocity": 110,
              "start": 932.5,
              "duration": 0.4892578125
            },
            {
              "id": 3138,
              "pitch": 52,
              "velocity": 110,
              "start": 932.5,
              "duration": 0.4892578125
            },
            {
              "id": 3137,
              "pitch": 49,
              "velocity": 110,
              "start": 933.0,
              "duration": 0.4892578125
            },
            {
              "id": 3136,
              "pitch": 53,
              "velocity": 110,
              "start": 933.0,
              "duration": 0.4892578125
            },
            {
              "id": 3135,
              "pitch": 50,
              "velocity": 110,
              "start": 933.5,
              "duration": 2.25
            },
            {
              "id": 3134,
              "pitch": 54,
              "velocity": 110,
              "start": 933.5,
              "duration": 2.25
            },
            {
              "id": 3133,
              "pitch": 69,
              "velocity": 110,
              "start": 936.0,
              "duration": 0.8330078125
            },
            {
              "id": 3132,
              "pitch": 74,
              "velocity": 110,
              "start": 936.0,
              "duration": 0.8330078125
            },
            {
              "id": 3131,
              "pitch": 76,
              "velocity": 110,
              "start": 936.0,
              "duration": 0.8330078125
            },
            {
              "id": 3130,
              "pitch": 57,
              "velocity": 110,
              "start": 937.0,
              "duration": 0.8330078125
            },
            {
              "id": 3129,
              "pitch": 69,
              "velocity": 110,
              "start": 938.0,
              "duration": 0.8330078125
            },
            {
              "id": 3128,
              "pitch": 74,
              "velocity": 110,
              "start": 938.0,
              "duration": 0.8330078125
            },
            {
              "id": 3127,
              "pitch": 76,
              "velocity": 110,
              "start": 938.0,
              "duration": 0.8330078125
            },
            {
              "id": 3126,
              "pitch": 57,
              "velocity": 110,
              "start": 939.0,
              "duration": 0.8330078125
            },
            {
              "id": 3125,
              "pitch": 69,
              "velocity": 110,
              "start": 940.0,
              "duration": 0.8330078125
            },
            {
              "id": 3124,
              "pitch": 74,
              "velocity": 110,
              "start": 940.0,
              "duration": 0.8330078125
            },
            {
              "id": 3123,
              "pitch": 76,
              "velocity": 110,
              "start": 940.0,
              "duration": 0.8330078125
            },
            {
              "id": 3122,
              "pitch": 73,
              "velocity": 110,
              "start": 941.0,
              "duration": 0.4892578125
            },
            {
              "id": 3121,
              "pitch": 57,
              "velocity": 110,
              "start": 941.0,
              "duration": 0.8330078125
            },
            {
              "id": 3120,
              "pitch": 57,
              "velocity": 110,
              "start": 941.5,
              "duration": 0.4892578125
            },
            {
              "id": 3119,
              "pitch": 71,
              "velocity": 110,
              "start": 942.0,
              "duration": 0.8330078125
            },
            {
              "id": 3118,
              "pitch": 59,
              "velocity": 110,
              "start": 942.0,
              "duration": 0.4892578125
            },
            {
              "id": 3117,
              "pitch": 59,
              "velocity": 110,
              "start": 942.5,
              "duration": 0.4892578125
            },
            {
              "id": 3116,
              "pitch": 70,
              "velocity": 110,
              "start": 943.0,
              "duration": 0.8330078125
            },
            {
              "id": 3115,
              "pitch": 60,
              "velocity": 110,
              "start": 943.0,
              "duration": 0.4892578125
            },
            {
              "id": 3114,
              "pitch": 60,
              "velocity": 110,
              "start": 943.5,
              "duration": 0.4892578125
            },
            {
              "id": 3113,
              "pitch": 69,
              "velocity": 110,
              "start": 944.0,
              "duration": 1.75
            },
            {
              "id": 3112,
              "pitch": 57,
              "velocity": 110,
              "start": 944.0,
              "duration": 0.4892578125
            },
            {
              "id": 3111,
              "pitch": 50,
              "velocity": 110,
              "start": 944.5,
              "duration": 0.4892578125
            },
            {
              "id": 3110,
              "pitch": 54,
              "velocity": 110,
              "start": 944.5,
              "duration": 0.4892578125
            },
            {
              "id": 3109,
              "pitch": 57,
              "velocity": 110,
              "start": 944.5,
              "duration": 0.4892578125
            },
            {
              "id": 3108,
              "pitch": 50,
              "velocity": 110,
              "start": 945.0,
              "duration": 0.4892578125
            },
            {
              "id": 3107,
              "pitch": 50,
              "velocity": 110,
              "start": 945.5,
              "duration": 0.4892578125
            },
            {
              "id": 3106,
              "pitch": 54,
              "velocity": 110,
              "start": 945.5,
              "duration": 0.4892578125
            },
            {
              "id": 3105,
              "pitch": 57,
              "velocity": 110,
              "start": 945.5,
              "duration": 0.4892578125
            },
            {
              "id": 3104,
              "pitch": 71,
              "velocity": 110,
              "start": 946.0,
              "duration": 0.8330078125
            },
            {
              "id": 3103,
              "pitch": 50,
              "velocity": 110,
              "start": 946.0,
              "duration": 0.8330078125
            },
            {
              "id": 3102,
              "pitch": 54,
              "velocity": 110,
              "start": 946.0,
              "duration": 0.8330078125
            },
            {
              "id": 3101,
              "pitch": 57,
              "velocity": 110,
              "start": 946.0,
              "duration": 0.8330078125
            },
            {
              "id": 3100,
              "pitch": 69,
              "velocity": 110,
              "start": 947.0,
              "duration": 0.8330078125
            },
            {
              "id": 3099,
              "pitch": 50,
              "velocity": 110,
              "start": 947.0,
              "duration": 0.4892578125
            },
            {
              "id": 3098,
              "pitch": 57,
              "velocity": 110,
              "start": 947.5,
              "duration": 0.4892578125
            },
            {
              "id": 3097,
              "pitch": 62,
              "velocity": 110,
              "start": 948.0,
              "duration": 2.75
            },
            {
              "id": 3096,
              "pitch": 57,
              "velocity": 110,
              "start": 948.0,
              "duration": 0.4892578125
            },
            {
              "id": 3095,
              "pitch": 50,
              "velocity": 110,
              "start": 948.5,
              "duration": 0.4892578125
            },
            {
              "id": 3094,
              "pitch": 54,
              "velocity": 110,
              "start": 948.5,
              "duration": 0.4892578125
            },
            {
              "id": 3093,
              "pitch": 57,
              "velocity": 110,
              "start": 948.5,
              "duration": 0.4892578125
            },
            {
              "id": 3092,
              "pitch": 50,
              "velocity": 110,
              "start": 949.0,
              "duration": 0.4892578125
            },
            {
              "id": 3091,
              "pitch": 50,
              "velocity": 110,
              "start": 949.5,
              "duration": 0.4892578125
            },
            {
              "id": 3090,
              "pitch": 54,
              "velocity": 110,
              "start": 949.5,
              "duration": 0.4892578125
            },
            {
              "id": 3089,
              "pitch": 57,
              "velocity": 110,
              "start": 949.5,
              "duration": 0.4892578125
            },
            {
              "id": 3088,
              "pitch": 50,
              "velocity": 110,
              "start": 950.0,
              "duration": 0.8330078125
            },
            {
              "id": 3087,
              "pitch": 54,
              "velocity": 110,
              "start": 950.0,
              "duration": 0.8330078125
            },
            {
              "id": 3086,
              "pitch": 57,
              "velocity": 110,
              "start": 950.0,
              "duration": 0.8330078125
            },
            {
              "id": 3085,
              "pitch": 50,
              "velocity": 110,
              "start": 951.0,
              "duration": 0.4892578125
            },
            {
              "id": 3084,
              "pitch": 54,
              "velocity": 110,
              "start": 951.0,
              "duration": 0.4892578125
            },
            {
              "id": 3083,
              "pitch": 57,
              "velocity": 110,
              "start": 951.0,
              "duration": 0.4892578125
            },
            {
              "id": 3082,
              "pitch": 48,
              "velocity": 110,
              "start": 951.5,
              "duration": 0.4892578125
            },
            {
              "id": 3081,
              "pitch": 59,
              "velocity": 110,
              "start": 952.0,
              "duration": 0.8330078125
            },
            {
              "id": 3080,
              "pitch": 43,
              "velocity": 110,
              "start": 952.0,
              "duration": 0.4892578125
            },
            {
              "id": 3079,
              "pitch": 50,
              "velocity": 110,
              "start": 952.5,
              "duration": 0.4892578125
            },
            {
              "id": 3078,
              "pitch": 55,
              "velocity": 110,
              "start": 952.5,
              "duration": 0.4892578125
            },
            {
              "id": 3077,
              "pitch": 59,
              "velocity": 110,
              "start": 952.5,
              "duration": 0.4892578125
            },
            {
              "id": 3076,
              "pitch": 59,
              "velocity": 110,
              "start": 953.0,
              "duration": 0.8330078125
            },
            {
              "id": 3075,
              "pitch": 38,
              "velocity": 110,
              "start": 953.0,
              "duration": 0.2392578125
            },
            {
              "id": 3074,
              "pitch": 50,
              "velocity": 110,
              "start": 953.25,
              "duration": 0.7392578125
            },
            {
              "id": 3073,
              "pitch": 55,
              "velocity": 110,
              "start": 953.25,
              "duration": 0.7392578125
            },
            {
              "id": 3072,
              "pitch": 59,
              "velocity": 110,
              "start": 953.25,
              "duration": 0.7392578125
            },
            {
              "id": 3071,
              "pitch": 64,
              "velocity": 110,
              "start": 954.0,
              "duration": 0.8330078125
            },
            {
              "id": 3070,
              "pitch": 43,
              "velocity": 110,
              "start": 954.0,
              "duration": 0.7392578125
            },
            {
              "id": 3069,
              "pitch": 50,
              "velocity": 110,
              "start": 954.0,
              "duration": 0.7392578125
            },
            {
              "id": 3068,
              "pitch": 55,
              "velocity": 110,
              "start": 954.0,
              "duration": 0.7392578125
            },
            {
              "id": 3067,
              "pitch": 59,
              "velocity": 110,
              "start": 954.0,
              "duration": 0.7392578125
            },
            {
              "id": 3066,
              "pitch": 50,
              "velocity": 110,
              "start": 954.75,
              "duration": 0.2392578125
            },
            {
              "id": 3065,
              "pitch": 55,
              "velocity": 110,
              "start": 954.75,
              "duration": 0.2392578125
            },
            {
              "id": 3064,
              "pitch": 59,
              "velocity": 110,
              "start": 954.75,
              "duration": 0.2392578125
            },
            {
              "id": 3063,
              "pitch": 62,
              "velocity": 110,
              "start": 955.0,
              "duration": 0.8330078125
            },
            {
              "id": 3062,
              "pitch": 38,
              "velocity": 110,
              "start": 955.0,
              "duration": 0.4892578125
            },
            {
              "id": 3061,
              "pitch": 50,
              "velocity": 110,
              "start": 955.5,
              "duration": 0.4892578125
            },
            {
              "id": 3060,
              "pitch": 55,
              "velocity": 110,
              "start": 955.5,
              "duration": 0.4892578125
            },
            {
              "id": 3059,
              "pitch": 59,
              "velocity": 110,
              "start": 955.5,
              "duration": 0.4892578125
            },
            {
              "id": 3058,
              "pitch": 59,
              "velocity": 110,
              "start": 956.0,
              "duration": 2.75
            },
            {
              "id": 3057,
              "pitch": 44,
              "velocity": 110,
              "start": 956.0,
              "duration": 0.4892578125
            },
            {
              "id": 3056,
              "pitch": 52,
              "velocity": 110,
              "start": 956.5,
              "duration": 0.4892578125
            },
            {
              "id": 3055,
              "pitch": 56,
              "velocity": 110,
              "start": 956.5,
              "duration": 0.4892578125
            },
            {
              "id": 3054,
              "pitch": 59,
              "velocity": 110,
              "start": 956.5,
              "duration": 0.4892578125
            },
            {
              "id": 3053,
              "pitch": 38,
              "velocity": 110,
              "start": 957.0,
              "duration": 0.4892578125
            },
            {
              "id": 3052,
              "pitch": 52,
              "velocity": 110,
              "start": 957.5,
              "duration": 0.4892578125
            },
            {
              "id": 3051,
              "pitch": 56,
              "velocity": 110,
              "start": 957.5,
              "duration": 0.4892578125
            },
            {
              "id": 3050,
              "pitch": 59,
              "velocity": 110,
              "start": 957.5,
              "duration": 0.4892578125
            },
            {
              "id": 3049,
              "pitch": 44,
              "velocity": 110,
              "start": 958.0,
              "duration": 0.8330078125
            },
            {
              "id": 3048,
              "pitch": 52,
              "velocity": 110,
              "start": 958.0,
              "duration": 0.8330078125
            },
            {
              "id": 3047,
              "pitch": 56,
              "velocity": 110,
              "start": 958.0,
              "duration": 0.8330078125
            },
            {
              "id": 3046,
              "pitch": 59,
              "velocity": 110,
              "start": 958.0,
              "duration": 0.8330078125
            },
            {
              "id": 3045,
              "pitch": 38,
              "velocity": 110,
              "start": 959.0,
              "duration": 0.8330078125
            },
            {
              "id": 3044,
              "pitch": 52,
              "velocity": 110,
              "start": 959.0,
              "duration": 0.8330078125
            },
            {
              "id": 3043,
              "pitch": 56,
              "velocity": 110,
              "start": 959.0,
              "duration": 0.8330078125
            },
            {
              "id": 3042,
              "pitch": 59,
              "velocity": 110,
              "start": 959.0,
              "duration": 0.8330078125
            },
            {
              "id": 3041,
              "pitch": 57,
              "velocity": 110,
              "start": 960.0,
              "duration": 1.3330078125
            },
            {
              "id": 3040,
              "pitch": 45,
              "velocity": 110,
              "start": 960.0,
              "duration": 0.4892578125
            },
            {
              "id": 3039,
              "pitch": 50,
              "velocity": 110,
              "start": 960.5,
              "duration": 0.4892578125
            },
            {
              "id": 3038,
              "pitch": 54,
              "velocity": 110,
              "start": 960.5,
              "duration": 0.4892578125
            },
            {
              "id": 3037,
              "pitch": 57,
              "velocity": 110,
              "start": 960.5,
              "duration": 0.4892578125
            },
            {
              "id": 3036,
              "pitch": 38,
              "velocity": 110,
              "start": 961.0,
              "duration": 0.4892578125
            },
            {
              "id": 3035,
              "pitch": 57,
              "velocity": 110,
              "start": 961.5,
              "duration": 1.3330078125
            },
            {
              "id": 3034,
              "pitch": 50,
              "velocity": 110,
              "start": 961.5,
              "duration": 0.4892578125
            },
            {
              "id": 3033,
              "pitch": 54,
              "velocity": 110,
              "start": 961.5,
              "duration": 0.4892578125
            },
            {
              "id": 3032,
              "pitch": 57,
              "velocity": 110,
              "start": 961.5,
              "duration": 0.4892578125
            },
            {
              "id": 3031,
              "pitch": 45,
              "velocity": 110,
              "start": 962.0,
              "duration": 0.4892578125
            },
            {
              "id": 3030,
              "pitch": 50,
              "velocity": 110,
              "start": 962.5,
              "duration": 0.4892578125
            },
            {
              "id": 3029,
              "pitch": 54,
              "velocity": 110,
              "start": 962.5,
              "duration": 0.4892578125
            },
            {
              "id": 3028,
              "pitch": 57,
              "velocity": 110,
              "start": 962.5,
              "duration": 0.4892578125
            },
            {
              "id": 3027,
              "pitch": 69,
              "velocity": 110,
              "start": 963.0,
              "duration": 1.4892578125
            },
            {
              "id": 3026,
              "pitch": 45,
              "velocity": 110,
              "start": 963.0,
              "duration": 0.4892578125
            },
            {
              "id": 3025,
              "pitch": 50,
              "velocity": 110,
              "start": 963.5,
              "duration": 0.4892578125
            },
            {
              "id": 3024,
              "pitch": 54,
              "velocity": 110,
              "start": 963.5,
              "duration": 0.4892578125
            },
            {
              "id": 3023,
              "pitch": 57,
              "velocity": 110,
              "start": 963.5,
              "duration": 0.4892578125
            },
            {
              "id": 3022,
              "pitch": 45,
              "velocity": 110,
              "start": 964.0,
              "duration": 0.4892578125
            },
            {
              "id": 3021,
              "pitch": 57,
              "velocity": 110,
              "start": 964.5,
              "duration": 1.3330078125
            },
            {
              "id": 3020,
              "pitch": 50,
              "velocity": 110,
              "start": 964.5,
              "duration": 0.4892578125
            },
            {
              "id": 3019,
              "pitch": 54,
              "velocity": 110,
              "start": 964.5,
              "duration": 0.4892578125
            },
            {
              "id": 3018,
              "pitch": 57,
              "velocity": 110,
              "start": 964.5,
              "duration": 0.4892578125
            },
            {
              "id": 3017,
              "pitch": 38,
              "velocity": 110,
              "start": 965.0,
              "duration": 0.4892578125
            },
            {
              "id": 3016,
              "pitch": 50,
              "velocity": 110,
              "start": 965.5,
              "duration": 0.4892578125
            },
            {
              "id": 3015,
              "pitch": 54,
              "velocity": 110,
              "start": 965.5,
              "duration": 0.4892578125
            },
            {
              "id": 3014,
              "pitch": 57,
              "velocity": 110,
              "start": 965.5,
              "duration": 0.4892578125
            },
            {
              "id": 3013,
              "pitch": 57,
              "velocity": 110,
              "start": 966.0,
              "duration": 0.8330078125
            },
            {
              "id": 3012,
              "pitch": 45,
              "velocity": 110,
              "start": 966.0,
              "duration": 0.4892578125
            },
            {
              "id": 3011,
              "pitch": 50,
              "velocity": 110,
              "start": 966.5,
              "duration": 0.4892578125
            },
            {
              "id": 3010,
              "pitch": 54,
              "velocity": 110,
              "start": 966.5,
              "duration": 0.4892578125
            },
            {
              "id": 3009,
              "pitch": 57,
              "velocity": 110,
              "start": 966.5,
              "duration": 0.4892578125
            },
            {
              "id": 3008,
              "pitch": 69,
              "velocity": 110,
              "start": 967.0,
              "duration": 0.8330078125
            },
            {
              "id": 3007,
              "pitch": 45,
              "velocity": 110,
              "start": 967.0,
              "duration": 0.4892578125
            },
            {
              "id": 3006,
              "pitch": 50,
              "velocity": 110,
              "start": 967.5,
              "duration": 0.4892578125
            },
            {
              "id": 3005,
              "pitch": 54,
              "velocity": 110,
              "start": 967.5,
              "duration": 0.4892578125
            },
            {
              "id": 3004,
              "pitch": 57,
              "velocity": 110,
              "start": 967.5,
              "duration": 0.4892578125
            },
            {
              "id": 3003,
              "pitch": 57,
              "velocity": 110,
              "start": 968.0,
              "duration": 1.75
            },
            {
              "id": 3002,
              "pitch": 45,
              "velocity": 110,
              "start": 968.0,
              "duration": 0.4892578125
            },
            {
              "id": 3001,
              "pitch": 50,
              "velocity": 110,
              "start": 968.5,
              "duration": 0.4892578125
            },
            {
              "id": 3000,
              "pitch": 54,
              "velocity": 110,
              "start": 968.5,
              "duration": 0.4892578125
            },
            {
              "id": 2999,
              "pitch": 57,
              "velocity": 110,
              "start": 968.5,
              "duration": 0.4892578125
            },
            {
              "id": 2998,
              "pitch": 38,
              "velocity": 110,
              "start": 969.0,
              "duration": 0.4892578125
            },
            {
              "id": 2997,
              "pitch": 50,
              "velocity": 110,
              "start": 969.5,
              "duration": 0.4892578125
            },
            {
              "id": 2996,
              "pitch": 54,
              "velocity": 110,
              "start": 969.5,
              "duration": 0.4892578125
            },
            {
              "id": 2995,
              "pitch": 57,
              "velocity": 110,
              "start": 969.5,
              "duration": 0.4892578125
            },
            {
              "id": 2994,
              "pitch": 45,
              "velocity": 110,
              "start": 970.0,
              "duration": 0.4892578125
            },
            {
              "id": 2993,
              "pitch": 50,
              "velocity": 110,
              "start": 970.5,
              "duration": 0.4892578125
            },
            {
              "id": 2992,
              "pitch": 54,
              "velocity": 110,
              "start": 970.5,
              "duration": 0.4892578125
            },
            {
              "id": 2991,
              "pitch": 57,
              "velocity": 110,
              "start": 970.5,
              "duration": 0.4892578125
            },
            {
              "id": 2990,
              "pitch": 69,
              "velocity": 110,
              "start": 971.0,
              "duration": 0.8330078125
            },
            {
              "id": 2989,
              "pitch": 45,
              "velocity": 110,
              "start": 971.0,
              "duration": 0.4892578125
            },
            {
              "id": 2988,
              "pitch": 50,
              "velocity": 110,
              "start": 971.5,
              "duration": 0.4892578125
            },
            {
              "id": 2987,
              "pitch": 54,
              "velocity": 110,
              "start": 971.5,
              "duration": 0.4892578125
            },
            {
              "id": 2986,
              "pitch": 57,
              "velocity": 110,
              "start": 971.5,
              "duration": 0.4892578125
            },
            {
              "id": 2985,
              "pitch": 64,
              "velocity": 110,
              "start": 972.0,
              "duration": 2.75
            },
            {
              "id": 2984,
              "pitch": 52,
              "velocity": 110,
              "start": 972.0,
              "duration": 0.4892578125
            },
            {
              "id": 2983,
              "pitch": 49,
              "velocity": 110,
              "start": 972.5,
              "duration": 0.4892578125
            },
            {
              "id": 2982,
              "pitch": 52,
              "velocity": 110,
              "start": 972.5,
              "duration": 0.4892578125
            },
            {
              "id": 2981,
              "pitch": 57,
              "velocity": 110,
              "start": 972.5,
              "duration": 0.4892578125
            },
            {
              "id": 2980,
              "pitch": 45,
              "velocity": 110,
              "start": 973.0,
              "duration": 0.4892578125
            },
            {
              "id": 2979,
              "pitch": 49,
              "velocity": 110,
              "start": 973.5,
              "duration": 0.4892578125
            },
            {
              "id": 2978,
              "pitch": 52,
              "velocity": 110,
              "start": 973.5,
              "duration": 0.4892578125
            },
            {
              "id": 2977,
              "pitch": 57,
              "velocity": 110,
              "start": 973.5,
              "duration": 0.4892578125
            },
            {
              "id": 2976,
              "pitch": 49,
              "velocity": 110,
              "start": 974.0,
              "duration": 0.8330078125
            },
            {
              "id": 2975,
              "pitch": 52,
              "velocity": 110,
              "start": 974.0,
              "duration": 0.8330078125
            },
            {
              "id": 2974,
              "pitch": 57,
              "velocity": 110,
              "start": 974.0,
              "duration": 0.8330078125
            },
            {
              "id": 2973,
              "pitch": 49,
              "velocity": 110,
              "start": 975.0,
              "duration": 0.4892578125
            },
            {
              "id": 2972,
              "pitch": 52,
              "velocity": 110,
              "start": 975.0,
              "duration": 0.4892578125
            },
            {
              "id": 2971,
              "pitch": 57,
              "velocity": 110,
              "start": 975.0,
              "duration": 0.4892578125
            },
            {
              "id": 2970,
              "pitch": 49,
              "velocity": 110,
              "start": 975.5,
              "duration": 0.4892578125
            },
            {
              "id": 2969,
              "pitch": 52,
              "velocity": 110,
              "start": 975.5,
              "duration": 0.4892578125
            },
            {
              "id": 2968,
              "pitch": 57,
              "velocity": 110,
              "start": 975.5,
              "duration": 0.4892578125
            },
            {
              "id": 2967,
              "pitch": 66,
              "velocity": 110,
              "start": 976.0,
              "duration": 1.75
            },
            {
              "id": 2966,
              "pitch": 54,
              "velocity": 110,
              "start": 976.0,
              "duration": 0.2392578125
            },
            {
              "id": 2965,
              "pitch": 57,
              "velocity": 110,
              "start": 976.0,
              "duration": 0.2392578125
            },
            {
              "id": 2964,
              "pitch": 50,
              "velocity": 110,
              "start": 976.25,
              "duration": 0.2392578125
            },
            {
              "id": 2963,
              "pitch": 54,
              "velocity": 110,
              "start": 976.5,
              "duration": 0.2392578125
            },
            {
              "id": 2962,
              "pitch": 50,
              "velocity": 110,
              "start": 976.75,
              "duration": 0.2392578125
            },
            {
              "id": 2961,
              "pitch": 50,
              "velocity": 110,
              "start": 977.0,
              "duration": 0.4892578125
            },
            {
              "id": 2960,
              "pitch": 57,
              "velocity": 110,
              "start": 977.0,
              "duration": 0.4892578125
            },
            {
              "id": 2959,
              "pitch": 50,
              "velocity": 110,
              "start": 977.5,
              "duration": 0.4892578125
            },
            {
              "id": 2958,
              "pitch": 54,
              "velocity": 110,
              "start": 977.5,
              "duration": 0.4892578125
            },
            {
              "id": 2957,
              "pitch": 57,
              "velocity": 110,
              "start": 977.5,
              "duration": 0.4892578125
            },
            {
              "id": 2956,
              "pitch": 71,
              "velocity": 110,
              "start": 978.0,
              "duration": 0.8330078125
            },
            {
              "id": 2955,
              "pitch": 57,
              "velocity": 110,
              "start": 978.0,
              "duration": 0.4892578125
            },
            {
              "id": 2954,
              "pitch": 50,
              "velocity": 110,
              "start": 978.5,
              "duration": 0.4892578125
            },
            {
              "id": 2953,
              "pitch": 54,
              "velocity": 110,
              "start": 978.5,
              "duration": 0.4892578125
            },
            {
              "id": 2952,
              "pitch": 57,
              "velocity": 110,
              "start": 978.5,
              "duration": 0.4892578125
            },
            {
              "id": 2951,
              "pitch": 69,
              "velocity": 110,
              "start": 979.0,
              "duration": 0.8330078125
            },
            {
              "id": 2950,
              "pitch": 50,
              "velocity": 110,
              "start": 979.0,
              "duration": 0.4892578125
            },
            {
              "id": 2949,
              "pitch": 50,
              "velocity": 110,
              "start": 979.5,
              "duration": 0.4892578125
            },
            {
              "id": 2948,
              "pitch": 54,
              "velocity": 110,
              "start": 979.5,
              "duration": 0.4892578125
            },
            {
              "id": 2947,
              "pitch": 57,
              "velocity": 110,
              "start": 979.5,
              "duration": 0.4892578125
            },
            {
              "id": 2946,
              "pitch": 72,
              "velocity": 110,
              "start": 980.0,
              "duration": 2.75
            },
            {
              "id": 2945,
              "pitch": 54,
              "velocity": 110,
              "start": 980.0,
              "duration": 0.2392578125
            },
            {
              "id": 2944,
              "pitch": 57,
              "velocity": 110,
              "start": 980.0,
              "duration": 0.2392578125
            },
            {
              "id": 2943,
              "pitch": 50,
              "velocity": 110,
              "start": 980.25,
              "duration": 0.2392578125
            },
            {
              "id": 2942,
              "pitch": 54,
              "velocity": 110,
              "start": 980.5,
              "duration": 0.2392578125
            },
            {
              "id": 2941,
              "pitch": 50,
              "velocity": 110,
              "start": 980.75,
              "duration": 0.2392578125
            },
            {
              "id": 2940,
              "pitch": 50,
              "velocity": 110,
              "start": 981.0,
              "duration": 0.4892578125
            },
            {
              "id": 2939,
              "pitch": 57,
              "velocity": 110,
              "start": 981.0,
              "duration": 0.4892578125
            },
            {
              "id": 2938,
              "pitch": 50,
              "velocity": 110,
              "start": 981.5,
              "duration": 0.4892578125
            },
            {
              "id": 2937,
              "pitch": 54,
              "velocity": 110,
              "start": 981.5,
              "duration": 0.4892578125
            },
            {
              "id": 2936,
              "pitch": 57,
              "velocity": 110,
              "start": 981.5,
              "duration": 0.4892578125
            },
            {
              "id": 2935,
              "pitch": 57,
              "velocity": 110,
              "start": 982.0,
              "duration": 0.4892578125
            },
            {
              "id": 2934,
              "pitch": 50,
              "velocity": 110,
              "start": 982.5,
              "duration": 0.4892578125
            },
            {
              "id": 2933,
              "pitch": 54,
              "velocity": 110,
              "start": 982.5,
              "duration": 0.4892578125
            },
            {
              "id": 2932,
              "pitch": 57,
              "velocity": 110,
              "start": 982.5,
              "duration": 0.4892578125
            },
            {
              "id": 2931,
              "pitch": 50,
              "velocity": 110,
              "start": 983.0,
              "duration": 0.4892578125
            },
            {
              "id": 2930,
              "pitch": 50,
              "velocity": 110,
              "start": 983.5,
              "duration": 0.4892578125
            },
            {
              "id": 2929,
              "pitch": 54,
              "velocity": 110,
              "start": 983.5,
              "duration": 0.4892578125
            },
            {
              "id": 2928,
              "pitch": 57,
              "velocity": 110,
              "start": 983.5,
              "duration": 0.4892578125
            },
            {
              "id": 2927,
              "pitch": 71,
              "velocity": 110,
              "start": 984.0,
              "duration": 0.8330078125
            },
            {
              "id": 2926,
              "pitch": 56,
              "velocity": 110,
              "start": 984.0,
              "duration": 0.2392578125
            },
            {
              "id": 2925,
              "pitch": 59,
              "velocity": 110,
              "start": 984.0,
              "duration": 0.2392578125
            },
            {
              "id": 2924,
              "pitch": 52,
              "velocity": 110,
              "start": 984.25,
              "duration": 0.2392578125
            },
            {
              "id": 2923,
              "pitch": 56,
              "velocity": 110,
              "start": 984.5,
              "duration": 0.2392578125
            },
            {
              "id": 2922,
              "pitch": 52,
              "velocity": 110,
              "start": 984.75,
              "duration": 0.2392578125
            },
            {
              "id": 2921,
              "pitch": 71,
              "velocity": 110,
              "start": 985.0,
              "duration": 0.8330078125
            },
            {
              "id": 2920,
              "pitch": 52,
              "velocity": 110,
              "start": 985.0,
              "duration": 0.4892578125
            },
            {
              "id": 2919,
              "pitch": 59,
              "velocity": 110,
              "start": 985.0,
              "duration": 0.4892578125
            },
            {
              "id": 2918,
              "pitch": 52,
              "velocity": 110,
              "start": 985.5,
              "duration": 0.4892578125
            },
            {
              "id": 2917,
              "pitch": 56,
              "velocity": 110,
              "start": 985.5,
              "duration": 0.4892578125
            },
            {
              "id": 2916,
              "pitch": 59,
              "velocity": 110,
              "start": 985.5,
              "duration": 0.4892578125
            },
            {
              "id": 2915,
              "pitch": 76,
              "velocity": 110,
              "start": 986.0,
              "duration": 0.8330078125
            },
            {
              "id": 2914,
              "pitch": 59,
              "velocity": 110,
              "start": 986.0,
              "duration": 0.4892578125
            },
            {
              "id": 2913,
              "pitch": 52,
              "velocity": 110,
              "start": 986.5,
              "duration": 0.4892578125
            },
            {
              "id": 2912,
              "pitch": 56,
              "velocity": 110,
              "start": 986.5,
              "duration": 0.4892578125
            },
            {
              "id": 2911,
              "pitch": 59,
              "velocity": 110,
              "start": 986.5,
              "duration": 0.4892578125
            },
            {
              "id": 2910,
              "pitch": 74,
              "velocity": 110,
              "start": 987.0,
              "duration": 0.8330078125
            },
            {
              "id": 2909,
              "pitch": 52,
              "velocity": 110,
              "start": 987.0,
              "duration": 0.4892578125
            },
            {
              "id": 2908,
              "pitch": 52,
              "velocity": 110,
              "start": 987.5,
              "duration": 0.4892578125
            },
            {
              "id": 2907,
              "pitch": 56,
              "velocity": 110,
              "start": 987.5,
              "duration": 0.4892578125
            },
            {
              "id": 2906,
              "pitch": 59,
              "velocity": 110,
              "start": 987.5,
              "duration": 0.4892578125
            },
            {
              "id": 2905,
              "pitch": 71,
              "velocity": 110,
              "start": 988.0,
              "duration": 2.75
            },
            {
              "id": 2904,
              "pitch": 56,
              "velocity": 110,
              "start": 988.0,
              "duration": 0.2392578125
            },
            {
              "id": 2903,
              "pitch": 62,
              "velocity": 110,
              "start": 988.0,
              "duration": 0.2392578125
            },
            {
              "id": 2902,
              "pitch": 52,
              "velocity": 110,
              "start": 988.25,
              "duration": 0.2392578125
            },
            {
              "id": 2901,
              "pitch": 56,
              "velocity": 110,
              "start": 988.5,
              "duration": 0.2392578125
            },
            {
              "id": 2900,
              "pitch": 52,
              "velocity": 110,
              "start": 988.75,
              "duration": 0.2392578125
            },
            {
              "id": 2899,
              "pitch": 52,
              "velocity": 110,
              "start": 989.0,
              "duration": 0.4892578125
            },
            {
              "id": 2898,
              "pitch": 62,
              "velocity": 110,
              "start": 989.0,
              "duration": 0.4892578125
            },
            {
              "id": 2897,
              "pitch": 52,
              "velocity": 110,
              "start": 989.5,
              "duration": 0.4892578125
            },
            {
              "id": 2896,
              "pitch": 56,
              "velocity": 110,
              "start": 989.5,
              "duration": 0.4892578125
            },
            {
              "id": 2895,
              "pitch": 62,
              "velocity": 110,
              "start": 989.5,
              "duration": 0.4892578125
            },
            {
              "id": 2894,
              "pitch": 62,
              "velocity": 110,
              "start": 990.0,
              "duration": 0.4892578125
            },
            {
              "id": 2893,
              "pitch": 52,
              "velocity": 110,
              "start": 990.5,
              "duration": 0.4892578125
            },
            {
              "id": 2892,
              "pitch": 56,
              "velocity": 110,
              "start": 990.5,
              "duration": 0.4892578125
            },
            {
              "id": 2891,
              "pitch": 62,
              "velocity": 110,
              "start": 990.5,
              "duration": 0.4892578125
            },
            {
              "id": 2890,
              "pitch": 52,
              "velocity": 110,
              "start": 991.0,
              "duration": 0.4892578125
            },
            {
              "id": 2889,
              "pitch": 52,
              "velocity": 110,
              "start": 991.5,
              "duration": 0.4892578125
            },
            {
              "id": 2888,
              "pitch": 56,
              "velocity": 110,
              "start": 991.5,
              "duration": 0.4892578125
            },
            {
              "id": 2887,
              "pitch": 62,
              "velocity": 110,
              "start": 991.5,
              "duration": 0.4892578125
            },
            {
              "id": 2886,
              "pitch": 69,
              "velocity": 110,
              "start": 992.0,
              "duration": 1.3330078125
            },
            {
              "id": 2885,
              "pitch": 50,
              "velocity": 110,
              "start": 992.0,
              "duration": 0.8330078125
            },
            {
              "id": 2884,
              "pitch": 54,
              "velocity": 110,
              "start": 992.0,
              "duration": 0.8330078125
            },
            {
              "id": 2883,
              "pitch": 57,
              "velocity": 110,
              "start": 992.0,
              "duration": 0.8330078125
            },
            {
              "id": 2882,
              "pitch": 50,
              "velocity": 110,
              "start": 993.0,
              "duration": 0.8330078125
            },
            {
              "id": 2881,
              "pitch": 54,
              "velocity": 110,
              "start": 993.0,
              "duration": 0.8330078125
            },
            {
              "id": 2880,
              "pitch": 57,
              "velocity": 110,
              "start": 993.0,
              "duration": 0.8330078125
            },
            {
              "id": 2879,
              "pitch": 69,
              "velocity": 110,
              "start": 993.5,
              "duration": 1.3330078125
            },
            {
              "id": 2878,
              "pitch": 53,
              "velocity": 110,
              "start": 994.0,
              "duration": 0.4892578125
            },
            {
              "id": 2877,
              "pitch": 50,
              "velocity": 110,
              "start": 994.5,
              "duration": 0.4892578125
            },
            {
              "id": 2876,
              "pitch": 53,
              "velocity": 110,
              "start": 994.5,
              "duration": 0.4892578125
            },
            {
              "id": 2875,
              "pitch": 57,
              "velocity": 110,
              "start": 994.5,
              "duration": 0.4892578125
            },
            {
              "id": 2874,
              "pitch": 57,
              "velocity": 110,
              "start": 995.0,
              "duration": 1.4892578125
            },
            {
              "id": 2873,
              "pitch": 53,
              "velocity": 110,
              "start": 995.0,
              "duration": 0.4892578125
            },
            {
              "id": 2872,
              "pitch": 50,
              "velocity": 110,
              "start": 995.5,
              "duration": 0.4892578125
            },
            {
              "id": 2871,
              "pitch": 53,
              "velocity": 110,
              "start": 995.5,
              "duration": 0.4892578125
            },
            {
              "id": 2870,
              "pitch": 57,
              "velocity": 110,
              "start": 995.5,
              "duration": 0.4892578125
            },
            {
              "id": 2869,
              "pitch": 52,
              "velocity": 110,
              "start": 996.0,
              "duration": 0.4892578125
            },
            {
              "id": 2868,
              "pitch": 69,
              "velocity": 110,
              "start": 996.5,
              "duration": 1.3330078125
            },
            {
              "id": 2867,
              "pitch": 50,
              "velocity": 110,
              "start": 996.5,
              "duration": 0.4892578125
            },
            {
              "id": 2866,
              "pitch": 57,
              "velocity": 110,
              "start": 996.5,
              "duration": 0.4892578125
            },
            {
              "id": 2865,
              "pitch": 59,
              "velocity": 110,
              "start": 996.5,
              "duration": 0.4892578125
            },
            {
              "id": 2864,
              "pitch": 52,
              "velocity": 110,
              "start": 997.0,
              "duration": 0.4892578125
            },
            {
              "id": 2863,
              "pitch": 50,
              "velocity": 110,
              "start": 997.5,
              "duration": 0.4892578125
            },
            {
              "id": 2862,
              "pitch": 57,
              "velocity": 110,
              "start": 997.5,
              "duration": 0.4892578125
            },
            {
              "id": 2861,
              "pitch": 59,
              "velocity": 110,
              "start": 997.5,
              "duration": 0.4892578125
            },
            {
              "id": 2860,
              "pitch": 57,
              "velocity": 110,
              "start": 998.0,
              "duration": 0.8330078125
            },
            {
              "id": 2859,
              "pitch": 51,
              "velocity": 110,
              "start": 998.0,
              "duration": 0.4892578125
            },
            {
              "id": 2858,
              "pitch": 52,
              "velocity": 110,
              "start": 998.5,
              "duration": 0.4892578125
            },
            {
              "id": 2857,
              "pitch": 57,
              "velocity": 110,
              "start": 998.5,
              "duration": 0.4892578125
            },
            {
              "id": 2856,
              "pitch": 59,
              "velocity": 110,
              "start": 998.5,
              "duration": 0.4892578125
            },
            {
              "id": 2855,
              "pitch": 64,
              "velocity": 110,
              "start": 999.0,
              "duration": 0.8330078125
            },
            {
              "id": 2854,
              "pitch": 51,
              "velocity": 110,
              "start": 999.0,
              "duration": 0.8330078125
            },
            {
              "id": 2853,
              "pitch": 62,
              "velocity": 110,
              "start": 1000.0,
              "duration": 5.75
            },
            {
              "id": 2852,
              "pitch": 50,
              "velocity": 110,
              "start": 1000.0,
              "duration": 0.8330078125
            },
            {
              "id": 2851,
              "pitch": 54,
              "velocity": 110,
              "start": 1000.0,
              "duration": 0.8330078125
            },
            {
              "id": 2850,
              "pitch": 57,
              "velocity": 110,
              "start": 1000.0,
              "duration": 0.8330078125
            },
            {
              "id": 2849,
              "pitch": 50,
              "velocity": 110,
              "start": 1001.0,
              "duration": 0.8330078125
            },
            {
              "id": 2848,
              "pitch": 54,
              "velocity": 110,
              "start": 1001.0,
              "duration": 0.8330078125
            },
            {
              "id": 2847,
              "pitch": 57,
              "velocity": 110,
              "start": 1001.0,
              "duration": 0.8330078125
            },
            {
              "id": 2846,
              "pitch": 47,
              "velocity": 110,
              "start": 1002.0,
              "duration": 0.4892578125
            },
            {
              "id": 2845,
              "pitch": 50,
              "velocity": 110,
              "start": 1002.5,
              "duration": 0.4892578125
            },
            {
              "id": 2844,
              "pitch": 54,
              "velocity": 110,
              "start": 1002.5,
              "duration": 0.4892578125
            },
            {
              "id": 2843,
              "pitch": 57,
              "velocity": 110,
              "start": 1002.5,
              "duration": 0.4892578125
            },
            {
              "id": 2842,
              "pitch": 47,
              "velocity": 110,
              "start": 1003.0,
              "duration": 0.4892578125
            },
            {
              "id": 2841,
              "pitch": 50,
              "velocity": 110,
              "start": 1003.5,
              "duration": 0.4892578125
            },
            {
              "id": 2840,
              "pitch": 54,
              "velocity": 110,
              "start": 1003.5,
              "duration": 0.4892578125
            },
            {
              "id": 2839,
              "pitch": 57,
              "velocity": 110,
              "start": 1003.5,
              "duration": 0.4892578125
            },
            {
              "id": 2838,
              "pitch": 46,
              "velocity": 110,
              "start": 1004.0,
              "duration": 0.4892578125
            },
            {
              "id": 2837,
              "pitch": 50,
              "velocity": 110,
              "start": 1004.5,
              "duration": 0.4892578125
            },
            {
              "id": 2836,
              "pitch": 53,
              "velocity": 110,
              "start": 1004.5,
              "duration": 0.4892578125
            },
            {
              "id": 2835,
              "pitch": 57,
              "velocity": 110,
              "start": 1004.5,
              "duration": 0.4892578125
            },
            {
              "id": 2834,
              "pitch": 46,
              "velocity": 110,
              "start": 1005.0,
              "duration": 0.4892578125
            },
            {
              "id": 2833,
              "pitch": 50,
              "velocity": 110,
              "start": 1005.5,
              "duration": 0.4892578125
            },
            {
              "id": 2832,
              "pitch": 53,
              "velocity": 110,
              "start": 1005.5,
              "duration": 0.4892578125
            },
            {
              "id": 2831,
              "pitch": 57,
              "velocity": 110,
              "start": 1005.5,
              "duration": 0.4892578125
            },
            {
              "id": 2830,
              "pitch": 51,
              "velocity": 110,
              "start": 1006.0,
              "duration": 0.4892578125
            },
            {
              "id": 2829,
              "pitch": 50,
              "velocity": 110,
              "start": 1006.5,
              "duration": 0.4892578125
            },
            {
              "id": 2828,
              "pitch": 53,
              "velocity": 110,
              "start": 1006.5,
              "duration": 0.4892578125
            },
            {
              "id": 2827,
              "pitch": 57,
              "velocity": 110,
              "start": 1006.5,
              "duration": 0.4892578125
            },
            {
              "id": 2826,
              "pitch": 51,
              "velocity": 110,
              "start": 1007.0,
              "duration": 0.8330078125
            },
            {
              "id": 2825,
              "pitch": 69,
              "velocity": 110,
              "start": 1008.0,
              "duration": 1.75
            },
            {
              "id": 2824,
              "pitch": 57,
              "velocity": 110,
              "start": 1008.0,
              "duration": 0.4892578125
            },
            {
              "id": 2823,
              "pitch": 50,
              "velocity": 110,
              "start": 1008.5,
              "duration": 0.4892578125
            },
            {
              "id": 2822,
              "pitch": 54,
              "velocity": 110,
              "start": 1008.5,
              "duration": 0.4892578125
            },
            {
              "id": 2821,
              "pitch": 57,
              "velocity": 110,
              "start": 1008.5,
              "duration": 0.4892578125
            },
            {
              "id": 2820,
              "pitch": 50,
              "velocity": 110,
              "start": 1009.0,
              "duration": 0.4892578125
            },
            {
              "id": 2819,
              "pitch": 50,
              "velocity": 110,
              "start": 1009.5,
              "duration": 0.4892578125
            },
            {
              "id": 2818,
              "pitch": 54,
              "velocity": 110,
              "start": 1009.5,
              "duration": 0.4892578125
            },
            {
              "id": 2817,
              "pitch": 57,
              "velocity": 110,
              "start": 1009.5,
              "duration": 0.4892578125
            },
            {
              "id": 2816,
              "pitch": 71,
              "velocity": 110,
              "start": 1010.0,
              "duration": 0.8330078125
            },
            {
              "id": 2815,
              "pitch": 50,
              "velocity": 110,
              "start": 1010.0,
              "duration": 0.8330078125
            },
            {
              "id": 2814,
              "pitch": 54,
              "velocity": 110,
              "start": 1010.0,
              "duration": 0.8330078125
            },
            {
              "id": 2813,
              "pitch": 57,
              "velocity": 110,
              "start": 1010.0,
              "duration": 0.8330078125
            },
            {
              "id": 2812,
              "pitch": 69,
              "velocity": 110,
              "start": 1011.0,
              "duration": 0.8330078125
            },
            {
              "id": 2811,
              "pitch": 50,
              "velocity": 110,
              "start": 1011.0,
              "duration": 0.4892578125
            },
            {
              "id": 2810,
              "pitch": 57,
              "velocity": 110,
              "start": 1011.5,
              "duration": 0.4892578125
            },
            {
              "id": 2809,
              "pitch": 62,
              "velocity": 110,
              "start": 1012.0,
              "duration": 2.75
            },
            {
              "id": 2808,
              "pitch": 57,
              "velocity": 110,
              "start": 1012.0,
              "duration": 0.4892578125
            },
            {
              "id": 2807,
              "pitch": 50,
              "velocity": 110,
              "start": 1012.5,
              "duration": 0.4892578125
            },
            {
              "id": 2806,
              "pitch": 54,
              "velocity": 110,
              "start": 1012.5,
              "duration": 0.4892578125
            },
            {
              "id": 2805,
              "pitch": 57,
              "velocity": 110,
              "start": 1012.5,
              "duration": 0.4892578125
            },
            {
              "id": 2804,
              "pitch": 50,
              "velocity": 110,
              "start": 1013.0,
              "duration": 0.4892578125
            },
            {
              "id": 2803,
              "pitch": 50,
              "velocity": 110,
              "start": 1013.5,
              "duration": 0.4892578125
            },
            {
              "id": 2802,
              "pitch": 54,
              "velocity": 110,
              "start": 1013.5,
              "duration": 0.4892578125
            },
            {
              "id": 2801,
              "pitch": 57,
              "velocity": 110,
              "start": 1013.5,
              "duration": 0.4892578125
            },
            {
              "id": 2800,
              "pitch": 50,
              "velocity": 110,
              "start": 1014.0,
              "duration": 0.8330078125
            },
            {
              "id": 2799,
              "pitch": 54,
              "velocity": 110,
              "start": 1014.0,
              "duration": 0.8330078125
            },
            {
              "id": 2798,
              "pitch": 57,
              "velocity": 110,
              "start": 1014.0,
              "duration": 0.8330078125
            },
            {
              "id": 2797,
              "pitch": 50,
              "velocity": 110,
              "start": 1015.0,
              "duration": 0.4892578125
            },
            {
              "id": 2796,
              "pitch": 54,
              "velocity": 110,
              "start": 1015.0,
              "duration": 0.4892578125
            },
            {
              "id": 2795,
              "pitch": 57,
              "velocity": 110,
              "start": 1015.0,
              "duration": 0.4892578125
            },
            {
              "id": 2794,
              "pitch": 48,
              "velocity": 110,
              "start": 1015.5,
              "duration": 0.4892578125
            },
            {
              "id": 2793,
              "pitch": 59,
              "velocity": 110,
              "start": 1016.0,
              "duration": 0.8330078125
            },
            {
              "id": 2792,
              "pitch": 43,
              "velocity": 110,
              "start": 1016.0,
              "duration": 0.4892578125
            },
            {
              "id": 2791,
              "pitch": 50,
              "velocity": 110,
              "start": 1016.5,
              "duration": 0.4892578125
            },
            {
              "id": 2790,
              "pitch": 55,
              "velocity": 110,
              "start": 1016.5,
              "duration": 0.4892578125
            },
            {
              "id": 2789,
              "pitch": 59,
              "velocity": 110,
              "start": 1016.5,
              "duration": 0.4892578125
            },
            {
              "id": 2788,
              "pitch": 59,
              "velocity": 110,
              "start": 1017.0,
              "duration": 0.8330078125
            },
            {
              "id": 2787,
              "pitch": 38,
              "velocity": 110,
              "start": 1017.0,
              "duration": 0.2392578125
            },
            {
              "id": 2786,
              "pitch": 50,
              "velocity": 110,
              "start": 1017.25,
              "duration": 0.7392578125
            },
            {
              "id": 2785,
              "pitch": 55,
              "velocity": 110,
              "start": 1017.25,
              "duration": 0.7392578125
            },
            {
              "id": 2784,
              "pitch": 59,
              "velocity": 110,
              "start": 1017.25,
              "duration": 0.7392578125
            },
            {
              "id": 2783,
              "pitch": 64,
              "velocity": 110,
              "start": 1018.0,
              "duration": 0.8330078125
            },
            {
              "id": 2782,
              "pitch": 43,
              "velocity": 110,
              "start": 1018.0,
              "duration": 0.7392578125
            },
            {
              "id": 2781,
              "pitch": 50,
              "velocity": 110,
              "start": 1018.0,
              "duration": 0.7392578125
            },
            {
              "id": 2780,
              "pitch": 55,
              "velocity": 110,
              "start": 1018.0,
              "duration": 0.7392578125
            },
            {
              "id": 2779,
              "pitch": 59,
              "velocity": 110,
              "start": 1018.0,
              "duration": 0.7392578125
            },
            {
              "id": 2778,
              "pitch": 50,
              "velocity": 110,
              "start": 1018.75,
              "duration": 0.2392578125
            },
            {
              "id": 2777,
              "pitch": 55,
              "velocity": 110,
              "start": 1018.75,
              "duration": 0.2392578125
            },
            {
              "id": 2776,
              "pitch": 59,
              "velocity": 110,
              "start": 1018.75,
              "duration": 0.2392578125
            },
            {
              "id": 2775,
              "pitch": 62,
              "velocity": 110,
              "start": 1019.0,
              "duration": 0.8330078125
            },
            {
              "id": 2774,
              "pitch": 38,
              "velocity": 110,
              "start": 1019.0,
              "duration": 0.4892578125
            },
            {
              "id": 2773,
              "pitch": 50,
              "velocity": 110,
              "start": 1019.5,
              "duration": 0.4892578125
            },
            {
              "id": 2772,
              "pitch": 55,
              "velocity": 110,
              "start": 1019.5,
              "duration": 0.4892578125
            },
            {
              "id": 2771,
              "pitch": 59,
              "velocity": 110,
              "start": 1019.5,
              "duration": 0.4892578125
            },
            {
              "id": 2770,
              "pitch": 59,
              "velocity": 110,
              "start": 1020.0,
              "duration": 2.75
            },
            {
              "id": 2769,
              "pitch": 44,
              "velocity": 110,
              "start": 1020.0,
              "duration": 0.4892578125
            },
            {
              "id": 2768,
              "pitch": 52,
              "velocity": 110,
              "start": 1020.5,
              "duration": 0.4892578125
            },
            {
              "id": 2767,
              "pitch": 56,
              "velocity": 110,
              "start": 1020.5,
              "duration": 0.4892578125
            },
            {
              "id": 2766,
              "pitch": 59,
              "velocity": 110,
              "start": 1020.5,
              "duration": 0.4892578125
            },
            {
              "id": 2765,
              "pitch": 38,
              "velocity": 110,
              "start": 1021.0,
              "duration": 0.4892578125
            },
            {
              "id": 2764,
              "pitch": 52,
              "velocity": 110,
              "start": 1021.5,
              "duration": 0.4892578125
            },
            {
              "id": 2763,
              "pitch": 56,
              "velocity": 110,
              "start": 1021.5,
              "duration": 0.4892578125
            },
            {
              "id": 2762,
              "pitch": 59,
              "velocity": 110,
              "start": 1021.5,
              "duration": 0.4892578125
            },
            {
              "id": 2761,
              "pitch": 44,
              "velocity": 110,
              "start": 1022.0,
              "duration": 0.8330078125
            },
            {
              "id": 2760,
              "pitch": 52,
              "velocity": 110,
              "start": 1022.0,
              "duration": 0.8330078125
            },
            {
              "id": 2759,
              "pitch": 56,
              "velocity": 110,
              "start": 1022.0,
              "duration": 0.8330078125
            },
            {
              "id": 2758,
              "pitch": 59,
              "velocity": 110,
              "start": 1022.0,
              "duration": 0.8330078125
            },
            {
              "id": 2757,
              "pitch": 38,
              "velocity": 110,
              "start": 1023.0,
              "duration": 0.8330078125
            },
            {
              "id": 2756,
              "pitch": 52,
              "velocity": 110,
              "start": 1023.0,
              "duration": 0.8330078125
            },
            {
              "id": 2755,
              "pitch": 56,
              "velocity": 110,
              "start": 1023.0,
              "duration": 0.8330078125
            },
            {
              "id": 2754,
              "pitch": 59,
              "velocity": 110,
              "start": 1023.0,
              "duration": 0.8330078125
            },
            {
              "id": 2753,
              "pitch": 57,
              "velocity": 110,
              "start": 1024.0,
              "duration": 1.3330078125
            },
            {
              "id": 2752,
              "pitch": 45,
              "velocity": 110,
              "start": 1024.0,
              "duration": 0.4892578125
            },
            {
              "id": 2751,
              "pitch": 50,
              "velocity": 110,
              "start": 1024.5,
              "duration": 0.4892578125
            },
            {
              "id": 2750,
              "pitch": 54,
              "velocity": 110,
              "start": 1024.5,
              "duration": 0.4892578125
            },
            {
              "id": 2749,
              "pitch": 57,
              "velocity": 110,
              "start": 1024.5,
              "duration": 0.4892578125
            },
            {
              "id": 2748,
              "pitch": 38,
              "velocity": 110,
              "start": 1025.0,
              "duration": 0.4892578125
            },
            {
              "id": 2747,
              "pitch": 57,
              "velocity": 110,
              "start": 1025.5,
              "duration": 1.3330078125
            },
            {
              "id": 2746,
              "pitch": 50,
              "velocity": 110,
              "start": 1025.5,
              "duration": 0.4892578125
            },
            {
              "id": 2745,
              "pitch": 54,
              "velocity": 110,
              "start": 1025.5,
              "duration": 0.4892578125
            },
            {
              "id": 2744,
              "pitch": 57,
              "velocity": 110,
              "start": 1025.5,
              "duration": 0.4892578125
            },
            {
              "id": 2743,
              "pitch": 45,
              "velocity": 110,
              "start": 1026.0,
              "duration": 0.4892578125
            },
            {
              "id": 2742,
              "pitch": 50,
              "velocity": 110,
              "start": 1026.5,
              "duration": 0.4892578125
            },
            {
              "id": 2741,
              "pitch": 54,
              "velocity": 110,
              "start": 1026.5,
              "duration": 0.4892578125
            },
            {
              "id": 2740,
              "pitch": 57,
              "velocity": 110,
              "start": 1026.5,
              "duration": 0.4892578125
            },
            {
              "id": 2739,
              "pitch": 69,
              "velocity": 110,
              "start": 1027.0,
              "duration": 1.4892578125
            },
            {
              "id": 2738,
              "pitch": 45,
              "velocity": 110,
              "start": 1027.0,
              "duration": 0.4892578125
            },
            {
              "id": 2737,
              "pitch": 50,
              "velocity": 110,
              "start": 1027.5,
              "duration": 0.4892578125
            },
            {
              "id": 2736,
              "pitch": 54,
              "velocity": 110,
              "start": 1027.5,
              "duration": 0.4892578125
            },
            {
              "id": 2735,
              "pitch": 57,
              "velocity": 110,
              "start": 1027.5,
              "duration": 0.4892578125
            },
            {
              "id": 2734,
              "pitch": 45,
              "velocity": 110,
              "start": 1028.0,
              "duration": 0.4892578125
            },
            {
              "id": 2733,
              "pitch": 57,
              "velocity": 110,
              "start": 1028.5,
              "duration": 1.3330078125
            },
            {
              "id": 2732,
              "pitch": 50,
              "velocity": 110,
              "start": 1028.5,
              "duration": 0.4892578125
            },
            {
              "id": 2731,
              "pitch": 54,
              "velocity": 110,
              "start": 1028.5,
              "duration": 0.4892578125
            },
            {
              "id": 2730,
              "pitch": 57,
              "velocity": 110,
              "start": 1028.5,
              "duration": 0.4892578125
            },
            {
              "id": 2729,
              "pitch": 38,
              "velocity": 110,
              "start": 1029.0,
              "duration": 0.4892578125
            },
            {
              "id": 2728,
              "pitch": 50,
              "velocity": 110,
              "start": 1029.5,
              "duration": 0.4892578125
            },
            {
              "id": 2727,
              "pitch": 54,
              "velocity": 110,
              "start": 1029.5,
              "duration": 0.4892578125
            },
            {
              "id": 2726,
              "pitch": 57,
              "velocity": 110,
              "start": 1029.5,
              "duration": 0.4892578125
            },
            {
              "id": 2725,
              "pitch": 57,
              "velocity": 110,
              "start": 1030.0,
              "duration": 0.8330078125
            },
            {
              "id": 2724,
              "pitch": 45,
              "velocity": 110,
              "start": 1030.0,
              "duration": 0.4892578125
            },
            {
              "id": 2723,
              "pitch": 50,
              "velocity": 110,
              "start": 1030.5,
              "duration": 0.4892578125
            },
            {
              "id": 2722,
              "pitch": 54,
              "velocity": 110,
              "start": 1030.5,
              "duration": 0.4892578125
            },
            {
              "id": 2721,
              "pitch": 57,
              "velocity": 110,
              "start": 1030.5,
              "duration": 0.4892578125
            },
            {
              "id": 2720,
              "pitch": 69,
              "velocity": 110,
              "start": 1031.0,
              "duration": 0.8330078125
            },
            {
              "id": 2719,
              "pitch": 45,
              "velocity": 110,
              "start": 1031.0,
              "duration": 0.4892578125
            },
            {
              "id": 2718,
              "pitch": 50,
              "velocity": 110,
              "start": 1031.5,
              "duration": 0.4892578125
            },
            {
              "id": 2717,
              "pitch": 54,
              "velocity": 110,
              "start": 1031.5,
              "duration": 0.4892578125
            },
            {
              "id": 2716,
              "pitch": 57,
              "velocity": 110,
              "start": 1031.5,
              "duration": 0.4892578125
            },
            {
              "id": 2715,
              "pitch": 57,
              "velocity": 110,
              "start": 1032.0,
              "duration": 1.75
            },
            {
              "id": 2714,
              "pitch": 45,
              "velocity": 110,
              "start": 1032.0,
              "duration": 0.4892578125
            },
            {
              "id": 2713,
              "pitch": 50,
              "velocity": 110,
              "start": 1032.5,
              "duration": 0.4892578125
            },
            {
              "id": 2712,
              "pitch": 54,
              "velocity": 110,
              "start": 1032.5,
              "duration": 0.4892578125
            },
            {
              "id": 2711,
              "pitch": 57,
              "velocity": 110,
              "start": 1032.5,
              "duration": 0.4892578125
            },
            {
              "id": 2710,
              "pitch": 38,
              "velocity": 110,
              "start": 1033.0,
              "duration": 0.4892578125
            },
            {
              "id": 2709,
              "pitch": 50,
              "velocity": 110,
              "start": 1033.5,
              "duration": 0.4892578125
            },
            {
              "id": 2708,
              "pitch": 54,
              "velocity": 110,
              "start": 1033.5,
              "duration": 0.4892578125
            },
            {
              "id": 2707,
              "pitch": 57,
              "velocity": 110,
              "start": 1033.5,
              "duration": 0.4892578125
            },
            {
              "id": 2706,
              "pitch": 45,
              "velocity": 110,
              "start": 1034.0,
              "duration": 0.4892578125
            },
            {
              "id": 2705,
              "pitch": 50,
              "velocity": 110,
              "start": 1034.5,
              "duration": 0.4892578125
            },
            {
              "id": 2704,
              "pitch": 54,
              "velocity": 110,
              "start": 1034.5,
              "duration": 0.4892578125
            },
            {
              "id": 2703,
              "pitch": 57,
              "velocity": 110,
              "start": 1034.5,
              "duration": 0.4892578125
            },
            {
              "id": 2702,
              "pitch": 69,
              "velocity": 110,
              "start": 1035.0,
              "duration": 0.8330078125
            },
            {
              "id": 2701,
              "pitch": 45,
              "velocity": 110,
              "start": 1035.0,
              "duration": 0.4892578125
            },
            {
              "id": 2700,
              "pitch": 50,
              "velocity": 110,
              "start": 1035.5,
              "duration": 0.4892578125
            },
            {
              "id": 2699,
              "pitch": 54,
              "velocity": 110,
              "start": 1035.5,
              "duration": 0.4892578125
            },
            {
              "id": 2698,
              "pitch": 57,
              "velocity": 110,
              "start": 1035.5,
              "duration": 0.4892578125
            },
            {
              "id": 2697,
              "pitch": 64,
              "velocity": 110,
              "start": 1036.0,
              "duration": 2.75
            },
            {
              "id": 2696,
              "pitch": 52,
              "velocity": 110,
              "start": 1036.0,
              "duration": 0.4892578125
            },
            {
              "id": 2695,
              "pitch": 49,
              "velocity": 110,
              "start": 1036.5,
              "duration": 0.4892578125
            },
            {
              "id": 2694,
              "pitch": 52,
              "velocity": 110,
              "start": 1036.5,
              "duration": 0.4892578125
            },
            {
              "id": 2693,
              "pitch": 57,
              "velocity": 110,
              "start": 1036.5,
              "duration": 0.4892578125
            },
            {
              "id": 2692,
              "pitch": 45,
              "velocity": 110,
              "start": 1037.0,
              "duration": 0.4892578125
            },
            {
              "id": 2691,
              "pitch": 49,
              "velocity": 110,
              "start": 1037.5,
              "duration": 0.4892578125
            },
            {
              "id": 2690,
              "pitch": 52,
              "velocity": 110,
              "start": 1037.5,
              "duration": 0.4892578125
            },
            {
              "id": 2689,
              "pitch": 57,
              "velocity": 110,
              "start": 1037.5,
              "duration": 0.4892578125
            },
            {
              "id": 2688,
              "pitch": 49,
              "velocity": 110,
              "start": 1038.0,
              "duration": 0.8330078125
            },
            {
              "id": 2687,
              "pitch": 52,
              "velocity": 110,
              "start": 1038.0,
              "duration": 0.8330078125
            },
            {
              "id": 2686,
              "pitch": 57,
              "velocity": 110,
              "start": 1038.0,
              "duration": 0.8330078125
            },
            {
              "id": 2685,
              "pitch": 49,
              "velocity": 110,
              "start": 1039.0,
              "duration": 0.4892578125
            },
            {
              "id": 2684,
              "pitch": 52,
              "velocity": 110,
              "start": 1039.0,
              "duration": 0.4892578125
            },
            {
              "id": 2683,
              "pitch": 57,
              "velocity": 110,
              "start": 1039.0,
              "duration": 0.4892578125
            },
            {
              "id": 2682,
              "pitch": 49,
              "velocity": 110,
              "start": 1039.5,
              "duration": 0.4892578125
            },
            {
              "id": 2681,
              "pitch": 52,
              "velocity": 110,
              "start": 1039.5,
              "duration": 0.4892578125
            },
            {
              "id": 2680,
              "pitch": 57,
              "velocity": 110,
              "start": 1039.5,
              "duration": 0.4892578125
            },
            {
              "id": 2679,
              "pitch": 66,
              "velocity": 110,
              "start": 1040.0,
              "duration": 1.75
            },
            {
              "id": 2678,
              "pitch": 54,
              "velocity": 110,
              "start": 1040.0,
              "duration": 0.2392578125
            },
            {
              "id": 2677,
              "pitch": 57,
              "velocity": 110,
              "start": 1040.0,
              "duration": 0.2392578125
            },
            {
              "id": 2676,
              "pitch": 50,
              "velocity": 110,
              "start": 1040.25,
              "duration": 0.2392578125
            },
            {
              "id": 2675,
              "pitch": 54,
              "velocity": 110,
              "start": 1040.5,
              "duration": 0.2392578125
            },
            {
              "id": 2674,
              "pitch": 50,
              "velocity": 110,
              "start": 1040.75,
              "duration": 0.2392578125
            },
            {
              "id": 2673,
              "pitch": 50,
              "velocity": 110,
              "start": 1041.0,
              "duration": 0.4892578125
            },
            {
              "id": 2672,
              "pitch": 57,
              "velocity": 110,
              "start": 1041.0,
              "duration": 0.4892578125
            },
            {
              "id": 2671,
              "pitch": 50,
              "velocity": 110,
              "start": 1041.5,
              "duration": 0.4892578125
            },
            {
              "id": 2670,
              "pitch": 54,
              "velocity": 110,
              "start": 1041.5,
              "duration": 0.4892578125
            },
            {
              "id": 2669,
              "pitch": 57,
              "velocity": 110,
              "start": 1041.5,
              "duration": 0.4892578125
            },
            {
              "id": 2668,
              "pitch": 71,
              "velocity": 110,
              "start": 1042.0,
              "duration": 0.8330078125
            },
            {
              "id": 2667,
              "pitch": 57,
              "velocity": 110,
              "start": 1042.0,
              "duration": 0.4892578125
            },
            {
              "id": 2666,
              "pitch": 50,
              "velocity": 110,
              "start": 1042.5,
              "duration": 0.4892578125
            },
            {
              "id": 2665,
              "pitch": 54,
              "velocity": 110,
              "start": 1042.5,
              "duration": 0.4892578125
            },
            {
              "id": 2664,
              "pitch": 57,
              "velocity": 110,
              "start": 1042.5,
              "duration": 0.4892578125
            },
            {
              "id": 2663,
              "pitch": 69,
              "velocity": 110,
              "start": 1043.0,
              "duration": 0.8330078125
            },
            {
              "id": 2662,
              "pitch": 50,
              "velocity": 110,
              "start": 1043.0,
              "duration": 0.4892578125
            },
            {
              "id": 2661,
              "pitch": 50,
              "velocity": 110,
              "start": 1043.5,
              "duration": 0.4892578125
            },
            {
              "id": 2660,
              "pitch": 54,
              "velocity": 110,
              "start": 1043.5,
              "duration": 0.4892578125
            },
            {
              "id": 2659,
              "pitch": 57,
              "velocity": 110,
              "start": 1043.5,
              "duration": 0.4892578125
            },
            {
              "id": 2658,
              "pitch": 72,
              "velocity": 110,
              "start": 1044.0,
              "duration": 2.75
            },
            {
              "id": 2657,
              "pitch": 54,
              "velocity": 110,
              "start": 1044.0,
              "duration": 0.2392578125
            },
            {
              "id": 2656,
              "pitch": 57,
              "velocity": 110,
              "start": 1044.0,
              "duration": 0.2392578125
            },
            {
              "id": 2655,
              "pitch": 50,
              "velocity": 110,
              "start": 1044.25,
              "duration": 0.2392578125
            },
            {
              "id": 2654,
              "pitch": 54,
              "velocity": 110,
              "start": 1044.5,
              "duration": 0.2392578125
            },
            {
              "id": 2653,
              "pitch": 50,
              "velocity": 110,
              "start": 1044.75,
              "duration": 0.2392578125
            },
            {
              "id": 2652,
              "pitch": 50,
              "velocity": 110,
              "start": 1045.0,
              "duration": 0.4892578125
            },
            {
              "id": 2651,
              "pitch": 57,
              "velocity": 110,
              "start": 1045.0,
              "duration": 0.4892578125
            },
            {
              "id": 2650,
              "pitch": 50,
              "velocity": 110,
              "start": 1045.5,
              "duration": 0.4892578125
            },
            {
              "id": 2649,
              "pitch": 54,
              "velocity": 110,
              "start": 1045.5,
              "duration": 0.4892578125
            },
            {
              "id": 2648,
              "pitch": 57,
              "velocity": 110,
              "start": 1045.5,
              "duration": 0.4892578125
            },
            {
              "id": 2647,
              "pitch": 57,
              "velocity": 110,
              "start": 1046.0,
              "duration": 0.4892578125
            },
            {
              "id": 2646,
              "pitch": 50,
              "velocity": 110,
              "start": 1046.5,
              "duration": 0.4892578125
            },
            {
              "id": 2645,
              "pitch": 54,
              "velocity": 110,
              "start": 1046.5,
              "duration": 0.4892578125
            },
            {
              "id": 2644,
              "pitch": 57,
              "velocity": 110,
              "start": 1046.5,
              "duration": 0.4892578125
            },
            {
              "id": 2643,
              "pitch": 50,
              "velocity": 110,
              "start": 1047.0,
              "duration": 0.4892578125
            },
            {
              "id": 2642,
              "pitch": 50,
              "velocity": 110,
              "start": 1047.5,
              "duration": 0.4892578125
            },
            {
              "id": 2641,
              "pitch": 54,
              "velocity": 110,
              "start": 1047.5,
              "duration": 0.4892578125
            },
            {
              "id": 2640,
              "pitch": 57,
              "velocity": 110,
              "start": 1047.5,
              "duration": 0.4892578125
            },
            {
              "id": 2639,
              "pitch": 71,
              "velocity": 110,
              "start": 1048.0,
              "duration": 0.8330078125
            },
            {
              "id": 2638,
              "pitch": 56,
              "velocity": 110,
              "start": 1048.0,
              "duration": 0.2392578125
            },
            {
              "id": 2637,
              "pitch": 59,
              "velocity": 110,
              "start": 1048.0,
              "duration": 0.2392578125
            },
            {
              "id": 2636,
              "pitch": 52,
              "velocity": 110,
              "start": 1048.25,
              "duration": 0.2392578125
            },
            {
              "id": 2635,
              "pitch": 56,
              "velocity": 110,
              "start": 1048.5,
              "duration": 0.2392578125
            },
            {
              "id": 2634,
              "pitch": 52,
              "velocity": 110,
              "start": 1048.75,
              "duration": 0.2392578125
            },
            {
              "id": 2633,
              "pitch": 71,
              "velocity": 110,
              "start": 1049.0,
              "duration": 0.8330078125
            },
            {
              "id": 2632,
              "pitch": 52,
              "velocity": 110,
              "start": 1049.0,
              "duration": 0.4892578125
            },
            {
              "id": 2631,
              "pitch": 59,
              "velocity": 110,
              "start": 1049.0,
              "duration": 0.4892578125
            },
            {
              "id": 2630,
              "pitch": 52,
              "velocity": 110,
              "start": 1049.5,
              "duration": 0.4892578125
            },
            {
              "id": 2629,
              "pitch": 56,
              "velocity": 110,
              "start": 1049.5,
              "duration": 0.4892578125
            },
            {
              "id": 2628,
              "pitch": 59,
              "velocity": 110,
              "start": 1049.5,
              "duration": 0.4892578125
            },
            {
              "id": 2627,
              "pitch": 76,
              "velocity": 110,
              "start": 1050.0,
              "duration": 0.8330078125
            },
            {
              "id": 2626,
              "pitch": 59,
              "velocity": 110,
              "start": 1050.0,
              "duration": 0.4892578125
            },
            {
              "id": 2625,
              "pitch": 52,
              "velocity": 110,
              "start": 1050.5,
              "duration": 0.4892578125
            },
            {
              "id": 2624,
              "pitch": 56,
              "velocity": 110,
              "start": 1050.5,
              "duration": 0.4892578125
            },
            {
              "id": 2623,
              "pitch": 59,
              "velocity": 110,
              "start": 1050.5,
              "duration": 0.4892578125
            },
            {
              "id": 2622,
              "pitch": 74,
              "velocity": 110,
              "start": 1051.0,
              "duration": 0.8330078125
            },
            {
              "id": 2621,
              "pitch": 52,
              "velocity": 110,
              "start": 1051.0,
              "duration": 0.4892578125
            },
            {
              "id": 2620,
              "pitch": 52,
              "velocity": 110,
              "start": 1051.5,
              "duration": 0.4892578125
            },
            {
              "id": 2619,
              "pitch": 56,
              "velocity": 110,
              "start": 1051.5,
              "duration": 0.4892578125
            },
            {
              "id": 2618,
              "pitch": 59,
              "velocity": 110,
              "start": 1051.5,
              "duration": 0.4892578125
            },
            {
              "id": 2617,
              "pitch": 71,
              "velocity": 110,
              "start": 1052.0,
              "duration": 2.75
            },
            {
              "id": 2616,
              "pitch": 56,
              "velocity": 110,
              "start": 1052.0,
              "duration": 0.2392578125
            },
            {
              "id": 2615,
              "pitch": 62,
              "velocity": 110,
              "start": 1052.0,
              "duration": 0.2392578125
            },
            {
              "id": 2614,
              "pitch": 52,
              "velocity": 110,
              "start": 1052.25,
              "duration": 0.2392578125
            },
            {
              "id": 2613,
              "pitch": 56,
              "velocity": 110,
              "start": 1052.5,
              "duration": 0.2392578125
            },
            {
              "id": 2612,
              "pitch": 52,
              "velocity": 110,
              "start": 1052.75,
              "duration": 0.2392578125
            },
            {
              "id": 2611,
              "pitch": 52,
              "velocity": 110,
              "start": 1053.0,
              "duration": 0.4892578125
            },
            {
              "id": 2610,
              "pitch": 62,
              "velocity": 110,
              "start": 1053.0,
              "duration": 0.4892578125
            },
            {
              "id": 2609,
              "pitch": 52,
              "velocity": 110,
              "start": 1053.5,
              "duration": 0.4892578125
            },
            {
              "id": 2608,
              "pitch": 56,
              "velocity": 110,
              "start": 1053.5,
              "duration": 0.4892578125
            },
            {
              "id": 2607,
              "pitch": 62,
              "velocity": 110,
              "start": 1053.5,
              "duration": 0.4892578125
            },
            {
              "id": 2606,
              "pitch": 62,
              "velocity": 110,
              "start": 1054.0,
              "duration": 0.4892578125
            },
            {
              "id": 2605,
              "pitch": 52,
              "velocity": 110,
              "start": 1054.5,
              "duration": 0.4892578125
            },
            {
              "id": 2604,
              "pitch": 56,
              "velocity": 110,
              "start": 1054.5,
              "duration": 0.4892578125
            },
            {
              "id": 2603,
              "pitch": 62,
              "velocity": 110,
              "start": 1054.5,
              "duration": 0.4892578125
            },
            {
              "id": 2602,
              "pitch": 52,
              "velocity": 110,
              "start": 1055.0,
              "duration": 0.4892578125
            },
            {
              "id": 2601,
              "pitch": 52,
              "velocity": 110,
              "start": 1055.5,
              "duration": 0.4892578125
            },
            {
              "id": 2600,
              "pitch": 56,
              "velocity": 110,
              "start": 1055.5,
              "duration": 0.4892578125
            },
            {
              "id": 2599,
              "pitch": 62,
              "velocity": 110,
              "start": 1055.5,
              "duration": 0.4892578125
            },
            {
              "id": 2598,
              "pitch": 69,
              "velocity": 110,
              "start": 1056.0,
              "duration": 1.3330078125
            },
            {
              "id": 2597,
              "pitch": 50,
              "velocity": 110,
              "start": 1056.0,
              "duration": 0.8330078125
            },
            {
              "id": 2596,
              "pitch": 54,
              "velocity": 110,
              "start": 1056.0,
              "duration": 0.8330078125
            },
            {
              "id": 2595,
              "pitch": 57,
              "velocity": 110,
              "start": 1056.0,
              "duration": 0.8330078125
            },
            {
              "id": 2594,
              "pitch": 50,
              "velocity": 110,
              "start": 1057.0,
              "duration": 0.8330078125
            },
            {
              "id": 2593,
              "pitch": 54,
              "velocity": 110,
              "start": 1057.0,
              "duration": 0.8330078125
            },
            {
              "id": 2592,
              "pitch": 57,
              "velocity": 110,
              "start": 1057.0,
              "duration": 0.8330078125
            },
            {
              "id": 2591,
              "pitch": 69,
              "velocity": 110,
              "start": 1057.5,
              "duration": 1.3330078125
            },
            {
              "id": 2590,
              "pitch": 53,
              "velocity": 110,
              "start": 1058.0,
              "duration": 0.4892578125
            },
            {
              "id": 2589,
              "pitch": 50,
              "velocity": 110,
              "start": 1058.5,
              "duration": 0.4892578125
            },
            {
              "id": 2588,
              "pitch": 53,
              "velocity": 110,
              "start": 1058.5,
              "duration": 0.4892578125
            },
            {
              "id": 2587,
              "pitch": 57,
              "velocity": 110,
              "start": 1058.5,
              "duration": 0.4892578125
            },
            {
              "id": 2586,
              "pitch": 57,
              "velocity": 110,
              "start": 1059.0,
              "duration": 1.4892578125
            },
            {
              "id": 2585,
              "pitch": 53,
              "velocity": 110,
              "start": 1059.0,
              "duration": 0.4892578125
            },
            {
              "id": 2584,
              "pitch": 50,
              "velocity": 110,
              "start": 1059.5,
              "duration": 0.4892578125
            },
            {
              "id": 2583,
              "pitch": 53,
              "velocity": 110,
              "start": 1059.5,
              "duration": 0.4892578125
            },
            {
              "id": 2582,
              "pitch": 57,
              "velocity": 110,
              "start": 1059.5,
              "duration": 0.4892578125
            },
            {
              "id": 2581,
              "pitch": 52,
              "velocity": 110,
              "start": 1060.0,
              "duration": 0.4892578125
            },
            {
              "id": 2580,
              "pitch": 69,
              "velocity": 110,
              "start": 1060.5,
              "duration": 1.3330078125
            },
            {
              "id": 2579,
              "pitch": 50,
              "velocity": 110,
              "start": 1060.5,
              "duration": 0.4892578125
            },
            {
              "id": 2578,
              "pitch": 57,
              "velocity": 110,
              "start": 1060.5,
              "duration": 0.4892578125
            },
            {
              "id": 2577,
              "pitch": 59,
              "velocity": 110,
              "start": 1060.5,
              "duration": 0.4892578125
            },
            {
              "id": 2576,
              "pitch": 52,
              "velocity": 110,
              "start": 1061.0,
              "duration": 0.4892578125
            },
            {
              "id": 2575,
              "pitch": 50,
              "velocity": 110,
              "start": 1061.5,
              "duration": 0.4892578125
            },
            {
              "id": 2574,
              "pitch": 57,
              "velocity": 110,
              "start": 1061.5,
              "duration": 0.4892578125
            },
            {
              "id": 2573,
              "pitch": 59,
              "velocity": 110,
              "start": 1061.5,
              "duration": 0.4892578125
            },
            {
              "id": 2572,
              "pitch": 57,
              "velocity": 110,
              "start": 1062.0,
              "duration": 0.8330078125
            },
            {
              "id": 2571,
              "pitch": 51,
              "velocity": 110,
              "start": 1062.0,
              "duration": 0.4892578125
            },
            {
              "id": 2570,
              "pitch": 52,
              "velocity": 110,
              "start": 1062.5,
              "duration": 0.4892578125
            },
            {
              "id": 2569,
              "pitch": 57,
              "velocity": 110,
              "start": 1062.5,
              "duration": 0.4892578125
            },
            {
              "id": 2568,
              "pitch": 59,
              "velocity": 110,
              "start": 1062.5,
              "duration": 0.4892578125
            },
            {
              "id": 2567,
              "pitch": 64,
              "velocity": 110,
              "start": 1063.0,
              "duration": 0.8330078125
            },
            {
              "id": 2566,
              "pitch": 51,
              "velocity": 110,
              "start": 1063.0,
              "duration": 0.8330078125
            },
            {
              "id": 2565,
              "pitch": 62,
              "velocity": 110,
              "start": 1064.0,
              "duration": 3.75
            },
            {
              "id": 2564,
              "pitch": 50,
              "velocity": 110,
              "start": 1064.0,
              "duration": 0.8330078125
            },
            {
              "id": 2563,
              "pitch": 54,
              "velocity": 110,
              "start": 1064.0,
              "duration": 0.8330078125
            },
            {
              "id": 2562,
              "pitch": 57,
              "velocity": 110,
              "start": 1064.0,
              "duration": 0.8330078125
            },
            {
              "id": 2561,
              "pitch": 47,
              "velocity": 110,
              "start": 1065.0,
              "duration": 0.4892578125
            },
            {
              "id": 2560,
              "pitch": 50,
              "velocity": 110,
              "start": 1065.0,
              "duration": 0.4892578125
            },
            {
              "id": 2559,
              "pitch": 54,
              "velocity": 110,
              "start": 1065.0,
              "duration": 0.4892578125
            },
            {
              "id": 2558,
              "pitch": 57,
              "velocity": 110,
              "start": 1065.0,
              "duration": 0.4892578125
            },
            {
              "id": 2557,
              "pitch": 49,
              "velocity": 110,
              "start": 1065.5,
              "duration": 0.4892578125
            },
            {
              "id": 2556,
              "pitch": 50,
              "velocity": 110,
              "start": 1066.0,
              "duration": 0.4892578125
            },
            {
              "id": 2555,
              "pitch": 50,
              "velocity": 110,
              "start": 1066.5,
              "duration": 0.4892578125
            },
            {
              "id": 2554,
              "pitch": 54,
              "velocity": 110,
              "start": 1066.5,
              "duration": 0.4892578125
            },
            {
              "id": 2553,
              "pitch": 57,
              "velocity": 110,
              "start": 1066.5,
              "duration": 0.4892578125
            },
            {
              "id": 2552,
              "pitch": 45,
              "velocity": 110,
              "start": 1067.0,
              "duration": 0.4892578125
            },
            {
              "id": 2551,
              "pitch": 50,
              "velocity": 110,
              "start": 1067.5,
              "duration": 0.4892578125
            },
            {
              "id": 2550,
              "pitch": 54,
              "velocity": 110,
              "start": 1067.5,
              "duration": 0.4892578125
            },
            {
              "id": 2549,
              "pitch": 57,
              "velocity": 110,
              "start": 1067.5,
              "duration": 0.4892578125
            },
            {
              "id": 2548,
              "pitch": 50,
              "velocity": 110,
              "start": 1068.0,
              "duration": 0.4892578125
            },
            {
              "id": 2547,
              "pitch": 74,
              "velocity": 110,
              "start": 1068.5,
              "duration": 0.4892578125
            },
            {
              "id": 2546,
              "pitch": 50,
              "velocity": 110,
              "start": 1068.5,
              "duration": 0.4892578125
            },
            {
              "id": 2545,
              "pitch": 54,
              "velocity": 110,
              "start": 1068.5,
              "duration": 0.4892578125
            },
            {
              "id": 2544,
              "pitch": 57,
              "velocity": 110,
              "start": 1068.5,
              "duration": 0.4892578125
            },
            {
              "id": 2543,
              "pitch": 73,
              "velocity": 110,
              "start": 1069.0,
              "duration": 0.4892578125
            },
            {
              "id": 2542,
              "pitch": 47,
              "velocity": 110,
              "start": 1069.0,
              "duration": 0.4892578125
            },
            {
              "id": 2541,
              "pitch": 74,
              "velocity": 110,
              "start": 1069.5,
              "duration": 0.4892578125
            },
            {
              "id": 2540,
              "pitch": 49,
              "velocity": 110,
              "start": 1069.5,
              "duration": 0.4892578125
            },
            {
              "id": 2539,
              "pitch": 50,
              "velocity": 110,
              "start": 1069.5,
              "duration": 0.4892578125
            },
            {
              "id": 2538,
              "pitch": 54,
              "velocity": 110,
              "start": 1069.5,
              "duration": 0.4892578125
            },
            {
              "id": 2537,
              "pitch": 57,
              "velocity": 110,
              "start": 1069.5,
              "duration": 0.4892578125
            },
            {
              "id": 2536,
              "pitch": 76,
              "velocity": 110,
              "start": 1070.0,
              "duration": 0.4892578125
            },
            {
              "id": 2535,
              "pitch": 50,
              "velocity": 110,
              "start": 1070.0,
              "duration": 0.4892578125
            },
            {
              "id": 2534,
              "pitch": 78,
              "velocity": 110,
              "start": 1070.5,
              "duration": 0.4892578125
            },
            {
              "id": 2533,
              "pitch": 50,
              "velocity": 110,
              "start": 1070.5,
              "duration": 0.4892578125
            },
            {
              "id": 2532,
              "pitch": 54,
              "velocity": 110,
              "start": 1070.5,
              "duration": 0.4892578125
            },
            {
              "id": 2531,
              "pitch": 57,
              "velocity": 110,
              "start": 1070.5,
              "duration": 0.4892578125
            },
            {
              "id": 2530,
              "pitch": 79,
              "velocity": 110,
              "start": 1071.0,
              "duration": 0.4892578125
            },
            {
              "id": 2529,
              "pitch": 52,
              "velocity": 110,
              "start": 1071.0,
              "duration": 0.4892578125
            },
            {
              "id": 2528,
              "pitch": 81,
              "velocity": 110,
              "start": 1071.5,
              "duration": 0.4892578125
            },
            {
              "id": 2527,
              "pitch": 54,
              "velocity": 110,
              "start": 1071.5,
              "duration": 0.4892578125
            },
            {
              "id": 2526,
              "pitch": 83,
              "velocity": 110,
              "start": 1072.0,
              "duration": 1.75
            },
            {
              "id": 2525,
              "pitch": 50,
              "velocity": 110,
              "start": 1072.0,
              "duration": 0.7392578125
            },
            {
              "id": 2524,
              "pitch": 55,
              "velocity": 110,
              "start": 1072.0,
              "duration": 0.7392578125
            },
            {
              "id": 2523,
              "pitch": 59,
              "velocity": 110,
              "start": 1072.0,
              "duration": 0.7392578125
            },
            {
              "id": 2522,
              "pitch": 50,
              "velocity": 110,
              "start": 1072.75,
              "duration": 0.2392578125
            },
            {
              "id": 2521,
              "pitch": 55,
              "velocity": 110,
              "start": 1072.75,
              "duration": 0.2392578125
            },
            {
              "id": 2520,
              "pitch": 59,
              "velocity": 110,
              "start": 1072.75,
              "duration": 0.2392578125
            },
            {
              "id": 2519,
              "pitch": 55,
              "velocity": 110,
              "start": 1073.0,
              "duration": 0.4892578125
            },
            {
              "id": 2518,
              "pitch": 50,
              "velocity": 110,
              "start": 1073.5,
              "duration": 0.4892578125
            },
            {
              "id": 2517,
              "pitch": 55,
              "velocity": 110,
              "start": 1073.5,
              "duration": 0.4892578125
            },
            {
              "id": 2516,
              "pitch": 59,
              "velocity": 110,
              "start": 1073.5,
              "duration": 0.4892578125
            },
            {
              "id": 2515,
              "pitch": 82,
              "velocity": 110,
              "start": 1074.0,
              "duration": 1.75
            },
            {
              "id": 2514,
              "pitch": 50,
              "velocity": 110,
              "start": 1074.0,
              "duration": 0.8330078125
            },
            {
              "id": 2513,
              "pitch": 55,
              "velocity": 110,
              "start": 1074.0,
              "duration": 0.8330078125
            },
            {
              "id": 2512,
              "pitch": 59,
              "velocity": 110,
              "start": 1074.0,
              "duration": 0.8330078125
            },
            {
              "id": 2511,
              "pitch": 55,
              "velocity": 110,
              "start": 1075.0,
              "duration": 0.8330078125
            },
            {
              "id": 2510,
              "pitch": 81,
              "velocity": 110,
              "start": 1076.0,
              "duration": 1.75
            },
            {
              "id": 2509,
              "pitch": 50,
              "velocity": 110,
              "start": 1076.0,
              "duration": 0.7392578125
            },
            {
              "id": 2508,
              "pitch": 54,
              "velocity": 110,
              "start": 1076.0,
              "duration": 0.7392578125
            },
            {
              "id": 2507,
              "pitch": 57,
              "velocity": 110,
              "start": 1076.0,
              "duration": 0.7392578125
            },
            {
              "id": 2506,
              "pitch": 50,
              "velocity": 110,
              "start": 1076.75,
              "duration": 0.2392578125
            },
            {
              "id": 2505,
              "pitch": 54,
              "velocity": 110,
              "start": 1076.75,
              "duration": 0.2392578125
            },
            {
              "id": 2504,
              "pitch": 57,
              "velocity": 110,
              "start": 1076.75,
              "duration": 0.2392578125
            },
            {
              "id": 2503,
              "pitch": 54,
              "velocity": 110,
              "start": 1077.0,
              "duration": 0.4892578125
            },
            {
              "id": 2502,
              "pitch": 50,
              "velocity": 110,
              "start": 1077.5,
              "duration": 0.4892578125
            },
            {
              "id": 2501,
              "pitch": 54,
              "velocity": 110,
              "start": 1077.5,
              "duration": 0.4892578125
            },
            {
              "id": 2500,
              "pitch": 57,
              "velocity": 110,
              "start": 1077.5,
              "duration": 0.4892578125
            },
            {
              "id": 2499,
              "pitch": 83,
              "velocity": 110,
              "start": 1078.0,
              "duration": 0.8330078125
            },
            {
              "id": 2498,
              "pitch": 53,
              "velocity": 110,
              "start": 1078.0,
              "duration": 0.4892578125
            },
            {
              "id": 2497,
              "pitch": 50,
              "velocity": 110,
              "start": 1078.5,
              "duration": 0.4892578125
            },
            {
              "id": 2496,
              "pitch": 53,
              "velocity": 110,
              "start": 1078.5,
              "duration": 0.4892578125
            },
            {
              "id": 2495,
              "pitch": 56,
              "velocity": 110,
              "start": 1078.5,
              "duration": 0.4892578125
            },
            {
              "id": 2494,
              "pitch": 78,
              "velocity": 110,
              "start": 1079.0,
              "duration": 0.8330078125
            },
            {
              "id": 2493,
              "pitch": 53,
              "velocity": 110,
              "start": 1079.0,
              "duration": 0.2392578125
            },
            {
              "id": 2492,
              "pitch": 50,
              "velocity": 110,
              "start": 1079.25,
              "duration": 0.7392578125
            },
            {
              "id": 2491,
              "pitch": 53,
              "velocity": 110,
              "start": 1079.25,
              "duration": 0.7392578125
            },
            {
              "id": 2490,
              "pitch": 56,
              "velocity": 110,
              "start": 1079.25,
              "duration": 0.7392578125
            },
            {
              "id": 2489,
              "pitch": 79,
              "velocity": 110,
              "start": 1080.0,
              "duration": 1.75
            },
            {
              "id": 2488,
              "pitch": 52,
              "velocity": 110,
              "start": 1080.0,
              "duration": 0.7392578125
            },
            {
              "id": 2487,
              "pitch": 45,
              "velocity": 110,
              "start": 1080.75,
              "duration": 0.2392578125
            },
            {
              "id": 2486,
              "pitch": 49,
              "velocity": 110,
              "start": 1080.75,
              "duration": 0.2392578125
            },
            {
              "id": 2485,
              "pitch": 55,
              "velocity": 110,
              "start": 1080.75,
              "duration": 0.2392578125
            },
            {
              "id": 2484,
              "pitch": 52,
              "velocity": 110,
              "start": 1081.0,
              "duration": 0.4892578125
            },
            {
              "id": 2483,
              "pitch": 45,
              "velocity": 110,
              "start": 1081.5,
              "duration": 0.4892578125
            },
            {
              "id": 2482,
              "pitch": 49,
              "velocity": 110,
              "start": 1081.5,
              "duration": 0.4892578125
            },
            {
              "id": 2481,
              "pitch": 55,
              "velocity": 110,
              "start": 1081.5,
              "duration": 0.4892578125
            },
            {
              "id": 2480,
              "pitch": 81,
              "velocity": 110,
              "start": 1082.0,
              "duration": 1.75
            },
            {
              "id": 2479,
              "pitch": 45,
              "velocity": 110,
              "start": 1082.0,
              "duration": 0.8330078125
            },
            {
              "id": 2478,
              "pitch": 49,
              "velocity": 110,
              "start": 1082.0,
              "duration": 0.8330078125
            },
            {
              "id": 2477,
              "pitch": 51,
              "velocity": 110,
              "start": 1082.0,
              "duration": 0.8330078125
            },
            {
              "id": 2476,
              "pitch": 54,
              "velocity": 110,
              "start": 1082.0,
              "duration": 0.8330078125
            },
            {
              "id": 2475,
              "pitch": 51,
              "velocity": 110,
              "start": 1083.0,
              "duration": 0.8330078125
            },
            {
              "id": 2474,
              "pitch": 78,
              "velocity": 110,
              "start": 1084.0,
              "duration": 1.75
            },
            {
              "id": 2473,
              "pitch": 50,
              "velocity": 110,
              "start": 1084.0,
              "duration": 0.4892578125
            },
            {
              "id": 2472,
              "pitch": 45,
              "velocity": 110,
              "start": 1084.5,
              "duration": 0.4892578125
            },
            {
              "id": 2471,
              "pitch": 50,
              "velocity": 110,
              "start": 1084.5,
              "duration": 0.4892578125
            },
            {
              "id": 2470,
              "pitch": 54,
              "velocity": 110,
              "start": 1084.5,
              "duration": 0.4892578125
            },
            {
              "id": 2469,
              "pitch": 45,
              "velocity": 110,
              "start": 1085.0,
              "duration": 0.4892578125
            },
            {
              "id": 2468,
              "pitch": 45,
              "velocity": 110,
              "start": 1085.5,
              "duration": 0.4892578125
            },
            {
              "id": 2467,
              "pitch": 50,
              "velocity": 110,
              "start": 1085.5,
              "duration": 0.4892578125
            },
            {
              "id": 2466,
              "pitch": 54,
              "velocity": 110,
              "start": 1085.5,
              "duration": 0.4892578125
            },
            {
              "id": 2465,
              "pitch": 50,
              "velocity": 110,
              "start": 1086.0,
              "duration": 0.4892578125
            },
            {
              "id": 2464,
              "pitch": 81,
              "velocity": 110,
              "start": 1086.5,
              "duration": 0.4892578125
            },
            {
              "id": 2463,
              "pitch": 45,
              "velocity": 110,
              "start": 1086.5,
              "duration": 0.4892578125
            },
            {
              "id": 2462,
              "pitch": 50,
              "velocity": 110,
              "start": 1086.5,
              "duration": 0.4892578125
            },
            {
              "id": 2461,
              "pitch": 54,
              "velocity": 110,
              "start": 1086.5,
              "duration": 0.4892578125
            },
            {
              "id": 2460,
              "pitch": 83,
              "velocity": 110,
              "start": 1087.0,
              "duration": 0.4892578125
            },
            {
              "id": 2459,
              "pitch": 52,
              "velocity": 110,
              "start": 1087.0,
              "duration": 0.4892578125
            },
            {
              "id": 2458,
              "pitch": 85,
              "velocity": 110,
              "start": 1087.5,
              "duration": 0.4892578125
            },
            {
              "id": 2457,
              "pitch": 45,
              "velocity": 110,
              "start": 1087.5,
              "duration": 0.4892578125
            },
            {
              "id": 2456,
              "pitch": 50,
              "velocity": 110,
              "start": 1087.5,
              "duration": 0.4892578125
            },
            {
              "id": 2455,
              "pitch": 54,
              "velocity": 110,
              "start": 1087.5,
              "duration": 0.4892578125
            },
            {
              "id": 2454,
              "pitch": 86,
              "velocity": 110,
              "start": 1088.0,
              "duration": 1.75
            },
            {
              "id": 2453,
              "pitch": 43,
              "velocity": 110,
              "start": 1088.0,
              "duration": 0.8330078125
            },
            {
              "id": 2452,
              "pitch": 47,
              "velocity": 110,
              "start": 1088.0,
              "duration": 0.8330078125
            },
            {
              "id": 2451,
              "pitch": 50,
              "velocity": 110,
              "start": 1088.0,
              "duration": 0.8330078125
            },
            {
              "id": 2450,
              "pitch": 55,
              "velocity": 110,
              "start": 1088.0,
              "duration": 0.8330078125
            },
            {
              "id": 2449,
              "pitch": 55,
              "velocity": 110,
              "start": 1089.0,
              "duration": 0.8330078125
            },
            {
              "id": 2448,
              "pitch": 43,
              "velocity": 110,
              "start": 1090.0,
              "duration": 0.8330078125
            },
            {
              "id": 2447,
              "pitch": 46,
              "velocity": 110,
              "start": 1090.0,
              "duration": 0.8330078125
            },
            {
              "id": 2446,
              "pitch": 49,
              "velocity": 110,
              "start": 1090.0,
              "duration": 0.8330078125
            },
            {
              "id": 2445,
              "pitch": 55,
              "velocity": 110,
              "start": 1090.0,
              "duration": 0.8330078125
            },
            {
              "id": 2444,
              "pitch": 85,
              "velocity": 110,
              "start": 1090.5,
              "duration": 0.4892578125
            },
            {
              "id": 2443,
              "pitch": 86,
              "velocity": 110,
              "start": 1091.0,
              "duration": 0.4892578125
            },
            {
              "id": 2442,
              "pitch": 43,
              "velocity": 110,
              "start": 1091.0,
              "duration": 0.8330078125
            },
            {
              "id": 2441,
              "pitch": 46,
              "velocity": 110,
              "start": 1091.0,
              "duration": 0.8330078125
            },
            {
              "id": 2440,
              "pitch": 49,
              "velocity": 110,
              "start": 1091.0,
              "duration": 0.8330078125
            },
            {
              "id": 2439,
              "pitch": 55,
              "velocity": 110,
              "start": 1091.0,
              "duration": 0.8330078125
            },
            {
              "id": 2438,
              "pitch": 88,
              "velocity": 110,
              "start": 1091.5,
              "duration": 0.4892578125
            },
            {
              "id": 2437,
              "pitch": 90,
              "velocity": 110,
              "start": 1092.0,
              "duration": 1.75
            },
            {
              "id": 2436,
              "pitch": 54,
              "velocity": 110,
              "start": 1092.0,
              "duration": 0.4892578125
            },
            {
              "id": 2435,
              "pitch": 42,
              "velocity": 110,
              "start": 1092.5,
              "duration": 0.4892578125
            },
            {
              "id": 2434,
              "pitch": 45,
              "velocity": 110,
              "start": 1092.5,
              "duration": 0.4892578125
            },
            {
              "id": 2433,
              "pitch": 50,
              "velocity": 110,
              "start": 1092.5,
              "duration": 0.4892578125
            },
            {
              "id": 2432,
              "pitch": 49,
              "velocity": 110,
              "start": 1093.0,
              "duration": 0.4892578125
            },
            {
              "id": 2431,
              "pitch": 51,
              "velocity": 110,
              "start": 1093.5,
              "duration": 0.4892578125
            },
            {
              "id": 2430,
              "pitch": 81,
              "velocity": 110,
              "start": 1094.0,
              "duration": 0.8330078125
            },
            {
              "id": 2429,
              "pitch": 42,
              "velocity": 110,
              "start": 1094.0,
              "duration": 0.8330078125
            },
            {
              "id": 2428,
              "pitch": 45,
              "velocity": 110,
              "start": 1094.0,
              "duration": 0.8330078125
            },
            {
              "id": 2427,
              "pitch": 50,
              "velocity": 110,
              "start": 1094.0,
              "duration": 0.8330078125
            },
            {
              "id": 2426,
              "pitch": 54,
              "velocity": 110,
              "start": 1094.0,
              "duration": 0.8330078125
            },
            {
              "id": 2425,
              "pitch": 90,
              "velocity": 110,
              "start": 1095.0,
              "duration": 0.8330078125
            },
            {
              "id": 2424,
              "pitch": 42,
              "velocity": 110,
              "start": 1095.0,
              "duration": 0.8330078125
            },
            {
              "id": 2423,
              "pitch": 45,
              "velocity": 110,
              "start": 1095.0,
              "duration": 0.8330078125
            },
            {
              "id": 2422,
              "pitch": 50,
              "velocity": 110,
              "start": 1095.0,
              "duration": 0.8330078125
            },
            {
              "id": 2421,
              "pitch": 54,
              "velocity": 110,
              "start": 1095.0,
              "duration": 0.8330078125
            },
            {
              "id": 2420,
              "pitch": 88,
              "velocity": 110,
              "start": 1096.0,
              "duration": 1.75
            },
            {
              "id": 2419,
              "pitch": 52,
              "velocity": 110,
              "start": 1096.0,
              "duration": 0.4892578125
            },
            {
              "id": 2418,
              "pitch": 43,
              "velocity": 110,
              "start": 1096.5,
              "duration": 0.4892578125
            },
            {
              "id": 2417,
              "pitch": 47,
              "velocity": 110,
              "start": 1096.5,
              "duration": 0.4892578125
            },
            {
              "id": 2416,
              "pitch": 50,
              "velocity": 110,
              "start": 1096.5,
              "duration": 0.4892578125
            },
            {
              "id": 2415,
              "pitch": 52,
              "velocity": 110,
              "start": 1097.0,
              "duration": 0.4892578125
            },
            {
              "id": 2414,
              "pitch": 43,
              "velocity": 110,
              "start": 1097.5,
              "duration": 0.4892578125
            },
            {
              "id": 2413,
              "pitch": 47,
              "velocity": 110,
              "start": 1097.5,
              "duration": 0.4892578125
            },
            {
              "id": 2412,
              "pitch": 50,
              "velocity": 110,
              "start": 1097.5,
              "duration": 0.4892578125
            },
            {
              "id": 2411,
              "pitch": 86,
              "velocity": 110,
              "start": 1098.0,
              "duration": 0.8330078125
            },
            {
              "id": 2410,
              "pitch": 50,
              "velocity": 110,
              "start": 1098.0,
              "duration": 0.4892578125
            },
            {
              "id": 2409,
              "pitch": 43,
              "velocity": 110,
              "start": 1098.5,
              "duration": 0.4892578125
            },
            {
              "id": 2408,
              "pitch": 47,
              "velocity": 110,
              "start": 1098.5,
              "duration": 0.4892578125
            },
            {
              "id": 2407,
              "pitch": 50,
              "velocity": 110,
              "start": 1098.5,
              "duration": 0.4892578125
            },
            {
              "id": 2406,
              "pitch": 85,
              "velocity": 110,
              "start": 1099.0,
              "duration": 0.8330078125
            },
            {
              "id": 2405,
              "pitch": 50,
              "velocity": 110,
              "start": 1099.0,
              "duration": 0.4892578125
            },
            {
              "id": 2404,
              "pitch": 43,
              "velocity": 110,
              "start": 1099.5,
              "duration": 0.4892578125
            },
            {
              "id": 2403,
              "pitch": 46,
              "velocity": 110,
              "start": 1099.5,
              "duration": 0.4892578125
            },
            {
              "id": 2402,
              "pitch": 50,
              "velocity": 110,
              "start": 1099.5,
              "duration": 0.4892578125
            },
            {
              "id": 2401,
              "pitch": 86,
              "velocity": 110,
              "start": 1100.0,
              "duration": 3.75
            },
            {
              "id": 2400,
              "pitch": 42,
              "velocity": 110,
              "start": 1100.0,
              "duration": 0.8330078125
            },
            {
              "id": 2399,
              "pitch": 45,
              "velocity": 110,
              "start": 1100.0,
              "duration": 0.8330078125
            },
            {
              "id": 2398,
              "pitch": 50,
              "velocity": 110,
              "start": 1100.0,
              "duration": 0.8330078125
            },
            {
              "id": 2397,
              "pitch": 45,
              "velocity": 110,
              "start": 1101.0,
              "duration": 0.8330078125
            },
            {
              "id": 2396,
              "pitch": 50,
              "velocity": 110,
              "start": 1102.0,
              "duration": 0.4892578125
            },
            {
              "id": 2395,
              "pitch": 42,
              "velocity": 110,
              "start": 1102.5,
              "duration": 0.4892578125
            },
            {
              "id": 2394,
              "pitch": 45,
              "velocity": 110,
              "start": 1102.5,
              "duration": 0.4892578125
            },
            {
              "id": 2393,
              "pitch": 50,
              "velocity": 110,
              "start": 1102.5,
              "duration": 0.4892578125
            },
            {
              "id": 2392,
              "pitch": 45,
              "velocity": 110,
              "start": 1103.0,
              "duration": 0.2392578125
            },
            {
              "id": 2391,
              "pitch": 42,
              "velocity": 110,
              "start": 1103.25,
              "duration": 0.7392578125
            },
            {
              "id": 2390,
              "pitch": 45,
              "velocity": 110,
              "start": 1103.25,
              "duration": 0.7392578125
            },
            {
              "id": 2389,
              "pitch": 50,
              "velocity": 110,
              "start": 1103.25,
              "duration": 0.7392578125
            },
            {
              "id": 2388,
              "pitch": 61,
              "velocity": 110,
              "start": 1104.0,
              "duration": 0.2392578125
            },
            {
              "id": 2387,
              "pitch": 50,
              "velocity": 110,
              "start": 1104.0,
              "duration": 0.4892578125
            },
            {
              "id": 2386,
              "pitch": 62,
              "velocity": 110,
              "start": 1104.25,
              "duration": 0.2392578125
            },
            {
              "id": 2385,
              "pitch": 61,
              "velocity": 110,
              "start": 1104.5,
              "duration": 0.2392578125
            },
            {
              "id": 2384,
              "pitch": 45,
              "velocity": 110,
              "start": 1104.5,
              "duration": 0.4892578125
            },
            {
              "id": 2383,
              "pitch": 50,
              "velocity": 110,
              "start": 1104.5,
              "duration": 0.4892578125
            },
            {
              "id": 2382,
              "pitch": 54,
              "velocity": 110,
              "start": 1104.5,
              "duration": 0.4892578125
            },
            {
              "id": 2381,
              "pitch": 62,
              "velocity": 110,
              "start": 1104.75,
              "duration": 0.2392578125
            },
            {
              "id": 2380,
              "pitch": 64,
              "velocity": 110,
              "start": 1105.0,
              "duration": 0.2392578125
            },
            {
              "id": 2379,
              "pitch": 49,
              "velocity": 110,
              "start": 1105.0,
              "duration": 0.4892578125
            },
            {
              "id": 2378,
              "pitch": 62,
              "velocity": 110,
              "start": 1105.25,
              "duration": 0.2392578125
            },
            {
              "id": 2377,
              "pitch": 61,
              "velocity": 110,
              "start": 1105.5,
              "duration": 0.2392578125
            },
            {
              "id": 2376,
              "pitch": 45,
              "velocity": 110,
              "start": 1105.5,
              "duration": 0.4892578125
            },
            {
              "id": 2375,
              "pitch": 50,
              "velocity": 110,
              "start": 1105.5,
              "duration": 0.4892578125
            },
            {
              "id": 2374,
              "pitch": 54,
              "velocity": 110,
              "start": 1105.5,
              "duration": 0.4892578125
            },
            {
              "id": 2373,
              "pitch": 62,
              "velocity": 110,
              "start": 1105.75,
              "duration": 0.2392578125
            },
            {
              "id": 2372,
              "pitch": 61,
              "velocity": 110,
              "start": 1106.0,
              "duration": 0.2392578125
            },
            {
              "id": 2371,
              "pitch": 47,
              "velocity": 110,
              "start": 1106.0,
              "duration": 0.4892578125
            },
            {
              "id": 2370,
              "pitch": 62,
              "velocity": 110,
              "start": 1106.25,
              "duration": 0.2392578125
            },
            {
              "id": 2369,
              "pitch": 61,
              "velocity": 110,
              "start": 1106.5,
              "duration": 0.2392578125
            },
            {
              "id": 2368,
              "pitch": 45,
              "velocity": 110,
              "start": 1106.5,
              "duration": 0.4892578125
            },
            {
              "id": 2367,
              "pitch": 50,
              "velocity": 110,
              "start": 1106.5,
              "duration": 0.4892578125
            },
            {
              "id": 2366,
              "pitch": 54,
              "velocity": 110,
              "start": 1106.5,
              "duration": 0.4892578125
            },
            {
              "id": 2365,
              "pitch": 62,
              "velocity": 110,
              "start": 1106.75,
              "duration": 0.2392578125
            },
            {
              "id": 2364,
              "pitch": 64,
              "velocity": 110,
              "start": 1107.0,
              "duration": 0.2392578125
            },
            {
              "id": 2363,
              "pitch": 45,
              "velocity": 110,
              "start": 1107.0,
              "duration": 0.4892578125
            },
            {
              "id": 2362,
              "pitch": 62,
              "velocity": 110,
              "start": 1107.25,
              "duration": 0.2392578125
            },
            {
              "id": 2361,
              "pitch": 61,
              "velocity": 110,
              "start": 1107.5,
              "duration": 0.2392578125
            },
            {
              "id": 2360,
              "pitch": 45,
              "velocity": 110,
              "start": 1107.5,
              "duration": 0.4892578125
            },
            {
              "id": 2359,
              "pitch": 50,
              "velocity": 110,
              "start": 1107.5,
              "duration": 0.4892578125
            },
            {
              "id": 2358,
              "pitch": 54,
              "velocity": 110,
              "start": 1107.5,
              "duration": 0.4892578125
            },
            {
              "id": 2357,
              "pitch": 62,
              "velocity": 110,
              "start": 1107.75,
              "duration": 0.2392578125
            },
            {
              "id": 2356,
              "pitch": 61,
              "velocity": 110,
              "start": 1108.0,
              "duration": 0.2392578125
            },
            {
              "id": 2355,
              "pitch": 50,
              "velocity": 110,
              "start": 1108.0,
              "duration": 0.4892578125
            },
            {
              "id": 2354,
              "pitch": 62,
              "velocity": 110,
              "start": 1108.25,
              "duration": 0.2392578125
            },
            {
              "id": 2353,
              "pitch": 61,
              "velocity": 110,
              "start": 1108.5,
              "duration": 0.2392578125
            },
            {
              "id": 2352,
              "pitch": 45,
              "velocity": 110,
              "start": 1108.5,
              "duration": 0.4892578125
            },
            {
              "id": 2351,
              "pitch": 50,
              "velocity": 110,
              "start": 1108.5,
              "duration": 0.4892578125
            },
            {
              "id": 2350,
              "pitch": 54,
              "velocity": 110,
              "start": 1108.5,
              "duration": 0.4892578125
            },
            {
              "id": 2349,
              "pitch": 62,
              "velocity": 110,
              "start": 1108.75,
              "duration": 0.2392578125
            },
            {
              "id": 2348,
              "pitch": 67,
              "velocity": 110,
              "start": 1109.0,
              "duration": 0.2392578125
            },
            {
              "id": 2347,
              "pitch": 45,
              "velocity": 110,
              "start": 1109.0,
              "duration": 0.4892578125
            },
            {
              "id": 2346,
              "pitch": 62,
              "velocity": 110,
              "start": 1109.25,
              "duration": 0.2392578125
            },
            {
              "id": 2345,
              "pitch": 61,
              "velocity": 110,
              "start": 1109.5,
              "duration": 0.2392578125
            },
            {
              "id": 2344,
              "pitch": 45,
              "velocity": 110,
              "start": 1109.5,
              "duration": 0.4892578125
            },
            {
              "id": 2343,
              "pitch": 50,
              "velocity": 110,
              "start": 1109.5,
              "duration": 0.4892578125
            },
            {
              "id": 2342,
              "pitch": 54,
              "velocity": 110,
              "start": 1109.5,
              "duration": 0.4892578125
            },
            {
              "id": 2341,
              "pitch": 62,
              "velocity": 110,
              "start": 1109.75,
              "duration": 0.2392578125
            },
            {
              "id": 2340,
              "pitch": 69,
              "velocity": 110,
              "start": 1110.0,
              "duration": 0.2392578125
            },
            {
              "id": 2339,
              "pitch": 50,
              "velocity": 110,
              "start": 1110.0,
              "duration": 0.4892578125
            },
            {
              "id": 2338,
              "pitch": 62,
              "velocity": 110,
              "start": 1110.25,
              "duration": 0.2392578125
            },
            {
              "id": 2337,
              "pitch": 61,
              "velocity": 110,
              "start": 1110.5,
              "duration": 0.2392578125
            },
            {
              "id": 2336,
              "pitch": 45,
              "velocity": 110,
              "start": 1110.5,
              "duration": 0.4892578125
            },
            {
              "id": 2335,
              "pitch": 50,
              "velocity": 110,
              "start": 1110.5,
              "duration": 0.4892578125
            },
            {
              "id": 2334,
              "pitch": 54,
              "velocity": 110,
              "start": 1110.5,
              "duration": 0.4892578125
            },
            {
              "id": 2333,
              "pitch": 62,
              "velocity": 110,
              "start": 1110.75,
              "duration": 0.2392578125
            },
            {
              "id": 2332,
              "pitch": 67,
              "velocity": 110,
              "start": 1111.0,
              "duration": 0.2392578125
            },
            {
              "id": 2331,
              "pitch": 52,
              "velocity": 110,
              "start": 1111.0,
              "duration": 0.4892578125
            },
            {
              "id": 2330,
              "pitch": 62,
              "velocity": 110,
              "start": 1111.25,
              "duration": 0.2392578125
            },
            {
              "id": 2329,
              "pitch": 61,
              "velocity": 110,
              "start": 1111.5,
              "duration": 0.2392578125
            },
            {
              "id": 2328,
              "pitch": 45,
              "velocity": 110,
              "start": 1111.5,
              "duration": 0.4892578125
            },
            {
              "id": 2327,
              "pitch": 50,
              "velocity": 110,
              "start": 1111.5,
              "duration": 0.4892578125
            },
            {
              "id": 2326,
              "pitch": 54,
              "velocity": 110,
              "start": 1111.5,
              "duration": 0.4892578125
            },
            {
              "id": 2325,
              "pitch": 62,
              "velocity": 110,
              "start": 1111.75,
              "duration": 0.2392578125
            },
            {
              "id": 2324,
              "pitch": 61,
              "velocity": 110,
              "start": 1112.0,
              "duration": 0.2392578125
            },
            {
              "id": 2323,
              "pitch": 47,
              "velocity": 110,
              "start": 1112.0,
              "duration": 0.8330078125
            },
            {
              "id": 2322,
              "pitch": 50,
              "velocity": 110,
              "start": 1112.0,
              "duration": 0.8330078125
            },
            {
              "id": 2321,
              "pitch": 55,
              "velocity": 110,
              "start": 1112.0,
              "duration": 0.8330078125
            },
            {
              "id": 2320,
              "pitch": 62,
              "velocity": 110,
              "start": 1112.25,
              "duration": 0.2392578125
            },
            {
              "id": 2319,
              "pitch": 61,
              "velocity": 110,
              "start": 1112.5,
              "duration": 0.2392578125
            },
            {
              "id": 2318,
              "pitch": 62,
              "velocity": 110,
              "start": 1112.75,
              "duration": 0.2392578125
            },
            {
              "id": 2317,
              "pitch": 64,
              "velocity": 110,
              "start": 1113.0,
              "duration": 0.2392578125
            },
            {
              "id": 2316,
              "pitch": 54,
              "velocity": 110,
              "start": 1113.0,
              "duration": 0.4892578125
            },
            {
              "id": 2315,
              "pitch": 62,
              "velocity": 110,
              "start": 1113.25,
              "duration": 0.2392578125
            },
            {
              "id": 2314,
              "pitch": 61,
              "velocity": 110,
              "start": 1113.5,
              "duration": 0.2392578125
            },
            {
              "id": 2313,
              "pitch": 47,
              "velocity": 110,
              "start": 1113.5,
              "duration": 0.4892578125
            },
            {
              "id": 2312,
              "pitch": 50,
              "velocity": 110,
              "start": 1113.5,
              "duration": 0.4892578125
            },
            {
              "id": 2311,
              "pitch": 55,
              "velocity": 110,
              "start": 1113.5,
              "duration": 0.4892578125
            },
            {
              "id": 2310,
              "pitch": 62,
              "velocity": 110,
              "start": 1113.75,
              "duration": 0.2392578125
            },
            {
              "id": 2309,
              "pitch": 61,
              "velocity": 110,
              "start": 1114.0,
              "duration": 0.2392578125
            },
            {
              "id": 2308,
              "pitch": 52,
              "velocity": 110,
              "start": 1114.0,
              "duration": 0.4892578125
            },
            {
              "id": 2307,
              "pitch": 62,
              "velocity": 110,
              "start": 1114.25,
              "duration": 0.2392578125
            },
            {
              "id": 2306,
              "pitch": 61,
              "velocity": 110,
              "start": 1114.5,
              "duration": 0.2392578125
            },
            {
              "id": 2305,
              "pitch": 47,
              "velocity": 110,
              "start": 1114.5,
              "duration": 0.4892578125
            },
            {
              "id": 2304,
              "pitch": 50,
              "velocity": 110,
              "start": 1114.5,
              "duration": 0.4892578125
            },
            {
              "id": 2303,
              "pitch": 55,
              "velocity": 110,
              "start": 1114.5,
              "duration": 0.4892578125
            },
            {
              "id": 2302,
              "pitch": 62,
              "velocity": 110,
              "start": 1114.75,
              "duration": 0.2392578125
            },
            {
              "id": 2301,
              "pitch": 64,
              "velocity": 110,
              "start": 1115.0,
              "duration": 0.2392578125
            },
            {
              "id": 2300,
              "pitch": 50,
              "velocity": 110,
              "start": 1115.0,
              "duration": 0.4892578125
            },
            {
              "id": 2299,
              "pitch": 62,
              "velocity": 110,
              "start": 1115.25,
              "duration": 0.2392578125
            },
            {
              "id": 2298,
              "pitch": 61,
              "velocity": 110,
              "start": 1115.5,
              "duration": 0.2392578125
            },
            {
              "id": 2297,
              "pitch": 47,
              "velocity": 110,
              "start": 1115.5,
              "duration": 0.4892578125
            },
            {
              "id": 2296,
              "pitch": 50,
              "velocity": 110,
              "start": 1115.5,
              "duration": 0.4892578125
            },
            {
              "id": 2295,
              "pitch": 55,
              "velocity": 110,
              "start": 1115.5,
              "duration": 0.4892578125
            },
            {
              "id": 2294,
              "pitch": 62,
              "velocity": 110,
              "start": 1115.75,
              "duration": 0.2392578125
            },
            {
              "id": 2293,
              "pitch": 61,
              "velocity": 110,
              "start": 1116.0,
              "duration": 0.2392578125
            },
            {
              "id": 2292,
              "pitch": 55,
              "velocity": 110,
              "start": 1116.0,
              "duration": 0.4892578125
            },
            {
              "id": 2291,
              "pitch": 62,
              "velocity": 110,
              "start": 1116.25,
              "duration": 0.2392578125
            },
            {
              "id": 2290,
              "pitch": 61,
              "velocity": 110,
              "start": 1116.5,
              "duration": 0.2392578125
            },
            {
              "id": 2289,
              "pitch": 47,
              "velocity": 110,
              "start": 1116.5,
              "duration": 0.4892578125
            },
            {
              "id": 2288,
              "pitch": 50,
              "velocity": 110,
              "start": 1116.5,
              "duration": 0.4892578125
            },
            {
              "id": 2287,
              "pitch": 55,
              "velocity": 110,
              "start": 1116.5,
              "duration": 0.4892578125
            },
            {
              "id": 2286,
              "pitch": 62,
              "velocity": 110,
              "start": 1116.75,
              "duration": 0.2392578125
            },
            {
              "id": 2285,
              "pitch": 67,
              "velocity": 110,
              "start": 1117.0,
              "duration": 0.2392578125
            },
            {
              "id": 2284,
              "pitch": 50,
              "velocity": 110,
              "start": 1117.0,
              "duration": 0.4892578125
            },
            {
              "id": 2283,
              "pitch": 62,
              "velocity": 110,
              "start": 1117.25,
              "duration": 0.2392578125
            },
            {
              "id": 2282,
              "pitch": 61,
              "velocity": 110,
              "start": 1117.5,
              "duration": 0.2392578125
            },
            {
              "id": 2281,
              "pitch": 47,
              "velocity": 110,
              "start": 1117.5,
              "duration": 0.4892578125
            },
            {
              "id": 2280,
              "pitch": 50,
              "velocity": 110,
              "start": 1117.5,
              "duration": 0.4892578125
            },
            {
              "id": 2279,
              "pitch": 55,
              "velocity": 110,
              "start": 1117.5,
              "duration": 0.4892578125
            },
            {
              "id": 2278,
              "pitch": 62,
              "velocity": 110,
              "start": 1117.75,
              "duration": 0.2392578125
            },
            {
              "id": 2277,
              "pitch": 69,
              "velocity": 110,
              "start": 1118.0,
              "duration": 0.2392578125
            },
            {
              "id": 2276,
              "pitch": 55,
              "velocity": 110,
              "start": 1118.0,
              "duration": 0.4892578125
            },
            {
              "id": 2275,
              "pitch": 62,
              "velocity": 110,
              "start": 1118.25,
              "duration": 0.2392578125
            },
            {
              "id": 2274,
              "pitch": 61,
              "velocity": 110,
              "start": 1118.5,
              "duration": 0.2392578125
            },
            {
              "id": 2273,
              "pitch": 47,
              "velocity": 110,
              "start": 1118.5,
              "duration": 0.2392578125
            },
            {
              "id": 2272,
              "pitch": 50,
              "velocity": 110,
              "start": 1118.5,
              "duration": 0.2392578125
            },
            {
              "id": 2271,
              "pitch": 55,
              "velocity": 110,
              "start": 1118.5,
              "duration": 0.2392578125
            },
            {
              "id": 2270,
              "pitch": 62,
              "velocity": 110,
              "start": 1118.75,
              "duration": 0.2392578125
            },
            {
              "id": 2269,
              "pitch": 55,
              "velocity": 110,
              "start": 1118.75,
              "duration": 0.2392578125
            },
            {
              "id": 2268,
              "pitch": 67,
              "velocity": 110,
              "start": 1119.0,
              "duration": 0.2392578125
            },
            {
              "id": 2267,
              "pitch": 54,
              "velocity": 110,
              "start": 1119.0,
              "duration": 0.4892578125
            },
            {
              "id": 2266,
              "pitch": 62,
              "velocity": 110,
              "start": 1119.25,
              "duration": 0.2392578125
            },
            {
              "id": 2265,
              "pitch": 61,
              "velocity": 110,
              "start": 1119.5,
              "duration": 0.2392578125
            },
            {
              "id": 2264,
              "pitch": 47,
              "velocity": 110,
              "start": 1119.5,
              "duration": 0.4892578125
            },
            {
              "id": 2263,
              "pitch": 50,
              "velocity": 110,
              "start": 1119.5,
              "duration": 0.4892578125
            },
            {
              "id": 2262,
              "pitch": 52,
              "velocity": 110,
              "start": 1119.5,
              "duration": 0.4892578125
            },
            {
              "id": 2261,
              "pitch": 55,
              "velocity": 110,
              "start": 1119.5,
              "duration": 0.4892578125
            },
            {
              "id": 2260,
              "pitch": 62,
              "velocity": 110,
              "start": 1119.75,
              "duration": 0.2392578125
            },
            {
              "id": 2259,
              "pitch": 74,
              "velocity": 110,
              "start": 1120.0,
              "duration": 0.8330078125
            },
            {
              "id": 2258,
              "pitch": 79,
              "velocity": 110,
              "start": 1120.0,
              "duration": 0.8330078125
            },
            {
              "id": 2257,
              "pitch": 81,
              "velocity": 110,
              "start": 1120.0,
              "duration": 0.8330078125
            },
            {
              "id": 2256,
              "pitch": 45,
              "velocity": 110,
              "start": 1120.0,
              "duration": 0.7392578125
            },
            {
              "id": 2255,
              "pitch": 50,
              "velocity": 110,
              "start": 1120.0,
              "duration": 0.7392578125
            },
            {
              "id": 2254,
              "pitch": 54,
              "velocity": 110,
              "start": 1120.0,
              "duration": 0.7392578125
            },
            {
              "id": 2253,
              "pitch": 45,
              "velocity": 110,
              "start": 1120.75,
              "duration": 0.2392578125
            },
            {
              "id": 2252,
              "pitch": 50,
              "velocity": 110,
              "start": 1120.75,
              "duration": 0.2392578125
            },
            {
              "id": 2251,
              "pitch": 54,
              "velocity": 110,
              "start": 1120.75,
              "duration": 0.2392578125
            },
            {
              "id": 2250,
              "pitch": 49,
              "velocity": 110,
              "start": 1121.0,
              "duration": 0.4892578125
            },
            {
              "id": 2249,
              "pitch": 45,
              "velocity": 110,
              "start": 1121.5,
              "duration": 0.4892578125
            },
            {
              "id": 2248,
              "pitch": 50,
              "velocity": 110,
              "start": 1121.5,
              "duration": 0.4892578125
            },
            {
              "id": 2247,
              "pitch": 54,
              "velocity": 110,
              "start": 1121.5,
              "duration": 0.4892578125
            },
            {
              "id": 2246,
              "pitch": 74,
              "velocity": 110,
              "start": 1122.0,
              "duration": 0.8330078125
            },
            {
              "id": 2245,
              "pitch": 79,
              "velocity": 110,
              "start": 1122.0,
              "duration": 0.8330078125
            },
            {
              "id": 2244,
              "pitch": 81,
              "velocity": 110,
              "start": 1122.0,
              "duration": 0.8330078125
            },
            {
              "id": 2243,
              "pitch": 47,
              "velocity": 110,
              "start": 1122.0,
              "duration": 0.4892578125
            },
            {
              "id": 2242,
              "pitch": 45,
              "velocity": 110,
              "start": 1122.5,
              "duration": 0.4892578125
            },
            {
              "id": 2241,
              "pitch": 50,
              "velocity": 110,
              "start": 1122.5,
              "duration": 0.4892578125
            },
            {
              "id": 2240,
              "pitch": 54,
              "velocity": 110,
              "start": 1122.5,
              "duration": 0.4892578125
            },
            {
              "id": 2239,
              "pitch": 45,
              "velocity": 110,
              "start": 1123.0,
              "duration": 0.4892578125
            },
            {
              "id": 2238,
              "pitch": 45,
              "velocity": 110,
              "start": 1123.5,
              "duration": 0.4892578125
            },
            {
              "id": 2237,
              "pitch": 50,
              "velocity": 110,
              "start": 1123.5,
              "duration": 0.4892578125
            },
            {
              "id": 2236,
              "pitch": 54,
              "velocity": 110,
              "start": 1123.5,
              "duration": 0.4892578125
            },
            {
              "id": 2235,
              "pitch": 74,
              "velocity": 110,
              "start": 1124.0,
              "duration": 0.8330078125
            },
            {
              "id": 2234,
              "pitch": 79,
              "velocity": 110,
              "start": 1124.0,
              "duration": 0.8330078125
            },
            {
              "id": 2233,
              "pitch": 81,
              "velocity": 110,
              "start": 1124.0,
              "duration": 0.8330078125
            },
            {
              "id": 2232,
              "pitch": 45,
              "velocity": 110,
              "start": 1124.0,
              "duration": 0.8330078125
            },
            {
              "id": 2231,
              "pitch": 50,
              "velocity": 110,
              "start": 1124.0,
              "duration": 0.8330078125
            },
            {
              "id": 2230,
              "pitch": 54,
              "velocity": 110,
              "start": 1124.0,
              "duration": 0.8330078125
            },
            {
              "id": 2229,
              "pitch": 78,
              "velocity": 110,
              "start": 1125.0,
              "duration": 0.8330078125
            },
            {
              "id": 2228,
              "pitch": 45,
              "velocity": 110,
              "start": 1125.0,
              "duration": 0.4892578125
            },
            {
              "id": 2227,
              "pitch": 45,
              "velocity": 110,
              "start": 1125.5,
              "duration": 0.4892578125
            },
            {
              "id": 2226,
              "pitch": 50,
              "velocity": 110,
              "start": 1125.5,
              "duration": 0.4892578125
            },
            {
              "id": 2225,
              "pitch": 54,
              "velocity": 110,
              "start": 1125.5,
              "duration": 0.4892578125
            },
            {
              "id": 2224,
              "pitch": 76,
              "velocity": 110,
              "start": 1126.0,
              "duration": 0.8330078125
            },
            {
              "id": 2223,
              "pitch": 50,
              "velocity": 110,
              "start": 1126.0,
              "duration": 0.4892578125
            },
            {
              "id": 2222,
              "pitch": 45,
              "velocity": 110,
              "start": 1126.5,
              "duration": 0.4892578125
            },
            {
              "id": 2221,
              "pitch": 50,
              "velocity": 110,
              "start": 1126.5,
              "duration": 0.4892578125
            },
            {
              "id": 2220,
              "pitch": 54,
              "velocity": 110,
              "start": 1126.5,
              "duration": 0.4892578125
            },
            {
              "id": 2219,
              "pitch": 75,
              "velocity": 110,
              "start": 1127.0,
              "duration": 0.8330078125
            },
            {
              "id": 2218,
              "pitch": 52,
              "velocity": 110,
              "start": 1127.0,
              "duration": 0.4892578125
            },
            {
              "id": 2217,
              "pitch": 45,
              "velocity": 110,
              "start": 1127.5,
              "duration": 0.4892578125
            },
            {
              "id": 2216,
              "pitch": 50,
              "velocity": 110,
              "start": 1127.5,
              "duration": 0.4892578125
            },
            {
              "id": 2215,
              "pitch": 54,
              "velocity": 110,
              "start": 1127.5,
              "duration": 0.4892578125
            },
            {
              "id": 2214,
              "pitch": 67,
              "velocity": 110,
              "start": 1128.0,
              "duration": 0.8330078125
            },
            {
              "id": 2213,
              "pitch": 72,
              "velocity": 110,
              "start": 1128.0,
              "duration": 0.8330078125
            },
            {
              "id": 2212,
              "pitch": 74,
              "velocity": 110,
              "start": 1128.0,
              "duration": 0.8330078125
            },
            {
              "id": 2211,
              "pitch": 47,
              "velocity": 110,
              "start": 1128.0,
              "duration": 0.7392578125
            },
            {
              "id": 2210,
              "pitch": 50,
              "velocity": 110,
              "start": 1128.0,
              "duration": 0.7392578125
            },
            {
              "id": 2209,
              "pitch": 55,
              "velocity": 110,
              "start": 1128.0,
              "duration": 0.7392578125
            },
            {
              "id": 2208,
              "pitch": 47,
              "velocity": 110,
              "start": 1128.75,
              "duration": 0.2392578125
            },
            {
              "id": 2207,
              "pitch": 50,
              "velocity": 110,
              "start": 1128.75,
              "duration": 0.2392578125
            },
            {
              "id": 2206,
              "pitch": 55,
              "velocity": 110,
              "start": 1128.75,
              "duration": 0.2392578125
            },
            {
              "id": 2205,
              "pitch": 50,
              "velocity": 110,
              "start": 1129.0,
              "duration": 0.4892578125
            },
            {
              "id": 2204,
              "pitch": 47,
              "velocity": 110,
              "start": 1129.5,
              "duration": 0.4892578125
            },
            {
              "id": 2203,
              "pitch": 50,
              "velocity": 110,
              "start": 1129.5,
              "duration": 0.4892578125
            },
            {
              "id": 2202,
              "pitch": 55,
              "velocity": 110,
              "start": 1129.5,
              "duration": 0.4892578125
            },
            {
              "id": 2201,
              "pitch": 67,
              "velocity": 110,
              "start": 1130.0,
              "duration": 0.8330078125
            },
            {
              "id": 2200,
              "pitch": 72,
              "velocity": 110,
              "start": 1130.0,
              "duration": 0.8330078125
            },
            {
              "id": 2199,
              "pitch": 74,
              "velocity": 110,
              "start": 1130.0,
              "duration": 0.8330078125
            },
            {
              "id": 2198,
              "pitch": 55,
              "velocity": 110,
              "start": 1130.0,
              "duration": 0.4892578125
            },
            {
              "id": 2197,
              "pitch": 47,
              "velocity": 110,
              "start": 1130.5,
              "duration": 0.4892578125
            },
            {
              "id": 2196,
              "pitch": 50,
              "velocity": 110,
              "start": 1130.5,
              "duration": 0.4892578125
            },
            {
              "id": 2195,
              "pitch": 55,
              "velocity": 110,
              "start": 1130.5,
              "duration": 0.4892578125
            },
            {
              "id": 2194,
              "pitch": 50,
              "velocity": 110,
              "start": 1131.0,
              "duration": 0.4892578125
            },
            {
              "id": 2193,
              "pitch": 47,
              "velocity": 110,
              "start": 1131.5,
              "duration": 0.4892578125
            },
            {
              "id": 2192,
              "pitch": 50,
              "velocity": 110,
              "start": 1131.5,
              "duration": 0.4892578125
            },
            {
              "id": 2191,
              "pitch": 55,
              "velocity": 110,
              "start": 1131.5,
              "duration": 0.4892578125
            },
            {
              "id": 2190,
              "pitch": 67,
              "velocity": 110,
              "start": 1132.0,
              "duration": 0.8330078125
            },
            {
              "id": 2189,
              "pitch": 72,
              "velocity": 110,
              "start": 1132.0,
              "duration": 0.8330078125
            },
            {
              "id": 2188,
              "pitch": 74,
              "velocity": 110,
              "start": 1132.0,
              "duration": 0.8330078125
            },
            {
              "id": 2187,
              "pitch": 55,
              "velocity": 110,
              "start": 1132.0,
              "duration": 0.4892578125
            },
            {
              "id": 2186,
              "pitch": 47,
              "velocity": 110,
              "start": 1132.5,
              "duration": 0.4892578125
            },
            {
              "id": 2185,
              "pitch": 50,
              "velocity": 110,
              "start": 1132.5,
              "duration": 0.4892578125
            },
            {
              "id": 2184,
              "pitch": 55,
              "velocity": 110,
              "start": 1132.5,
              "duration": 0.4892578125
            },
            {
              "id": 2183,
              "pitch": 50,
              "velocity": 110,
              "start": 1133.0,
              "duration": 0.4892578125
            },
            {
              "id": 2182,
              "pitch": 67,
              "velocity": 110,
              "start": 1133.5,
              "duration": 0.2392578125
            },
            {
              "id": 2181,
              "pitch": 71,
              "velocity": 110,
              "start": 1133.5,
              "duration": 0.2392578125
            },
            {
              "id": 2180,
              "pitch": 47,
              "velocity": 110,
              "start": 1133.5,
              "duration": 0.4892578125
            },
            {
              "id": 2179,
              "pitch": 50,
              "velocity": 110,
              "start": 1133.5,
              "duration": 0.4892578125
            },
            {
              "id": 2178,
              "pitch": 55,
              "velocity": 110,
              "start": 1133.5,
              "duration": 0.4892578125
            },
            {
              "id": 2177,
              "pitch": 67,
              "velocity": 110,
              "start": 1133.75,
              "duration": 0.2392578125
            },
            {
              "id": 2176,
              "pitch": 72,
              "velocity": 110,
              "start": 1133.75,
              "duration": 0.2392578125
            },
            {
              "id": 2175,
              "pitch": 67,
              "velocity": 110,
              "start": 1134.0,
              "duration": 0.8330078125
            },
            {
              "id": 2174,
              "pitch": 72,
              "velocity": 110,
              "start": 1134.0,
              "duration": 0.8330078125
            },
            {
              "id": 2173,
              "pitch": 74,
              "velocity": 110,
              "start": 1134.0,
              "duration": 0.8330078125
            },
            {
              "id": 2172,
              "pitch": 55,
              "velocity": 110,
              "start": 1134.0,
              "duration": 0.4892578125
            },
            {
              "id": 2171,
              "pitch": 47,
              "velocity": 110,
              "start": 1134.5,
              "duration": 0.4892578125
            },
            {
              "id": 2170,
              "pitch": 50,
              "velocity": 110,
              "start": 1134.5,
              "duration": 0.4892578125
            },
            {
              "id": 2169,
              "pitch": 55,
              "velocity": 110,
              "start": 1134.5,
              "duration": 0.4892578125
            },
            {
              "id": 2168,
              "pitch": 67,
              "velocity": 110,
              "start": 1135.0,
              "duration": 0.8330078125
            },
            {
              "id": 2167,
              "pitch": 74,
              "velocity": 110,
              "start": 1135.0,
              "duration": 0.8330078125
            },
            {
              "id": 2166,
              "pitch": 76,
              "velocity": 110,
              "start": 1135.0,
              "duration": 0.8330078125
            },
            {
              "id": 2165,
              "pitch": 54,
              "velocity": 110,
              "start": 1135.0,
              "duration": 0.4892578125
            },
            {
              "id": 2164,
              "pitch": 47,
              "velocity": 110,
              "start": 1135.5,
              "duration": 0.4892578125
            },
            {
              "id": 2163,
              "pitch": 50,
              "velocity": 110,
              "start": 1135.5,
              "duration": 0.4892578125
            },
            {
              "id": 2162,
              "pitch": 55,
              "velocity": 110,
              "start": 1135.5,
              "duration": 0.4892578125
            },
            {
              "id": 2161,
              "pitch": 69,
              "velocity": 110,
              "start": 1136.0,
              "duration": 0.8330078125
            },
            {
              "id": 2160,
              "pitch": 72,
              "velocity": 110,
              "start": 1136.0,
              "duration": 0.8330078125
            },
            {
              "id": 2159,
              "pitch": 74,
              "velocity": 110,
              "start": 1136.0,
              "duration": 0.8330078125
            },
            {
              "id": 2158,
              "pitch": 42,
              "velocity": 110,
              "start": 1136.0,
              "duration": 0.8330078125
            },
            {
              "id": 2157,
              "pitch": 45,
              "velocity": 110,
              "start": 1136.0,
              "duration": 0.8330078125
            },
            {
              "id": 2156,
              "pitch": 50,
              "velocity": 110,
              "start": 1136.0,
              "duration": 0.8330078125
            },
            {
              "id": 2155,
              "pitch": 45,
              "velocity": 110,
              "start": 1137.0,
              "duration": 0.8330078125
            },
            {
              "id": 2154,
              "pitch": 74,
              "velocity": 110,
              "start": 1137.5,
              "duration": 0.4892578125
            },
            {
              "id": 2153,
              "pitch": 69,
              "velocity": 110,
              "start": 1138.0,
              "duration": 0.8330078125
            },
            {
              "id": 2152,
              "pitch": 78,
              "velocity": 110,
              "start": 1138.0,
              "duration": 0.8330078125
            },
            {
              "id": 2151,
              "pitch": 50,
              "velocity": 110,
              "start": 1138.0,
              "duration": 0.4892578125
            },
            {
              "id": 2150,
              "pitch": 42,
              "velocity": 110,
              "start": 1138.5,
              "duration": 0.4892578125
            },
            {
              "id": 2149,
              "pitch": 45,
              "velocity": 110,
              "start": 1138.5,
              "duration": 0.4892578125
            },
            {
              "id": 2148,
              "pitch": 50,
              "velocity": 110,
              "start": 1138.5,
              "duration": 0.4892578125
            },
            {
              "id": 2147,
              "pitch": 81,
              "velocity": 110,
              "start": 1139.0,
              "duration": 0.8330078125
            },
            {
              "id": 2146,
              "pitch": 45,
              "velocity": 110,
              "start": 1139.0,
              "duration": 0.2392578125
            },
            {
              "id": 2145,
              "pitch": 42,
              "velocity": 110,
              "start": 1139.25,
              "duration": 0.7392578125
            },
            {
              "id": 2144,
              "pitch": 45,
              "velocity": 110,
              "start": 1139.25,
              "duration": 0.7392578125
            },
            {
              "id": 2143,
              "pitch": 50,
              "velocity": 110,
              "start": 1139.25,
              "duration": 0.7392578125
            },
            {
              "id": 2142,
              "pitch": 80,
              "velocity": 110,
              "start": 1140.0,
              "duration": 0.8330078125
            },
            {
              "id": 2141,
              "pitch": 42,
              "velocity": 110,
              "start": 1140.0,
              "duration": 0.8330078125
            },
            {
              "id": 2140,
              "pitch": 45,
              "velocity": 110,
              "start": 1140.0,
              "duration": 0.8330078125
            },
            {
              "id": 2139,
              "pitch": 50,
              "velocity": 110,
              "start": 1140.0,
              "duration": 0.8330078125
            },
            {
              "id": 2138,
              "pitch": 81,
              "velocity": 110,
              "start": 1141.0,
              "duration": 0.8330078125
            },
            {
              "id": 2137,
              "pitch": 45,
              "velocity": 110,
              "start": 1141.0,
              "duration": 0.4892578125
            },
            {
              "id": 2136,
              "pitch": 42,
              "velocity": 110,
              "start": 1141.5,
              "duration": 0.4892578125
            },
            {
              "id": 2135,
              "pitch": 45,
              "velocity": 110,
              "start": 1141.5,
              "duration": 0.4892578125
            },
            {
              "id": 2134,
              "pitch": 50,
              "velocity": 110,
              "start": 1141.5,
              "duration": 0.4892578125
            },
            {
              "id": 2133,
              "pitch": 80,
              "velocity": 110,
              "start": 1142.0,
              "duration": 0.2392578125
            },
            {
              "id": 2132,
              "pitch": 50,
              "velocity": 110,
              "start": 1142.0,
              "duration": 0.4892578125
            },
            {
              "id": 2131,
              "pitch": 81,
              "velocity": 110,
              "start": 1142.25,
              "duration": 0.2392578125
            },
            {
              "id": 2130,
              "pitch": 80,
              "velocity": 110,
              "start": 1142.5,
              "duration": 0.2392578125
            },
            {
              "id": 2129,
              "pitch": 42,
              "velocity": 110,
              "start": 1142.5,
              "duration": 0.4892578125
            },
            {
              "id": 2128,
              "pitch": 45,
              "velocity": 110,
              "start": 1142.5,
              "duration": 0.4892578125
            },
            {
              "id": 2127,
              "pitch": 50,
              "velocity": 110,
              "start": 1142.5,
              "duration": 0.4892578125
            },
            {
              "id": 2126,
              "pitch": 78,
              "velocity": 110,
              "start": 1142.75,
              "duration": 0.2392578125
            },
            {
              "id": 2125,
              "pitch": 74,
              "velocity": 110,
              "start": 1143.0,
              "duration": 0.4892578125
            },
            {
              "id": 2124,
              "pitch": 52,
              "velocity": 110,
              "start": 1143.0,
              "duration": 0.4892578125
            },
            {
              "id": 2123,
              "pitch": 69,
              "velocity": 110,
              "start": 1143.5,
              "duration": 0.4892578125
            },
            {
              "id": 2122,
              "pitch": 42,
              "velocity": 110,
              "start": 1143.5,
              "duration": 0.4892578125
            },
            {
              "id": 2121,
              "pitch": 45,
              "velocity": 110,
              "start": 1143.5,
              "duration": 0.4892578125
            },
            {
              "id": 2120,
              "pitch": 50,
              "velocity": 110,
              "start": 1143.5,
              "duration": 0.4892578125
            },
            {
              "id": 2119,
              "pitch": 54,
              "velocity": 110,
              "start": 1143.5,
              "duration": 0.4892578125
            },
            {
              "id": 2118,
              "pitch": 71,
              "velocity": 110,
              "start": 1144.0,
              "duration": 0.7392578125
            },
            {
              "id": 2117,
              "pitch": 47,
              "velocity": 110,
              "start": 1144.0,
              "duration": 0.8330078125
            },
            {
              "id": 2116,
              "pitch": 50,
              "velocity": 110,
              "start": 1144.0,
              "duration": 0.8330078125
            },
            {
              "id": 2115,
              "pitch": 55,
              "velocity": 110,
              "start": 1144.0,
              "duration": 0.8330078125
            },
            {
              "id": 2114,
              "pitch": 73,
              "velocity": 110,
              "start": 1144.75,
              "duration": 0.2392578125
            },
            {
              "id": 2113,
              "pitch": 74,
              "velocity": 110,
              "start": 1145.0,
              "duration": 0.7392578125
            },
            {
              "id": 2112,
              "pitch": 50,
              "velocity": 110,
              "start": 1145.0,
              "duration": 0.4892578125
            },
            {
              "id": 2111,
              "pitch": 47,
              "velocity": 110,
              "start": 1145.5,
              "duration": 0.4892578125
            },
            {
              "id": 2110,
              "pitch": 50,
              "velocity": 110,
              "start": 1145.5,
              "duration": 0.4892578125
            },
            {
              "id": 2109,
              "pitch": 55,
              "velocity": 110,
              "start": 1145.5,
              "duration": 0.4892578125
            },
            {
              "id": 2108,
              "pitch": 76,
              "velocity": 110,
              "start": 1145.75,
              "duration": 0.2392578125
            },
            {
              "id": 2107,
              "pitch": 78,
              "velocity": 110,
              "start": 1146.0,
              "duration": 0.2392578125
            },
            {
              "id": 2106,
              "pitch": 47,
              "velocity": 110,
              "start": 1146.0,
              "duration": 0.8330078125
            },
            {
              "id": 2105,
              "pitch": 50,
              "velocity": 110,
              "start": 1146.0,
              "duration": 0.8330078125
            },
            {
              "id": 2104,
              "pitch": 55,
              "velocity": 110,
              "start": 1146.0,
              "duration": 0.8330078125
            },
            {
              "id": 2103,
              "pitch": 77,
              "velocity": 110,
              "start": 1146.25,
              "duration": 0.2392578125
            },
            {
              "id": 2102,
              "pitch": 78,
              "velocity": 110,
              "start": 1146.5,
              "duration": 0.2392578125
            },
            {
              "id": 2101,
              "pitch": 79,
              "velocity": 110,
              "start": 1146.75,
              "duration": 0.2392578125
            },
            {
              "id": 2100,
              "pitch": 81,
              "velocity": 110,
              "start": 1147.0,
              "duration": 0.2392578125
            },
            {
              "id": 2099,
              "pitch": 47,
              "velocity": 110,
              "start": 1147.0,
              "duration": 0.8330078125
            },
            {
              "id": 2098,
              "pitch": 50,
              "velocity": 110,
              "start": 1147.0,
              "duration": 0.8330078125
            },
            {
              "id": 2097,
              "pitch": 55,
              "velocity": 110,
              "start": 1147.0,
              "duration": 0.8330078125
            },
            {
              "id": 2096,
              "pitch": 79,
              "velocity": 110,
              "start": 1147.25,
              "duration": 0.2392578125
            },
            {
              "id": 2095,
              "pitch": 78,
              "velocity": 110,
              "start": 1147.5,
              "duration": 0.2392578125
            },
            {
              "id": 2094,
              "pitch": 76,
              "velocity": 110,
              "start": 1147.75,
              "duration": 0.2392578125
            },
            {
              "id": 2093,
              "pitch": 74,
              "velocity": 110,
              "start": 1148.0,
              "duration": 0.2392578125
            },
            {
              "id": 2092,
              "pitch": 57,
              "velocity": 110,
              "start": 1148.0,
              "duration": 0.4892578125
            },
            {
              "id": 2091,
              "pitch": 73,
              "velocity": 110,
              "start": 1148.25,
              "duration": 0.2392578125
            },
            {
              "id": 2090,
              "pitch": 74,
              "velocity": 110,
              "start": 1148.5,
              "duration": 0.2392578125
            },
            {
              "id": 2089,
              "pitch": 47,
              "velocity": 110,
              "start": 1148.5,
              "duration": 0.4892578125
            },
            {
              "id": 2088,
              "pitch": 50,
              "velocity": 110,
              "start": 1148.5,
              "duration": 0.4892578125
            },
            {
              "id": 2087,
              "pitch": 55,
              "velocity": 110,
              "start": 1148.5,
              "duration": 0.4892578125
            },
            {
              "id": 2086,
              "pitch": 81,
              "velocity": 110,
              "start": 1148.75,
              "duration": 0.2392578125
            },
            {
              "id": 2085,
              "pitch": 73,
              "velocity": 110,
              "start": 1149.0,
              "duration": 0.2392578125
            },
            {
              "id": 2084,
              "pitch": 52,
              "velocity": 110,
              "start": 1149.0,
              "duration": 0.4892578125
            },
            {
              "id": 2083,
              "pitch": 72,
              "velocity": 110,
              "start": 1149.25,
              "duration": 0.2392578125
            },
            {
              "id": 2082,
              "pitch": 73,
              "velocity": 110,
              "start": 1149.5,
              "duration": 0.2392578125
            },
            {
              "id": 2081,
              "pitch": 47,
              "velocity": 110,
              "start": 1149.5,
              "duration": 0.4892578125
            },
            {
              "id": 2080,
              "pitch": 50,
              "velocity": 110,
              "start": 1149.5,
              "duration": 0.4892578125
            },
            {
              "id": 2079,
              "pitch": 55,
              "velocity": 110,
              "start": 1149.5,
              "duration": 0.4892578125
            },
            {
              "id": 2078,
              "pitch": 81,
              "velocity": 110,
              "start": 1149.75,
              "duration": 0.2392578125
            },
            {
              "id": 2077,
              "pitch": 73,
              "velocity": 110,
              "start": 1150.0,
              "duration": 0.2392578125
            },
            {
              "id": 2076,
              "pitch": 57,
              "velocity": 110,
              "start": 1150.0,
              "duration": 0.4892578125
            },
            {
              "id": 2075,
              "pitch": 72,
              "velocity": 110,
              "start": 1150.25,
              "duration": 0.2392578125
            },
            {
              "id": 2074,
              "pitch": 71,
              "velocity": 110,
              "start": 1150.5,
              "duration": 0.2392578125
            },
            {
              "id": 2073,
              "pitch": 47,
              "velocity": 110,
              "start": 1150.5,
              "duration": 0.4892578125
            },
            {
              "id": 2072,
              "pitch": 50,
              "velocity": 110,
              "start": 1150.5,
              "duration": 0.4892578125
            },
            {
              "id": 2071,
              "pitch": 55,
              "velocity": 110,
              "start": 1150.5,
              "duration": 0.4892578125
            },
            {
              "id": 2070,
              "pitch": 70,
              "velocity": 110,
              "start": 1150.75,
              "duration": 0.2392578125
            },
            {
              "id": 2069,
              "pitch": 69,
              "velocity": 110,
              "start": 1151.0,
              "duration": 0.2392578125
            },
            {
              "id": 2068,
              "pitch": 52,
              "velocity": 110,
              "start": 1151.0,
              "duration": 0.4892578125
            },
            {
              "id": 2067,
              "pitch": 68,
              "velocity": 110,
              "start": 1151.25,
              "duration": 0.2392578125
            },
            {
              "id": 2066,
              "pitch": 67,
              "velocity": 110,
              "start": 1151.5,
              "duration": 0.2392578125
            },
            {
              "id": 2065,
              "pitch": 47,
              "velocity": 110,
              "start": 1151.5,
              "duration": 0.4892578125
            },
            {
              "id": 2064,
              "pitch": 50,
              "velocity": 110,
              "start": 1151.5,
              "duration": 0.4892578125
            },
            {
              "id": 2063,
              "pitch": 55,
              "velocity": 110,
              "start": 1151.5,
              "duration": 0.4892578125
            },
            {
              "id": 2062,
              "pitch": 64,
              "velocity": 110,
              "start": 1151.75,
              "duration": 0.2392578125
            },
            {
              "id": 2061,
              "pitch": 38,
              "velocity": 110,
              "start": 1152.0,
              "duration": 16.8330078125
            },
            {
              "id": 2060,
              "pitch": 50,
              "velocity": 110,
              "start": 1152.0,
              "duration": 16.8330078125
            },
            {
              "id": 2059,
              "pitch": 69,
              "velocity": 110,
              "start": 1156.0,
              "duration": 0.4892578125
            },
            {
              "id": 2058,
              "pitch": 74,
              "velocity": 110,
              "start": 1156.5,
              "duration": 0.4892578125
            },
            {
              "id": 2057,
              "pitch": 86,
              "velocity": 110,
              "start": 1156.5,
              "duration": 0.4892578125
            },
            {
              "id": 2056,
              "pitch": 77,
              "velocity": 110,
              "start": 1157.0,
              "duration": 0.4892578125
            },
            {
              "id": 2055,
              "pitch": 81,
              "velocity": 110,
              "start": 1157.0,
              "duration": 0.4892578125
            },
            {
              "id": 2054,
              "pitch": 76,
              "velocity": 110,
              "start": 1157.5,
              "duration": 4.25
            },
            {
              "id": 2053,
              "pitch": 80,
              "velocity": 110,
              "start": 1157.5,
              "duration": 4.25
            },
            {
              "id": 2052,
              "pitch": 38,
              "velocity": 110,
              "start": 1169.0,
              "duration": 14.75
            },
            {
              "id": 2051,
              "pitch": 50,
              "velocity": 110,
              "start": 1169.0,
              "duration": 14.75
            },
            {
              "id": 2050,
              "pitch": 69,
              "velocity": 110,
              "start": 1172.0,
              "duration": 0.4892578125
            },
            {
              "id": 2049,
              "pitch": 74,
              "velocity": 110,
              "start": 1172.5,
              "duration": 0.4892578125
            },
            {
              "id": 2048,
              "pitch": 86,
              "velocity": 110,
              "start": 1172.5,
              "duration": 0.4892578125
            },
            {
              "id": 2047,
              "pitch": 77,
              "velocity": 110,
              "start": 1173.0,
              "duration": 0.4892578125
            },
            {
              "id": 2046,
              "pitch": 81,
              "velocity": 110,
              "start": 1173.0,
              "duration": 0.4892578125
            },
            {
              "id": 2045,
              "pitch": 76,
              "velocity": 110,
              "start": 1173.5,
              "duration": 3.3330078125
            },
            {
              "id": 2044,
              "pitch": 80,
              "velocity": 110,
              "start": 1173.5,
              "duration": 3.3330078125
            },
            {
              "id": 2043,
              "pitch": 83,
              "velocity": 110,
              "start": 1177.0,
              "duration": 0.8330078125
            },
            {
              "id": 2042,
              "pitch": 95,
              "velocity": 110,
              "start": 1177.0,
              "duration": 0.8330078125
            },
            {
              "id": 2041,
              "pitch": 38,
              "velocity": 110,
              "start": 1184.0,
              "duration": 7.75
            },
            {
              "id": 2040,
              "pitch": 50,
              "velocity": 110,
              "start": 1184.0,
              "duration": 7.75
            },
            {
              "id": 2039,
              "pitch": 69,
              "velocity": 110,
              "start": 1188.0,
              "duration": 0.4892578125
            },
            {
              "id": 2038,
              "pitch": 74,
              "velocity": 110,
              "start": 1188.5,
              "duration": 0.4892578125
            },
            {
              "id": 2037,
              "pitch": 86,
              "velocity": 110,
              "start": 1188.5,
              "duration": 0.4892578125
            },
            {
              "id": 2036,
              "pitch": 77,
              "velocity": 110,
              "start": 1189.0,
              "duration": 0.4892578125
            },
            {
              "id": 2035,
              "pitch": 81,
              "velocity": 110,
              "start": 1189.0,
              "duration": 0.4892578125
            },
            {
              "id": 2034,
              "pitch": 76,
              "velocity": 110,
              "start": 1189.5,
              "duration": 2.25
            },
            {
              "id": 2033,
              "pitch": 80,
              "velocity": 110,
              "start": 1189.5,
              "duration": 2.25
            },
            {
              "id": 2032,
              "pitch": 38,
              "velocity": 110,
              "start": 1192.0,
              "duration": 4.8330078125
            },
            {
              "id": 2031,
              "pitch": 50,
              "velocity": 110,
              "start": 1192.0,
              "duration": 4.8330078125
            },
            {
              "id": 2030,
              "pitch": 69,
              "velocity": 110,
              "start": 1192.25,
              "duration": 0.2392578125
            },
            {
              "id": 2029,
              "pitch": 74,
              "velocity": 110,
              "start": 1192.5,
              "duration": 0.2392578125
            },
            {
              "id": 2028,
              "pitch": 81,
              "velocity": 110,
              "start": 1192.75,
              "duration": 0.2392578125
            },
            {
              "id": 2027,
              "pitch": 80,
              "velocity": 110,
              "start": 1193.0,
              "duration": 0.2392578125
            },
            {
              "id": 2026,
              "pitch": 69,
              "velocity": 110,
              "start": 1193.25,
              "duration": 0.2392578125
            },
            {
              "id": 2025,
              "pitch": 74,
              "velocity": 110,
              "start": 1193.5,
              "duration": 0.2392578125
            },
            {
              "id": 2024,
              "pitch": 79,
              "velocity": 110,
              "start": 1193.75,
              "duration": 0.2392578125
            },
            {
              "id": 2023,
              "pitch": 77,
              "velocity": 110,
              "start": 1194.0,
              "duration": 0.2392578125
            },
            {
              "id": 2022,
              "pitch": 69,
              "velocity": 110,
              "start": 1194.25,
              "duration": 0.2392578125
            },
            {
              "id": 2021,
              "pitch": 74,
              "velocity": 110,
              "start": 1194.5,
              "duration": 0.2392578125
            },
            {
              "id": 2020,
              "pitch": 77,
              "velocity": 110,
              "start": 1194.75,
              "duration": 0.2392578125
            },
            {
              "id": 2019,
              "pitch": 76,
              "velocity": 110,
              "start": 1195.0,
              "duration": 0.2392578125
            },
            {
              "id": 2018,
              "pitch": 67,
              "velocity": 110,
              "start": 1195.25,
              "duration": 0.2392578125
            },
            {
              "id": 2017,
              "pitch": 73,
              "velocity": 110,
              "start": 1195.5,
              "duration": 0.2392578125
            },
            {
              "id": 2016,
              "pitch": 76,
              "velocity": 110,
              "start": 1195.75,
              "duration": 0.2392578125
            },
            {
              "id": 2015,
              "pitch": 74,
              "velocity": 110,
              "start": 1196.0,
              "duration": 0.4892578125
            },
            {
              "id": 2014,
              "pitch": 69,
              "velocity": 110,
              "start": 1196.5,
              "duration": 0.2392578125
            },
            {
              "id": 2013,
              "pitch": 74,
              "velocity": 110,
              "start": 1196.75,
              "duration": 0.2392578125
            },
            {
              "id": 2012,
              "pitch": 73,
              "velocity": 110,
              "start": 1197.0,
              "duration": 0.4892578125
            },
            {
              "id": 2011,
              "pitch": 40,
              "velocity": 110,
              "start": 1197.0,
              "duration": 0.8330078125
            },
            {
              "id": 2010,
              "pitch": 52,
              "velocity": 110,
              "start": 1197.0,
              "duration": 0.8330078125
            },
            {
              "id": 2009,
              "pitch": 67,
              "velocity": 110,
              "start": 1197.5,
              "duration": 0.2392578125
            },
            {
              "id": 2008,
              "pitch": 70,
              "velocity": 110,
              "start": 1197.75,
              "duration": 0.2392578125
            },
            {
              "id": 2007,
              "pitch": 69,
              "velocity": 110,
              "start": 1198.0,
              "duration": 0.4892578125
            },
            {
              "id": 2006,
              "pitch": 41,
              "velocity": 110,
              "start": 1198.0,
              "duration": 1.75
            },
            {
              "id": 2005,
              "pitch": 53,
              "velocity": 110,
              "start": 1198.0,
              "duration": 1.75
            },
            {
              "id": 2004,
              "pitch": 69,
              "velocity": 110,
              "start": 1198.5,
              "duration": 0.2392578125
            },
            {
              "id": 2003,
              "pitch": 74,
              "velocity": 110,
              "start": 1198.75,
              "duration": 0.2392578125
            },
            {
              "id": 2002,
              "pitch": 77,
              "velocity": 110,
              "start": 1199.0,
              "duration": 0.2392578125
            },
            {
              "id": 2001,
              "pitch": 69,
              "velocity": 110,
              "start": 1199.25,
              "duration": 0.2392578125
            },
            {
              "id": 2000,
              "pitch": 74,
              "velocity": 110,
              "start": 1199.5,
              "duration": 0.2392578125
            },
            {
              "id": 1999,
              "pitch": 77,
              "velocity": 110,
              "start": 1199.75,
              "duration": 0.2392578125
            },
            {
              "id": 1998,
              "pitch": 70,
              "velocity": 110,
              "start": 1200.0,
              "duration": 0.2392578125
            },
            {
              "id": 1997,
              "pitch": 43,
              "velocity": 110,
              "start": 1200.0,
              "duration": 1.75
            },
            {
              "id": 1996,
              "pitch": 67,
              "velocity": 110,
              "start": 1200.25,
              "duration": 0.2392578125
            },
            {
              "id": 1995,
              "pitch": 70,
              "velocity": 110,
              "start": 1200.5,
              "duration": 0.2392578125
            },
            {
              "id": 1994,
              "pitch": 73,
              "velocity": 110,
              "start": 1200.75,
              "duration": 0.2392578125
            },
            {
              "id": 1993,
              "pitch": 76,
              "velocity": 110,
              "start": 1201.0,
              "duration": 0.2392578125
            },
            {
              "id": 1992,
              "pitch": 70,
              "velocity": 110,
              "start": 1201.25,
              "duration": 0.2392578125
            },
            {
              "id": 1991,
              "pitch": 73,
              "velocity": 110,
              "start": 1201.5,
              "duration": 0.2392578125
            },
            {
              "id": 1990,
              "pitch": 76,
              "velocity": 110,
              "start": 1201.75,
              "duration": 0.2392578125
            },
            {
              "id": 1989,
              "pitch": 77,
              "velocity": 110,
              "start": 1202.0,
              "duration": 0.2392578125
            },
            {
              "id": 1988,
              "pitch": 45,
              "velocity": 110,
              "start": 1202.0,
              "duration": 1.75
            },
            {
              "id": 1987,
              "pitch": 81,
              "velocity": 110,
              "start": 1202.25,
              "duration": 0.2392578125
            },
            {
              "id": 1986,
              "pitch": 86,
              "velocity": 110,
              "start": 1202.5,
              "duration": 0.2392578125
            },
            {
              "id": 1985,
              "pitch": 81,
              "velocity": 110,
              "start": 1202.75,
              "duration": 0.2392578125
            },
            {
              "id": 1984,
              "pitch": 77,
              "velocity": 110,
              "start": 1203.0,
              "duration": 0.2392578125
            },
            {
              "id": 1983,
              "pitch": 86,
              "velocity": 110,
              "start": 1203.25,
              "duration": 0.2392578125
            },
            {
              "id": 1982,
              "pitch": 81,
              "velocity": 110,
              "start": 1203.5,
              "duration": 0.2392578125
            },
            {
              "id": 1981,
              "pitch": 77,
              "velocity": 110,
              "start": 1203.75,
              "duration": 0.2392578125
            },
            {
              "id": 1980,
              "pitch": 76,
              "velocity": 110,
              "start": 1204.0,
              "duration": 0.2392578125
            },
            {
              "id": 1979,
              "pitch": 43,
              "velocity": 110,
              "start": 1204.0,
              "duration": 1.75
            },
            {
              "id": 1978,
              "pitch": 79,
              "velocity": 110,
              "start": 1204.25,
              "duration": 0.2392578125
            },
            {
              "id": 1977,
              "pitch": 85,
              "velocity": 110,
              "start": 1204.5,
              "duration": 0.2392578125
            },
            {
              "id": 1976,
              "pitch": 79,
              "velocity": 110,
              "start": 1204.75,
              "duration": 0.2392578125
            },
            {
              "id": 1975,
              "pitch": 76,
              "velocity": 110,
              "start": 1205.0,
              "duration": 0.2392578125
            },
            {
              "id": 1974,
              "pitch": 85,
              "velocity": 110,
              "start": 1205.25,
              "duration": 0.2392578125
            },
            {
              "id": 1973,
              "pitch": 79,
              "velocity": 110,
              "start": 1205.5,
              "duration": 0.2392578125
            },
            {
              "id": 1972,
              "pitch": 76,
              "velocity": 110,
              "start": 1205.75,
              "duration": 0.2392578125
            },
            {
              "id": 1971,
              "pitch": 74,
              "velocity": 110,
              "start": 1206.0,
              "duration": 0.2392578125
            },
            {
              "id": 1970,
              "pitch": 41,
              "velocity": 110,
              "start": 1206.0,
              "duration": 1.75
            },
            {
              "id": 1969,
              "pitch": 53,
              "velocity": 110,
              "start": 1206.0,
              "duration": 1.75
            },
            {
              "id": 1968,
              "pitch": 77,
              "velocity": 110,
              "start": 1206.25,
              "duration": 0.2392578125
            },
            {
              "id": 1967,
              "pitch": 81,
              "velocity": 110,
              "start": 1206.5,
              "duration": 0.2392578125
            },
            {
              "id": 1966,
              "pitch": 77,
              "velocity": 110,
              "start": 1206.75,
              "duration": 0.2392578125
            },
            {
              "id": 1965,
              "pitch": 74,
              "velocity": 110,
              "start": 1207.0,
              "duration": 0.2392578125
            },
            {
              "id": 1964,
              "pitch": 81,
              "velocity": 110,
              "start": 1207.25,
              "duration": 0.2392578125
            },
            {
              "id": 1963,
              "pitch": 77,
              "velocity": 110,
              "start": 1207.5,
              "duration": 0.2392578125
            },
            {
              "id": 1962,
              "pitch": 74,
              "velocity": 110,
              "start": 1207.75,
              "duration": 0.2392578125
            },
            {
              "id": 1961,
              "pitch": 73,
              "velocity": 110,
              "start": 1208.0,
              "duration": 0.4892578125
            },
            {
              "id": 1960,
              "pitch": 40,
              "velocity": 110,
              "start": 1208.0,
              "duration": 0.4892578125
            },
            {
              "id": 1959,
              "pitch": 52,
              "velocity": 110,
              "start": 1208.0,
              "duration": 0.4892578125
            },
            {
              "id": 1958,
              "pitch": 69,
              "velocity": 110,
              "start": 1208.5,
              "duration": 0.4892578125
            },
            {
              "id": 1957,
              "pitch": 73,
              "velocity": 110,
              "start": 1208.5,
              "duration": 0.4892578125
            },
            {
              "id": 1956,
              "pitch": 79,
              "velocity": 110,
              "start": 1208.5,
              "duration": 0.4892578125
            },
            {
              "id": 1955,
              "pitch": 43,
              "velocity": 110,
              "start": 1208.5,
              "duration": 0.4892578125
            },
            {
              "id": 1954,
              "pitch": 74,
              "velocity": 110,
              "start": 1209.0,
              "duration": 0.4892578125
            },
            {
              "id": 1953,
              "pitch": 77,
              "velocity": 110,
              "start": 1209.0,
              "duration": 0.4892578125
            },
            {
              "id": 1952,
              "pitch": 82,
              "velocity": 110,
              "start": 1209.0,
              "duration": 0.4892578125
            },
            {
              "id": 1951,
              "pitch": 46,
              "velocity": 110,
              "start": 1209.0,
              "duration": 0.4892578125
            },
            {
              "id": 1950,
              "pitch": 73,
              "velocity": 110,
              "start": 1209.5,
              "duration": 0.4892578125
            },
            {
              "id": 1949,
              "pitch": 76,
              "velocity": 110,
              "start": 1209.5,
              "duration": 0.4892578125
            },
            {
              "id": 1948,
              "pitch": 81,
              "velocity": 110,
              "start": 1209.5,
              "duration": 0.4892578125
            },
            {
              "id": 1947,
              "pitch": 44,
              "velocity": 110,
              "start": 1209.5,
              "duration": 0.4892578125
            },
            {
              "id": 1946,
              "pitch": 69,
              "velocity": 110,
              "start": 1210.0,
              "duration": 1.75
            },
            {
              "id": 1945,
              "pitch": 73,
              "velocity": 110,
              "start": 1210.0,
              "duration": 1.75
            },
            {
              "id": 1944,
              "pitch": 79,
              "velocity": 110,
              "start": 1210.0,
              "duration": 1.75
            },
            {
              "id": 1943,
              "pitch": 45,
              "velocity": 110,
              "start": 1210.0,
              "duration": 1.75
            },
            {
              "id": 1942,
              "pitch": 38,
              "velocity": 110,
              "start": 1212.0,
              "duration": 5.7392578125
            },
            {
              "id": 1941,
              "pitch": 50,
              "velocity": 110,
              "start": 1212.0,
              "duration": 5.7392578125
            },
            {
              "id": 1940,
              "pitch": 74,
              "velocity": 110,
              "start": 1212.25,
              "duration": 0.2392578125
            },
            {
              "id": 1939,
              "pitch": 86,
              "velocity": 110,
              "start": 1212.25,
              "duration": 0.2392578125
            },
            {
              "id": 1938,
              "pitch": 73,
              "velocity": 110,
              "start": 1212.5,
              "duration": 0.2392578125
            },
            {
              "id": 1937,
              "pitch": 85,
              "velocity": 110,
              "start": 1212.5,
              "duration": 0.2392578125
            },
            {
              "id": 1936,
              "pitch": 74,
              "velocity": 110,
              "start": 1212.75,
              "duration": 0.2392578125
            },
            {
              "id": 1935,
              "pitch": 86,
              "velocity": 110,
              "start": 1212.75,
              "duration": 0.2392578125
            },
            {
              "id": 1934,
              "pitch": 75,
              "velocity": 110,
              "start": 1213.0,
              "duration": 0.2392578125
            },
            {
              "id": 1933,
              "pitch": 87,
              "velocity": 110,
              "start": 1213.0,
              "duration": 0.2392578125
            },
            {
              "id": 1932,
              "pitch": 74,
              "velocity": 110,
              "start": 1213.25,
              "duration": 0.2392578125
            },
            {
              "id": 1931,
              "pitch": 86,
              "velocity": 110,
              "start": 1213.25,
              "duration": 0.2392578125
            },
            {
              "id": 1930,
              "pitch": 73,
              "velocity": 110,
              "start": 1213.5,
              "duration": 0.2392578125
            },
            {
              "id": 1929,
              "pitch": 85,
              "velocity": 110,
              "start": 1213.5,
              "duration": 0.2392578125
            },
            {
              "id": 1928,
              "pitch": 68,
              "velocity": 110,
              "start": 1213.75,
              "duration": 0.2392578125
            },
            {
              "id": 1927,
              "pitch": 80,
              "velocity": 110,
              "start": 1213.75,
              "duration": 0.2392578125
            },
            {
              "id": 1926,
              "pitch": 69,
              "velocity": 110,
              "start": 1214.0,
              "duration": 0.2392578125
            },
            {
              "id": 1925,
              "pitch": 81,
              "velocity": 110,
              "start": 1214.0,
              "duration": 0.2392578125
            },
            {
              "id": 1924,
              "pitch": 77,
              "velocity": 110,
              "start": 1214.25,
              "duration": 0.2392578125
            },
            {
              "id": 1923,
              "pitch": 76,
              "velocity": 110,
              "start": 1214.5,
              "duration": 0.2392578125
            },
            {
              "id": 1922,
              "pitch": 77,
              "velocity": 110,
              "start": 1214.75,
              "duration": 0.2392578125
            },
            {
              "id": 1921,
              "pitch": 67,
              "velocity": 110,
              "start": 1215.0,
              "duration": 0.2392578125
            },
            {
              "id": 1920,
              "pitch": 79,
              "velocity": 110,
              "start": 1215.0,
              "duration": 0.2392578125
            },
            {
              "id": 1919,
              "pitch": 77,
              "velocity": 110,
              "start": 1215.25,
              "duration": 0.2392578125
            },
            {
              "id": 1918,
              "pitch": 76,
              "velocity": 110,
              "start": 1215.5,
              "duration": 0.2392578125
            },
            {
              "id": 1917,
              "pitch": 73,
              "velocity": 110,
              "start": 1215.75,
              "duration": 0.2392578125
            },
            {
              "id": 1916,
              "pitch": 74,
              "velocity": 110,
              "start": 1216.0,
              "duration": 0.8330078125
            },
            {
              "id": 1915,
              "pitch": 52,
              "velocity": 110,
              "start": 1217.75,
              "duration": 0.2392578125
            },
            {
              "id": 1914,
              "pitch": 53,
              "velocity": 110,
              "start": 1218.0,
              "duration": 0.2392578125
            },
            {
              "id": 1913,
              "pitch": 50,
              "velocity": 110,
              "start": 1218.25,
              "duration": 0.2392578125
            },
            {
              "id": 1912,
              "pitch": 49,
              "velocity": 110,
              "start": 1218.5,
              "duration": 0.2392578125
            },
            {
              "id": 1911,
              "pitch": 50,
              "velocity": 110,
              "start": 1218.75,
              "duration": 0.2392578125
            },
            {
              "id": 1910,
              "pitch": 51,
              "velocity": 110,
              "start": 1219.0,
              "duration": 0.2392578125
            },
            {
              "id": 1909,
              "pitch": 50,
              "velocity": 110,
              "start": 1219.25,
              "duration": 0.2392578125
            },
            {
              "id": 1908,
              "pitch": 49,
              "velocity": 110,
              "start": 1219.5,
              "duration": 0.2392578125
            },
            {
              "id": 1907,
              "pitch": 44,
              "velocity": 110,
              "start": 1219.75,
              "duration": 0.2392578125
            },
            {
              "id": 1906,
              "pitch": 45,
              "velocity": 110,
              "start": 1220.0,
              "duration": 0.4892578125
            },
            {
              "id": 1905,
              "pitch": 50,
              "velocity": 110,
              "start": 1220.0,
              "duration": 0.4892578125
            },
            {
              "id": 1904,
              "pitch": 50,
              "velocity": 110,
              "start": 1220.5,
              "duration": 0.4892578125
            },
            {
              "id": 1903,
              "pitch": 53,
              "velocity": 110,
              "start": 1220.5,
              "duration": 0.4892578125
            },
            {
              "id": 1902,
              "pitch": 40,
              "velocity": 110,
              "start": 1221.0,
              "duration": 0.4892578125
            },
            {
              "id": 1901,
              "pitch": 49,
              "velocity": 110,
              "start": 1221.0,
              "duration": 0.4892578125
            },
            {
              "id": 1900,
              "pitch": 52,
              "velocity": 110,
              "start": 1221.0,
              "duration": 0.4892578125
            },
            {
              "id": 1899,
              "pitch": 67,
              "velocity": 110,
              "start": 1221.5,
              "duration": 0.4892578125
            },
            {
              "id": 1898,
              "pitch": 52,
              "velocity": 110,
              "start": 1221.5,
              "duration": 0.4892578125
            },
            {
              "id": 1897,
              "pitch": 41,
              "velocity": 110,
              "start": 1222.0,
              "duration": 0.4892578125
            },
            {
              "id": 1896,
              "pitch": 50,
              "velocity": 110,
              "start": 1222.0,
              "duration": 0.4892578125
            },
            {
              "id": 1895,
              "pitch": 53,
              "velocity": 110,
              "start": 1222.0,
              "duration": 0.4892578125
            },
            {
              "id": 1894,
              "pitch": 70,
              "velocity": 110,
              "start": 1222.5,
              "duration": 0.4892578125
            },
            {
              "id": 1893,
              "pitch": 53,
              "velocity": 110,
              "start": 1222.5,
              "duration": 0.4892578125
            },
            {
              "id": 1892,
              "pitch": 67,
              "velocity": 110,
              "start": 1223.0,
              "duration": 0.4892578125
            },
            {
              "id": 1891,
              "pitch": 69,
              "velocity": 110,
              "start": 1223.0,
              "duration": 0.4892578125
            },
            {
              "id": 1890,
              "pitch": 43,
              "velocity": 110,
              "start": 1223.0,
              "duration": 0.4892578125
            },
            {
              "id": 1889,
              "pitch": 73,
              "velocity": 110,
              "start": 1223.5,
              "duration": 0.4892578125
            },
            {
              "id": 1888,
              "pitch": 52,
              "velocity": 110,
              "start": 1223.5,
              "duration": 0.4892578125
            },
            {
              "id": 1887,
              "pitch": 69,
              "velocity": 110,
              "start": 1224.0,
              "duration": 0.2392578125
            },
            {
              "id": 1886,
              "pitch": 74,
              "velocity": 110,
              "start": 1224.0,
              "duration": 0.2392578125
            },
            {
              "id": 1885,
              "pitch": 45,
              "velocity": 110,
              "start": 1224.0,
              "duration": 0.8330078125
            },
            {
              "id": 1884,
              "pitch": 69,
              "velocity": 110,
              "start": 1224.25,
              "duration": 0.2392578125
            },
            {
              "id": 1883,
              "pitch": 74,
              "velocity": 110,
              "start": 1224.5,
              "duration": 0.2392578125
            },
            {
              "id": 1882,
              "pitch": 81,
              "velocity": 110,
              "start": 1224.75,
              "duration": 0.2392578125
            },
            {
              "id": 1881,
              "pitch": 80,
              "velocity": 110,
              "start": 1225.0,
              "duration": 0.2392578125
            },
            {
              "id": 1880,
              "pitch": 69,
              "velocity": 110,
              "start": 1225.25,
              "duration": 0.2392578125
            },
            {
              "id": 1879,
              "pitch": 74,
              "velocity": 110,
              "start": 1225.5,
              "duration": 0.2392578125
            },
            {
              "id": 1878,
              "pitch": 79,
              "velocity": 110,
              "start": 1225.75,
              "duration": 0.2392578125
            },
            {
              "id": 1877,
              "pitch": 77,
              "velocity": 110,
              "start": 1226.0,
              "duration": 0.2392578125
            },
            {
              "id": 1876,
              "pitch": 69,
              "velocity": 110,
              "start": 1226.25,
              "duration": 0.2392578125
            },
            {
              "id": 1875,
              "pitch": 74,
              "velocity": 110,
              "start": 1226.5,
              "duration": 0.2392578125
            },
            {
              "id": 1874,
              "pitch": 77,
              "velocity": 110,
              "start": 1226.75,
              "duration": 0.2392578125
            },
            {
              "id": 1873,
              "pitch": 76,
              "velocity": 110,
              "start": 1227.0,
              "duration": 0.2392578125
            },
            {
              "id": 1872,
              "pitch": 67,
              "velocity": 110,
              "start": 1227.25,
              "duration": 0.2392578125
            },
            {
              "id": 1871,
              "pitch": 73,
              "velocity": 110,
              "start": 1227.5,
              "duration": 0.2392578125
            },
            {
              "id": 1870,
              "pitch": 76,
              "velocity": 110,
              "start": 1227.75,
              "duration": 0.2392578125
            },
            {
              "id": 1869,
              "pitch": 74,
              "velocity": 110,
              "start": 1228.0,
              "duration": 0.4892578125
            },
            {
              "id": 1868,
              "pitch": 69,
              "velocity": 110,
              "start": 1228.5,
              "duration": 0.2392578125
            },
            {
              "id": 1867,
              "pitch": 74,
              "velocity": 110,
              "start": 1228.75,
              "duration": 0.2392578125
            },
            {
              "id": 1866,
              "pitch": 73,
              "velocity": 110,
              "start": 1229.0,
              "duration": 0.4892578125
            },
            {
              "id": 1865,
              "pitch": 67,
              "velocity": 110,
              "start": 1229.5,
              "duration": 0.2392578125
            },
            {
              "id": 1864,
              "pitch": 70,
              "velocity": 110,
              "start": 1229.75,
              "duration": 0.2392578125
            },
            {
              "id": 1863,
              "pitch": 69,
              "velocity": 110,
              "start": 1230.0,
              "duration": 0.4892578125
            },
            {
              "id": 1862,
              "pitch": 69,
              "velocity": 110,
              "start": 1230.5,
              "duration": 0.2392578125
            },
            {
              "id": 1861,
              "pitch": 74,
              "velocity": 110,
              "start": 1230.75,
              "duration": 0.2392578125
            },
            {
              "id": 1860,
              "pitch": 77,
              "velocity": 110,
              "start": 1231.0,
              "duration": 0.2392578125
            },
            {
              "id": 1859,
              "pitch": 69,
              "velocity": 110,
              "start": 1231.25,
              "duration": 0.2392578125
            },
            {
              "id": 1858,
              "pitch": 74,
              "velocity": 110,
              "start": 1231.5,
              "duration": 0.2392578125
            },
            {
              "id": 1857,
              "pitch": 77,
              "velocity": 110,
              "start": 1231.75,
              "duration": 0.2392578125
            },
            {
              "id": 1856,
              "pitch": 76,
              "velocity": 110,
              "start": 1232.0,
              "duration": 0.2392578125
            },
            {
              "id": 1855,
              "pitch": 67,
              "velocity": 110,
              "start": 1232.25,
              "duration": 0.2392578125
            },
            {
              "id": 1854,
              "pitch": 70,
              "velocity": 110,
              "start": 1232.5,
              "duration": 0.2392578125
            },
            {
              "id": 1853,
              "pitch": 73,
              "velocity": 110,
              "start": 1232.75,
              "duration": 0.2392578125
            },
            {
              "id": 1852,
              "pitch": 76,
              "velocity": 110,
              "start": 1233.0,
              "duration": 0.2392578125
            },
            {
              "id": 1851,
              "pitch": 73,
              "velocity": 110,
              "start": 1233.25,
              "duration": 0.2392578125
            },
            {
              "id": 1850,
              "pitch": 76,
              "velocity": 110,
              "start": 1233.5,
              "duration": 0.2392578125
            },
            {
              "id": 1849,
              "pitch": 79,
              "velocity": 110,
              "start": 1233.75,
              "duration": 0.2392578125
            },
            {
              "id": 1848,
              "pitch": 77,
              "velocity": 110,
              "start": 1234.0,
              "duration": 0.2392578125
            },
            {
              "id": 1847,
              "pitch": 81,
              "velocity": 110,
              "start": 1234.25,
              "duration": 0.2392578125
            },
            {
              "id": 1846,
              "pitch": 86,
              "velocity": 110,
              "start": 1234.5,
              "duration": 0.2392578125
            },
            {
              "id": 1845,
              "pitch": 81,
              "velocity": 110,
              "start": 1234.75,
              "duration": 0.2392578125
            },
            {
              "id": 1844,
              "pitch": 77,
              "velocity": 110,
              "start": 1235.0,
              "duration": 0.2392578125
            },
            {
              "id": 1843,
              "pitch": 86,
              "velocity": 110,
              "start": 1235.25,
              "duration": 0.2392578125
            },
            {
              "id": 1842,
              "pitch": 81,
              "velocity": 110,
              "start": 1235.5,
              "duration": 0.2392578125
            },
            {
              "id": 1841,
              "pitch": 77,
              "velocity": 110,
              "start": 1235.75,
              "duration": 0.2392578125
            },
            {
              "id": 1840,
              "pitch": 76,
              "velocity": 110,
              "start": 1236.0,
              "duration": 0.2392578125
            },
            {
              "id": 1839,
              "pitch": 79,
              "velocity": 110,
              "start": 1236.25,
              "duration": 0.2392578125
            },
            {
              "id": 1838,
              "pitch": 85,
              "velocity": 110,
              "start": 1236.5,
              "duration": 0.2392578125
            },
            {
              "id": 1837,
              "pitch": 79,
              "velocity": 110,
              "start": 1236.75,
              "duration": 0.2392578125
            },
            {
              "id": 1836,
              "pitch": 76,
              "velocity": 110,
              "start": 1237.0,
              "duration": 0.2392578125
            },
            {
              "id": 1835,
              "pitch": 85,
              "velocity": 110,
              "start": 1237.25,
              "duration": 0.2392578125
            },
            {
              "id": 1834,
              "pitch": 79,
              "velocity": 110,
              "start": 1237.5,
              "duration": 0.2392578125
            },
            {
              "id": 1833,
              "pitch": 76,
              "velocity": 110,
              "start": 1237.75,
              "duration": 0.2392578125
            },
            {
              "id": 1832,
              "pitch": 38,
              "velocity": 110,
              "start": 1238.0,
              "duration": 1.75
            },
            {
              "id": 1831,
              "pitch": 50,
              "velocity": 110,
              "start": 1238.0,
              "duration": 1.75
            },
            {
              "id": 1830,
              "pitch": 69,
              "velocity": 110,
              "start": 1238.25,
              "duration": 0.2392578125
            },
            {
              "id": 1829,
              "pitch": 74,
              "velocity": 110,
              "start": 1238.5,
              "duration": 0.2392578125
            },
            {
              "id": 1828,
              "pitch": 69,
              "velocity": 110,
              "start": 1238.75,
              "duration": 0.2392578125
            },
            {
              "id": 1827,
              "pitch": 77,
              "velocity": 110,
              "start": 1239.0,
              "duration": 0.2392578125
            },
            {
              "id": 1826,
              "pitch": 69,
              "velocity": 110,
              "start": 1239.25,
              "duration": 0.2392578125
            },
            {
              "id": 1825,
              "pitch": 74,
              "velocity": 110,
              "start": 1239.5,
              "duration": 0.2392578125
            },
            {
              "id": 1824,
              "pitch": 69,
              "velocity": 110,
              "start": 1239.75,
              "duration": 0.2392578125
            },
            {
              "id": 1823,
              "pitch": 75,
              "velocity": 110,
              "start": 1240.0,
              "duration": 0.2392578125
            },
            {
              "id": 1822,
              "pitch": 39,
              "velocity": 110,
              "start": 1240.0,
              "duration": 0.4892578125
            },
            {
              "id": 1821,
              "pitch": 51,
              "velocity": 110,
              "start": 1240.0,
              "duration": 0.4892578125
            },
            {
              "id": 1820,
              "pitch": 67,
              "velocity": 110,
              "start": 1240.25,
              "duration": 0.2392578125
            },
            {
              "id": 1819,
              "pitch": 74,
              "velocity": 110,
              "start": 1240.5,
              "duration": 0.2392578125
            },
            {
              "id": 1818,
              "pitch": 38,
              "velocity": 110,
              "start": 1240.5,
              "duration": 0.4892578125
            },
            {
              "id": 1817,
              "pitch": 50,
              "velocity": 110,
              "start": 1240.5,
              "duration": 0.4892578125
            },
            {
              "id": 1816,
              "pitch": 69,
              "velocity": 110,
              "start": 1240.75,
              "duration": 0.2392578125
            },
            {
              "id": 1815,
              "pitch": 75,
              "velocity": 110,
              "start": 1241.0,
              "duration": 0.2392578125
            },
            {
              "id": 1814,
              "pitch": 49,
              "velocity": 110,
              "start": 1241.0,
              "duration": 0.4892578125
            },
            {
              "id": 1813,
              "pitch": 69,
              "velocity": 110,
              "start": 1241.25,
              "duration": 0.2392578125
            },
            {
              "id": 1812,
              "pitch": 74,
              "velocity": 110,
              "start": 1241.5,
              "duration": 0.2392578125
            },
            {
              "id": 1811,
              "pitch": 44,
              "velocity": 110,
              "start": 1241.5,
              "duration": 0.4892578125
            },
            {
              "id": 1810,
              "pitch": 69,
              "velocity": 110,
              "start": 1241.75,
              "duration": 0.2392578125
            },
            {
              "id": 1809,
              "pitch": 45,
              "velocity": 110,
              "start": 1242.0,
              "duration": 3.75
            },
            {
              "id": 1808,
              "pitch": 67,
              "velocity": 110,
              "start": 1242.25,
              "duration": 0.2392578125
            },
            {
              "id": 1807,
              "pitch": 73,
              "velocity": 110,
              "start": 1242.5,
              "duration": 0.2392578125
            },
            {
              "id": 1806,
              "pitch": 67,
              "velocity": 110,
              "start": 1242.75,
              "duration": 0.2392578125
            },
            {
              "id": 1805,
              "pitch": 67,
              "velocity": 110,
              "start": 1243.25,
              "duration": 0.2392578125
            },
            {
              "id": 1804,
              "pitch": 73,
              "velocity": 110,
              "start": 1243.5,
              "duration": 0.2392578125
            },
            {
              "id": 1803,
              "pitch": 67,
              "velocity": 110,
              "start": 1243.75,
              "duration": 0.2392578125
            },
            {
              "id": 1802,
              "pitch": 67,
              "velocity": 110,
              "start": 1244.25,
              "duration": 0.2392578125
            },
            {
              "id": 1801,
              "pitch": 73,
              "velocity": 110,
              "start": 1244.5,
              "duration": 0.2392578125
            },
            {
              "id": 1800,
              "pitch": 67,
              "velocity": 110,
              "start": 1244.75,
              "duration": 0.2392578125
            },
            {
              "id": 1799,
              "pitch": 67,
              "velocity": 110,
              "start": 1245.25,
              "duration": 0.2392578125
            },
            {
              "id": 1798,
              "pitch": 73,
              "velocity": 110,
              "start": 1245.5,
              "duration": 0.2392578125
            },
            {
              "id": 1797,
              "pitch": 67,
              "velocity": 110,
              "start": 1245.75,
              "duration": 0.2392578125
            },
            {
              "id": 1796,
              "pitch": 44,
              "velocity": 110,
              "start": 1246.0,
              "duration": 1.75
            },
            {
              "id": 1795,
              "pitch": 68,
              "velocity": 110,
              "start": 1246.25,
              "duration": 0.2392578125
            },
            {
              "id": 1794,
              "pitch": 71,
              "velocity": 110,
              "start": 1246.5,
              "duration": 0.2392578125
            },
            {
              "id": 1793,
              "pitch": 68,
              "velocity": 110,
              "start": 1246.75,
              "duration": 0.2392578125
            },
            {
              "id": 1792,
              "pitch": 74,
              "velocity": 110,
              "start": 1247.0,
              "duration": 0.2392578125
            },
            {
              "id": 1791,
              "pitch": 68,
              "velocity": 110,
              "start": 1247.25,
              "duration": 0.2392578125
            },
            {
              "id": 1790,
              "pitch": 71,
              "velocity": 110,
              "start": 1247.5,
              "duration": 0.2392578125
            },
            {
              "id": 1789,
              "pitch": 68,
              "velocity": 110,
              "start": 1247.75,
              "duration": 0.2392578125
            },
            {
              "id": 1788,
              "pitch": 45,
              "velocity": 110,
              "start": 1248.0,
              "duration": 0.4892578125
            },
            {
              "id": 1787,
              "pitch": 68,
              "velocity": 110,
              "start": 1248.25,
              "duration": 0.2392578125
            },
            {
              "id": 1786,
              "pitch": 71,
              "velocity": 110,
              "start": 1248.5,
              "duration": 0.2392578125
            },
            {
              "id": 1785,
              "pitch": 44,
              "velocity": 110,
              "start": 1248.5,
              "duration": 0.4892578125
            },
            {
              "id": 1784,
              "pitch": 68,
              "velocity": 110,
              "start": 1248.75,
              "duration": 0.2392578125
            },
            {
              "id": 1783,
              "pitch": 73,
              "velocity": 110,
              "start": 1249.0,
              "duration": 0.2392578125
            },
            {
              "id": 1782,
              "pitch": 43,
              "velocity": 110,
              "start": 1249.0,
              "duration": 0.4892578125
            },
            {
              "id": 1781,
              "pitch": 67,
              "velocity": 110,
              "start": 1249.25,
              "duration": 0.2392578125
            },
            {
              "id": 1780,
              "pitch": 70,
              "velocity": 110,
              "start": 1249.5,
              "duration": 0.2392578125
            },
            {
              "id": 1779,
              "pitch": 49,
              "velocity": 110,
              "start": 1249.5,
              "duration": 0.4892578125
            },
            {
              "id": 1778,
              "pitch": 67,
              "velocity": 110,
              "start": 1249.75,
              "duration": 0.2392578125
            },
            {
              "id": 1777,
              "pitch": 38,
              "velocity": 110,
              "start": 1250.0,
              "duration": 3.75
            },
            {
              "id": 1776,
              "pitch": 50,
              "velocity": 110,
              "start": 1250.0,
              "duration": 3.75
            },
            {
              "id": 1775,
              "pitch": 69,
              "velocity": 110,
              "start": 1250.25,
              "duration": 0.2392578125
            },
            {
              "id": 1774,
              "pitch": 74,
              "velocity": 110,
              "start": 1250.5,
              "duration": 0.2392578125
            },
            {
              "id": 1773,
              "pitch": 69,
              "velocity": 110,
              "start": 1250.75,
              "duration": 0.2392578125
            },
            {
              "id": 1772,
              "pitch": 77,
              "velocity": 110,
              "start": 1251.0,
              "duration": 0.2392578125
            },
            {
              "id": 1771,
              "pitch": 69,
              "velocity": 110,
              "start": 1251.25,
              "duration": 0.2392578125
            },
            {
              "id": 1770,
              "pitch": 74,
              "velocity": 110,
              "start": 1251.5,
              "duration": 0.2392578125
            },
            {
              "id": 1769,
              "pitch": 69,
              "velocity": 110,
              "start": 1251.75,
              "duration": 0.2392578125
            },
            {
              "id": 1768,
              "pitch": 69,
              "velocity": 110,
              "start": 1252.25,
              "duration": 0.2392578125
            },
            {
              "id": 1767,
              "pitch": 74,
              "velocity": 110,
              "start": 1252.5,
              "duration": 0.2392578125
            },
            {
              "id": 1766,
              "pitch": 69,
              "velocity": 110,
              "start": 1252.75,
              "duration": 0.2392578125
            },
            {
              "id": 1765,
              "pitch": 77,
              "velocity": 110,
              "start": 1253.0,
              "duration": 0.2392578125
            },
            {
              "id": 1764,
              "pitch": 74,
              "velocity": 110,
              "start": 1253.25,
              "duration": 0.2392578125
            },
            {
              "id": 1763,
              "pitch": 77,
              "velocity": 110,
              "start": 1253.5,
              "duration": 0.2392578125
            },
            {
              "id": 1762,
              "pitch": 81,
              "velocity": 110,
              "start": 1253.75,
              "duration": 0.2392578125
            },
            {
              "id": 1761,
              "pitch": 74,
              "velocity": 110,
              "start": 1254.0,
              "duration": 0.2392578125
            },
            {
              "id": 1760,
              "pitch": 86,
              "velocity": 110,
              "start": 1254.0,
              "duration": 0.2392578125
            },
            {
              "id": 1759,
              "pitch": 38,
              "velocity": 110,
              "start": 1254.0,
              "duration": 1.75
            },
            {
              "id": 1758,
              "pitch": 50,
              "velocity": 110,
              "start": 1254.0,
              "duration": 1.75
            },
            {
              "id": 1757,
              "pitch": 74,
              "velocity": 110,
              "start": 1254.25,
              "duration": 0.2392578125
            },
            {
              "id": 1756,
              "pitch": 77,
              "velocity": 110,
              "start": 1254.5,
              "duration": 0.2392578125
            },
            {
              "id": 1755,
              "pitch": 74,
              "velocity": 110,
              "start": 1254.75,
              "duration": 0.2392578125
            },
            {
              "id": 1754,
              "pitch": 81,
              "velocity": 110,
              "start": 1255.0,
              "duration": 0.2392578125
            },
            {
              "id": 1753,
              "pitch": 74,
              "velocity": 110,
              "start": 1255.25,
              "duration": 0.2392578125
            },
            {
              "id": 1752,
              "pitch": 77,
              "velocity": 110,
              "start": 1255.5,
              "duration": 0.2392578125
            },
            {
              "id": 1751,
              "pitch": 74,
              "velocity": 110,
              "start": 1255.75,
              "duration": 0.2392578125
            },
            {
              "id": 1750,
              "pitch": 75,
              "velocity": 110,
              "start": 1256.0,
              "duration": 0.2392578125
            },
            {
              "id": 1749,
              "pitch": 81,
              "velocity": 110,
              "start": 1256.0,
              "duration": 0.2392578125
            },
            {
              "id": 1748,
              "pitch": 51,
              "velocity": 110,
              "start": 1256.0,
              "duration": 0.4892578125
            },
            {
              "id": 1747,
              "pitch": 74,
              "velocity": 110,
              "start": 1256.25,
              "duration": 0.2392578125
            },
            {
              "id": 1746,
              "pitch": 74,
              "velocity": 110,
              "start": 1256.5,
              "duration": 0.4892578125
            },
            {
              "id": 1745,
              "pitch": 77,
              "velocity": 110,
              "start": 1256.5,
              "duration": 0.4892578125
            },
            {
              "id": 1744,
              "pitch": 50,
              "velocity": 110,
              "start": 1256.5,
              "duration": 0.4892578125
            },
            {
              "id": 1743,
              "pitch": 73,
              "velocity": 110,
              "start": 1257.0,
              "duration": 0.2392578125
            },
            {
              "id": 1742,
              "pitch": 81,
              "velocity": 110,
              "start": 1257.0,
              "duration": 0.2392578125
            },
            {
              "id": 1741,
              "pitch": 49,
              "velocity": 110,
              "start": 1257.0,
              "duration": 0.4892578125
            },
            {
              "id": 1740,
              "pitch": 74,
              "velocity": 110,
              "start": 1257.25,
              "duration": 0.2392578125
            },
            {
              "id": 1739,
              "pitch": 68,
              "velocity": 110,
              "start": 1257.5,
              "duration": 0.2392578125
            },
            {
              "id": 1738,
              "pitch": 77,
              "velocity": 110,
              "start": 1257.5,
              "duration": 0.2392578125
            },
            {
              "id": 1737,
              "pitch": 44,
              "velocity": 110,
              "start": 1257.5,
              "duration": 0.4892578125
            },
            {
              "id": 1736,
              "pitch": 74,
              "velocity": 110,
              "start": 1257.75,
              "duration": 0.2392578125
            },
            {
              "id": 1735,
              "pitch": 69,
              "velocity": 110,
              "start": 1258.0,
              "duration": 0.2392578125
            },
            {
              "id": 1734,
              "pitch": 40,
              "velocity": 110,
              "start": 1258.0,
              "duration": 3.75
            },
            {
              "id": 1733,
              "pitch": 45,
              "velocity": 110,
              "start": 1258.0,
              "duration": 3.75
            },
            {
              "id": 1732,
              "pitch": 52,
              "velocity": 110,
              "start": 1258.0,
              "duration": 3.75
            },
            {
              "id": 1731,
              "pitch": 73,
              "velocity": 110,
              "start": 1258.25,
              "duration": 0.2392578125
            },
            {
              "id": 1730,
              "pitch": 76,
              "velocity": 110,
              "start": 1258.5,
              "duration": 0.2392578125
            },
            {
              "id": 1729,
              "pitch": 73,
              "velocity": 110,
              "start": 1258.75,
              "duration": 0.2392578125
            },
            {
              "id": 1728,
              "pitch": 79,
              "velocity": 110,
              "start": 1259.0,
              "duration": 0.2392578125
            },
            {
              "id": 1727,
              "pitch": 73,
              "velocity": 110,
              "start": 1259.25,
              "duration": 0.2392578125
            },
            {
              "id": 1726,
              "pitch": 76,
              "velocity": 110,
              "start": 1259.5,
              "duration": 0.2392578125
            },
            {
              "id": 1725,
              "pitch": 73,
              "velocity": 110,
              "start": 1259.75,
              "duration": 0.2392578125
            },
            {
              "id": 1724,
              "pitch": 69,
              "velocity": 110,
              "start": 1260.0,
              "duration": 0.2392578125
            },
            {
              "id": 1723,
              "pitch": 73,
              "velocity": 110,
              "start": 1260.25,
              "duration": 0.2392578125
            },
            {
              "id": 1722,
              "pitch": 76,
              "velocity": 110,
              "start": 1260.5,
              "duration": 0.2392578125
            },
            {
              "id": 1721,
              "pitch": 73,
              "velocity": 110,
              "start": 1260.75,
              "duration": 0.2392578125
            },
            {
              "id": 1720,
              "pitch": 79,
              "velocity": 110,
              "start": 1261.0,
              "duration": 0.2392578125
            },
            {
              "id": 1719,
              "pitch": 73,
              "velocity": 110,
              "start": 1261.25,
              "duration": 0.2392578125
            },
            {
              "id": 1718,
              "pitch": 76,
              "velocity": 110,
              "start": 1261.5,
              "duration": 0.2392578125
            },
            {
              "id": 1717,
              "pitch": 73,
              "velocity": 110,
              "start": 1261.75,
              "duration": 0.2392578125
            },
            {
              "id": 1716,
              "pitch": 68,
              "velocity": 110,
              "start": 1262.0,
              "duration": 0.2392578125
            },
            {
              "id": 1715,
              "pitch": 71,
              "velocity": 110,
              "start": 1262.0,
              "duration": 0.2392578125
            },
            {
              "id": 1714,
              "pitch": 41,
              "velocity": 110,
              "start": 1262.0,
              "duration": 1.75
            },
            {
              "id": 1713,
              "pitch": 44,
              "velocity": 110,
              "start": 1262.0,
              "duration": 1.75
            },
            {
              "id": 1712,
              "pitch": 53,
              "velocity": 110,
              "start": 1262.0,
              "duration": 1.75
            },
            {
              "id": 1711,
              "pitch": 74,
              "velocity": 110,
              "start": 1262.25,
              "duration": 0.2392578125
            },
            {
              "id": 1710,
              "pitch": 77,
              "velocity": 110,
              "start": 1262.5,
              "duration": 0.2392578125
            },
            {
              "id": 1709,
              "pitch": 74,
              "velocity": 110,
              "start": 1262.75,
              "duration": 0.2392578125
            },
            {
              "id": 1708,
              "pitch": 80,
              "velocity": 110,
              "start": 1263.0,
              "duration": 0.2392578125
            },
            {
              "id": 1707,
              "pitch": 74,
              "velocity": 110,
              "start": 1263.25,
              "duration": 0.2392578125
            },
            {
              "id": 1706,
              "pitch": 77,
              "velocity": 110,
              "start": 1263.5,
              "duration": 0.2392578125
            },
            {
              "id": 1705,
              "pitch": 74,
              "velocity": 110,
              "start": 1263.75,
              "duration": 0.2392578125
            },
            {
              "id": 1704,
              "pitch": 69,
              "velocity": 110,
              "start": 1264.0,
              "duration": 0.2392578125
            },
            {
              "id": 1703,
              "pitch": 71,
              "velocity": 110,
              "start": 1264.0,
              "duration": 0.2392578125
            },
            {
              "id": 1702,
              "pitch": 45,
              "velocity": 110,
              "start": 1264.0,
              "duration": 0.4892578125
            },
            {
              "id": 1701,
              "pitch": 74,
              "velocity": 110,
              "start": 1264.25,
              "duration": 0.2392578125
            },
            {
              "id": 1700,
              "pitch": 77,
              "velocity": 110,
              "start": 1264.5,
              "duration": 0.2392578125
            },
            {
              "id": 1699,
              "pitch": 44,
              "velocity": 110,
              "start": 1264.5,
              "duration": 0.4892578125
            },
            {
              "id": 1698,
              "pitch": 74,
              "velocity": 110,
              "start": 1264.75,
              "duration": 0.2392578125
            },
            {
              "id": 1697,
              "pitch": 67,
              "velocity": 110,
              "start": 1265.0,
              "duration": 0.2392578125
            },
            {
              "id": 1696,
              "pitch": 79,
              "velocity": 110,
              "start": 1265.0,
              "duration": 0.2392578125
            },
            {
              "id": 1695,
              "pitch": 40,
              "velocity": 110,
              "start": 1265.0,
              "duration": 0.4892578125
            },
            {
              "id": 1694,
              "pitch": 43,
              "velocity": 110,
              "start": 1265.0,
              "duration": 0.4892578125
            },
            {
              "id": 1693,
              "pitch": 52,
              "velocity": 110,
              "start": 1265.0,
              "duration": 0.4892578125
            },
            {
              "id": 1692,
              "pitch": 70,
              "velocity": 110,
              "start": 1265.25,
              "duration": 0.2392578125
            },
            {
              "id": 1691,
              "pitch": 73,
              "velocity": 110,
              "start": 1265.5,
              "duration": 0.2392578125
            },
            {
              "id": 1690,
              "pitch": 49,
              "velocity": 110,
              "start": 1265.5,
              "duration": 0.4892578125
            },
            {
              "id": 1689,
              "pitch": 70,
              "velocity": 110,
              "start": 1265.75,
              "duration": 0.2392578125
            },
            {
              "id": 1688,
              "pitch": 69,
              "velocity": 110,
              "start": 1266.0,
              "duration": 0.2392578125
            },
            {
              "id": 1687,
              "pitch": 38,
              "velocity": 110,
              "start": 1266.0,
              "duration": 3.75
            },
            {
              "id": 1686,
              "pitch": 50,
              "velocity": 110,
              "start": 1266.0,
              "duration": 3.75
            },
            {
              "id": 1685,
              "pitch": 53,
              "velocity": 110,
              "start": 1266.0,
              "duration": 3.75
            },
            {
              "id": 1684,
              "pitch": 74,
              "velocity": 110,
              "start": 1266.25,
              "duration": 0.2392578125
            },
            {
              "id": 1683,
              "pitch": 77,
              "velocity": 110,
              "start": 1266.5,
              "duration": 0.2392578125
            },
            {
              "id": 1682,
              "pitch": 74,
              "velocity": 110,
              "start": 1266.75,
              "duration": 0.2392578125
            },
            {
              "id": 1681,
              "pitch": 81,
              "velocity": 110,
              "start": 1267.0,
              "duration": 0.2392578125
            },
            {
              "id": 1680,
              "pitch": 69,
              "velocity": 110,
              "start": 1267.25,
              "duration": 0.2392578125
            },
            {
              "id": 1679,
              "pitch": 74,
              "velocity": 110,
              "start": 1267.5,
              "duration": 0.2392578125
            },
            {
              "id": 1678,
              "pitch": 77,
              "velocity": 110,
              "start": 1267.75,
              "duration": 0.2392578125
            },
            {
              "id": 1677,
              "pitch": 74,
              "velocity": 110,
              "start": 1268.0,
              "duration": 0.4892578125
            },
            {
              "id": 1676,
              "pitch": 77,
              "velocity": 110,
              "start": 1268.0,
              "duration": 0.4892578125
            },
            {
              "id": 1675,
              "pitch": 81,
              "velocity": 110,
              "start": 1268.0,
              "duration": 0.4892578125
            },
            {
              "id": 1674,
              "pitch": 74,
              "velocity": 110,
              "start": 1268.5,
              "duration": 0.4892578125
            },
            {
              "id": 1673,
              "pitch": 77,
              "velocity": 110,
              "start": 1268.5,
              "duration": 0.4892578125
            },
            {
              "id": 1672,
              "pitch": 81,
              "velocity": 110,
              "start": 1268.5,
              "duration": 0.4892578125
            },
            {
              "id": 1671,
              "pitch": 74,
              "velocity": 110,
              "start": 1269.0,
              "duration": 0.4892578125
            },
            {
              "id": 1670,
              "pitch": 77,
              "velocity": 110,
              "start": 1269.0,
              "duration": 0.4892578125
            },
            {
              "id": 1669,
              "pitch": 81,
              "velocity": 110,
              "start": 1269.0,
              "duration": 0.4892578125
            },
            {
              "id": 1668,
              "pitch": 74,
              "velocity": 110,
              "start": 1269.5,
              "duration": 0.4892578125
            },
            {
              "id": 1667,
              "pitch": 77,
              "velocity": 110,
              "start": 1269.5,
              "duration": 0.4892578125
            },
            {
              "id": 1666,
              "pitch": 81,
              "velocity": 110,
              "start": 1269.5,
              "duration": 0.4892578125
            },
            {
              "id": 1665,
              "pitch": 57,
              "velocity": 110,
              "start": 1270.25,
              "duration": 0.2392578125
            },
            {
              "id": 1664,
              "pitch": 62,
              "velocity": 110,
              "start": 1270.25,
              "duration": 0.2392578125
            },
            {
              "id": 1663,
              "pitch": 65,
              "velocity": 110,
              "start": 1270.25,
              "duration": 0.2392578125
            },
            {
              "id": 1662,
              "pitch": 57,
              "velocity": 110,
              "start": 1270.5,
              "duration": 0.2392578125
            },
            {
              "id": 1661,
              "pitch": 62,
              "velocity": 110,
              "start": 1270.5,
              "duration": 0.2392578125
            },
            {
              "id": 1660,
              "pitch": 65,
              "velocity": 110,
              "start": 1270.5,
              "duration": 0.2392578125
            },
            {
              "id": 1659,
              "pitch": 57,
              "velocity": 110,
              "start": 1270.75,
              "duration": 0.2392578125
            },
            {
              "id": 1658,
              "pitch": 62,
              "velocity": 110,
              "start": 1270.75,
              "duration": 0.2392578125
            },
            {
              "id": 1657,
              "pitch": 65,
              "velocity": 110,
              "start": 1270.75,
              "duration": 0.2392578125
            },
            {
              "id": 1656,
              "pitch": 58,
              "velocity": 110,
              "start": 1271.0,
              "duration": 0.2392578125
            },
            {
              "id": 1655,
              "pitch": 64,
              "velocity": 110,
              "start": 1271.0,
              "duration": 0.2392578125
            },
            {
              "id": 1654,
              "pitch": 58,
              "velocity": 110,
              "start": 1271.25,
              "duration": 0.2392578125
            },
            {
              "id": 1653,
              "pitch": 64,
              "velocity": 110,
              "start": 1271.25,
              "duration": 0.2392578125
            },
            {
              "id": 1652,
              "pitch": 55,
              "velocity": 110,
              "start": 1271.5,
              "duration": 0.2392578125
            },
            {
              "id": 1651,
              "pitch": 61,
              "velocity": 110,
              "start": 1271.5,
              "duration": 0.2392578125
            },
            {
              "id": 1650,
              "pitch": 55,
              "velocity": 110,
              "start": 1271.75,
              "duration": 0.2392578125
            },
            {
              "id": 1649,
              "pitch": 61,
              "velocity": 110,
              "start": 1271.75,
              "duration": 0.2392578125
            },
            {
              "id": 1648,
              "pitch": 57,
              "velocity": 110,
              "start": 1272.0,
              "duration": 0.2392578125
            },
            {
              "id": 1647,
              "pitch": 62,
              "velocity": 110,
              "start": 1272.0,
              "duration": 0.2392578125
            },
            {
              "id": 1646,
              "pitch": 57,
              "velocity": 110,
              "start": 1272.25,
              "duration": 0.2392578125
            },
            {
              "id": 1645,
              "pitch": 62,
              "velocity": 110,
              "start": 1272.25,
              "duration": 0.2392578125
            },
            {
              "id": 1644,
              "pitch": 57,
              "velocity": 110,
              "start": 1272.5,
              "duration": 0.2392578125
            },
            {
              "id": 1643,
              "pitch": 62,
              "velocity": 110,
              "start": 1272.5,
              "duration": 0.2392578125
            },
            {
              "id": 1642,
              "pitch": 65,
              "velocity": 110,
              "start": 1272.5,
              "duration": 0.2392578125
            },
            {
              "id": 1641,
              "pitch": 57,
              "velocity": 110,
              "start": 1272.75,
              "duration": 0.2392578125
            },
            {
              "id": 1640,
              "pitch": 62,
              "velocity": 110,
              "start": 1272.75,
              "duration": 0.2392578125
            },
            {
              "id": 1639,
              "pitch": 65,
              "velocity": 110,
              "start": 1272.75,
              "duration": 0.2392578125
            },
            {
              "id": 1638,
              "pitch": 58,
              "velocity": 110,
              "start": 1273.0,
              "duration": 0.2392578125
            },
            {
              "id": 1637,
              "pitch": 64,
              "velocity": 110,
              "start": 1273.0,
              "duration": 0.2392578125
            },
            {
              "id": 1636,
              "pitch": 58,
              "velocity": 110,
              "start": 1273.25,
              "duration": 0.2392578125
            },
            {
              "id": 1635,
              "pitch": 64,
              "velocity": 110,
              "start": 1273.25,
              "duration": 0.2392578125
            },
            {
              "id": 1634,
              "pitch": 55,
              "velocity": 110,
              "start": 1273.5,
              "duration": 0.2392578125
            },
            {
              "id": 1633,
              "pitch": 60,
              "velocity": 110,
              "start": 1273.5,
              "duration": 0.2392578125
            },
            {
              "id": 1632,
              "pitch": 55,
              "velocity": 110,
              "start": 1273.75,
              "duration": 0.2392578125
            },
            {
              "id": 1631,
              "pitch": 60,
              "velocity": 110,
              "start": 1273.75,
              "duration": 0.2392578125
            },
            {
              "id": 1630,
              "pitch": 62,
              "velocity": 110,
              "start": 1274.25,
              "duration": 0.2392578125
            },
            {
              "id": 1629,
              "pitch": 65,
              "velocity": 110,
              "start": 1274.25,
              "duration": 0.2392578125
            },
            {
              "id": 1628,
              "pitch": 70,
              "velocity": 110,
              "start": 1274.25,
              "duration": 0.2392578125
            },
            {
              "id": 1627,
              "pitch": 62,
              "velocity": 110,
              "start": 1274.5,
              "duration": 0.2392578125
            },
            {
              "id": 1626,
              "pitch": 65,
              "velocity": 110,
              "start": 1274.5,
              "duration": 0.2392578125
            },
            {
              "id": 1625,
              "pitch": 70,
              "velocity": 110,
              "start": 1274.5,
              "duration": 0.2392578125
            },
            {
              "id": 1624,
              "pitch": 62,
              "velocity": 110,
              "start": 1274.75,
              "duration": 0.2392578125
            },
            {
              "id": 1623,
              "pitch": 65,
              "velocity": 110,
              "start": 1274.75,
              "duration": 0.2392578125
            },
            {
              "id": 1622,
              "pitch": 70,
              "velocity": 110,
              "start": 1274.75,
              "duration": 0.2392578125
            },
            {
              "id": 1621,
              "pitch": 62,
              "velocity": 110,
              "start": 1275.0,
              "duration": 0.2392578125
            },
            {
              "id": 1620,
              "pitch": 65,
              "velocity": 110,
              "start": 1275.0,
              "duration": 0.2392578125
            },
            {
              "id": 1619,
              "pitch": 74,
              "velocity": 110,
              "start": 1275.0,
              "duration": 0.2392578125
            },
            {
              "id": 1618,
              "pitch": 62,
              "velocity": 110,
              "start": 1275.25,
              "duration": 0.2392578125
            },
            {
              "id": 1617,
              "pitch": 65,
              "velocity": 110,
              "start": 1275.25,
              "duration": 0.2392578125
            },
            {
              "id": 1616,
              "pitch": 74,
              "velocity": 110,
              "start": 1275.25,
              "duration": 0.2392578125
            },
            {
              "id": 1615,
              "pitch": 62,
              "velocity": 110,
              "start": 1275.5,
              "duration": 0.2392578125
            },
            {
              "id": 1614,
              "pitch": 65,
              "velocity": 110,
              "start": 1275.5,
              "duration": 0.2392578125
            },
            {
              "id": 1613,
              "pitch": 70,
              "velocity": 110,
              "start": 1275.5,
              "duration": 0.2392578125
            },
            {
              "id": 1612,
              "pitch": 62,
              "velocity": 110,
              "start": 1275.75,
              "duration": 0.2392578125
            },
            {
              "id": 1611,
              "pitch": 65,
              "velocity": 110,
              "start": 1275.75,
              "duration": 0.2392578125
            },
            {
              "id": 1610,
              "pitch": 70,
              "velocity": 110,
              "start": 1275.75,
              "duration": 0.2392578125
            },
            {
              "id": 1609,
              "pitch": 67,
              "velocity": 110,
              "start": 1276.0,
              "duration": 0.2392578125
            },
            {
              "id": 1608,
              "pitch": 76,
              "velocity": 110,
              "start": 1276.0,
              "duration": 0.2392578125
            },
            {
              "id": 1607,
              "pitch": 82,
              "velocity": 110,
              "start": 1276.0,
              "duration": 0.2392578125
            },
            {
              "id": 1606,
              "pitch": 67,
              "velocity": 110,
              "start": 1276.25,
              "duration": 0.2392578125
            },
            {
              "id": 1605,
              "pitch": 76,
              "velocity": 110,
              "start": 1276.25,
              "duration": 0.2392578125
            },
            {
              "id": 1604,
              "pitch": 82,
              "velocity": 110,
              "start": 1276.25,
              "duration": 0.2392578125
            },
            {
              "id": 1603,
              "pitch": 67,
              "velocity": 110,
              "start": 1276.5,
              "duration": 0.2392578125
            },
            {
              "id": 1602,
              "pitch": 73,
              "velocity": 110,
              "start": 1276.5,
              "duration": 0.2392578125
            },
            {
              "id": 1601,
              "pitch": 79,
              "velocity": 110,
              "start": 1276.5,
              "duration": 0.2392578125
            },
            {
              "id": 1600,
              "pitch": 67,
              "velocity": 110,
              "start": 1276.75,
              "duration": 0.2392578125
            },
            {
              "id": 1599,
              "pitch": 73,
              "velocity": 110,
              "start": 1276.75,
              "duration": 0.2392578125
            },
            {
              "id": 1598,
              "pitch": 79,
              "velocity": 110,
              "start": 1276.75,
              "duration": 0.2392578125
            },
            {
              "id": 1597,
              "pitch": 67,
              "velocity": 110,
              "start": 1277.0,
              "duration": 0.2392578125
            },
            {
              "id": 1596,
              "pitch": 70,
              "velocity": 110,
              "start": 1277.0,
              "duration": 0.2392578125
            },
            {
              "id": 1595,
              "pitch": 79,
              "velocity": 110,
              "start": 1277.0,
              "duration": 0.2392578125
            },
            {
              "id": 1594,
              "pitch": 85,
              "velocity": 110,
              "start": 1277.0,
              "duration": 0.2392578125
            },
            {
              "id": 1593,
              "pitch": 67,
              "velocity": 110,
              "start": 1277.25,
              "duration": 0.2392578125
            },
            {
              "id": 1592,
              "pitch": 70,
              "velocity": 110,
              "start": 1277.25,
              "duration": 0.2392578125
            },
            {
              "id": 1591,
              "pitch": 79,
              "velocity": 110,
              "start": 1277.25,
              "duration": 0.2392578125
            },
            {
              "id": 1590,
              "pitch": 85,
              "velocity": 110,
              "start": 1277.25,
              "duration": 0.2392578125
            },
            {
              "id": 1589,
              "pitch": 67,
              "velocity": 110,
              "start": 1277.5,
              "duration": 0.2392578125
            },
            {
              "id": 1588,
              "pitch": 70,
              "velocity": 110,
              "start": 1277.5,
              "duration": 0.2392578125
            },
            {
              "id": 1587,
              "pitch": 76,
              "velocity": 110,
              "start": 1277.5,
              "duration": 0.2392578125
            },
            {
              "id": 1586,
              "pitch": 82,
              "velocity": 110,
              "start": 1277.5,
              "duration": 0.2392578125
            },
            {
              "id": 1585,
              "pitch": 67,
              "velocity": 110,
              "start": 1277.75,
              "duration": 0.2392578125
            },
            {
              "id": 1584,
              "pitch": 70,
              "velocity": 110,
              "start": 1277.75,
              "duration": 0.2392578125
            },
            {
              "id": 1583,
              "pitch": 76,
              "velocity": 110,
              "start": 1277.75,
              "duration": 0.2392578125
            },
            {
              "id": 1582,
              "pitch": 82,
              "velocity": 110,
              "start": 1277.75,
              "duration": 0.2392578125
            },
            {
              "id": 1581,
              "pitch": 38,
              "velocity": 110,
              "start": 1278.0,
              "duration": 4.75
            },
            {
              "id": 1580,
              "pitch": 50,
              "velocity": 110,
              "start": 1278.0,
              "duration": 4.75
            },
            {
              "id": 1579,
              "pitch": 69,
              "velocity": 110,
              "start": 1278.25,
              "duration": 0.2392578125
            },
            {
              "id": 1578,
              "pitch": 74,
              "velocity": 110,
              "start": 1278.5,
              "duration": 0.2392578125
            },
            {
              "id": 1577,
              "pitch": 81,
              "velocity": 110,
              "start": 1278.75,
              "duration": 0.2392578125
            },
            {
              "id": 1576,
              "pitch": 80,
              "velocity": 110,
              "start": 1279.0,
              "duration": 0.2392578125
            },
            {
              "id": 1575,
              "pitch": 69,
              "velocity": 110,
              "start": 1279.25,
              "duration": 0.2392578125
            },
            {
              "id": 1574,
              "pitch": 74,
              "velocity": 110,
              "start": 1279.5,
              "duration": 0.2392578125
            },
            {
              "id": 1573,
              "pitch": 79,
              "velocity": 110,
              "start": 1279.75,
              "duration": 0.2392578125
            },
            {
              "id": 1572,
              "pitch": 77,
              "velocity": 110,
              "start": 1280.0,
              "duration": 0.2392578125
            },
            {
              "id": 1571,
              "pitch": 69,
              "velocity": 110,
              "start": 1280.25,
              "duration": 0.2392578125
            },
            {
              "id": 1570,
              "pitch": 74,
              "velocity": 110,
              "start": 1280.5,
              "duration": 0.2392578125
            },
            {
              "id": 1569,
              "pitch": 77,
              "velocity": 110,
              "start": 1280.75,
              "duration": 0.2392578125
            },
            {
              "id": 1568,
              "pitch": 76,
              "velocity": 110,
              "start": 1281.0,
              "duration": 0.2392578125
            },
            {
              "id": 1567,
              "pitch": 67,
              "velocity": 110,
              "start": 1281.25,
              "duration": 0.2392578125
            },
            {
              "id": 1566,
              "pitch": 73,
              "velocity": 110,
              "start": 1281.5,
              "duration": 0.2392578125
            },
            {
              "id": 1565,
              "pitch": 76,
              "velocity": 110,
              "start": 1281.75,
              "duration": 0.2392578125
            },
            {
              "id": 1564,
              "pitch": 74,
              "velocity": 110,
              "start": 1282.0,
              "duration": 0.4892578125
            },
            {
              "id": 1563,
              "pitch": 69,
              "velocity": 110,
              "start": 1282.5,
              "duration": 0.2392578125
            },
            {
              "id": 1562,
              "pitch": 74,
              "velocity": 110,
              "start": 1282.75,
              "duration": 0.2392578125
            },
            {
              "id": 1561,
              "pitch": 73,
              "velocity": 110,
              "start": 1283.0,
              "duration": 0.4892578125
            },
            {
              "id": 1560,
              "pitch": 40,
              "velocity": 110,
              "start": 1283.0,
              "duration": 0.8330078125
            },
            {
              "id": 1559,
              "pitch": 52,
              "velocity": 110,
              "start": 1283.0,
              "duration": 0.8330078125
            },
            {
              "id": 1558,
              "pitch": 67,
              "velocity": 110,
              "start": 1283.5,
              "duration": 0.2392578125
            },
            {
              "id": 1557,
              "pitch": 70,
              "velocity": 110,
              "start": 1283.75,
              "duration": 0.2392578125
            },
            {
              "id": 1556,
              "pitch": 69,
              "velocity": 110,
              "start": 1284.0,
              "duration": 0.4892578125
            },
            {
              "id": 1555,
              "pitch": 41,
              "velocity": 110,
              "start": 1284.0,
              "duration": 1.75
            },
            {
              "id": 1554,
              "pitch": 53,
              "velocity": 110,
              "start": 1284.0,
              "duration": 1.75
            },
            {
              "id": 1553,
              "pitch": 69,
              "velocity": 110,
              "start": 1284.5,
              "duration": 0.2392578125
            },
            {
              "id": 1552,
              "pitch": 74,
              "velocity": 110,
              "start": 1284.75,
              "duration": 0.2392578125
            },
            {
              "id": 1551,
              "pitch": 77,
              "velocity": 110,
              "start": 1285.0,
              "duration": 0.2392578125
            },
            {
              "id": 1550,
              "pitch": 69,
              "velocity": 110,
              "start": 1285.25,
              "duration": 0.2392578125
            },
            {
              "id": 1549,
              "pitch": 74,
              "velocity": 110,
              "start": 1285.5,
              "duration": 0.2392578125
            },
            {
              "id": 1548,
              "pitch": 77,
              "velocity": 110,
              "start": 1285.75,
              "duration": 0.2392578125
            },
            {
              "id": 1547,
              "pitch": 70,
              "velocity": 110,
              "start": 1286.0,
              "duration": 0.2392578125
            },
            {
              "id": 1546,
              "pitch": 43,
              "velocity": 110,
              "start": 1286.0,
              "duration": 1.75
            },
            {
              "id": 1545,
              "pitch": 67,
              "velocity": 110,
              "start": 1286.25,
              "duration": 0.2392578125
            },
            {
              "id": 1544,
              "pitch": 70,
              "velocity": 110,
              "start": 1286.5,
              "duration": 0.2392578125
            },
            {
              "id": 1543,
              "pitch": 73,
              "velocity": 110,
              "start": 1286.75,
              "duration": 0.2392578125
            },
            {
              "id": 1542,
              "pitch": 76,
              "velocity": 110,
              "start": 1287.0,
              "duration": 0.2392578125
            },
            {
              "id": 1541,
              "pitch": 70,
              "velocity": 110,
              "start": 1287.25,
              "duration": 0.2392578125
            },
            {
              "id": 1540,
              "pitch": 73,
              "velocity": 110,
              "start": 1287.5,
              "duration": 0.2392578125
            },
            {
              "id": 1539,
              "pitch": 76,
              "velocity": 110,
              "start": 1287.75,
              "duration": 0.2392578125
            },
            {
              "id": 1538,
              "pitch": 77,
              "velocity": 110,
              "start": 1288.0,
              "duration": 0.2392578125
            },
            {
              "id": 1537,
              "pitch": 45,
              "velocity": 110,
              "start": 1288.0,
              "duration": 1.75
            },
            {
              "id": 1536,
              "pitch": 81,
              "velocity": 110,
              "start": 1288.25,
              "duration": 0.2392578125
            },
            {
              "id": 1535,
              "pitch": 86,
              "velocity": 110,
              "start": 1288.5,
              "duration": 0.2392578125
            },
            {
              "id": 1534,
              "pitch": 81,
              "velocity": 110,
              "start": 1288.75,
              "duration": 0.2392578125
            },
            {
              "id": 1533,
              "pitch": 77,
              "velocity": 110,
              "start": 1289.0,
              "duration": 0.2392578125
            },
            {
              "id": 1532,
              "pitch": 86,
              "velocity": 110,
              "start": 1289.25,
              "duration": 0.2392578125
            },
            {
              "id": 1531,
              "pitch": 81,
              "velocity": 110,
              "start": 1289.5,
              "duration": 0.2392578125
            },
            {
              "id": 1530,
              "pitch": 77,
              "velocity": 110,
              "start": 1289.75,
              "duration": 0.2392578125
            },
            {
              "id": 1529,
              "pitch": 76,
              "velocity": 110,
              "start": 1290.0,
              "duration": 0.2392578125
            },
            {
              "id": 1528,
              "pitch": 43,
              "velocity": 110,
              "start": 1290.0,
              "duration": 1.75
            },
            {
              "id": 1527,
              "pitch": 79,
              "velocity": 110,
              "start": 1290.25,
              "duration": 0.2392578125
            },
            {
              "id": 1526,
              "pitch": 85,
              "velocity": 110,
              "start": 1290.5,
              "duration": 0.2392578125
            },
            {
              "id": 1525,
              "pitch": 79,
              "velocity": 110,
              "start": 1290.75,
              "duration": 0.2392578125
            },
            {
              "id": 1524,
              "pitch": 76,
              "velocity": 110,
              "start": 1291.0,
              "duration": 0.2392578125
            },
            {
              "id": 1523,
              "pitch": 85,
              "velocity": 110,
              "start": 1291.25,
              "duration": 0.2392578125
            },
            {
              "id": 1522,
              "pitch": 79,
              "velocity": 110,
              "start": 1291.5,
              "duration": 0.2392578125
            },
            {
              "id": 1521,
              "pitch": 76,
              "velocity": 110,
              "start": 1291.75,
              "duration": 0.2392578125
            },
            {
              "id": 1520,
              "pitch": 74,
              "velocity": 110,
              "start": 1292.0,
              "duration": 0.2392578125
            },
            {
              "id": 1519,
              "pitch": 41,
              "velocity": 110,
              "start": 1292.0,
              "duration": 1.75
            },
            {
              "id": 1518,
              "pitch": 53,
              "velocity": 110,
              "start": 1292.0,
              "duration": 1.75
            },
            {
              "id": 1517,
              "pitch": 77,
              "velocity": 110,
              "start": 1292.25,
              "duration": 0.2392578125
            },
            {
              "id": 1516,
              "pitch": 81,
              "velocity": 110,
              "start": 1292.5,
              "duration": 0.2392578125
            },
            {
              "id": 1515,
              "pitch": 77,
              "velocity": 110,
              "start": 1292.75,
              "duration": 0.2392578125
            },
            {
              "id": 1514,
              "pitch": 74,
              "velocity": 110,
              "start": 1293.0,
              "duration": 0.2392578125
            },
            {
              "id": 1513,
              "pitch": 81,
              "velocity": 110,
              "start": 1293.25,
              "duration": 0.2392578125
            },
            {
              "id": 1512,
              "pitch": 77,
              "velocity": 110,
              "start": 1293.5,
              "duration": 0.2392578125
            },
            {
              "id": 1511,
              "pitch": 74,
              "velocity": 110,
              "start": 1293.75,
              "duration": 0.2392578125
            },
            {
              "id": 1510,
              "pitch": 73,
              "velocity": 110,
              "start": 1294.0,
              "duration": 0.4892578125
            },
            {
              "id": 1509,
              "pitch": 40,
              "velocity": 110,
              "start": 1294.0,
              "duration": 0.4892578125
            },
            {
              "id": 1508,
              "pitch": 52,
              "velocity": 110,
              "start": 1294.0,
              "duration": 0.4892578125
            },
            {
              "id": 1507,
              "pitch": 69,
              "velocity": 110,
              "start": 1294.5,
              "duration": 0.4892578125
            },
            {
              "id": 1506,
              "pitch": 73,
              "velocity": 110,
              "start": 1294.5,
              "duration": 0.4892578125
            },
            {
              "id": 1505,
              "pitch": 79,
              "velocity": 110,
              "start": 1294.5,
              "duration": 0.4892578125
            },
            {
              "id": 1504,
              "pitch": 43,
              "velocity": 110,
              "start": 1294.5,
              "duration": 0.4892578125
            },
            {
              "id": 1503,
              "pitch": 74,
              "velocity": 110,
              "start": 1295.0,
              "duration": 0.4892578125
            },
            {
              "id": 1502,
              "pitch": 77,
              "velocity": 110,
              "start": 1295.0,
              "duration": 0.4892578125
            },
            {
              "id": 1501,
              "pitch": 82,
              "velocity": 110,
              "start": 1295.0,
              "duration": 0.4892578125
            },
            {
              "id": 1500,
              "pitch": 46,
              "velocity": 110,
              "start": 1295.0,
              "duration": 0.4892578125
            },
            {
              "id": 1499,
              "pitch": 73,
              "velocity": 110,
              "start": 1295.5,
              "duration": 0.4892578125
            },
            {
              "id": 1498,
              "pitch": 76,
              "velocity": 110,
              "start": 1295.5,
              "duration": 0.4892578125
            },
            {
              "id": 1497,
              "pitch": 81,
              "velocity": 110,
              "start": 1295.5,
              "duration": 0.4892578125
            },
            {
              "id": 1496,
              "pitch": 44,
              "velocity": 110,
              "start": 1295.5,
              "duration": 0.4892578125
            },
            {
              "id": 1495,
              "pitch": 69,
              "velocity": 110,
              "start": 1296.0,
              "duration": 1.75
            },
            {
              "id": 1494,
              "pitch": 72,
              "velocity": 110,
              "start": 1296.0,
              "duration": 1.75
            },
            {
              "id": 1493,
              "pitch": 79,
              "velocity": 110,
              "start": 1296.0,
              "duration": 1.75
            },
            {
              "id": 1492,
              "pitch": 45,
              "velocity": 110,
              "start": 1296.0,
              "duration": 1.75
            },
            {
              "id": 1491,
              "pitch": 38,
              "velocity": 110,
              "start": 1298.0,
              "duration": 5.7392578125
            },
            {
              "id": 1490,
              "pitch": 50,
              "velocity": 110,
              "start": 1298.0,
              "duration": 5.7392578125
            },
            {
              "id": 1489,
              "pitch": 74,
              "velocity": 110,
              "start": 1298.25,
              "duration": 0.2392578125
            },
            {
              "id": 1488,
              "pitch": 86,
              "velocity": 110,
              "start": 1298.25,
              "duration": 0.2392578125
            },
            {
              "id": 1487,
              "pitch": 72,
              "velocity": 110,
              "start": 1298.5,
              "duration": 0.2392578125
            },
            {
              "id": 1486,
              "pitch": 84,
              "velocity": 110,
              "start": 1298.5,
              "duration": 0.2392578125
            },
            {
              "id": 1485,
              "pitch": 74,
              "velocity": 110,
              "start": 1298.75,
              "duration": 0.2392578125
            },
            {
              "id": 1484,
              "pitch": 86,
              "velocity": 110,
              "start": 1298.75,
              "duration": 0.2392578125
            },
            {
              "id": 1483,
              "pitch": 75,
              "velocity": 110,
              "start": 1299.0,
              "duration": 0.2392578125
            },
            {
              "id": 1482,
              "pitch": 87,
              "velocity": 110,
              "start": 1299.0,
              "duration": 0.2392578125
            },
            {
              "id": 1481,
              "pitch": 74,
              "velocity": 110,
              "start": 1299.25,
              "duration": 0.2392578125
            },
            {
              "id": 1480,
              "pitch": 86,
              "velocity": 110,
              "start": 1299.25,
              "duration": 0.2392578125
            },
            {
              "id": 1479,
              "pitch": 72,
              "velocity": 110,
              "start": 1299.5,
              "duration": 0.2392578125
            },
            {
              "id": 1478,
              "pitch": 84,
              "velocity": 110,
              "start": 1299.5,
              "duration": 0.2392578125
            },
            {
              "id": 1477,
              "pitch": 68,
              "velocity": 110,
              "start": 1299.75,
              "duration": 0.2392578125
            },
            {
              "id": 1476,
              "pitch": 80,
              "velocity": 110,
              "start": 1299.75,
              "duration": 0.2392578125
            },
            {
              "id": 1475,
              "pitch": 69,
              "velocity": 110,
              "start": 1300.0,
              "duration": 0.2392578125
            },
            {
              "id": 1474,
              "pitch": 81,
              "velocity": 110,
              "start": 1300.0,
              "duration": 0.2392578125
            },
            {
              "id": 1473,
              "pitch": 77,
              "velocity": 110,
              "start": 1300.25,
              "duration": 0.2392578125
            },
            {
              "id": 1472,
              "pitch": 76,
              "velocity": 110,
              "start": 1300.5,
              "duration": 0.2392578125
            },
            {
              "id": 1471,
              "pitch": 77,
              "velocity": 110,
              "start": 1300.75,
              "duration": 0.2392578125
            },
            {
              "id": 1470,
              "pitch": 67,
              "velocity": 110,
              "start": 1301.0,
              "duration": 0.2392578125
            },
            {
              "id": 1469,
              "pitch": 79,
              "velocity": 110,
              "start": 1301.0,
              "duration": 0.2392578125
            },
            {
              "id": 1468,
              "pitch": 77,
              "velocity": 110,
              "start": 1301.25,
              "duration": 0.2392578125
            },
            {
              "id": 1467,
              "pitch": 76,
              "velocity": 110,
              "start": 1301.5,
              "duration": 0.2392578125
            },
            {
              "id": 1466,
              "pitch": 73,
              "velocity": 110,
              "start": 1301.75,
              "duration": 0.2392578125
            },
            {
              "id": 1465,
              "pitch": 74,
              "velocity": 110,
              "start": 1302.0,
              "duration": 0.8330078125
            },
            {
              "id": 1464,
              "pitch": 52,
              "velocity": 110,
              "start": 1303.75,
              "duration": 0.2392578125
            },
            {
              "id": 1463,
              "pitch": 53,
              "velocity": 110,
              "start": 1304.0,
              "duration": 0.2392578125
            },
            {
              "id": 1462,
              "pitch": 50,
              "velocity": 110,
              "start": 1304.25,
              "duration": 0.2392578125
            },
            {
              "id": 1461,
              "pitch": 49,
              "velocity": 110,
              "start": 1304.5,
              "duration": 0.2392578125
            },
            {
              "id": 1460,
              "pitch": 50,
              "velocity": 110,
              "start": 1304.75,
              "duration": 0.2392578125
            },
            {
              "id": 1459,
              "pitch": 51,
              "velocity": 110,
              "start": 1305.0,
              "duration": 0.2392578125
            },
            {
              "id": 1458,
              "pitch": 50,
              "velocity": 110,
              "start": 1305.25,
              "duration": 0.2392578125
            },
            {
              "id": 1457,
              "pitch": 49,
              "velocity": 110,
              "start": 1305.5,
              "duration": 0.2392578125
            },
            {
              "id": 1456,
              "pitch": 44,
              "velocity": 110,
              "start": 1305.75,
              "duration": 0.2392578125
            },
            {
              "id": 1455,
              "pitch": 45,
              "velocity": 110,
              "start": 1306.0,
              "duration": 0.4892578125
            },
            {
              "id": 1454,
              "pitch": 50,
              "velocity": 110,
              "start": 1306.0,
              "duration": 0.4892578125
            },
            {
              "id": 1453,
              "pitch": 50,
              "velocity": 110,
              "start": 1306.5,
              "duration": 0.4892578125
            },
            {
              "id": 1452,
              "pitch": 53,
              "velocity": 110,
              "start": 1306.5,
              "duration": 0.4892578125
            },
            {
              "id": 1451,
              "pitch": 40,
              "velocity": 110,
              "start": 1307.0,
              "duration": 0.4892578125
            },
            {
              "id": 1450,
              "pitch": 49,
              "velocity": 110,
              "start": 1307.0,
              "duration": 0.4892578125
            },
            {
              "id": 1449,
              "pitch": 52,
              "velocity": 110,
              "start": 1307.0,
              "duration": 0.4892578125
            },
            {
              "id": 1448,
              "pitch": 67,
              "velocity": 110,
              "start": 1307.5,
              "duration": 0.4892578125
            },
            {
              "id": 1447,
              "pitch": 52,
              "velocity": 110,
              "start": 1307.5,
              "duration": 0.4892578125
            },
            {
              "id": 1446,
              "pitch": 41,
              "velocity": 110,
              "start": 1308.0,
              "duration": 0.4892578125
            },
            {
              "id": 1445,
              "pitch": 50,
              "velocity": 110,
              "start": 1308.0,
              "duration": 0.4892578125
            },
            {
              "id": 1444,
              "pitch": 53,
              "velocity": 110,
              "start": 1308.0,
              "duration": 0.4892578125
            },
            {
              "id": 1443,
              "pitch": 70,
              "velocity": 110,
              "start": 1308.5,
              "duration": 0.4892578125
            },
            {
              "id": 1442,
              "pitch": 53,
              "velocity": 110,
              "start": 1308.5,
              "duration": 0.4892578125
            },
            {
              "id": 1441,
              "pitch": 67,
              "velocity": 110,
              "start": 1309.0,
              "duration": 0.4892578125
            },
            {
              "id": 1440,
              "pitch": 69,
              "velocity": 110,
              "start": 1309.0,
              "duration": 0.4892578125
            },
            {
              "id": 1439,
              "pitch": 43,
              "velocity": 110,
              "start": 1309.0,
              "duration": 0.4892578125
            },
            {
              "id": 1438,
              "pitch": 73,
              "velocity": 110,
              "start": 1309.5,
              "duration": 0.4892578125
            },
            {
              "id": 1437,
              "pitch": 52,
              "velocity": 110,
              "start": 1309.5,
              "duration": 0.4892578125
            },
            {
              "id": 1436,
              "pitch": 69,
              "velocity": 110,
              "start": 1310.0,
              "duration": 0.2392578125
            },
            {
              "id": 1435,
              "pitch": 74,
              "velocity": 110,
              "start": 1310.0,
              "duration": 0.2392578125
            },
            {
              "id": 1434,
              "pitch": 45,
              "velocity": 110,
              "start": 1310.0,
              "duration": 0.8330078125
            },
            {
              "id": 1433,
              "pitch": 69,
              "velocity": 110,
              "start": 1310.25,
              "duration": 0.2392578125
            },
            {
              "id": 1432,
              "pitch": 74,
              "velocity": 110,
              "start": 1310.5,
              "duration": 0.2392578125
            },
            {
              "id": 1431,
              "pitch": 81,
              "velocity": 110,
              "start": 1310.75,
              "duration": 0.2392578125
            },
            {
              "id": 1430,
              "pitch": 80,
              "velocity": 110,
              "start": 1311.0,
              "duration": 0.2392578125
            },
            {
              "id": 1429,
              "pitch": 69,
              "velocity": 110,
              "start": 1311.25,
              "duration": 0.2392578125
            },
            {
              "id": 1428,
              "pitch": 74,
              "velocity": 110,
              "start": 1311.5,
              "duration": 0.2392578125
            },
            {
              "id": 1427,
              "pitch": 79,
              "velocity": 110,
              "start": 1311.75,
              "duration": 0.2392578125
            },
            {
              "id": 1426,
              "pitch": 77,
              "velocity": 110,
              "start": 1312.0,
              "duration": 0.2392578125
            },
            {
              "id": 1425,
              "pitch": 69,
              "velocity": 110,
              "start": 1312.25,
              "duration": 0.2392578125
            },
            {
              "id": 1424,
              "pitch": 74,
              "velocity": 110,
              "start": 1312.5,
              "duration": 0.2392578125
            },
            {
              "id": 1423,
              "pitch": 77,
              "velocity": 110,
              "start": 1312.75,
              "duration": 0.2392578125
            },
            {
              "id": 1422,
              "pitch": 76,
              "velocity": 110,
              "start": 1313.0,
              "duration": 0.2392578125
            },
            {
              "id": 1421,
              "pitch": 67,
              "velocity": 110,
              "start": 1313.25,
              "duration": 0.2392578125
            },
            {
              "id": 1420,
              "pitch": 73,
              "velocity": 110,
              "start": 1313.5,
              "duration": 0.2392578125
            },
            {
              "id": 1419,
              "pitch": 76,
              "velocity": 110,
              "start": 1313.75,
              "duration": 0.2392578125
            },
            {
              "id": 1418,
              "pitch": 74,
              "velocity": 110,
              "start": 1314.0,
              "duration": 0.2392578125
            },
            {
              "id": 1417,
              "pitch": 65,
              "velocity": 110,
              "start": 1314.25,
              "duration": 0.2392578125
            },
            {
              "id": 1416,
              "pitch": 69,
              "velocity": 110,
              "start": 1314.5,
              "duration": 0.2392578125
            },
            {
              "id": 1415,
              "pitch": 74,
              "velocity": 110,
              "start": 1314.75,
              "duration": 0.2392578125
            },
            {
              "id": 1414,
              "pitch": 73,
              "velocity": 110,
              "start": 1315.0,
              "duration": 0.4892578125
            },
            {
              "id": 1413,
              "pitch": 67,
              "velocity": 110,
              "start": 1315.5,
              "duration": 0.2392578125
            },
            {
              "id": 1412,
              "pitch": 70,
              "velocity": 110,
              "start": 1315.75,
              "duration": 0.2392578125
            },
            {
              "id": 1411,
              "pitch": 69,
              "velocity": 110,
              "start": 1316.0,
              "duration": 0.2392578125
            },
            {
              "id": 1410,
              "pitch": 65,
              "velocity": 110,
              "start": 1316.25,
              "duration": 0.2392578125
            },
            {
              "id": 1409,
              "pitch": 69,
              "velocity": 110,
              "start": 1316.5,
              "duration": 0.2392578125
            },
            {
              "id": 1408,
              "pitch": 74,
              "velocity": 110,
              "start": 1316.75,
              "duration": 0.2392578125
            },
            {
              "id": 1407,
              "pitch": 77,
              "velocity": 110,
              "start": 1317.0,
              "duration": 0.2392578125
            },
            {
              "id": 1406,
              "pitch": 69,
              "velocity": 110,
              "start": 1317.25,
              "duration": 0.2392578125
            },
            {
              "id": 1405,
              "pitch": 74,
              "velocity": 110,
              "start": 1317.5,
              "duration": 0.2392578125
            },
            {
              "id": 1404,
              "pitch": 77,
              "velocity": 110,
              "start": 1317.75,
              "duration": 0.2392578125
            },
            {
              "id": 1403,
              "pitch": 76,
              "velocity": 110,
              "start": 1318.0,
              "duration": 0.2392578125
            },
            {
              "id": 1402,
              "pitch": 67,
              "velocity": 110,
              "start": 1318.25,
              "duration": 0.2392578125
            },
            {
              "id": 1401,
              "pitch": 70,
              "velocity": 110,
              "start": 1318.5,
              "duration": 0.2392578125
            },
            {
              "id": 1400,
              "pitch": 73,
              "velocity": 110,
              "start": 1318.75,
              "duration": 0.2392578125
            },
            {
              "id": 1399,
              "pitch": 76,
              "velocity": 110,
              "start": 1319.0,
              "duration": 0.2392578125
            },
            {
              "id": 1398,
              "pitch": 73,
              "velocity": 110,
              "start": 1319.25,
              "duration": 0.2392578125
            },
            {
              "id": 1397,
              "pitch": 76,
              "velocity": 110,
              "start": 1319.5,
              "duration": 0.2392578125
            },
            {
              "id": 1396,
              "pitch": 79,
              "velocity": 110,
              "start": 1319.75,
              "duration": 0.2392578125
            },
            {
              "id": 1395,
              "pitch": 77,
              "velocity": 110,
              "start": 1320.0,
              "duration": 0.2392578125
            },
            {
              "id": 1394,
              "pitch": 81,
              "velocity": 110,
              "start": 1320.25,
              "duration": 0.2392578125
            },
            {
              "id": 1393,
              "pitch": 86,
              "velocity": 110,
              "start": 1320.5,
              "duration": 0.2392578125
            },
            {
              "id": 1392,
              "pitch": 81,
              "velocity": 110,
              "start": 1320.75,
              "duration": 0.2392578125
            },
            {
              "id": 1391,
              "pitch": 77,
              "velocity": 110,
              "start": 1321.0,
              "duration": 0.2392578125
            },
            {
              "id": 1390,
              "pitch": 86,
              "velocity": 110,
              "start": 1321.25,
              "duration": 0.2392578125
            },
            {
              "id": 1389,
              "pitch": 81,
              "velocity": 110,
              "start": 1321.5,
              "duration": 0.2392578125
            },
            {
              "id": 1388,
              "pitch": 77,
              "velocity": 110,
              "start": 1321.75,
              "duration": 0.2392578125
            },
            {
              "id": 1387,
              "pitch": 76,
              "velocity": 110,
              "start": 1322.0,
              "duration": 0.2392578125
            },
            {
              "id": 1386,
              "pitch": 79,
              "velocity": 110,
              "start": 1322.25,
              "duration": 0.2392578125
            },
            {
              "id": 1385,
              "pitch": 85,
              "velocity": 110,
              "start": 1322.5,
              "duration": 0.2392578125
            },
            {
              "id": 1384,
              "pitch": 79,
              "velocity": 110,
              "start": 1322.75,
              "duration": 0.2392578125
            },
            {
              "id": 1383,
              "pitch": 76,
              "velocity": 110,
              "start": 1323.0,
              "duration": 0.2392578125
            },
            {
              "id": 1382,
              "pitch": 85,
              "velocity": 110,
              "start": 1323.25,
              "duration": 0.2392578125
            },
            {
              "id": 1381,
              "pitch": 79,
              "velocity": 110,
              "start": 1323.5,
              "duration": 0.2392578125
            },
            {
              "id": 1380,
              "pitch": 76,
              "velocity": 110,
              "start": 1323.75,
              "duration": 0.2392578125
            },
            {
              "id": 1379,
              "pitch": 38,
              "velocity": 110,
              "start": 1324.0,
              "duration": 1.75
            },
            {
              "id": 1378,
              "pitch": 50,
              "velocity": 110,
              "start": 1324.0,
              "duration": 1.75
            },
            {
              "id": 1377,
              "pitch": 69,
              "velocity": 110,
              "start": 1324.25,
              "duration": 0.2392578125
            },
            {
              "id": 1376,
              "pitch": 74,
              "velocity": 110,
              "start": 1324.5,
              "duration": 0.2392578125
            },
            {
              "id": 1375,
              "pitch": 69,
              "velocity": 110,
              "start": 1324.75,
              "duration": 0.2392578125
            },
            {
              "id": 1374,
              "pitch": 77,
              "velocity": 110,
              "start": 1325.0,
              "duration": 0.2392578125
            },
            {
              "id": 1373,
              "pitch": 69,
              "velocity": 110,
              "start": 1325.25,
              "duration": 0.2392578125
            },
            {
              "id": 1372,
              "pitch": 74,
              "velocity": 110,
              "start": 1325.5,
              "duration": 0.2392578125
            },
            {
              "id": 1371,
              "pitch": 69,
              "velocity": 110,
              "start": 1325.75,
              "duration": 0.2392578125
            },
            {
              "id": 1370,
              "pitch": 75,
              "velocity": 110,
              "start": 1326.0,
              "duration": 0.2392578125
            },
            {
              "id": 1369,
              "pitch": 39,
              "velocity": 110,
              "start": 1326.0,
              "duration": 0.4892578125
            },
            {
              "id": 1368,
              "pitch": 51,
              "velocity": 110,
              "start": 1326.0,
              "duration": 0.4892578125
            },
            {
              "id": 1367,
              "pitch": 67,
              "velocity": 110,
              "start": 1326.25,
              "duration": 0.2392578125
            },
            {
              "id": 1366,
              "pitch": 74,
              "velocity": 110,
              "start": 1326.5,
              "duration": 0.2392578125
            },
            {
              "id": 1365,
              "pitch": 38,
              "velocity": 110,
              "start": 1326.5,
              "duration": 0.4892578125
            },
            {
              "id": 1364,
              "pitch": 50,
              "velocity": 110,
              "start": 1326.5,
              "duration": 0.4892578125
            },
            {
              "id": 1363,
              "pitch": 69,
              "velocity": 110,
              "start": 1326.75,
              "duration": 0.2392578125
            },
            {
              "id": 1362,
              "pitch": 75,
              "velocity": 110,
              "start": 1327.0,
              "duration": 0.2392578125
            },
            {
              "id": 1361,
              "pitch": 49,
              "velocity": 110,
              "start": 1327.0,
              "duration": 0.4892578125
            },
            {
              "id": 1360,
              "pitch": 69,
              "velocity": 110,
              "start": 1327.25,
              "duration": 0.2392578125
            },
            {
              "id": 1359,
              "pitch": 74,
              "velocity": 110,
              "start": 1327.5,
              "duration": 0.2392578125
            },
            {
              "id": 1358,
              "pitch": 44,
              "velocity": 110,
              "start": 1327.5,
              "duration": 0.4892578125
            },
            {
              "id": 1357,
              "pitch": 69,
              "velocity": 110,
              "start": 1327.75,
              "duration": 0.2392578125
            },
            {
              "id": 1356,
              "pitch": 45,
              "velocity": 110,
              "start": 1328.0,
              "duration": 3.75
            },
            {
              "id": 1355,
              "pitch": 67,
              "velocity": 110,
              "start": 1328.25,
              "duration": 0.2392578125
            },
            {
              "id": 1354,
              "pitch": 73,
              "velocity": 110,
              "start": 1328.5,
              "duration": 0.2392578125
            },
            {
              "id": 1353,
              "pitch": 67,
              "velocity": 110,
              "start": 1328.75,
              "duration": 0.2392578125
            },
            {
              "id": 1352,
              "pitch": 67,
              "velocity": 110,
              "start": 1329.25,
              "duration": 0.2392578125
            },
            {
              "id": 1351,
              "pitch": 73,
              "velocity": 110,
              "start": 1329.5,
              "duration": 0.2392578125
            },
            {
              "id": 1350,
              "pitch": 67,
              "velocity": 110,
              "start": 1329.75,
              "duration": 0.2392578125
            },
            {
              "id": 1349,
              "pitch": 67,
              "velocity": 110,
              "start": 1330.25,
              "duration": 0.2392578125
            },
            {
              "id": 1348,
              "pitch": 73,
              "velocity": 110,
              "start": 1330.5,
              "duration": 0.2392578125
            },
            {
              "id": 1347,
              "pitch": 67,
              "velocity": 110,
              "start": 1330.75,
              "duration": 0.2392578125
            },
            {
              "id": 1346,
              "pitch": 67,
              "velocity": 110,
              "start": 1331.25,
              "duration": 0.2392578125
            },
            {
              "id": 1345,
              "pitch": 73,
              "velocity": 110,
              "start": 1331.5,
              "duration": 0.2392578125
            },
            {
              "id": 1344,
              "pitch": 67,
              "velocity": 110,
              "start": 1331.75,
              "duration": 0.2392578125
            },
            {
              "id": 1343,
              "pitch": 44,
              "velocity": 110,
              "start": 1332.0,
              "duration": 1.75
            },
            {
              "id": 1342,
              "pitch": 68,
              "velocity": 110,
              "start": 1332.25,
              "duration": 0.2392578125
            },
            {
              "id": 1341,
              "pitch": 71,
              "velocity": 110,
              "start": 1332.5,
              "duration": 0.2392578125
            },
            {
              "id": 1340,
              "pitch": 68,
              "velocity": 110,
              "start": 1332.75,
              "duration": 0.2392578125
            },
            {
              "id": 1339,
              "pitch": 74,
              "velocity": 110,
              "start": 1333.0,
              "duration": 0.2392578125
            },
            {
              "id": 1338,
              "pitch": 68,
              "velocity": 110,
              "start": 1333.25,
              "duration": 0.2392578125
            },
            {
              "id": 1337,
              "pitch": 71,
              "velocity": 110,
              "start": 1333.5,
              "duration": 0.2392578125
            },
            {
              "id": 1336,
              "pitch": 68,
              "velocity": 110,
              "start": 1333.75,
              "duration": 0.2392578125
            },
            {
              "id": 1335,
              "pitch": 45,
              "velocity": 110,
              "start": 1334.0,
              "duration": 0.4892578125
            },
            {
              "id": 1334,
              "pitch": 68,
              "velocity": 110,
              "start": 1334.25,
              "duration": 0.2392578125
            },
            {
              "id": 1333,
              "pitch": 71,
              "velocity": 110,
              "start": 1334.5,
              "duration": 0.2392578125
            },
            {
              "id": 1332,
              "pitch": 44,
              "velocity": 110,
              "start": 1334.5,
              "duration": 0.4892578125
            },
            {
              "id": 1331,
              "pitch": 68,
              "velocity": 110,
              "start": 1334.75,
              "duration": 0.2392578125
            },
            {
              "id": 1330,
              "pitch": 73,
              "velocity": 110,
              "start": 1335.0,
              "duration": 0.2392578125
            },
            {
              "id": 1329,
              "pitch": 43,
              "velocity": 110,
              "start": 1335.0,
              "duration": 0.4892578125
            },
            {
              "id": 1328,
              "pitch": 67,
              "velocity": 110,
              "start": 1335.25,
              "duration": 0.2392578125
            },
            {
              "id": 1327,
              "pitch": 70,
              "velocity": 110,
              "start": 1335.5,
              "duration": 0.2392578125
            },
            {
              "id": 1326,
              "pitch": 49,
              "velocity": 110,
              "start": 1335.5,
              "duration": 0.4892578125
            },
            {
              "id": 1325,
              "pitch": 67,
              "velocity": 110,
              "start": 1335.75,
              "duration": 0.2392578125
            },
            {
              "id": 1324,
              "pitch": 38,
              "velocity": 110,
              "start": 1336.0,
              "duration": 3.75
            },
            {
              "id": 1323,
              "pitch": 50,
              "velocity": 110,
              "start": 1336.0,
              "duration": 3.75
            },
            {
              "id": 1322,
              "pitch": 69,
              "velocity": 110,
              "start": 1336.25,
              "duration": 0.2392578125
            },
            {
              "id": 1321,
              "pitch": 74,
              "velocity": 110,
              "start": 1336.5,
              "duration": 0.2392578125
            },
            {
              "id": 1320,
              "pitch": 69,
              "velocity": 110,
              "start": 1336.75,
              "duration": 0.2392578125
            },
            {
              "id": 1319,
              "pitch": 77,
              "velocity": 110,
              "start": 1337.0,
              "duration": 0.2392578125
            },
            {
              "id": 1318,
              "pitch": 69,
              "velocity": 110,
              "start": 1337.25,
              "duration": 0.2392578125
            },
            {
              "id": 1317,
              "pitch": 74,
              "velocity": 110,
              "start": 1337.5,
              "duration": 0.2392578125
            },
            {
              "id": 1316,
              "pitch": 69,
              "velocity": 110,
              "start": 1337.75,
              "duration": 0.2392578125
            },
            {
              "id": 1315,
              "pitch": 69,
              "velocity": 110,
              "start": 1338.25,
              "duration": 0.2392578125
            },
            {
              "id": 1314,
              "pitch": 74,
              "velocity": 110,
              "start": 1338.5,
              "duration": 0.2392578125
            },
            {
              "id": 1313,
              "pitch": 69,
              "velocity": 110,
              "start": 1338.75,
              "duration": 0.2392578125
            },
            {
              "id": 1312,
              "pitch": 77,
              "velocity": 110,
              "start": 1339.0,
              "duration": 0.2392578125
            },
            {
              "id": 1311,
              "pitch": 74,
              "velocity": 110,
              "start": 1339.25,
              "duration": 0.2392578125
            },
            {
              "id": 1310,
              "pitch": 77,
              "velocity": 110,
              "start": 1339.5,
              "duration": 0.2392578125
            },
            {
              "id": 1309,
              "pitch": 81,
              "velocity": 110,
              "start": 1339.75,
              "duration": 0.2392578125
            },
            {
              "id": 1308,
              "pitch": 74,
              "velocity": 110,
              "start": 1340.0,
              "duration": 0.2392578125
            },
            {
              "id": 1307,
              "pitch": 86,
              "velocity": 110,
              "start": 1340.0,
              "duration": 0.2392578125
            },
            {
              "id": 1306,
              "pitch": 38,
              "velocity": 110,
              "start": 1340.0,
              "duration": 1.75
            },
            {
              "id": 1305,
              "pitch": 50,
              "velocity": 110,
              "start": 1340.0,
              "duration": 1.75
            },
            {
              "id": 1304,
              "pitch": 74,
              "velocity": 110,
              "start": 1340.25,
              "duration": 0.2392578125
            },
            {
              "id": 1303,
              "pitch": 77,
              "velocity": 110,
              "start": 1340.5,
              "duration": 0.2392578125
            },
            {
              "id": 1302,
              "pitch": 74,
              "velocity": 110,
              "start": 1340.75,
              "duration": 0.2392578125
            },
            {
              "id": 1301,
              "pitch": 81,
              "velocity": 110,
              "start": 1341.0,
              "duration": 0.2392578125
            },
            {
              "id": 1300,
              "pitch": 74,
              "velocity": 110,
              "start": 1341.25,
              "duration": 0.2392578125
            },
            {
              "id": 1299,
              "pitch": 77,
              "velocity": 110,
              "start": 1341.5,
              "duration": 0.2392578125
            },
            {
              "id": 1298,
              "pitch": 74,
              "velocity": 110,
              "start": 1341.75,
              "duration": 0.2392578125
            },
            {
              "id": 1297,
              "pitch": 75,
              "velocity": 110,
              "start": 1342.0,
              "duration": 0.2392578125
            },
            {
              "id": 1296,
              "pitch": 81,
              "velocity": 110,
              "start": 1342.0,
              "duration": 0.2392578125
            },
            {
              "id": 1295,
              "pitch": 51,
              "velocity": 110,
              "start": 1342.0,
              "duration": 0.4892578125
            },
            {
              "id": 1294,
              "pitch": 74,
              "velocity": 110,
              "start": 1342.25,
              "duration": 0.2392578125
            },
            {
              "id": 1293,
              "pitch": 74,
              "velocity": 110,
              "start": 1342.5,
              "duration": 0.4892578125
            },
            {
              "id": 1292,
              "pitch": 77,
              "velocity": 110,
              "start": 1342.5,
              "duration": 0.4892578125
            },
            {
              "id": 1291,
              "pitch": 50,
              "velocity": 110,
              "start": 1342.5,
              "duration": 0.4892578125
            },
            {
              "id": 1290,
              "pitch": 73,
              "velocity": 110,
              "start": 1343.0,
              "duration": 0.2392578125
            },
            {
              "id": 1289,
              "pitch": 81,
              "velocity": 110,
              "start": 1343.0,
              "duration": 0.2392578125
            },
            {
              "id": 1288,
              "pitch": 49,
              "velocity": 110,
              "start": 1343.0,
              "duration": 0.4892578125
            },
            {
              "id": 1287,
              "pitch": 74,
              "velocity": 110,
              "start": 1343.25,
              "duration": 0.2392578125
            },
            {
              "id": 1286,
              "pitch": 68,
              "velocity": 110,
              "start": 1343.5,
              "duration": 0.2392578125
            },
            {
              "id": 1285,
              "pitch": 77,
              "velocity": 110,
              "start": 1343.5,
              "duration": 0.2392578125
            },
            {
              "id": 1284,
              "pitch": 44,
              "velocity": 110,
              "start": 1343.5,
              "duration": 0.4892578125
            },
            {
              "id": 1283,
              "pitch": 74,
              "velocity": 110,
              "start": 1343.75,
              "duration": 0.2392578125
            },
            {
              "id": 1282,
              "pitch": 69,
              "velocity": 110,
              "start": 1344.0,
              "duration": 0.2392578125
            },
            {
              "id": 1281,
              "pitch": 40,
              "velocity": 110,
              "start": 1344.0,
              "duration": 3.75
            },
            {
              "id": 1280,
              "pitch": 45,
              "velocity": 110,
              "start": 1344.0,
              "duration": 3.75
            },
            {
              "id": 1279,
              "pitch": 52,
              "velocity": 110,
              "start": 1344.0,
              "duration": 3.75
            },
            {
              "id": 1278,
              "pitch": 73,
              "velocity": 110,
              "start": 1344.25,
              "duration": 0.2392578125
            },
            {
              "id": 1277,
              "pitch": 76,
              "velocity": 110,
              "start": 1344.5,
              "duration": 0.2392578125
            },
            {
              "id": 1276,
              "pitch": 73,
              "velocity": 110,
              "start": 1344.75,
              "duration": 0.2392578125
            },
            {
              "id": 1275,
              "pitch": 79,
              "velocity": 110,
              "start": 1345.0,
              "duration": 0.2392578125
            },
            {
              "id": 1274,
              "pitch": 73,
              "velocity": 110,
              "start": 1345.25,
              "duration": 0.2392578125
            },
            {
              "id": 1273,
              "pitch": 76,
              "velocity": 110,
              "start": 1345.5,
              "duration": 0.2392578125
            },
            {
              "id": 1272,
              "pitch": 73,
              "velocity": 110,
              "start": 1345.75,
              "duration": 0.2392578125
            },
            {
              "id": 1271,
              "pitch": 69,
              "velocity": 110,
              "start": 1346.0,
              "duration": 0.2392578125
            },
            {
              "id": 1270,
              "pitch": 73,
              "velocity": 110,
              "start": 1346.25,
              "duration": 0.2392578125
            },
            {
              "id": 1269,
              "pitch": 76,
              "velocity": 110,
              "start": 1346.5,
              "duration": 0.2392578125
            },
            {
              "id": 1268,
              "pitch": 73,
              "velocity": 110,
              "start": 1346.75,
              "duration": 0.2392578125
            },
            {
              "id": 1267,
              "pitch": 79,
              "velocity": 110,
              "start": 1347.0,
              "duration": 0.2392578125
            },
            {
              "id": 1266,
              "pitch": 73,
              "velocity": 110,
              "start": 1347.25,
              "duration": 0.2392578125
            },
            {
              "id": 1265,
              "pitch": 76,
              "velocity": 110,
              "start": 1347.5,
              "duration": 0.2392578125
            },
            {
              "id": 1264,
              "pitch": 73,
              "velocity": 110,
              "start": 1347.75,
              "duration": 0.2392578125
            },
            {
              "id": 1263,
              "pitch": 68,
              "velocity": 110,
              "start": 1348.0,
              "duration": 0.2392578125
            },
            {
              "id": 1262,
              "pitch": 71,
              "velocity": 110,
              "start": 1348.0,
              "duration": 0.2392578125
            },
            {
              "id": 1261,
              "pitch": 41,
              "velocity": 110,
              "start": 1348.0,
              "duration": 1.75
            },
            {
              "id": 1260,
              "pitch": 44,
              "velocity": 110,
              "start": 1348.0,
              "duration": 1.75
            },
            {
              "id": 1259,
              "pitch": 53,
              "velocity": 110,
              "start": 1348.0,
              "duration": 1.75
            },
            {
              "id": 1258,
              "pitch": 74,
              "velocity": 110,
              "start": 1348.25,
              "duration": 0.2392578125
            },
            {
              "id": 1257,
              "pitch": 77,
              "velocity": 110,
              "start": 1348.5,
              "duration": 0.2392578125
            },
            {
              "id": 1256,
              "pitch": 74,
              "velocity": 110,
              "start": 1348.75,
              "duration": 0.2392578125
            },
            {
              "id": 1255,
              "pitch": 80,
              "velocity": 110,
              "start": 1349.0,
              "duration": 0.2392578125
            },
            {
              "id": 1254,
              "pitch": 74,
              "velocity": 110,
              "start": 1349.25,
              "duration": 0.2392578125
            },
            {
              "id": 1253,
              "pitch": 77,
              "velocity": 110,
              "start": 1349.5,
              "duration": 0.2392578125
            },
            {
              "id": 1252,
              "pitch": 74,
              "velocity": 110,
              "start": 1349.75,
              "duration": 0.2392578125
            },
            {
              "id": 1251,
              "pitch": 69,
              "velocity": 110,
              "start": 1350.0,
              "duration": 0.2392578125
            },
            {
              "id": 1250,
              "pitch": 71,
              "velocity": 110,
              "start": 1350.0,
              "duration": 0.2392578125
            },
            {
              "id": 1249,
              "pitch": 45,
              "velocity": 110,
              "start": 1350.0,
              "duration": 0.4892578125
            },
            {
              "id": 1248,
              "pitch": 74,
              "velocity": 110,
              "start": 1350.25,
              "duration": 0.2392578125
            },
            {
              "id": 1247,
              "pitch": 77,
              "velocity": 110,
              "start": 1350.5,
              "duration": 0.2392578125
            },
            {
              "id": 1246,
              "pitch": 44,
              "velocity": 110,
              "start": 1350.5,
              "duration": 0.4892578125
            },
            {
              "id": 1245,
              "pitch": 74,
              "velocity": 110,
              "start": 1350.75,
              "duration": 0.2392578125
            },
            {
              "id": 1244,
              "pitch": 67,
              "velocity": 110,
              "start": 1351.0,
              "duration": 0.2392578125
            },
            {
              "id": 1243,
              "pitch": 79,
              "velocity": 110,
              "start": 1351.0,
              "duration": 0.2392578125
            },
            {
              "id": 1242,
              "pitch": 40,
              "velocity": 110,
              "start": 1351.0,
              "duration": 0.4892578125
            },
            {
              "id": 1241,
              "pitch": 43,
              "velocity": 110,
              "start": 1351.0,
              "duration": 0.4892578125
            },
            {
              "id": 1240,
              "pitch": 52,
              "velocity": 110,
              "start": 1351.0,
              "duration": 0.4892578125
            },
            {
              "id": 1239,
              "pitch": 70,
              "velocity": 110,
              "start": 1351.25,
              "duration": 0.2392578125
            },
            {
              "id": 1238,
              "pitch": 73,
              "velocity": 110,
              "start": 1351.5,
              "duration": 0.2392578125
            },
            {
              "id": 1237,
              "pitch": 49,
              "velocity": 110,
              "start": 1351.5,
              "duration": 0.4892578125
            },
            {
              "id": 1236,
              "pitch": 70,
              "velocity": 110,
              "start": 1351.75,
              "duration": 0.2392578125
            },
            {
              "id": 1235,
              "pitch": 69,
              "velocity": 110,
              "start": 1352.0,
              "duration": 0.2392578125
            },
            {
              "id": 1234,
              "pitch": 38,
              "velocity": 110,
              "start": 1352.0,
              "duration": 3.75
            },
            {
              "id": 1233,
              "pitch": 50,
              "velocity": 110,
              "start": 1352.0,
              "duration": 3.75
            },
            {
              "id": 1232,
              "pitch": 53,
              "velocity": 110,
              "start": 1352.0,
              "duration": 3.75
            },
            {
              "id": 1231,
              "pitch": 74,
              "velocity": 110,
              "start": 1352.25,
              "duration": 0.2392578125
            },
            {
              "id": 1230,
              "pitch": 77,
              "velocity": 110,
              "start": 1352.5,
              "duration": 0.2392578125
            },
            {
              "id": 1229,
              "pitch": 74,
              "velocity": 110,
              "start": 1352.75,
              "duration": 0.2392578125
            },
            {
              "id": 1228,
              "pitch": 81,
              "velocity": 110,
              "start": 1353.0,
              "duration": 0.2392578125
            },
            {
              "id": 1227,
              "pitch": 69,
              "velocity": 110,
              "start": 1353.25,
              "duration": 0.2392578125
            },
            {
              "id": 1226,
              "pitch": 74,
              "velocity": 110,
              "start": 1353.5,
              "duration": 0.2392578125
            },
            {
              "id": 1225,
              "pitch": 77,
              "velocity": 110,
              "start": 1353.75,
              "duration": 0.2392578125
            },
            {
              "id": 1224,
              "pitch": 74,
              "velocity": 110,
              "start": 1354.0,
              "duration": 0.4892578125
            },
            {
              "id": 1223,
              "pitch": 77,
              "velocity": 110,
              "start": 1354.0,
              "duration": 0.4892578125
            },
            {
              "id": 1222,
              "pitch": 81,
              "velocity": 110,
              "start": 1354.0,
              "duration": 0.4892578125
            },
            {
              "id": 1221,
              "pitch": 74,
              "velocity": 110,
              "start": 1354.5,
              "duration": 0.4892578125
            },
            {
              "id": 1220,
              "pitch": 77,
              "velocity": 110,
              "start": 1354.5,
              "duration": 0.4892578125
            },
            {
              "id": 1219,
              "pitch": 81,
              "velocity": 110,
              "start": 1354.5,
              "duration": 0.4892578125
            },
            {
              "id": 1218,
              "pitch": 74,
              "velocity": 110,
              "start": 1355.0,
              "duration": 0.4892578125
            },
            {
              "id": 1217,
              "pitch": 77,
              "velocity": 110,
              "start": 1355.0,
              "duration": 0.4892578125
            },
            {
              "id": 1216,
              "pitch": 81,
              "velocity": 110,
              "start": 1355.0,
              "duration": 0.4892578125
            },
            {
              "id": 1215,
              "pitch": 74,
              "velocity": 110,
              "start": 1355.5,
              "duration": 0.4892578125
            },
            {
              "id": 1214,
              "pitch": 77,
              "velocity": 110,
              "start": 1355.5,
              "duration": 0.4892578125
            },
            {
              "id": 1213,
              "pitch": 81,
              "velocity": 110,
              "start": 1355.5,
              "duration": 0.4892578125
            },
            {
              "id": 1212,
              "pitch": 57,
              "velocity": 110,
              "start": 1356.25,
              "duration": 0.2392578125
            },
            {
              "id": 1211,
              "pitch": 62,
              "velocity": 110,
              "start": 1356.25,
              "duration": 0.2392578125
            },
            {
              "id": 1210,
              "pitch": 65,
              "velocity": 110,
              "start": 1356.25,
              "duration": 0.2392578125
            },
            {
              "id": 1209,
              "pitch": 57,
              "velocity": 110,
              "start": 1356.5,
              "duration": 0.2392578125
            },
            {
              "id": 1208,
              "pitch": 62,
              "velocity": 110,
              "start": 1356.5,
              "duration": 0.2392578125
            },
            {
              "id": 1207,
              "pitch": 65,
              "velocity": 110,
              "start": 1356.5,
              "duration": 0.2392578125
            },
            {
              "id": 1206,
              "pitch": 57,
              "velocity": 110,
              "start": 1356.75,
              "duration": 0.2392578125
            },
            {
              "id": 1205,
              "pitch": 62,
              "velocity": 110,
              "start": 1356.75,
              "duration": 0.2392578125
            },
            {
              "id": 1204,
              "pitch": 65,
              "velocity": 110,
              "start": 1356.75,
              "duration": 0.2392578125
            },
            {
              "id": 1203,
              "pitch": 58,
              "velocity": 110,
              "start": 1357.0,
              "duration": 0.2392578125
            },
            {
              "id": 1202,
              "pitch": 64,
              "velocity": 110,
              "start": 1357.0,
              "duration": 0.2392578125
            },
            {
              "id": 1201,
              "pitch": 58,
              "velocity": 110,
              "start": 1357.25,
              "duration": 0.2392578125
            },
            {
              "id": 1200,
              "pitch": 64,
              "velocity": 110,
              "start": 1357.25,
              "duration": 0.2392578125
            },
            {
              "id": 1199,
              "pitch": 55,
              "velocity": 110,
              "start": 1357.5,
              "duration": 0.2392578125
            },
            {
              "id": 1198,
              "pitch": 61,
              "velocity": 110,
              "start": 1357.5,
              "duration": 0.2392578125
            },
            {
              "id": 1197,
              "pitch": 55,
              "velocity": 110,
              "start": 1357.75,
              "duration": 0.2392578125
            },
            {
              "id": 1196,
              "pitch": 61,
              "velocity": 110,
              "start": 1357.75,
              "duration": 0.2392578125
            },
            {
              "id": 1195,
              "pitch": 57,
              "velocity": 110,
              "start": 1358.0,
              "duration": 0.2392578125
            },
            {
              "id": 1194,
              "pitch": 62,
              "velocity": 110,
              "start": 1358.0,
              "duration": 0.2392578125
            },
            {
              "id": 1193,
              "pitch": 57,
              "velocity": 110,
              "start": 1358.25,
              "duration": 0.2392578125
            },
            {
              "id": 1192,
              "pitch": 62,
              "velocity": 110,
              "start": 1358.25,
              "duration": 0.2392578125
            },
            {
              "id": 1191,
              "pitch": 57,
              "velocity": 110,
              "start": 1358.5,
              "duration": 0.2392578125
            },
            {
              "id": 1190,
              "pitch": 62,
              "velocity": 110,
              "start": 1358.5,
              "duration": 0.2392578125
            },
            {
              "id": 1189,
              "pitch": 65,
              "velocity": 110,
              "start": 1358.5,
              "duration": 0.2392578125
            },
            {
              "id": 1188,
              "pitch": 57,
              "velocity": 110,
              "start": 1358.75,
              "duration": 0.2392578125
            },
            {
              "id": 1187,
              "pitch": 62,
              "velocity": 110,
              "start": 1358.75,
              "duration": 0.2392578125
            },
            {
              "id": 1186,
              "pitch": 65,
              "velocity": 110,
              "start": 1358.75,
              "duration": 0.2392578125
            },
            {
              "id": 1185,
              "pitch": 58,
              "velocity": 110,
              "start": 1359.0,
              "duration": 0.2392578125
            },
            {
              "id": 1184,
              "pitch": 64,
              "velocity": 110,
              "start": 1359.0,
              "duration": 0.2392578125
            },
            {
              "id": 1183,
              "pitch": 58,
              "velocity": 110,
              "start": 1359.25,
              "duration": 0.2392578125
            },
            {
              "id": 1182,
              "pitch": 64,
              "velocity": 110,
              "start": 1359.25,
              "duration": 0.2392578125
            },
            {
              "id": 1181,
              "pitch": 55,
              "velocity": 110,
              "start": 1359.5,
              "duration": 0.2392578125
            },
            {
              "id": 1180,
              "pitch": 61,
              "velocity": 110,
              "start": 1359.5,
              "duration": 0.2392578125
            },
            {
              "id": 1179,
              "pitch": 55,
              "velocity": 110,
              "start": 1359.75,
              "duration": 0.2392578125
            },
            {
              "id": 1178,
              "pitch": 61,
              "velocity": 110,
              "start": 1359.75,
              "duration": 0.2392578125
            },
            {
              "id": 1177,
              "pitch": 62,
              "velocity": 110,
              "start": 1360.25,
              "duration": 0.2392578125
            },
            {
              "id": 1176,
              "pitch": 65,
              "velocity": 110,
              "start": 1360.25,
              "duration": 0.2392578125
            },
            {
              "id": 1175,
              "pitch": 69,
              "velocity": 110,
              "start": 1360.25,
              "duration": 0.2392578125
            },
            {
              "id": 1174,
              "pitch": 62,
              "velocity": 110,
              "start": 1360.5,
              "duration": 0.2392578125
            },
            {
              "id": 1173,
              "pitch": 65,
              "velocity": 110,
              "start": 1360.5,
              "duration": 0.2392578125
            },
            {
              "id": 1172,
              "pitch": 69,
              "velocity": 110,
              "start": 1360.5,
              "duration": 0.2392578125
            },
            {
              "id": 1171,
              "pitch": 62,
              "velocity": 110,
              "start": 1360.75,
              "duration": 0.2392578125
            },
            {
              "id": 1170,
              "pitch": 65,
              "velocity": 110,
              "start": 1360.75,
              "duration": 0.2392578125
            },
            {
              "id": 1169,
              "pitch": 69,
              "velocity": 110,
              "start": 1360.75,
              "duration": 0.2392578125
            },
            {
              "id": 1168,
              "pitch": 62,
              "velocity": 110,
              "start": 1361.0,
              "duration": 0.2392578125
            },
            {
              "id": 1167,
              "pitch": 65,
              "velocity": 110,
              "start": 1361.0,
              "duration": 0.2392578125
            },
            {
              "id": 1166,
              "pitch": 74,
              "velocity": 110,
              "start": 1361.0,
              "duration": 0.2392578125
            },
            {
              "id": 1165,
              "pitch": 62,
              "velocity": 110,
              "start": 1361.25,
              "duration": 0.2392578125
            },
            {
              "id": 1164,
              "pitch": 65,
              "velocity": 110,
              "start": 1361.25,
              "duration": 0.2392578125
            },
            {
              "id": 1163,
              "pitch": 74,
              "velocity": 110,
              "start": 1361.25,
              "duration": 0.2392578125
            },
            {
              "id": 1162,
              "pitch": 62,
              "velocity": 110,
              "start": 1361.5,
              "duration": 0.2392578125
            },
            {
              "id": 1161,
              "pitch": 65,
              "velocity": 110,
              "start": 1361.5,
              "duration": 0.2392578125
            },
            {
              "id": 1160,
              "pitch": 69,
              "velocity": 110,
              "start": 1361.5,
              "duration": 0.2392578125
            },
            {
              "id": 1159,
              "pitch": 62,
              "velocity": 110,
              "start": 1361.75,
              "duration": 0.2392578125
            },
            {
              "id": 1158,
              "pitch": 65,
              "velocity": 110,
              "start": 1361.75,
              "duration": 0.2392578125
            },
            {
              "id": 1157,
              "pitch": 69,
              "velocity": 110,
              "start": 1361.75,
              "duration": 0.2392578125
            },
            {
              "id": 1156,
              "pitch": 67,
              "velocity": 110,
              "start": 1362.0,
              "duration": 0.2392578125
            },
            {
              "id": 1155,
              "pitch": 76,
              "velocity": 110,
              "start": 1362.0,
              "duration": 0.2392578125
            },
            {
              "id": 1154,
              "pitch": 82,
              "velocity": 110,
              "start": 1362.0,
              "duration": 0.2392578125
            },
            {
              "id": 1153,
              "pitch": 67,
              "velocity": 110,
              "start": 1362.25,
              "duration": 0.2392578125
            },
            {
              "id": 1152,
              "pitch": 76,
              "velocity": 110,
              "start": 1362.25,
              "duration": 0.2392578125
            },
            {
              "id": 1151,
              "pitch": 82,
              "velocity": 110,
              "start": 1362.25,
              "duration": 0.2392578125
            },
            {
              "id": 1150,
              "pitch": 67,
              "velocity": 110,
              "start": 1362.5,
              "duration": 0.2392578125
            },
            {
              "id": 1149,
              "pitch": 73,
              "velocity": 110,
              "start": 1362.5,
              "duration": 0.2392578125
            },
            {
              "id": 1148,
              "pitch": 79,
              "velocity": 110,
              "start": 1362.5,
              "duration": 0.2392578125
            },
            {
              "id": 1147,
              "pitch": 67,
              "velocity": 110,
              "start": 1362.75,
              "duration": 0.2392578125
            },
            {
              "id": 1146,
              "pitch": 73,
              "velocity": 110,
              "start": 1362.75,
              "duration": 0.2392578125
            },
            {
              "id": 1145,
              "pitch": 79,
              "velocity": 110,
              "start": 1362.75,
              "duration": 0.2392578125
            },
            {
              "id": 1144,
              "pitch": 67,
              "velocity": 110,
              "start": 1363.0,
              "duration": 0.2392578125
            },
            {
              "id": 1143,
              "pitch": 70,
              "velocity": 110,
              "start": 1363.0,
              "duration": 0.2392578125
            },
            {
              "id": 1142,
              "pitch": 79,
              "velocity": 110,
              "start": 1363.0,
              "duration": 0.2392578125
            },
            {
              "id": 1141,
              "pitch": 85,
              "velocity": 110,
              "start": 1363.0,
              "duration": 0.2392578125
            },
            {
              "id": 1140,
              "pitch": 67,
              "velocity": 110,
              "start": 1363.25,
              "duration": 0.2392578125
            },
            {
              "id": 1139,
              "pitch": 70,
              "velocity": 110,
              "start": 1363.25,
              "duration": 0.2392578125
            },
            {
              "id": 1138,
              "pitch": 79,
              "velocity": 110,
              "start": 1363.25,
              "duration": 0.2392578125
            },
            {
              "id": 1137,
              "pitch": 85,
              "velocity": 110,
              "start": 1363.25,
              "duration": 0.2392578125
            },
            {
              "id": 1136,
              "pitch": 67,
              "velocity": 110,
              "start": 1363.5,
              "duration": 0.2392578125
            },
            {
              "id": 1135,
              "pitch": 70,
              "velocity": 110,
              "start": 1363.5,
              "duration": 0.2392578125
            },
            {
              "id": 1134,
              "pitch": 76,
              "velocity": 110,
              "start": 1363.5,
              "duration": 0.2392578125
            },
            {
              "id": 1133,
              "pitch": 82,
              "velocity": 110,
              "start": 1363.5,
              "duration": 0.2392578125
            },
            {
              "id": 1132,
              "pitch": 67,
              "velocity": 110,
              "start": 1363.75,
              "duration": 0.2392578125
            },
            {
              "id": 1131,
              "pitch": 70,
              "velocity": 110,
              "start": 1363.75,
              "duration": 0.2392578125
            },
            {
              "id": 1130,
              "pitch": 76,
              "velocity": 110,
              "start": 1363.75,
              "duration": 0.2392578125
            },
            {
              "id": 1129,
              "pitch": 82,
              "velocity": 110,
              "start": 1363.75,
              "duration": 0.2392578125
            },
            {
              "id": 1128,
              "pitch": 62,
              "velocity": 110,
              "start": 1366.25,
              "duration": 0.4892578125
            },
            {
              "id": 1127,
              "pitch": 65,
              "velocity": 110,
              "start": 1366.75,
              "duration": 0.4892578125
            },
            {
              "id": 1126,
              "pitch": 66,
              "velocity": 110,
              "start": 1367.25,
              "duration": 0.2392578125
            },
            {
              "id": 1125,
              "pitch": 67,
              "velocity": 110,
              "start": 1367.5,
              "duration": 0.4892578125
            },
            {
              "id": 1124,
              "pitch": 57,
              "velocity": 110,
              "start": 1368.0,
              "duration": 0.4892578125
            },
            {
              "id": 1123,
              "pitch": 60,
              "velocity": 110,
              "start": 1368.0,
              "duration": 0.4892578125
            },
            {
              "id": 1122,
              "pitch": 57,
              "velocity": 110,
              "start": 1368.5,
              "duration": 0.4892578125
            },
            {
              "id": 1121,
              "pitch": 60,
              "velocity": 110,
              "start": 1368.5,
              "duration": 0.4892578125
            },
            {
              "id": 1120,
              "pitch": 57,
              "velocity": 110,
              "start": 1369.0,
              "duration": 0.4892578125
            },
            {
              "id": 1119,
              "pitch": 60,
              "velocity": 110,
              "start": 1369.0,
              "duration": 0.4892578125
            },
            {
              "id": 1118,
              "pitch": 53,
              "velocity": 110,
              "start": 1369.5,
              "duration": 0.2392578125
            },
            {
              "id": 1117,
              "pitch": 57,
              "velocity": 110,
              "start": 1369.5,
              "duration": 0.2392578125
            },
            {
              "id": 1116,
              "pitch": 57,
              "velocity": 110,
              "start": 1369.75,
              "duration": 0.2392578125
            },
            {
              "id": 1115,
              "pitch": 60,
              "velocity": 110,
              "start": 1369.75,
              "duration": 0.2392578125
            },
            {
              "id": 1114,
              "pitch": 57,
              "velocity": 110,
              "start": 1370.25,
              "duration": 0.4892578125
            },
            {
              "id": 1113,
              "pitch": 60,
              "velocity": 110,
              "start": 1370.25,
              "duration": 0.4892578125
            },
            {
              "id": 1112,
              "pitch": 53,
              "velocity": 110,
              "start": 1370.75,
              "duration": 0.2392578125
            },
            {
              "id": 1111,
              "pitch": 57,
              "velocity": 110,
              "start": 1370.75,
              "duration": 0.2392578125
            },
            {
              "id": 1110,
              "pitch": 57,
              "velocity": 110,
              "start": 1371.0,
              "duration": 0.2392578125
            },
            {
              "id": 1109,
              "pitch": 60,
              "velocity": 110,
              "start": 1371.0,
              "duration": 0.2392578125
            },
            {
              "id": 1108,
              "pitch": 53,
              "velocity": 110,
              "start": 1371.25,
              "duration": 0.2392578125
            },
            {
              "id": 1107,
              "pitch": 57,
              "velocity": 110,
              "start": 1371.25,
              "duration": 0.2392578125
            },
            {
              "id": 1106,
              "pitch": 57,
              "velocity": 110,
              "start": 1371.5,
              "duration": 0.4892578125
            },
            {
              "id": 1105,
              "pitch": 60,
              "velocity": 110,
              "start": 1371.5,
              "duration": 0.4892578125
            },
            {
              "id": 1104,
              "pitch": 55,
              "velocity": 110,
              "start": 1372.0,
              "duration": 0.4892578125
            },
            {
              "id": 1103,
              "pitch": 59,
              "velocity": 110,
              "start": 1372.0,
              "duration": 0.4892578125
            },
            {
              "id": 1102,
              "pitch": 55,
              "velocity": 110,
              "start": 1372.5,
              "duration": 0.4892578125
            },
            {
              "id": 1101,
              "pitch": 59,
              "velocity": 110,
              "start": 1372.5,
              "duration": 0.4892578125
            },
            {
              "id": 1100,
              "pitch": 55,
              "velocity": 110,
              "start": 1373.0,
              "duration": 0.4892578125
            },
            {
              "id": 1099,
              "pitch": 59,
              "velocity": 110,
              "start": 1373.0,
              "duration": 0.4892578125
            },
            {
              "id": 1098,
              "pitch": 52,
              "velocity": 110,
              "start": 1373.5,
              "duration": 0.2392578125
            },
            {
              "id": 1097,
              "pitch": 55,
              "velocity": 110,
              "start": 1373.5,
              "duration": 0.2392578125
            },
            {
              "id": 1096,
              "pitch": 55,
              "velocity": 110,
              "start": 1373.75,
              "duration": 0.2392578125
            },
            {
              "id": 1095,
              "pitch": 59,
              "velocity": 110,
              "start": 1373.75,
              "duration": 0.2392578125
            },
            {
              "id": 1094,
              "pitch": 55,
              "velocity": 110,
              "start": 1374.25,
              "duration": 0.4892578125
            },
            {
              "id": 1093,
              "pitch": 59,
              "velocity": 110,
              "start": 1374.25,
              "duration": 0.4892578125
            },
            {
              "id": 1092,
              "pitch": 52,
              "velocity": 110,
              "start": 1374.75,
              "duration": 0.2392578125
            },
            {
              "id": 1091,
              "pitch": 55,
              "velocity": 110,
              "start": 1374.75,
              "duration": 0.2392578125
            },
            {
              "id": 1090,
              "pitch": 55,
              "velocity": 110,
              "start": 1375.0,
              "duration": 0.2392578125
            },
            {
              "id": 1089,
              "pitch": 59,
              "velocity": 110,
              "start": 1375.0,
              "duration": 0.2392578125
            },
            {
              "id": 1088,
              "pitch": 52,
              "velocity": 110,
              "start": 1375.25,
              "duration": 0.2392578125
            },
            {
              "id": 1087,
              "pitch": 55,
              "velocity": 110,
              "start": 1375.25,
              "duration": 0.2392578125
            },
            {
              "id": 1086,
              "pitch": 55,
              "velocity": 110,
              "start": 1375.5,
              "duration": 0.4892578125
            },
            {
              "id": 1085,
              "pitch": 59,
              "velocity": 110,
              "start": 1375.5,
              "duration": 0.4892578125
            },
            {
              "id": 1084,
              "pitch": 57,
              "velocity": 110,
              "start": 1376.0,
              "duration": 0.4892578125
            },
            {
              "id": 1083,
              "pitch": 60,
              "velocity": 110,
              "start": 1376.0,
              "duration": 0.4892578125
            },
            {
              "id": 1082,
              "pitch": 57,
              "velocity": 110,
              "start": 1376.5,
              "duration": 0.4892578125
            },
            {
              "id": 1081,
              "pitch": 60,
              "velocity": 110,
              "start": 1376.5,
              "duration": 0.4892578125
            },
            {
              "id": 1080,
              "pitch": 57,
              "velocity": 110,
              "start": 1377.0,
              "duration": 0.4892578125
            },
            {
              "id": 1079,
              "pitch": 60,
              "velocity": 110,
              "start": 1377.0,
              "duration": 0.4892578125
            },
            {
              "id": 1078,
              "pitch": 53,
              "velocity": 110,
              "start": 1377.5,
              "duration": 0.2392578125
            },
            {
              "id": 1077,
              "pitch": 57,
              "velocity": 110,
              "start": 1377.5,
              "duration": 0.2392578125
            },
            {
              "id": 1076,
              "pitch": 57,
              "velocity": 110,
              "start": 1377.75,
              "duration": 0.2392578125
            },
            {
              "id": 1075,
              "pitch": 60,
              "velocity": 110,
              "start": 1377.75,
              "duration": 0.2392578125
            },
            {
              "id": 1074,
              "pitch": 57,
              "velocity": 110,
              "start": 1378.25,
              "duration": 0.4892578125
            },
            {
              "id": 1073,
              "pitch": 60,
              "velocity": 110,
              "start": 1378.25,
              "duration": 0.4892578125
            },
            {
              "id": 1072,
              "pitch": 53,
              "velocity": 110,
              "start": 1378.75,
              "duration": 0.2392578125
            },
            {
              "id": 1071,
              "pitch": 57,
              "velocity": 110,
              "start": 1378.75,
              "duration": 0.2392578125
            },
            {
              "id": 1070,
              "pitch": 57,
              "velocity": 110,
              "start": 1379.0,
              "duration": 0.2392578125
            },
            {
              "id": 1069,
              "pitch": 60,
              "velocity": 110,
              "start": 1379.0,
              "duration": 0.2392578125
            },
            {
              "id": 1068,
              "pitch": 53,
              "velocity": 110,
              "start": 1379.25,
              "duration": 0.2392578125
            },
            {
              "id": 1067,
              "pitch": 57,
              "velocity": 110,
              "start": 1379.25,
              "duration": 0.2392578125
            },
            {
              "id": 1066,
              "pitch": 57,
              "velocity": 110,
              "start": 1379.5,
              "duration": 0.4892578125
            },
            {
              "id": 1065,
              "pitch": 60,
              "velocity": 110,
              "start": 1379.5,
              "duration": 0.4892578125
            },
            {
              "id": 1064,
              "pitch": 55,
              "velocity": 110,
              "start": 1380.0,
              "duration": 0.4892578125
            },
            {
              "id": 1063,
              "pitch": 59,
              "velocity": 110,
              "start": 1380.0,
              "duration": 0.4892578125
            },
            {
              "id": 1062,
              "pitch": 55,
              "velocity": 110,
              "start": 1380.5,
              "duration": 0.4892578125
            },
            {
              "id": 1061,
              "pitch": 59,
              "velocity": 110,
              "start": 1380.5,
              "duration": 0.4892578125
            },
            {
              "id": 1060,
              "pitch": 55,
              "velocity": 110,
              "start": 1381.0,
              "duration": 0.4892578125
            },
            {
              "id": 1059,
              "pitch": 59,
              "velocity": 110,
              "start": 1381.0,
              "duration": 0.4892578125
            },
            {
              "id": 1058,
              "pitch": 52,
              "velocity": 110,
              "start": 1381.5,
              "duration": 0.2392578125
            },
            {
              "id": 1057,
              "pitch": 55,
              "velocity": 110,
              "start": 1381.5,
              "duration": 0.2392578125
            },
            {
              "id": 1056,
              "pitch": 55,
              "velocity": 110,
              "start": 1381.75,
              "duration": 0.2392578125
            },
            {
              "id": 1055,
              "pitch": 59,
              "velocity": 110,
              "start": 1381.75,
              "duration": 0.2392578125
            },
            {
              "id": 1054,
              "pitch": 55,
              "velocity": 110,
              "start": 1382.25,
              "duration": 0.4892578125
            },
            {
              "id": 1053,
              "pitch": 59,
              "velocity": 110,
              "start": 1382.25,
              "duration": 0.4892578125
            },
            {
              "id": 1052,
              "pitch": 52,
              "velocity": 110,
              "start": 1382.75,
              "duration": 0.2392578125
            },
            {
              "id": 1051,
              "pitch": 55,
              "velocity": 110,
              "start": 1382.75,
              "duration": 0.2392578125
            },
            {
              "id": 1050,
              "pitch": 55,
              "velocity": 110,
              "start": 1383.0,
              "duration": 0.2392578125
            },
            {
              "id": 1049,
              "pitch": 59,
              "velocity": 110,
              "start": 1383.0,
              "duration": 0.2392578125
            },
            {
              "id": 1048,
              "pitch": 52,
              "velocity": 110,
              "start": 1383.25,
              "duration": 0.2392578125
            },
            {
              "id": 1047,
              "pitch": 55,
              "velocity": 110,
              "start": 1383.25,
              "duration": 0.2392578125
            },
            {
              "id": 1046,
              "pitch": 55,
              "velocity": 110,
              "start": 1383.5,
              "duration": 0.4892578125
            },
            {
              "id": 1045,
              "pitch": 59,
              "velocity": 110,
              "start": 1383.5,
              "duration": 0.4892578125
            },
            {
              "id": 1044,
              "pitch": 57,
              "velocity": 110,
              "start": 1384.0,
              "duration": 3.75
            },
            {
              "id": 1043,
              "pitch": 60,
              "velocity": 110,
              "start": 1384.0,
              "duration": 3.75
            },
            {
              "id": 1042,
              "pitch": 55,
              "velocity": 110,
              "start": 1388.0,
              "duration": 1.75
            },
            {
              "id": 1041,
              "pitch": 59,
              "velocity": 110,
              "start": 1388.0,
              "duration": 1.75
            },
            {
              "id": 1040,
              "pitch": 64,
              "velocity": 110,
              "start": 1388.0,
              "duration": 1.75
            },
            {
              "id": 1039,
              "pitch": 36,
              "velocity": 110,
              "start": 1388.0,
              "duration": 3.75
            },
            {
              "id": 1038,
              "pitch": 64,
              "velocity": 110,
              "start": 1390.5,
              "duration": 0.4892578125
            },
            {
              "id": 1037,
              "pitch": 65,
              "velocity": 110,
              "start": 1391.0,
              "duration": 0.3642578125
            },
            {
              "id": 1036,
              "pitch": 67,
              "velocity": 110,
              "start": 1391.375,
              "duration": 0.6142578125
            },
            {
              "id": 1035,
              "pitch": 60,
              "velocity": 110,
              "start": 1392.0,
              "duration": 1.75
            },
            {
              "id": 1034,
              "pitch": 65,
              "velocity": 110,
              "start": 1392.0,
              "duration": 1.75
            },
            {
              "id": 1033,
              "pitch": 69,
              "velocity": 110,
              "start": 1392.0,
              "duration": 1.75
            },
            {
              "id": 1032,
              "pitch": 41,
              "velocity": 110,
              "start": 1392.0,
              "duration": 3.75
            },
            {
              "id": 1031,
              "pitch": 69,
              "velocity": 110,
              "start": 1394.5,
              "duration": 0.4892578125
            },
            {
              "id": 1030,
              "pitch": 67,
              "velocity": 110,
              "start": 1395.0,
              "duration": 0.3642578125
            },
            {
              "id": 1029,
              "pitch": 65,
              "velocity": 110,
              "start": 1395.375,
              "duration": 0.6142578125
            },
            {
              "id": 1028,
              "pitch": 55,
              "velocity": 110,
              "start": 1396.0,
              "duration": 1.75
            },
            {
              "id": 1027,
              "pitch": 59,
              "velocity": 110,
              "start": 1396.0,
              "duration": 1.75
            },
            {
              "id": 1026,
              "pitch": 64,
              "velocity": 110,
              "start": 1396.0,
              "duration": 1.75
            },
            {
              "id": 1025,
              "pitch": 36,
              "velocity": 110,
              "start": 1396.0,
              "duration": 3.75
            },
            {
              "id": 1024,
              "pitch": 64,
              "velocity": 110,
              "start": 1398.5,
              "duration": 0.4892578125
            },
            {
              "id": 1023,
              "pitch": 65,
              "velocity": 110,
              "start": 1399.0,
              "duration": 0.3642578125
            },
            {
              "id": 1022,
              "pitch": 67,
              "velocity": 110,
              "start": 1399.375,
              "duration": 0.6142578125
            },
            {
              "id": 1021,
              "pitch": 60,
              "velocity": 110,
              "start": 1400.0,
              "duration": 1.75
            },
            {
              "id": 1020,
              "pitch": 65,
              "velocity": 110,
              "start": 1400.0,
              "duration": 1.75
            },
            {
              "id": 1019,
              "pitch": 69,
              "velocity": 110,
              "start": 1400.0,
              "duration": 1.75
            },
            {
              "id": 1018,
              "pitch": 41,
              "velocity": 110,
              "start": 1400.0,
              "duration": 1.75
            },
            {
              "id": 1017,
              "pitch": 43,
              "velocity": 110,
              "start": 1402.0,
              "duration": 1.75
            },
            {
              "id": 1016,
              "pitch": 71,
              "velocity": 110,
              "start": 1402.5,
              "duration": 0.4892578125
            },
            {
              "id": 1015,
              "pitch": 72,
              "velocity": 110,
              "start": 1403.0,
              "duration": 0.3642578125
            },
            {
              "id": 1014,
              "pitch": 74,
              "velocity": 110,
              "start": 1403.375,
              "duration": 0.6142578125
            },
            {
              "id": 1013,
              "pitch": 55,
              "velocity": 110,
              "start": 1404.0,
              "duration": 1.75
            },
            {
              "id": 1012,
              "pitch": 59,
              "velocity": 110,
              "start": 1404.0,
              "duration": 1.75
            },
            {
              "id": 1011,
              "pitch": 64,
              "velocity": 110,
              "start": 1404.0,
              "duration": 1.75
            },
            {
              "id": 1010,
              "pitch": 36,
              "velocity": 110,
              "start": 1404.0,
              "duration": 3.75
            },
            {
              "id": 1009,
              "pitch": 64,
              "velocity": 110,
              "start": 1406.5,
              "duration": 0.4892578125
            },
            {
              "id": 1008,
              "pitch": 65,
              "velocity": 110,
              "start": 1407.0,
              "duration": 0.3642578125
            },
            {
              "id": 1007,
              "pitch": 67,
              "velocity": 110,
              "start": 1407.375,
              "duration": 0.6142578125
            },
            {
              "id": 1006,
              "pitch": 60,
              "velocity": 110,
              "start": 1408.0,
              "duration": 1.75
            },
            {
              "id": 1005,
              "pitch": 65,
              "velocity": 110,
              "start": 1408.0,
              "duration": 1.75
            },
            {
              "id": 1004,
              "pitch": 69,
              "velocity": 110,
              "start": 1408.0,
              "duration": 1.75
            },
            {
              "id": 1003,
              "pitch": 41,
              "velocity": 110,
              "start": 1408.0,
              "duration": 1.75
            },
            {
              "id": 1002,
              "pitch": 62,
              "velocity": 110,
              "start": 1410.0,
              "duration": 0.4892578125
            },
            {
              "id": 1001,
              "pitch": 67,
              "velocity": 110,
              "start": 1410.0,
              "duration": 0.4892578125
            },
            {
              "id": 1000,
              "pitch": 71,
              "velocity": 110,
              "start": 1410.0,
              "duration": 0.4892578125
            },
            {
              "id": 999,
              "pitch": 43,
              "velocity": 110,
              "start": 1410.0,
              "duration": 0.4892578125
            },
            {
              "id": 998,
              "pitch": 62,
              "velocity": 110,
              "start": 1410.5,
              "duration": 0.4892578125
            },
            {
              "id": 997,
              "pitch": 67,
              "velocity": 110,
              "start": 1410.5,
              "duration": 0.4892578125
            },
            {
              "id": 996,
              "pitch": 71,
              "velocity": 110,
              "start": 1410.5,
              "duration": 0.4892578125
            },
            {
              "id": 995,
              "pitch": 43,
              "velocity": 110,
              "start": 1410.5,
              "duration": 0.4892578125
            },
            {
              "id": 994,
              "pitch": 62,
              "velocity": 110,
              "start": 1411.375,
              "duration": 0.6142578125
            },
            {
              "id": 993,
              "pitch": 67,
              "velocity": 110,
              "start": 1411.375,
              "duration": 0.6142578125
            },
            {
              "id": 992,
              "pitch": 71,
              "velocity": 110,
              "start": 1411.375,
              "duration": 0.6142578125
            },
            {
              "id": 991,
              "pitch": 43,
              "velocity": 110,
              "start": 1411.375,
              "duration": 0.6142578125
            },
            {
              "id": 990,
              "pitch": 64,
              "velocity": 110,
              "start": 1412.0,
              "duration": 1.3330078125
            },
            {
              "id": 989,
              "pitch": 36,
              "velocity": 110,
              "start": 1412.0,
              "duration": 0.4892578125
            },
            {
              "id": 988,
              "pitch": 36,
              "velocity": 110,
              "start": 1412.5,
              "duration": 0.4892578125
            },
            {
              "id": 987,
              "pitch": 36,
              "velocity": 110,
              "start": 1413.0,
              "duration": 0.4892578125
            },
            {
              "id": 986,
              "pitch": 64,
              "velocity": 110,
              "start": 1413.5,
              "duration": 0.4892578125
            },
            {
              "id": 985,
              "pitch": 36,
              "velocity": 110,
              "start": 1413.5,
              "duration": 0.4892578125
            },
            {
              "id": 984,
              "pitch": 65,
              "velocity": 110,
              "start": 1414.0,
              "duration": 0.4892578125
            },
            {
              "id": 983,
              "pitch": 38,
              "velocity": 110,
              "start": 1414.0,
              "duration": 0.4892578125
            },
            {
              "id": 982,
              "pitch": 64,
              "velocity": 110,
              "start": 1414.5,
              "duration": 0.4892578125
            },
            {
              "id": 981,
              "pitch": 38,
              "velocity": 110,
              "start": 1414.5,
              "duration": 0.4892578125
            },
            {
              "id": 980,
              "pitch": 65,
              "velocity": 110,
              "start": 1415.0,
              "duration": 0.4892578125
            },
            {
              "id": 979,
              "pitch": 38,
              "velocity": 110,
              "start": 1415.0,
              "duration": 0.4892578125
            },
            {
              "id": 978,
              "pitch": 67,
              "velocity": 110,
              "start": 1415.5,
              "duration": 0.4892578125
            },
            {
              "id": 977,
              "pitch": 38,
              "velocity": 110,
              "start": 1415.5,
              "duration": 0.4892578125
            },
            {
              "id": 976,
              "pitch": 64,
              "velocity": 110,
              "start": 1416.0,
              "duration": 1.75
            },
            {
              "id": 975,
              "pitch": 40,
              "velocity": 110,
              "start": 1416.0,
              "duration": 0.4892578125
            },
            {
              "id": 974,
              "pitch": 40,
              "velocity": 110,
              "start": 1416.5,
              "duration": 0.4892578125
            },
            {
              "id": 973,
              "pitch": 40,
              "velocity": 110,
              "start": 1417.0,
              "duration": 0.4892578125
            },
            {
              "id": 972,
              "pitch": 40,
              "velocity": 110,
              "start": 1417.5,
              "duration": 0.4892578125
            },
            {
              "id": 971,
              "pitch": 60,
              "velocity": 110,
              "start": 1418.0,
              "duration": 0.8330078125
            },
            {
              "id": 970,
              "pitch": 36,
              "velocity": 110,
              "start": 1418.0,
              "duration": 0.4892578125
            },
            {
              "id": 969,
              "pitch": 36,
              "velocity": 110,
              "start": 1418.5,
              "duration": 0.4892578125
            },
            {
              "id": 968,
              "pitch": 64,
              "velocity": 110,
              "start": 1419.0,
              "duration": 0.4892578125
            },
            {
              "id": 967,
              "pitch": 36,
              "velocity": 110,
              "start": 1419.0,
              "duration": 0.4892578125
            },
            {
              "id": 966,
              "pitch": 67,
              "velocity": 110,
              "start": 1419.5,
              "duration": 0.4892578125
            },
            {
              "id": 965,
              "pitch": 36,
              "velocity": 110,
              "start": 1419.5,
              "duration": 0.4892578125
            },
            {
              "id": 964,
              "pitch": 69,
              "velocity": 110,
              "start": 1420.0,
              "duration": 0.8330078125
            },
            {
              "id": 963,
              "pitch": 41,
              "velocity": 110,
              "start": 1420.0,
              "duration": 0.4892578125
            },
            {
              "id": 962,
              "pitch": 41,
              "velocity": 110,
              "start": 1420.5,
              "duration": 0.4892578125
            },
            {
              "id": 961,
              "pitch": 69,
              "velocity": 110,
              "start": 1421.0,
              "duration": 0.4892578125
            },
            {
              "id": 960,
              "pitch": 41,
              "velocity": 110,
              "start": 1421.0,
              "duration": 0.4892578125
            },
            {
              "id": 959,
              "pitch": 69,
              "velocity": 110,
              "start": 1421.5,
              "duration": 0.4892578125
            },
            {
              "id": 958,
              "pitch": 41,
              "velocity": 110,
              "start": 1421.5,
              "duration": 0.4892578125
            },
            {
              "id": 957,
              "pitch": 71,
              "velocity": 110,
              "start": 1422.0,
              "duration": 0.8330078125
            },
            {
              "id": 956,
              "pitch": 43,
              "velocity": 110,
              "start": 1422.0,
              "duration": 0.4892578125
            },
            {
              "id": 955,
              "pitch": 43,
              "velocity": 110,
              "start": 1422.5,
              "duration": 0.4892578125
            },
            {
              "id": 954,
              "pitch": 74,
              "velocity": 110,
              "start": 1423.0,
              "duration": 0.4892578125
            },
            {
              "id": 953,
              "pitch": 43,
              "velocity": 110,
              "start": 1423.0,
              "duration": 0.4892578125
            },
            {
              "id": 952,
              "pitch": 72,
              "velocity": 110,
              "start": 1423.5,
              "duration": 0.4892578125
            },
            {
              "id": 951,
              "pitch": 43,
              "velocity": 110,
              "start": 1423.5,
              "duration": 0.4892578125
            },
            {
              "id": 950,
              "pitch": 67,
              "velocity": 110,
              "start": 1424.0,
              "duration": 2.75
            },
            {
              "id": 949,
              "pitch": 36,
              "velocity": 110,
              "start": 1424.0,
              "duration": 0.4892578125
            },
            {
              "id": 948,
              "pitch": 36,
              "velocity": 110,
              "start": 1424.5,
              "duration": 0.4892578125
            },
            {
              "id": 947,
              "pitch": 36,
              "velocity": 110,
              "start": 1425.0,
              "duration": 0.4892578125
            },
            {
              "id": 946,
              "pitch": 36,
              "velocity": 110,
              "start": 1425.5,
              "duration": 0.4892578125
            },
            {
              "id": 945,
              "pitch": 36,
              "velocity": 110,
              "start": 1426.0,
              "duration": 0.4892578125
            },
            {
              "id": 944,
              "pitch": 36,
              "velocity": 110,
              "start": 1426.5,
              "duration": 0.4892578125
            },
            {
              "id": 943,
              "pitch": 38,
              "velocity": 110,
              "start": 1427.0,
              "duration": 0.2392578125
            },
            {
              "id": 942,
              "pitch": 40,
              "velocity": 110,
              "start": 1427.25,
              "duration": 0.7392578125
            },
            {
              "id": 941,
              "pitch": 69,
              "velocity": 110,
              "start": 1428.0,
              "duration": 1.3330078125
            },
            {
              "id": 940,
              "pitch": 41,
              "velocity": 110,
              "start": 1428.0,
              "duration": 0.4892578125
            },
            {
              "id": 939,
              "pitch": 41,
              "velocity": 110,
              "start": 1428.5,
              "duration": 0.4892578125
            },
            {
              "id": 938,
              "pitch": 41,
              "velocity": 110,
              "start": 1429.0,
              "duration": 0.4892578125
            },
            {
              "id": 937,
              "pitch": 69,
              "velocity": 110,
              "start": 1429.5,
              "duration": 0.4892578125
            },
            {
              "id": 936,
              "pitch": 41,
              "velocity": 110,
              "start": 1429.5,
              "duration": 0.4892578125
            },
            {
              "id": 935,
              "pitch": 71,
              "velocity": 110,
              "start": 1430.0,
              "duration": 0.8330078125
            },
            {
              "id": 934,
              "pitch": 43,
              "velocity": 110,
              "start": 1430.0,
              "duration": 0.4892578125
            },
            {
              "id": 933,
              "pitch": 43,
              "velocity": 110,
              "start": 1430.5,
              "duration": 0.4892578125
            },
            {
              "id": 932,
              "pitch": 74,
              "velocity": 110,
              "start": 1431.0,
              "duration": 0.4892578125
            },
            {
              "id": 931,
              "pitch": 43,
              "velocity": 110,
              "start": 1431.0,
              "duration": 0.4892578125
            },
            {
              "id": 930,
              "pitch": 72,
              "velocity": 110,
              "start": 1431.5,
              "duration": 0.4892578125
            },
            {
              "id": 929,
              "pitch": 43,
              "velocity": 110,
              "start": 1431.5,
              "duration": 0.4892578125
            },
            {
              "id": 928,
              "pitch": 67,
              "velocity": 110,
              "start": 1432.0,
              "duration": 1.75
            },
            {
              "id": 927,
              "pitch": 40,
              "velocity": 110,
              "start": 1432.0,
              "duration": 0.4892578125
            },
            {
              "id": 926,
              "pitch": 40,
              "velocity": 110,
              "start": 1432.5,
              "duration": 0.4892578125
            },
            {
              "id": 925,
              "pitch": 40,
              "velocity": 110,
              "start": 1433.0,
              "duration": 0.4892578125
            },
            {
              "id": 924,
              "pitch": 40,
              "velocity": 110,
              "start": 1433.5,
              "duration": 0.4892578125
            },
            {
              "id": 923,
              "pitch": 72,
              "velocity": 110,
              "start": 1434.0,
              "duration": 0.8330078125
            },
            {
              "id": 922,
              "pitch": 36,
              "velocity": 110,
              "start": 1434.0,
              "duration": 0.4892578125
            },
            {
              "id": 921,
              "pitch": 36,
              "velocity": 110,
              "start": 1434.5,
              "duration": 0.4892578125
            },
            {
              "id": 920,
              "pitch": 60,
              "velocity": 110,
              "start": 1435.0,
              "duration": 0.4892578125
            },
            {
              "id": 919,
              "pitch": 36,
              "velocity": 110,
              "start": 1435.0,
              "duration": 0.4892578125
            },
            {
              "id": 918,
              "pitch": 62,
              "velocity": 110,
              "start": 1435.5,
              "duration": 0.4892578125
            },
            {
              "id": 917,
              "pitch": 36,
              "velocity": 110,
              "start": 1435.5,
              "duration": 0.4892578125
            },
            {
              "id": 916,
              "pitch": 65,
              "velocity": 110,
              "start": 1436.0,
              "duration": 1.3330078125
            },
            {
              "id": 915,
              "pitch": 34,
              "velocity": 110,
              "start": 1436.0,
              "duration": 0.4892578125
            },
            {
              "id": 914,
              "pitch": 34,
              "velocity": 110,
              "start": 1436.5,
              "duration": 0.4892578125
            },
            {
              "id": 913,
              "pitch": 34,
              "velocity": 110,
              "start": 1437.0,
              "duration": 0.4892578125
            },
            {
              "id": 912,
              "pitch": 67,
              "velocity": 110,
              "start": 1437.5,
              "duration": 0.6142578125
            },
            {
              "id": 911,
              "pitch": 34,
              "velocity": 110,
              "start": 1437.5,
              "duration": 0.4892578125
            },
            {
              "id": 910,
              "pitch": 34,
              "velocity": 110,
              "start": 1438.0,
              "duration": 0.4892578125
            },
            {
              "id": 909,
              "pitch": 65,
              "velocity": 110,
              "start": 1438.125,
              "duration": 0.4892578125
            },
            {
              "id": 908,
              "pitch": 34,
              "velocity": 110,
              "start": 1438.5,
              "duration": 0.4892578125
            },
            {
              "id": 907,
              "pitch": 64,
              "velocity": 110,
              "start": 1438.625,
              "duration": 0.3642578125
            },
            {
              "id": 906,
              "pitch": 62,
              "velocity": 110,
              "start": 1439.0,
              "duration": 0.4892578125
            },
            {
              "id": 905,
              "pitch": 34,
              "velocity": 110,
              "start": 1439.0,
              "duration": 0.4892578125
            },
            {
              "id": 904,
              "pitch": 60,
              "velocity": 110,
              "start": 1439.5,
              "duration": 0.4892578125
            },
            {
              "id": 903,
              "pitch": 34,
              "velocity": 110,
              "start": 1439.5,
              "duration": 0.4892578125
            },
            {
              "id": 902,
              "pitch": 67,
              "velocity": 110,
              "start": 1440.0,
              "duration": 3.75
            },
            {
              "id": 901,
              "pitch": 38,
              "velocity": 110,
              "start": 1440.0,
              "duration": 0.4892578125
            },
            {
              "id": 900,
              "pitch": 38,
              "velocity": 110,
              "start": 1440.5,
              "duration": 0.4892578125
            },
            {
              "id": 899,
              "pitch": 38,
              "velocity": 110,
              "start": 1441.0,
              "duration": 0.4892578125
            },
            {
              "id": 898,
              "pitch": 38,
              "velocity": 110,
              "start": 1441.5,
              "duration": 0.4892578125
            },
            {
              "id": 897,
              "pitch": 43,
              "velocity": 110,
              "start": 1442.0,
              "duration": 0.4892578125
            },
            {
              "id": 896,
              "pitch": 43,
              "velocity": 110,
              "start": 1442.5,
              "duration": 0.4892578125
            },
            {
              "id": 895,
              "pitch": 43,
              "velocity": 110,
              "start": 1443.0,
              "duration": 0.4892578125
            },
            {
              "id": 894,
              "pitch": 43,
              "velocity": 110,
              "start": 1443.5,
              "duration": 0.4892578125
            },
            {
              "id": 893,
              "pitch": 64,
              "velocity": 110,
              "start": 1444.0,
              "duration": 1.3330078125
            },
            {
              "id": 892,
              "pitch": 36,
              "velocity": 110,
              "start": 1444.0,
              "duration": 0.4892578125
            },
            {
              "id": 891,
              "pitch": 36,
              "velocity": 110,
              "start": 1444.5,
              "duration": 0.4892578125
            },
            {
              "id": 890,
              "pitch": 36,
              "velocity": 110,
              "start": 1445.0,
              "duration": 0.4892578125
            },
            {
              "id": 889,
              "pitch": 64,
              "velocity": 110,
              "start": 1445.5,
              "duration": 0.4892578125
            },
            {
              "id": 888,
              "pitch": 36,
              "velocity": 110,
              "start": 1445.5,
              "duration": 0.4892578125
            },
            {
              "id": 887,
              "pitch": 65,
              "velocity": 110,
              "start": 1446.0,
              "duration": 0.4892578125
            },
            {
              "id": 886,
              "pitch": 38,
              "velocity": 110,
              "start": 1446.0,
              "duration": 0.4892578125
            },
            {
              "id": 885,
              "pitch": 64,
              "velocity": 110,
              "start": 1446.5,
              "duration": 0.4892578125
            },
            {
              "id": 884,
              "pitch": 38,
              "velocity": 110,
              "start": 1446.5,
              "duration": 0.4892578125
            },
            {
              "id": 883,
              "pitch": 65,
              "velocity": 110,
              "start": 1447.0,
              "duration": 0.4892578125
            },
            {
              "id": 882,
              "pitch": 38,
              "velocity": 110,
              "start": 1447.0,
              "duration": 0.4892578125
            },
            {
              "id": 881,
              "pitch": 67,
              "velocity": 110,
              "start": 1447.5,
              "duration": 0.4892578125
            },
            {
              "id": 880,
              "pitch": 38,
              "velocity": 110,
              "start": 1447.5,
              "duration": 0.4892578125
            },
            {
              "id": 879,
              "pitch": 64,
              "velocity": 110,
              "start": 1448.0,
              "duration": 1.75
            },
            {
              "id": 878,
              "pitch": 40,
              "velocity": 110,
              "start": 1448.0,
              "duration": 0.4892578125
            },
            {
              "id": 877,
              "pitch": 40,
              "velocity": 110,
              "start": 1448.5,
              "duration": 0.4892578125
            },
            {
              "id": 876,
              "pitch": 40,
              "velocity": 110,
              "start": 1449.0,
              "duration": 0.4892578125
            },
            {
              "id": 875,
              "pitch": 40,
              "velocity": 110,
              "start": 1449.5,
              "duration": 0.4892578125
            },
            {
              "id": 874,
              "pitch": 60,
              "velocity": 110,
              "start": 1450.0,
              "duration": 0.8330078125
            },
            {
              "id": 873,
              "pitch": 36,
              "velocity": 110,
              "start": 1450.0,
              "duration": 0.4892578125
            },
            {
              "id": 872,
              "pitch": 36,
              "velocity": 110,
              "start": 1450.5,
              "duration": 0.4892578125
            },
            {
              "id": 871,
              "pitch": 64,
              "velocity": 110,
              "start": 1451.0,
              "duration": 0.4892578125
            },
            {
              "id": 870,
              "pitch": 36,
              "velocity": 110,
              "start": 1451.0,
              "duration": 0.4892578125
            },
            {
              "id": 869,
              "pitch": 67,
              "velocity": 110,
              "start": 1451.5,
              "duration": 0.4892578125
            },
            {
              "id": 868,
              "pitch": 36,
              "velocity": 110,
              "start": 1451.5,
              "duration": 0.4892578125
            },
            {
              "id": 867,
              "pitch": 69,
              "velocity": 110,
              "start": 1452.0,
              "duration": 0.8330078125
            },
            {
              "id": 866,
              "pitch": 41,
              "velocity": 110,
              "start": 1452.0,
              "duration": 0.4892578125
            },
            {
              "id": 865,
              "pitch": 41,
              "velocity": 110,
              "start": 1452.5,
              "duration": 0.4892578125
            },
            {
              "id": 864,
              "pitch": 69,
              "velocity": 110,
              "start": 1453.0,
              "duration": 0.4892578125
            },
            {
              "id": 863,
              "pitch": 41,
              "velocity": 110,
              "start": 1453.0,
              "duration": 0.4892578125
            },
            {
              "id": 862,
              "pitch": 69,
              "velocity": 110,
              "start": 1453.5,
              "duration": 0.4892578125
            },
            {
              "id": 861,
              "pitch": 41,
              "velocity": 110,
              "start": 1453.5,
              "duration": 0.4892578125
            },
            {
              "id": 860,
              "pitch": 71,
              "velocity": 110,
              "start": 1454.0,
              "duration": 0.8330078125
            },
            {
              "id": 859,
              "pitch": 43,
              "velocity": 110,
              "start": 1454.0,
              "duration": 0.4892578125
            },
            {
              "id": 858,
              "pitch": 43,
              "velocity": 110,
              "start": 1454.5,
              "duration": 0.4892578125
            },
            {
              "id": 857,
              "pitch": 74,
              "velocity": 110,
              "start": 1455.0,
              "duration": 0.4892578125
            },
            {
              "id": 856,
              "pitch": 43,
              "velocity": 110,
              "start": 1455.0,
              "duration": 0.4892578125
            },
            {
              "id": 855,
              "pitch": 72,
              "velocity": 110,
              "start": 1455.5,
              "duration": 0.4892578125
            },
            {
              "id": 854,
              "pitch": 43,
              "velocity": 110,
              "start": 1455.5,
              "duration": 0.4892578125
            },
            {
              "id": 853,
              "pitch": 67,
              "velocity": 110,
              "start": 1456.0,
              "duration": 2.75
            },
            {
              "id": 852,
              "pitch": 36,
              "velocity": 110,
              "start": 1456.0,
              "duration": 0.4892578125
            },
            {
              "id": 851,
              "pitch": 36,
              "velocity": 110,
              "start": 1456.5,
              "duration": 0.4892578125
            },
            {
              "id": 850,
              "pitch": 36,
              "velocity": 110,
              "start": 1457.0,
              "duration": 0.4892578125
            },
            {
              "id": 849,
              "pitch": 36,
              "velocity": 110,
              "start": 1457.5,
              "duration": 0.4892578125
            },
            {
              "id": 848,
              "pitch": 36,
              "velocity": 110,
              "start": 1458.0,
              "duration": 0.4892578125
            },
            {
              "id": 847,
              "pitch": 36,
              "velocity": 110,
              "start": 1458.5,
              "duration": 0.4892578125
            },
            {
              "id": 846,
              "pitch": 38,
              "velocity": 110,
              "start": 1459.0,
              "duration": 0.2392578125
            },
            {
              "id": 845,
              "pitch": 40,
              "velocity": 110,
              "start": 1459.25,
              "duration": 0.7392578125
            },
            {
              "id": 844,
              "pitch": 69,
              "velocity": 110,
              "start": 1460.0,
              "duration": 1.3330078125
            },
            {
              "id": 843,
              "pitch": 41,
              "velocity": 110,
              "start": 1460.0,
              "duration": 0.4892578125
            },
            {
              "id": 842,
              "pitch": 41,
              "velocity": 110,
              "start": 1460.5,
              "duration": 0.4892578125
            },
            {
              "id": 841,
              "pitch": 41,
              "velocity": 110,
              "start": 1461.0,
              "duration": 0.4892578125
            },
            {
              "id": 840,
              "pitch": 69,
              "velocity": 110,
              "start": 1461.5,
              "duration": 0.4892578125
            },
            {
              "id": 839,
              "pitch": 41,
              "velocity": 110,
              "start": 1461.5,
              "duration": 0.4892578125
            },
            {
              "id": 838,
              "pitch": 71,
              "velocity": 110,
              "start": 1462.0,
              "duration": 0.8330078125
            },
            {
              "id": 837,
              "pitch": 43,
              "velocity": 110,
              "start": 1462.0,
              "duration": 0.4892578125
            },
            {
              "id": 836,
              "pitch": 43,
              "velocity": 110,
              "start": 1462.5,
              "duration": 0.4892578125
            },
            {
              "id": 835,
              "pitch": 74,
              "velocity": 110,
              "start": 1463.0,
              "duration": 0.4892578125
            },
            {
              "id": 834,
              "pitch": 43,
              "velocity": 110,
              "start": 1463.0,
              "duration": 0.4892578125
            },
            {
              "id": 833,
              "pitch": 72,
              "velocity": 110,
              "start": 1463.5,
              "duration": 0.4892578125
            },
            {
              "id": 832,
              "pitch": 43,
              "velocity": 110,
              "start": 1463.5,
              "duration": 0.4892578125
            },
            {
              "id": 831,
              "pitch": 67,
              "velocity": 110,
              "start": 1464.0,
              "duration": 1.75
            },
            {
              "id": 830,
              "pitch": 40,
              "velocity": 110,
              "start": 1464.0,
              "duration": 0.4892578125
            },
            {
              "id": 829,
              "pitch": 40,
              "velocity": 110,
              "start": 1464.5,
              "duration": 0.4892578125
            },
            {
              "id": 828,
              "pitch": 40,
              "velocity": 110,
              "start": 1465.0,
              "duration": 0.4892578125
            },
            {
              "id": 827,
              "pitch": 40,
              "velocity": 110,
              "start": 1465.5,
              "duration": 0.4892578125
            },
            {
              "id": 826,
              "pitch": 72,
              "velocity": 110,
              "start": 1466.0,
              "duration": 0.8330078125
            },
            {
              "id": 825,
              "pitch": 36,
              "velocity": 110,
              "start": 1466.0,
              "duration": 0.4892578125
            },
            {
              "id": 824,
              "pitch": 36,
              "velocity": 110,
              "start": 1466.5,
              "duration": 0.4892578125
            },
            {
              "id": 823,
              "pitch": 72,
              "velocity": 110,
              "start": 1467.0,
              "duration": 0.4892578125
            },
            {
              "id": 822,
              "pitch": 36,
              "velocity": 110,
              "start": 1467.0,
              "duration": 0.4892578125
            },
            {
              "id": 821,
              "pitch": 74,
              "velocity": 110,
              "start": 1467.5,
              "duration": 0.4892578125
            },
            {
              "id": 820,
              "pitch": 36,
              "velocity": 110,
              "start": 1467.5,
              "duration": 0.4892578125
            },
            {
              "id": 819,
              "pitch": 77,
              "velocity": 110,
              "start": 1468.0,
              "duration": 0.8330078125
            },
            {
              "id": 818,
              "pitch": 38,
              "velocity": 110,
              "start": 1468.0,
              "duration": 0.4892578125
            },
            {
              "id": 817,
              "pitch": 38,
              "velocity": 110,
              "start": 1468.5,
              "duration": 0.4892578125
            },
            {
              "id": 816,
              "pitch": 76,
              "velocity": 110,
              "start": 1469.0,
              "duration": 0.8330078125
            },
            {
              "id": 815,
              "pitch": 38,
              "velocity": 110,
              "start": 1469.0,
              "duration": 0.4892578125
            },
            {
              "id": 814,
              "pitch": 38,
              "velocity": 110,
              "start": 1469.5,
              "duration": 0.4892578125
            },
            {
              "id": 813,
              "pitch": 71,
              "velocity": 110,
              "start": 1470.0,
              "duration": 0.8330078125
            },
            {
              "id": 812,
              "pitch": 43,
              "velocity": 110,
              "start": 1470.0,
              "duration": 0.4892578125
            },
            {
              "id": 811,
              "pitch": 43,
              "velocity": 110,
              "start": 1470.5,
              "duration": 0.4892578125
            },
            {
              "id": 810,
              "pitch": 43,
              "velocity": 110,
              "start": 1471.0,
              "duration": 0.4892578125
            },
            {
              "id": 809,
              "pitch": 72,
              "velocity": 110,
              "start": 1471.5,
              "duration": 0.4892578125
            },
            {
              "id": 808,
              "pitch": 43,
              "velocity": 110,
              "start": 1471.5,
              "duration": 0.4892578125
            },
            {
              "id": 807,
              "pitch": 72,
              "velocity": 110,
              "start": 1472.0,
              "duration": 1.75
            },
            {
              "id": 806,
              "pitch": 36,
              "velocity": 110,
              "start": 1472.0,
              "duration": 0.4892578125
            },
            {
              "id": 805,
              "pitch": 36,
              "velocity": 110,
              "start": 1472.5,
              "duration": 0.4892578125
            },
            {
              "id": 804,
              "pitch": 36,
              "velocity": 110,
              "start": 1473.0,
              "duration": 0.4892578125
            },
            {
              "id": 803,
              "pitch": 36,
              "velocity": 110,
              "start": 1473.5,
              "duration": 0.4892578125
            },
            {
              "id": 802,
              "pitch": 36,
              "velocity": 110,
              "start": 1474.0,
              "duration": 0.4892578125
            },
            {
              "id": 801,
              "pitch": 36,
              "velocity": 110,
              "start": 1474.5,
              "duration": 0.4892578125
            },
            {
              "id": 800,
              "pitch": 36,
              "velocity": 110,
              "start": 1475.0,
              "duration": 0.4892578125
            },
            {
              "id": 799,
              "pitch": 36,
              "velocity": 110,
              "start": 1475.5,
              "duration": 0.4892578125
            },
            {
              "id": 798,
              "pitch": 72,
              "velocity": 110,
              "start": 1476.0,
              "duration": 0.8330078125
            },
            {
              "id": 797,
              "pitch": 45,
              "velocity": 110,
              "start": 1476.0,
              "duration": 1.3330078125
            },
            {
              "id": 796,
              "pitch": 74,
              "velocity": 110,
              "start": 1477.5,
              "duration": 0.4892578125
            },
            {
              "id": 795,
              "pitch": 45,
              "velocity": 110,
              "start": 1477.5,
              "duration": 2.25
            },
            {
              "id": 794,
              "pitch": 76,
              "velocity": 110,
              "start": 1479.0,
              "duration": 0.8330078125
            },
            {
              "id": 793,
              "pitch": 71,
              "velocity": 110,
              "start": 1480.0,
              "duration": 0.8330078125
            },
            {
              "id": 792,
              "pitch": 43,
              "velocity": 110,
              "start": 1480.0,
              "duration": 1.3330078125
            },
            {
              "id": 791,
              "pitch": 67,
              "velocity": 110,
              "start": 1481.5,
              "duration": 0.4892578125
            },
            {
              "id": 790,
              "pitch": 43,
              "velocity": 110,
              "start": 1481.5,
              "duration": 2.25
            },
            {
              "id": 789,
              "pitch": 64,
              "velocity": 110,
              "start": 1483.0,
              "duration": 0.8330078125
            },
            {
              "id": 788,
              "pitch": 69,
              "velocity": 110,
              "start": 1484.0,
              "duration": 0.8330078125
            },
            {
              "id": 787,
              "pitch": 41,
              "velocity": 110,
              "start": 1484.0,
              "duration": 1.3330078125
            },
            {
              "id": 786,
              "pitch": 71,
              "velocity": 110,
              "start": 1485.5,
              "duration": 0.4892578125
            },
            {
              "id": 785,
              "pitch": 41,
              "velocity": 110,
              "start": 1485.5,
              "duration": 2.25
            },
            {
              "id": 784,
              "pitch": 72,
              "velocity": 110,
              "start": 1487.0,
              "duration": 0.8330078125
            },
            {
              "id": 783,
              "pitch": 67,
              "velocity": 110,
              "start": 1488.0,
              "duration": 0.8330078125
            },
            {
              "id": 782,
              "pitch": 40,
              "velocity": 110,
              "start": 1488.0,
              "duration": 1.3330078125
            },
            {
              "id": 781,
              "pitch": 40,
              "velocity": 110,
              "start": 1489.5,
              "duration": 2.25
            },
            {
              "id": 780,
              "pitch": 65,
              "velocity": 110,
              "start": 1492.0,
              "duration": 0.8330078125
            },
            {
              "id": 779,
              "pitch": 38,
              "velocity": 110,
              "start": 1492.0,
              "duration": 2.75
            },
            {
              "id": 778,
              "pitch": 67,
              "velocity": 110,
              "start": 1493.5,
              "duration": 0.4892578125
            },
            {
              "id": 777,
              "pitch": 69,
              "velocity": 110,
              "start": 1495.0,
              "duration": 0.8330078125
            },
            {
              "id": 776,
              "pitch": 38,
              "velocity": 110,
              "start": 1495.0,
              "duration": 0.8330078125
            },
            {
              "id": 775,
              "pitch": 67,
              "velocity": 110,
              "start": 1496.0,
              "duration": 0.8330078125
            },
            {
              "id": 774,
              "pitch": 40,
              "velocity": 110,
              "start": 1496.0,
              "duration": 2.75
            },
            {
              "id": 773,
              "pitch": 71,
              "velocity": 110,
              "start": 1497.5,
              "duration": 0.4892578125
            },
            {
              "id": 772,
              "pitch": 72,
              "velocity": 110,
              "start": 1499.0,
              "duration": 0.8330078125
            },
            {
              "id": 771,
              "pitch": 40,
              "velocity": 110,
              "start": 1499.0,
              "duration": 0.8330078125
            },
            {
              "id": 770,
              "pitch": 69,
              "velocity": 110,
              "start": 1500.0,
              "duration": 0.8330078125
            },
            {
              "id": 769,
              "pitch": 41,
              "velocity": 110,
              "start": 1500.0,
              "duration": 2.75
            },
            {
              "id": 768,
              "pitch": 72,
              "velocity": 110,
              "start": 1503.0,
              "duration": 0.8330078125
            },
            {
              "id": 767,
              "pitch": 41,
              "velocity": 110,
              "start": 1503.0,
              "duration": 0.8330078125
            },
            {
              "id": 766,
              "pitch": 74,
              "velocity": 110,
              "start": 1504.0,
              "duration": 0.8330078125
            },
            {
              "id": 765,
              "pitch": 43,
              "velocity": 110,
              "start": 1504.0,
              "duration": 3.75
            },
            {
              "id": 764,
              "pitch": 72,
              "velocity": 110,
              "start": 1508.0,
              "duration": 0.4892578125
            },
            {
              "id": 763,
              "pitch": 76,
              "velocity": 110,
              "start": 1508.0,
              "duration": 0.4892578125
            },
            {
              "id": 762,
              "pitch": 48,
              "velocity": 110,
              "start": 1508.0,
              "duration": 0.4892578125
            },
            {
              "id": 761,
              "pitch": 71,
              "velocity": 110,
              "start": 1508.5,
              "duration": 0.4892578125
            },
            {
              "id": 760,
              "pitch": 74,
              "velocity": 110,
              "start": 1508.5,
              "duration": 0.4892578125
            },
            {
              "id": 759,
              "pitch": 48,
              "velocity": 110,
              "start": 1508.5,
              "duration": 0.4892578125
            },
            {
              "id": 758,
              "pitch": 72,
              "velocity": 110,
              "start": 1509.0,
              "duration": 0.4892578125
            },
            {
              "id": 757,
              "pitch": 76,
              "velocity": 110,
              "start": 1509.0,
              "duration": 0.4892578125
            },
            {
              "id": 756,
              "pitch": 48,
              "velocity": 110,
              "start": 1509.0,
              "duration": 0.4892578125
            },
            {
              "id": 755,
              "pitch": 74,
              "velocity": 110,
              "start": 1509.5,
              "duration": 0.4892578125
            },
            {
              "id": 754,
              "pitch": 77,
              "velocity": 110,
              "start": 1509.5,
              "duration": 0.4892578125
            },
            {
              "id": 753,
              "pitch": 48,
              "velocity": 110,
              "start": 1509.5,
              "duration": 0.4892578125
            },
            {
              "id": 752,
              "pitch": 76,
              "velocity": 110,
              "start": 1510.0,
              "duration": 0.8330078125
            },
            {
              "id": 751,
              "pitch": 79,
              "velocity": 110,
              "start": 1510.0,
              "duration": 0.8330078125
            },
            {
              "id": 750,
              "pitch": 47,
              "velocity": 110,
              "start": 1510.0,
              "duration": 0.4892578125
            },
            {
              "id": 749,
              "pitch": 47,
              "velocity": 110,
              "start": 1510.5,
              "duration": 0.4892578125
            },
            {
              "id": 748,
              "pitch": 72,
              "velocity": 110,
              "start": 1511.0,
              "duration": 0.4892578125
            },
            {
              "id": 747,
              "pitch": 76,
              "velocity": 110,
              "start": 1511.0,
              "duration": 0.4892578125
            },
            {
              "id": 746,
              "pitch": 47,
              "velocity": 110,
              "start": 1511.0,
              "duration": 0.4892578125
            },
            {
              "id": 745,
              "pitch": 71,
              "velocity": 110,
              "start": 1511.5,
              "duration": 0.4892578125
            },
            {
              "id": 744,
              "pitch": 74,
              "velocity": 110,
              "start": 1511.5,
              "duration": 0.4892578125
            },
            {
              "id": 743,
              "pitch": 47,
              "velocity": 110,
              "start": 1511.5,
              "duration": 0.4892578125
            },
            {
              "id": 742,
              "pitch": 71,
              "velocity": 110,
              "start": 1512.0,
              "duration": 1.3330078125
            },
            {
              "id": 741,
              "pitch": 74,
              "velocity": 110,
              "start": 1512.0,
              "duration": 1.3330078125
            },
            {
              "id": 740,
              "pitch": 45,
              "velocity": 110,
              "start": 1512.0,
              "duration": 0.4892578125
            },
            {
              "id": 739,
              "pitch": 45,
              "velocity": 110,
              "start": 1512.5,
              "duration": 0.4892578125
            },
            {
              "id": 738,
              "pitch": 45,
              "velocity": 110,
              "start": 1513.0,
              "duration": 0.4892578125
            },
            {
              "id": 737,
              "pitch": 67,
              "velocity": 110,
              "start": 1513.5,
              "duration": 0.4892578125
            },
            {
              "id": 736,
              "pitch": 72,
              "velocity": 110,
              "start": 1513.5,
              "duration": 0.4892578125
            },
            {
              "id": 735,
              "pitch": 45,
              "velocity": 110,
              "start": 1513.5,
              "duration": 0.4892578125
            },
            {
              "id": 734,
              "pitch": 67,
              "velocity": 110,
              "start": 1514.0,
              "duration": 0.8330078125
            },
            {
              "id": 733,
              "pitch": 72,
              "velocity": 110,
              "start": 1514.0,
              "duration": 0.8330078125
            },
            {
              "id": 732,
              "pitch": 43,
              "velocity": 110,
              "start": 1514.0,
              "duration": 0.4892578125
            },
            {
              "id": 731,
              "pitch": 43,
              "velocity": 110,
              "start": 1514.5,
              "duration": 0.4892578125
            },
            {
              "id": 730,
              "pitch": 72,
              "velocity": 110,
              "start": 1515.0,
              "duration": 0.4892578125
            },
            {
              "id": 729,
              "pitch": 76,
              "velocity": 110,
              "start": 1515.0,
              "duration": 0.4892578125
            },
            {
              "id": 728,
              "pitch": 43,
              "velocity": 110,
              "start": 1515.0,
              "duration": 0.4892578125
            },
            {
              "id": 727,
              "pitch": 76,
              "velocity": 110,
              "start": 1515.5,
              "duration": 0.4892578125
            },
            {
              "id": 726,
              "pitch": 79,
              "velocity": 110,
              "start": 1515.5,
              "duration": 0.4892578125
            },
            {
              "id": 725,
              "pitch": 43,
              "velocity": 110,
              "start": 1515.5,
              "duration": 0.4892578125
            },
            {
              "id": 724,
              "pitch": 77,
              "velocity": 110,
              "start": 1516.0,
              "duration": 0.4892578125
            },
            {
              "id": 723,
              "pitch": 81,
              "velocity": 110,
              "start": 1516.0,
              "duration": 0.4892578125
            },
            {
              "id": 722,
              "pitch": 41,
              "velocity": 110,
              "start": 1516.0,
              "duration": 0.4892578125
            },
            {
              "id": 721,
              "pitch": 76,
              "velocity": 110,
              "start": 1516.5,
              "duration": 0.4892578125
            },
            {
              "id": 720,
              "pitch": 79,
              "velocity": 110,
              "start": 1516.5,
              "duration": 0.4892578125
            },
            {
              "id": 719,
              "pitch": 41,
              "velocity": 110,
              "start": 1516.5,
              "duration": 0.4892578125
            },
            {
              "id": 718,
              "pitch": 77,
              "velocity": 110,
              "start": 1517.0,
              "duration": 0.4892578125
            },
            {
              "id": 717,
              "pitch": 81,
              "velocity": 110,
              "start": 1517.0,
              "duration": 0.4892578125
            },
            {
              "id": 716,
              "pitch": 41,
              "velocity": 110,
              "start": 1517.0,
              "duration": 0.4892578125
            },
            {
              "id": 715,
              "pitch": 77,
              "velocity": 110,
              "start": 1517.5,
              "duration": 0.4892578125
            },
            {
              "id": 714,
              "pitch": 83,
              "velocity": 110,
              "start": 1517.5,
              "duration": 0.4892578125
            },
            {
              "id": 713,
              "pitch": 41,
              "velocity": 110,
              "start": 1517.5,
              "duration": 0.4892578125
            },
            {
              "id": 712,
              "pitch": 76,
              "velocity": 110,
              "start": 1518.0,
              "duration": 0.8330078125
            },
            {
              "id": 711,
              "pitch": 84,
              "velocity": 110,
              "start": 1518.0,
              "duration": 0.8330078125
            },
            {
              "id": 710,
              "pitch": 40,
              "velocity": 110,
              "start": 1518.0,
              "duration": 0.4892578125
            },
            {
              "id": 709,
              "pitch": 40,
              "velocity": 110,
              "start": 1518.5,
              "duration": 0.4892578125
            },
            {
              "id": 708,
              "pitch": 76,
              "velocity": 110,
              "start": 1519.0,
              "duration": 0.4892578125
            },
            {
              "id": 707,
              "pitch": 79,
              "velocity": 110,
              "start": 1519.0,
              "duration": 0.4892578125
            },
            {
              "id": 706,
              "pitch": 40,
              "velocity": 110,
              "start": 1519.0,
              "duration": 0.4892578125
            },
            {
              "id": 705,
              "pitch": 74,
              "velocity": 110,
              "start": 1519.5,
              "duration": 0.4892578125
            },
            {
              "id": 704,
              "pitch": 77,
              "velocity": 110,
              "start": 1519.5,
              "duration": 0.4892578125
            },
            {
              "id": 703,
              "pitch": 40,
              "velocity": 110,
              "start": 1519.5,
              "duration": 0.4892578125
            },
            {
              "id": 702,
              "pitch": 72,
              "velocity": 110,
              "start": 1520.0,
              "duration": 0.8330078125
            },
            {
              "id": 701,
              "pitch": 76,
              "velocity": 110,
              "start": 1520.0,
              "duration": 0.8330078125
            },
            {
              "id": 700,
              "pitch": 38,
              "velocity": 110,
              "start": 1520.0,
              "duration": 0.4892578125
            },
            {
              "id": 699,
              "pitch": 38,
              "velocity": 110,
              "start": 1520.5,
              "duration": 0.4892578125
            },
            {
              "id": 698,
              "pitch": 72,
              "velocity": 110,
              "start": 1521.0,
              "duration": 0.4892578125
            },
            {
              "id": 697,
              "pitch": 76,
              "velocity": 110,
              "start": 1521.0,
              "duration": 0.4892578125
            },
            {
              "id": 696,
              "pitch": 38,
              "velocity": 110,
              "start": 1521.0,
              "duration": 0.4892578125
            },
            {
              "id": 695,
              "pitch": 74,
              "velocity": 110,
              "start": 1521.5,
              "duration": 0.4892578125
            },
            {
              "id": 694,
              "pitch": 77,
              "velocity": 110,
              "start": 1521.5,
              "duration": 0.4892578125
            },
            {
              "id": 693,
              "pitch": 38,
              "velocity": 110,
              "start": 1521.5,
              "duration": 0.4892578125
            },
            {
              "id": 692,
              "pitch": 71,
              "velocity": 110,
              "start": 1522.0,
              "duration": 1.75
            },
            {
              "id": 691,
              "pitch": 74,
              "velocity": 110,
              "start": 1522.0,
              "duration": 1.75
            },
            {
              "id": 690,
              "pitch": 43,
              "velocity": 110,
              "start": 1522.0,
              "duration": 0.4892578125
            },
            {
              "id": 689,
              "pitch": 43,
              "velocity": 110,
              "start": 1522.5,
              "duration": 0.4892578125
            },
            {
              "id": 688,
              "pitch": 43,
              "velocity": 110,
              "start": 1523.0,
              "duration": 0.4892578125
            },
            {
              "id": 687,
              "pitch": 43,
              "velocity": 110,
              "start": 1523.5,
              "duration": 0.4892578125
            },
            {
              "id": 686,
              "pitch": 72,
              "velocity": 110,
              "start": 1524.0,
              "duration": 0.4892578125
            },
            {
              "id": 685,
              "pitch": 76,
              "velocity": 110,
              "start": 1524.0,
              "duration": 0.4892578125
            },
            {
              "id": 684,
              "pitch": 48,
              "velocity": 110,
              "start": 1524.0,
              "duration": 0.4892578125
            },
            {
              "id": 683,
              "pitch": 71,
              "velocity": 110,
              "start": 1524.5,
              "duration": 0.4892578125
            },
            {
              "id": 682,
              "pitch": 74,
              "velocity": 110,
              "start": 1524.5,
              "duration": 0.4892578125
            },
            {
              "id": 681,
              "pitch": 48,
              "velocity": 110,
              "start": 1524.5,
              "duration": 0.4892578125
            },
            {
              "id": 680,
              "pitch": 72,
              "velocity": 110,
              "start": 1525.0,
              "duration": 0.4892578125
            },
            {
              "id": 679,
              "pitch": 76,
              "velocity": 110,
              "start": 1525.0,
              "duration": 0.4892578125
            },
            {
              "id": 678,
              "pitch": 48,
              "velocity": 110,
              "start": 1525.0,
              "duration": 0.4892578125
            },
            {
              "id": 677,
              "pitch": 74,
              "velocity": 110,
              "start": 1525.5,
              "duration": 0.4892578125
            },
            {
              "id": 676,
              "pitch": 77,
              "velocity": 110,
              "start": 1525.5,
              "duration": 0.4892578125
            },
            {
              "id": 675,
              "pitch": 48,
              "velocity": 110,
              "start": 1525.5,
              "duration": 0.4892578125
            },
            {
              "id": 674,
              "pitch": 76,
              "velocity": 110,
              "start": 1526.0,
              "duration": 0.8330078125
            },
            {
              "id": 673,
              "pitch": 79,
              "velocity": 110,
              "start": 1526.0,
              "duration": 0.8330078125
            },
            {
              "id": 672,
              "pitch": 47,
              "velocity": 110,
              "start": 1526.0,
              "duration": 0.4892578125
            },
            {
              "id": 671,
              "pitch": 47,
              "velocity": 110,
              "start": 1526.5,
              "duration": 0.4892578125
            },
            {
              "id": 670,
              "pitch": 72,
              "velocity": 110,
              "start": 1527.0,
              "duration": 0.4892578125
            },
            {
              "id": 669,
              "pitch": 76,
              "velocity": 110,
              "start": 1527.0,
              "duration": 0.4892578125
            },
            {
              "id": 668,
              "pitch": 47,
              "velocity": 110,
              "start": 1527.0,
              "duration": 0.4892578125
            },
            {
              "id": 667,
              "pitch": 71,
              "velocity": 110,
              "start": 1527.5,
              "duration": 0.4892578125
            },
            {
              "id": 666,
              "pitch": 74,
              "velocity": 110,
              "start": 1527.5,
              "duration": 0.4892578125
            },
            {
              "id": 665,
              "pitch": 47,
              "velocity": 110,
              "start": 1527.5,
              "duration": 0.4892578125
            },
            {
              "id": 664,
              "pitch": 71,
              "velocity": 110,
              "start": 1528.0,
              "duration": 1.3330078125
            },
            {
              "id": 663,
              "pitch": 74,
              "velocity": 110,
              "start": 1528.0,
              "duration": 1.3330078125
            },
            {
              "id": 662,
              "pitch": 45,
              "velocity": 110,
              "start": 1528.0,
              "duration": 0.4892578125
            },
            {
              "id": 661,
              "pitch": 45,
              "velocity": 110,
              "start": 1528.5,
              "duration": 0.4892578125
            },
            {
              "id": 660,
              "pitch": 45,
              "velocity": 110,
              "start": 1529.0,
              "duration": 0.4892578125
            },
            {
              "id": 659,
              "pitch": 67,
              "velocity": 110,
              "start": 1529.5,
              "duration": 0.4892578125
            },
            {
              "id": 658,
              "pitch": 72,
              "velocity": 110,
              "start": 1529.5,
              "duration": 0.4892578125
            },
            {
              "id": 657,
              "pitch": 45,
              "velocity": 110,
              "start": 1529.5,
              "duration": 0.4892578125
            },
            {
              "id": 656,
              "pitch": 67,
              "velocity": 110,
              "start": 1530.0,
              "duration": 0.8330078125
            },
            {
              "id": 655,
              "pitch": 72,
              "velocity": 110,
              "start": 1530.0,
              "duration": 0.8330078125
            },
            {
              "id": 654,
              "pitch": 43,
              "velocity": 110,
              "start": 1530.0,
              "duration": 0.4892578125
            },
            {
              "id": 653,
              "pitch": 43,
              "velocity": 110,
              "start": 1530.5,
              "duration": 0.4892578125
            },
            {
              "id": 652,
              "pitch": 72,
              "velocity": 110,
              "start": 1531.0,
              "duration": 0.4892578125
            },
            {
              "id": 651,
              "pitch": 76,
              "velocity": 110,
              "start": 1531.0,
              "duration": 0.4892578125
            },
            {
              "id": 650,
              "pitch": 43,
              "velocity": 110,
              "start": 1531.0,
              "duration": 0.4892578125
            },
            {
              "id": 649,
              "pitch": 76,
              "velocity": 110,
              "start": 1531.5,
              "duration": 0.4892578125
            },
            {
              "id": 648,
              "pitch": 79,
              "velocity": 110,
              "start": 1531.5,
              "duration": 0.4892578125
            },
            {
              "id": 647,
              "pitch": 43,
              "velocity": 110,
              "start": 1531.5,
              "duration": 0.4892578125
            },
            {
              "id": 646,
              "pitch": 77,
              "velocity": 110,
              "start": 1532.0,
              "duration": 0.4892578125
            },
            {
              "id": 645,
              "pitch": 81,
              "velocity": 110,
              "start": 1532.0,
              "duration": 0.4892578125
            },
            {
              "id": 644,
              "pitch": 41,
              "velocity": 110,
              "start": 1532.0,
              "duration": 0.4892578125
            },
            {
              "id": 643,
              "pitch": 76,
              "velocity": 110,
              "start": 1532.5,
              "duration": 0.4892578125
            },
            {
              "id": 642,
              "pitch": 79,
              "velocity": 110,
              "start": 1532.5,
              "duration": 0.4892578125
            },
            {
              "id": 641,
              "pitch": 41,
              "velocity": 110,
              "start": 1532.5,
              "duration": 0.4892578125
            },
            {
              "id": 640,
              "pitch": 77,
              "velocity": 110,
              "start": 1533.0,
              "duration": 0.4892578125
            },
            {
              "id": 639,
              "pitch": 81,
              "velocity": 110,
              "start": 1533.0,
              "duration": 0.4892578125
            },
            {
              "id": 638,
              "pitch": 41,
              "velocity": 110,
              "start": 1533.0,
              "duration": 0.4892578125
            },
            {
              "id": 637,
              "pitch": 77,
              "velocity": 110,
              "start": 1533.5,
              "duration": 0.4892578125
            },
            {
              "id": 636,
              "pitch": 83,
              "velocity": 110,
              "start": 1533.5,
              "duration": 0.4892578125
            },
            {
              "id": 635,
              "pitch": 41,
              "velocity": 110,
              "start": 1533.5,
              "duration": 0.4892578125
            },
            {
              "id": 634,
              "pitch": 76,
              "velocity": 110,
              "start": 1534.0,
              "duration": 0.8330078125
            },
            {
              "id": 633,
              "pitch": 84,
              "velocity": 110,
              "start": 1534.0,
              "duration": 0.8330078125
            },
            {
              "id": 632,
              "pitch": 40,
              "velocity": 110,
              "start": 1534.0,
              "duration": 0.4892578125
            },
            {
              "id": 631,
              "pitch": 40,
              "velocity": 110,
              "start": 1534.5,
              "duration": 0.4892578125
            },
            {
              "id": 630,
              "pitch": 76,
              "velocity": 110,
              "start": 1535.0,
              "duration": 0.4892578125
            },
            {
              "id": 629,
              "pitch": 79,
              "velocity": 110,
              "start": 1535.0,
              "duration": 0.4892578125
            },
            {
              "id": 628,
              "pitch": 40,
              "velocity": 110,
              "start": 1535.0,
              "duration": 0.4892578125
            },
            {
              "id": 627,
              "pitch": 74,
              "velocity": 110,
              "start": 1535.5,
              "duration": 0.4892578125
            },
            {
              "id": 626,
              "pitch": 77,
              "velocity": 110,
              "start": 1535.5,
              "duration": 0.4892578125
            },
            {
              "id": 625,
              "pitch": 40,
              "velocity": 110,
              "start": 1535.5,
              "duration": 0.4892578125
            },
            {
              "id": 624,
              "pitch": 72,
              "velocity": 110,
              "start": 1536.0,
              "duration": 0.4892578125
            },
            {
              "id": 623,
              "pitch": 77,
              "velocity": 110,
              "start": 1536.0,
              "duration": 0.4892578125
            },
            {
              "id": 622,
              "pitch": 38,
              "velocity": 110,
              "start": 1536.0,
              "duration": 0.4892578125
            },
            {
              "id": 621,
              "pitch": 72,
              "velocity": 110,
              "start": 1536.5,
              "duration": 0.4892578125
            },
            {
              "id": 620,
              "pitch": 76,
              "velocity": 110,
              "start": 1536.5,
              "duration": 0.4892578125
            },
            {
              "id": 619,
              "pitch": 38,
              "velocity": 110,
              "start": 1536.5,
              "duration": 0.4892578125
            },
            {
              "id": 618,
              "pitch": 71,
              "velocity": 110,
              "start": 1537.0,
              "duration": 0.4892578125
            },
            {
              "id": 617,
              "pitch": 74,
              "velocity": 110,
              "start": 1537.0,
              "duration": 0.4892578125
            },
            {
              "id": 616,
              "pitch": 38,
              "velocity": 110,
              "start": 1537.0,
              "duration": 0.4892578125
            },
            {
              "id": 615,
              "pitch": 67,
              "velocity": 110,
              "start": 1537.5,
              "duration": 0.4892578125
            },
            {
              "id": 614,
              "pitch": 72,
              "velocity": 110,
              "start": 1537.5,
              "duration": 0.4892578125
            },
            {
              "id": 613,
              "pitch": 38,
              "velocity": 110,
              "start": 1537.5,
              "duration": 0.4892578125
            },
            {
              "id": 612,
              "pitch": 74,
              "velocity": 110,
              "start": 1538.0,
              "duration": 0.8330078125
            },
            {
              "id": 611,
              "pitch": 79,
              "velocity": 110,
              "start": 1538.0,
              "duration": 0.8330078125
            },
            {
              "id": 610,
              "pitch": 43,
              "velocity": 110,
              "start": 1538.0,
              "duration": 0.4892578125
            },
            {
              "id": 609,
              "pitch": 43,
              "velocity": 110,
              "start": 1538.5,
              "duration": 0.4892578125
            },
            {
              "id": 608,
              "pitch": 62,
              "velocity": 110,
              "start": 1539.0,
              "duration": 0.8330078125
            },
            {
              "id": 607,
              "pitch": 67,
              "velocity": 110,
              "start": 1539.0,
              "duration": 0.8330078125
            },
            {
              "id": 606,
              "pitch": 43,
              "velocity": 110,
              "start": 1539.0,
              "duration": 0.4892578125
            },
            {
              "id": 605,
              "pitch": 43,
              "velocity": 110,
              "start": 1539.5,
              "duration": 0.4892578125
            },
            {
              "id": 604,
              "pitch": 76,
              "velocity": 110,
              "start": 1540.0,
              "duration": 1.3330078125
            },
            {
              "id": 603,
              "pitch": 36,
              "velocity": 110,
              "start": 1540.0,
              "duration": 0.4892578125
            },
            {
              "id": 602,
              "pitch": 36,
              "velocity": 110,
              "start": 1540.5,
              "duration": 0.4892578125
            },
            {
              "id": 601,
              "pitch": 36,
              "velocity": 110,
              "start": 1541.0,
              "duration": 0.4892578125
            },
            {
              "id": 600,
              "pitch": 76,
              "velocity": 110,
              "start": 1541.5,
              "duration": 0.4892578125
            },
            {
              "id": 599,
              "pitch": 36,
              "velocity": 110,
              "start": 1541.5,
              "duration": 0.4892578125
            },
            {
              "id": 598,
              "pitch": 77,
              "velocity": 110,
              "start": 1542.0,
              "duration": 0.4892578125
            },
            {
              "id": 597,
              "pitch": 38,
              "velocity": 110,
              "start": 1542.0,
              "duration": 0.4892578125
            },
            {
              "id": 596,
              "pitch": 76,
              "velocity": 110,
              "start": 1542.5,
              "duration": 0.4892578125
            },
            {
              "id": 595,
              "pitch": 38,
              "velocity": 110,
              "start": 1542.5,
              "duration": 0.4892578125
            },
            {
              "id": 594,
              "pitch": 77,
              "velocity": 110,
              "start": 1543.0,
              "duration": 0.4892578125
            },
            {
              "id": 593,
              "pitch": 38,
              "velocity": 110,
              "start": 1543.0,
              "duration": 0.4892578125
            },
            {
              "id": 592,
              "pitch": 79,
              "velocity": 110,
              "start": 1543.5,
              "duration": 0.4892578125
            },
            {
              "id": 591,
              "pitch": 38,
              "velocity": 110,
              "start": 1543.5,
              "duration": 0.4892578125
            },
            {
              "id": 590,
              "pitch": 76,
              "velocity": 110,
              "start": 1544.0,
              "duration": 1.75
            },
            {
              "id": 589,
              "pitch": 40,
              "velocity": 110,
              "start": 1544.0,
              "duration": 0.4892578125
            },
            {
              "id": 588,
              "pitch": 40,
              "velocity": 110,
              "start": 1544.5,
              "duration": 0.4892578125
            },
            {
              "id": 587,
              "pitch": 40,
              "velocity": 110,
              "start": 1545.0,
              "duration": 0.4892578125
            },
            {
              "id": 586,
              "pitch": 40,
              "velocity": 110,
              "start": 1545.5,
              "duration": 0.4892578125
            },
            {
              "id": 585,
              "pitch": 72,
              "velocity": 110,
              "start": 1546.0,
              "duration": 0.8330078125
            },
            {
              "id": 584,
              "pitch": 36,
              "velocity": 110,
              "start": 1546.0,
              "duration": 0.4892578125
            },
            {
              "id": 583,
              "pitch": 36,
              "velocity": 110,
              "start": 1546.5,
              "duration": 0.4892578125
            },
            {
              "id": 582,
              "pitch": 76,
              "velocity": 110,
              "start": 1547.0,
              "duration": 0.4892578125
            },
            {
              "id": 581,
              "pitch": 36,
              "velocity": 110,
              "start": 1547.0,
              "duration": 0.4892578125
            },
            {
              "id": 580,
              "pitch": 79,
              "velocity": 110,
              "start": 1547.5,
              "duration": 0.4892578125
            },
            {
              "id": 579,
              "pitch": 36,
              "velocity": 110,
              "start": 1547.5,
              "duration": 0.4892578125
            },
            {
              "id": 578,
              "pitch": 81,
              "velocity": 110,
              "start": 1548.0,
              "duration": 0.8330078125
            },
            {
              "id": 577,
              "pitch": 41,
              "velocity": 110,
              "start": 1548.0,
              "duration": 0.4892578125
            },
            {
              "id": 576,
              "pitch": 41,
              "velocity": 110,
              "start": 1548.5,
              "duration": 0.4892578125
            },
            {
              "id": 575,
              "pitch": 81,
              "velocity": 110,
              "start": 1549.0,
              "duration": 0.4892578125
            },
            {
              "id": 574,
              "pitch": 41,
              "velocity": 110,
              "start": 1549.0,
              "duration": 0.4892578125
            },
            {
              "id": 573,
              "pitch": 81,
              "velocity": 110,
              "start": 1549.5,
              "duration": 0.4892578125
            },
            {
              "id": 572,
              "pitch": 41,
              "velocity": 110,
              "start": 1549.5,
              "duration": 0.4892578125
            },
            {
              "id": 571,
              "pitch": 83,
              "velocity": 110,
              "start": 1550.0,
              "duration": 0.8330078125
            },
            {
              "id": 570,
              "pitch": 43,
              "velocity": 110,
              "start": 1550.0,
              "duration": 0.4892578125
            },
            {
              "id": 569,
              "pitch": 43,
              "velocity": 110,
              "start": 1550.5,
              "duration": 0.4892578125
            },
            {
              "id": 568,
              "pitch": 86,
              "velocity": 110,
              "start": 1551.0,
              "duration": 0.4892578125
            },
            {
              "id": 567,
              "pitch": 43,
              "velocity": 110,
              "start": 1551.0,
              "duration": 0.4892578125
            },
            {
              "id": 566,
              "pitch": 84,
              "velocity": 110,
              "start": 1551.5,
              "duration": 0.4892578125
            },
            {
              "id": 565,
              "pitch": 43,
              "velocity": 110,
              "start": 1551.5,
              "duration": 0.4892578125
            },
            {
              "id": 564,
              "pitch": 79,
              "velocity": 110,
              "start": 1552.0,
              "duration": 2.75
            },
            {
              "id": 563,
              "pitch": 36,
              "velocity": 110,
              "start": 1552.0,
              "duration": 0.4892578125
            },
            {
              "id": 562,
              "pitch": 36,
              "velocity": 110,
              "start": 1552.5,
              "duration": 0.4892578125
            },
            {
              "id": 561,
              "pitch": 36,
              "velocity": 110,
              "start": 1553.0,
              "duration": 0.4892578125
            },
            {
              "id": 560,
              "pitch": 36,
              "velocity": 110,
              "start": 1553.5,
              "duration": 0.4892578125
            },
            {
              "id": 559,
              "pitch": 36,
              "velocity": 110,
              "start": 1554.0,
              "duration": 0.4892578125
            },
            {
              "id": 558,
              "pitch": 36,
              "velocity": 110,
              "start": 1554.5,
              "duration": 0.4892578125
            },
            {
              "id": 557,
              "pitch": 38,
              "velocity": 110,
              "start": 1555.0,
              "duration": 0.2392578125
            },
            {
              "id": 556,
              "pitch": 40,
              "velocity": 110,
              "start": 1555.25,
              "duration": 0.7392578125
            },
            {
              "id": 555,
              "pitch": 81,
              "velocity": 110,
              "start": 1556.0,
              "duration": 1.3330078125
            },
            {
              "id": 554,
              "pitch": 41,
              "velocity": 110,
              "start": 1556.0,
              "duration": 0.4892578125
            },
            {
              "id": 553,
              "pitch": 41,
              "velocity": 110,
              "start": 1556.5,
              "duration": 0.4892578125
            },
            {
              "id": 552,
              "pitch": 41,
              "velocity": 110,
              "start": 1557.0,
              "duration": 0.4892578125
            },
            {
              "id": 551,
              "pitch": 81,
              "velocity": 110,
              "start": 1557.5,
              "duration": 0.4892578125
            },
            {
              "id": 550,
              "pitch": 41,
              "velocity": 110,
              "start": 1557.5,
              "duration": 0.4892578125
            },
            {
              "id": 549,
              "pitch": 83,
              "velocity": 110,
              "start": 1558.0,
              "duration": 0.8330078125
            },
            {
              "id": 548,
              "pitch": 43,
              "velocity": 110,
              "start": 1558.0,
              "duration": 0.4892578125
            },
            {
              "id": 547,
              "pitch": 43,
              "velocity": 110,
              "start": 1558.5,
              "duration": 0.4892578125
            },
            {
              "id": 546,
              "pitch": 86,
              "velocity": 110,
              "start": 1559.0,
              "duration": 0.4892578125
            },
            {
              "id": 545,
              "pitch": 43,
              "velocity": 110,
              "start": 1559.0,
              "duration": 0.4892578125
            },
            {
              "id": 544,
              "pitch": 84,
              "velocity": 110,
              "start": 1559.5,
              "duration": 0.4892578125
            },
            {
              "id": 543,
              "pitch": 43,
              "velocity": 110,
              "start": 1559.5,
              "duration": 0.4892578125
            },
            {
              "id": 542,
              "pitch": 79,
              "velocity": 110,
              "start": 1560.0,
              "duration": 1.75
            },
            {
              "id": 541,
              "pitch": 40,
              "velocity": 110,
              "start": 1560.0,
              "duration": 0.4892578125
            },
            {
              "id": 540,
              "pitch": 40,
              "velocity": 110,
              "start": 1560.5,
              "duration": 0.4892578125
            },
            {
              "id": 539,
              "pitch": 40,
              "velocity": 110,
              "start": 1561.0,
              "duration": 0.4892578125
            },
            {
              "id": 538,
              "pitch": 40,
              "velocity": 110,
              "start": 1561.5,
              "duration": 0.4892578125
            },
            {
              "id": 537,
              "pitch": 84,
              "velocity": 110,
              "start": 1562.0,
              "duration": 0.8330078125
            },
            {
              "id": 536,
              "pitch": 36,
              "velocity": 110,
              "start": 1562.0,
              "duration": 0.4892578125
            },
            {
              "id": 535,
              "pitch": 36,
              "velocity": 110,
              "start": 1562.5,
              "duration": 0.4892578125
            },
            {
              "id": 534,
              "pitch": 72,
              "velocity": 110,
              "start": 1563.0,
              "duration": 0.4892578125
            },
            {
              "id": 533,
              "pitch": 36,
              "velocity": 110,
              "start": 1563.0,
              "duration": 0.4892578125
            },
            {
              "id": 532,
              "pitch": 74,
              "velocity": 110,
              "start": 1563.5,
              "duration": 0.4892578125
            },
            {
              "id": 531,
              "pitch": 36,
              "velocity": 110,
              "start": 1563.5,
              "duration": 0.4892578125
            },
            {
              "id": 530,
              "pitch": 77,
              "velocity": 110,
              "start": 1564.0,
              "duration": 1.3330078125
            },
            {
              "id": 529,
              "pitch": 34,
              "velocity": 110,
              "start": 1564.0,
              "duration": 0.4892578125
            },
            {
              "id": 528,
              "pitch": 34,
              "velocity": 110,
              "start": 1564.5,
              "duration": 0.4892578125
            },
            {
              "id": 527,
              "pitch": 34,
              "velocity": 110,
              "start": 1565.0,
              "duration": 0.4892578125
            },
            {
              "id": 526,
              "pitch": 79,
              "velocity": 110,
              "start": 1565.5,
              "duration": 0.6142578125
            },
            {
              "id": 525,
              "pitch": 34,
              "velocity": 110,
              "start": 1565.5,
              "duration": 0.4892578125
            },
            {
              "id": 524,
              "pitch": 34,
              "velocity": 110,
              "start": 1566.0,
              "duration": 0.4892578125
            },
            {
              "id": 523,
              "pitch": 77,
              "velocity": 110,
              "start": 1566.125,
              "duration": 0.4892578125
            },
            {
              "id": 522,
              "pitch": 34,
              "velocity": 110,
              "start": 1566.5,
              "duration": 0.4892578125
            },
            {
              "id": 521,
              "pitch": 76,
              "velocity": 110,
              "start": 1566.625,
              "duration": 0.3642578125
            },
            {
              "id": 520,
              "pitch": 74,
              "velocity": 110,
              "start": 1567.0,
              "duration": 0.4892578125
            },
            {
              "id": 519,
              "pitch": 34,
              "velocity": 110,
              "start": 1567.0,
              "duration": 0.4892578125
            },
            {
              "id": 518,
              "pitch": 72,
              "velocity": 110,
              "start": 1567.5,
              "duration": 0.4892578125
            },
            {
              "id": 517,
              "pitch": 34,
              "velocity": 110,
              "start": 1567.5,
              "duration": 0.4892578125
            },
            {
              "id": 516,
              "pitch": 79,
              "velocity": 110,
              "start": 1568.0,
              "duration": 3.75
            },
            {
              "id": 515,
              "pitch": 38,
              "velocity": 110,
              "start": 1568.0,
              "duration": 0.4892578125
            },
            {
              "id": 514,
              "pitch": 38,
              "velocity": 110,
              "start": 1568.5,
              "duration": 0.4892578125
            },
            {
              "id": 513,
              "pitch": 38,
              "velocity": 110,
              "start": 1569.0,
              "duration": 0.4892578125
            },
            {
              "id": 512,
              "pitch": 38,
              "velocity": 110,
              "start": 1569.5,
              "duration": 0.4892578125
            },
            {
              "id": 511,
              "pitch": 43,
              "velocity": 110,
              "start": 1570.0,
              "duration": 0.4892578125
            },
            {
              "id": 510,
              "pitch": 43,
              "velocity": 110,
              "start": 1570.5,
              "duration": 0.4892578125
            },
            {
              "id": 509,
              "pitch": 43,
              "velocity": 110,
              "start": 1571.0,
              "duration": 0.4892578125
            },
            {
              "id": 508,
              "pitch": 43,
              "velocity": 110,
              "start": 1571.5,
              "duration": 0.4892578125
            },
            {
              "id": 507,
              "pitch": 64,
              "velocity": 110,
              "start": 1572.0,
              "duration": 1.3330078125
            },
            {
              "id": 506,
              "pitch": 36,
              "velocity": 110,
              "start": 1572.0,
              "duration": 0.4892578125
            },
            {
              "id": 505,
              "pitch": 36,
              "velocity": 110,
              "start": 1572.5,
              "duration": 0.4892578125
            },
            {
              "id": 504,
              "pitch": 36,
              "velocity": 110,
              "start": 1573.0,
              "duration": 0.4892578125
            },
            {
              "id": 503,
              "pitch": 64,
              "velocity": 110,
              "start": 1573.5,
              "duration": 0.4892578125
            },
            {
              "id": 502,
              "pitch": 36,
              "velocity": 110,
              "start": 1573.5,
              "duration": 0.4892578125
            },
            {
              "id": 501,
              "pitch": 65,
              "velocity": 110,
              "start": 1574.0,
              "duration": 0.4892578125
            },
            {
              "id": 500,
              "pitch": 38,
              "velocity": 110,
              "start": 1574.0,
              "duration": 0.4892578125
            },
            {
              "id": 499,
              "pitch": 64,
              "velocity": 110,
              "start": 1574.5,
              "duration": 0.4892578125
            },
            {
              "id": 498,
              "pitch": 38,
              "velocity": 110,
              "start": 1574.5,
              "duration": 0.4892578125
            },
            {
              "id": 497,
              "pitch": 65,
              "velocity": 110,
              "start": 1575.0,
              "duration": 0.4892578125
            },
            {
              "id": 496,
              "pitch": 38,
              "velocity": 110,
              "start": 1575.0,
              "duration": 0.4892578125
            },
            {
              "id": 495,
              "pitch": 67,
              "velocity": 110,
              "start": 1575.5,
              "duration": 0.4892578125
            },
            {
              "id": 494,
              "pitch": 38,
              "velocity": 110,
              "start": 1575.5,
              "duration": 0.4892578125
            },
            {
              "id": 493,
              "pitch": 64,
              "velocity": 110,
              "start": 1576.0,
              "duration": 1.75
            },
            {
              "id": 492,
              "pitch": 40,
              "velocity": 110,
              "start": 1576.0,
              "duration": 0.4892578125
            },
            {
              "id": 491,
              "pitch": 40,
              "velocity": 110,
              "start": 1576.5,
              "duration": 0.4892578125
            },
            {
              "id": 490,
              "pitch": 40,
              "velocity": 110,
              "start": 1577.0,
              "duration": 0.4892578125
            },
            {
              "id": 489,
              "pitch": 40,
              "velocity": 110,
              "start": 1577.5,
              "duration": 0.4892578125
            },
            {
              "id": 488,
              "pitch": 60,
              "velocity": 110,
              "start": 1578.0,
              "duration": 0.8330078125
            },
            {
              "id": 487,
              "pitch": 36,
              "velocity": 110,
              "start": 1578.0,
              "duration": 0.4892578125
            },
            {
              "id": 486,
              "pitch": 36,
              "velocity": 110,
              "start": 1578.5,
              "duration": 0.4892578125
            },
            {
              "id": 485,
              "pitch": 64,
              "velocity": 110,
              "start": 1579.0,
              "duration": 0.4892578125
            },
            {
              "id": 484,
              "pitch": 36,
              "velocity": 110,
              "start": 1579.0,
              "duration": 0.4892578125
            },
            {
              "id": 483,
              "pitch": 67,
              "velocity": 110,
              "start": 1579.5,
              "duration": 0.4892578125
            },
            {
              "id": 482,
              "pitch": 36,
              "velocity": 110,
              "start": 1579.5,
              "duration": 0.4892578125
            },
            {
              "id": 481,
              "pitch": 69,
              "velocity": 110,
              "start": 1580.0,
              "duration": 0.8330078125
            },
            {
              "id": 480,
              "pitch": 41,
              "velocity": 110,
              "start": 1580.0,
              "duration": 0.4892578125
            },
            {
              "id": 479,
              "pitch": 41,
              "velocity": 110,
              "start": 1580.5,
              "duration": 0.4892578125
            },
            {
              "id": 478,
              "pitch": 69,
              "velocity": 110,
              "start": 1581.0,
              "duration": 0.4892578125
            },
            {
              "id": 477,
              "pitch": 41,
              "velocity": 110,
              "start": 1581.0,
              "duration": 0.4892578125
            },
            {
              "id": 476,
              "pitch": 69,
              "velocity": 110,
              "start": 1581.5,
              "duration": 0.4892578125
            },
            {
              "id": 475,
              "pitch": 41,
              "velocity": 110,
              "start": 1581.5,
              "duration": 0.4892578125
            },
            {
              "id": 474,
              "pitch": 71,
              "velocity": 110,
              "start": 1582.0,
              "duration": 0.8330078125
            },
            {
              "id": 473,
              "pitch": 43,
              "velocity": 110,
              "start": 1582.0,
              "duration": 0.4892578125
            },
            {
              "id": 472,
              "pitch": 43,
              "velocity": 110,
              "start": 1582.5,
              "duration": 0.4892578125
            },
            {
              "id": 471,
              "pitch": 74,
              "velocity": 110,
              "start": 1583.0,
              "duration": 0.4892578125
            },
            {
              "id": 470,
              "pitch": 43,
              "velocity": 110,
              "start": 1583.0,
              "duration": 0.4892578125
            },
            {
              "id": 469,
              "pitch": 72,
              "velocity": 110,
              "start": 1583.5,
              "duration": 0.4892578125
            },
            {
              "id": 468,
              "pitch": 43,
              "velocity": 110,
              "start": 1583.5,
              "duration": 0.4892578125
            },
            {
              "id": 467,
              "pitch": 67,
              "velocity": 110,
              "start": 1584.0,
              "duration": 2.75
            },
            {
              "id": 466,
              "pitch": 36,
              "velocity": 110,
              "start": 1584.0,
              "duration": 0.4892578125
            },
            {
              "id": 465,
              "pitch": 36,
              "velocity": 110,
              "start": 1584.5,
              "duration": 0.4892578125
            },
            {
              "id": 464,
              "pitch": 36,
              "velocity": 110,
              "start": 1585.0,
              "duration": 0.4892578125
            },
            {
              "id": 463,
              "pitch": 36,
              "velocity": 110,
              "start": 1585.5,
              "duration": 0.4892578125
            },
            {
              "id": 462,
              "pitch": 36,
              "velocity": 110,
              "start": 1586.0,
              "duration": 0.4892578125
            },
            {
              "id": 461,
              "pitch": 36,
              "velocity": 110,
              "start": 1586.5,
              "duration": 0.4892578125
            },
            {
              "id": 460,
              "pitch": 38,
              "velocity": 110,
              "start": 1587.0,
              "duration": 0.2392578125
            },
            {
              "id": 459,
              "pitch": 40,
              "velocity": 110,
              "start": 1587.25,
              "duration": 0.7392578125
            },
            {
              "id": 458,
              "pitch": 69,
              "velocity": 110,
              "start": 1588.0,
              "duration": 1.3330078125
            },
            {
              "id": 457,
              "pitch": 41,
              "velocity": 110,
              "start": 1588.0,
              "duration": 0.4892578125
            },
            {
              "id": 456,
              "pitch": 41,
              "velocity": 110,
              "start": 1588.5,
              "duration": 0.4892578125
            },
            {
              "id": 455,
              "pitch": 41,
              "velocity": 110,
              "start": 1589.0,
              "duration": 0.4892578125
            },
            {
              "id": 454,
              "pitch": 69,
              "velocity": 110,
              "start": 1589.5,
              "duration": 0.4892578125
            },
            {
              "id": 453,
              "pitch": 41,
              "velocity": 110,
              "start": 1589.5,
              "duration": 0.4892578125
            },
            {
              "id": 452,
              "pitch": 71,
              "velocity": 110,
              "start": 1590.0,
              "duration": 0.8330078125
            },
            {
              "id": 451,
              "pitch": 43,
              "velocity": 110,
              "start": 1590.0,
              "duration": 0.4892578125
            },
            {
              "id": 450,
              "pitch": 43,
              "velocity": 110,
              "start": 1590.5,
              "duration": 0.4892578125
            },
            {
              "id": 449,
              "pitch": 74,
              "velocity": 110,
              "start": 1591.0,
              "duration": 0.4892578125
            },
            {
              "id": 448,
              "pitch": 43,
              "velocity": 110,
              "start": 1591.0,
              "duration": 0.4892578125
            },
            {
              "id": 447,
              "pitch": 72,
              "velocity": 110,
              "start": 1591.5,
              "duration": 0.4892578125
            },
            {
              "id": 446,
              "pitch": 43,
              "velocity": 110,
              "start": 1591.5,
              "duration": 0.4892578125
            },
            {
              "id": 445,
              "pitch": 67,
              "velocity": 110,
              "start": 1592.0,
              "duration": 1.75
            },
            {
              "id": 444,
              "pitch": 40,
              "velocity": 110,
              "start": 1592.0,
              "duration": 0.4892578125
            },
            {
              "id": 443,
              "pitch": 40,
              "velocity": 110,
              "start": 1592.5,
              "duration": 0.4892578125
            },
            {
              "id": 442,
              "pitch": 40,
              "velocity": 110,
              "start": 1593.0,
              "duration": 0.4892578125
            },
            {
              "id": 441,
              "pitch": 40,
              "velocity": 110,
              "start": 1593.5,
              "duration": 0.4892578125
            },
            {
              "id": 440,
              "pitch": 72,
              "velocity": 110,
              "start": 1594.0,
              "duration": 0.8330078125
            },
            {
              "id": 439,
              "pitch": 36,
              "velocity": 110,
              "start": 1594.0,
              "duration": 0.4892578125
            },
            {
              "id": 438,
              "pitch": 36,
              "velocity": 110,
              "start": 1594.5,
              "duration": 0.4892578125
            },
            {
              "id": 437,
              "pitch": 72,
              "velocity": 110,
              "start": 1595.0,
              "duration": 0.4892578125
            },
            {
              "id": 436,
              "pitch": 36,
              "velocity": 110,
              "start": 1595.0,
              "duration": 0.4892578125
            },
            {
              "id": 435,
              "pitch": 74,
              "velocity": 110,
              "start": 1595.5,
              "duration": 0.4892578125
            },
            {
              "id": 434,
              "pitch": 36,
              "velocity": 110,
              "start": 1595.5,
              "duration": 0.4892578125
            },
            {
              "id": 433,
              "pitch": 77,
              "velocity": 110,
              "start": 1596.0,
              "duration": 0.8330078125
            },
            {
              "id": 432,
              "pitch": 38,
              "velocity": 110,
              "start": 1596.0,
              "duration": 0.4892578125
            },
            {
              "id": 431,
              "pitch": 38,
              "velocity": 110,
              "start": 1596.5,
              "duration": 0.4892578125
            },
            {
              "id": 430,
              "pitch": 76,
              "velocity": 110,
              "start": 1597.0,
              "duration": 0.8330078125
            },
            {
              "id": 429,
              "pitch": 38,
              "velocity": 110,
              "start": 1597.0,
              "duration": 0.4892578125
            },
            {
              "id": 428,
              "pitch": 38,
              "velocity": 110,
              "start": 1597.5,
              "duration": 0.4892578125
            },
            {
              "id": 427,
              "pitch": 71,
              "velocity": 110,
              "start": 1598.0,
              "duration": 0.8330078125
            },
            {
              "id": 426,
              "pitch": 43,
              "velocity": 110,
              "start": 1598.0,
              "duration": 0.4892578125
            },
            {
              "id": 425,
              "pitch": 43,
              "velocity": 110,
              "start": 1598.5,
              "duration": 0.4892578125
            },
            {
              "id": 424,
              "pitch": 43,
              "velocity": 110,
              "start": 1599.0,
              "duration": 0.4892578125
            },
            {
              "id": 423,
              "pitch": 72,
              "velocity": 110,
              "start": 1599.5,
              "duration": 0.4892578125
            },
            {
              "id": 422,
              "pitch": 43,
              "velocity": 110,
              "start": 1599.5,
              "duration": 0.4892578125
            },
            {
              "id": 421,
              "pitch": 72,
              "velocity": 110,
              "start": 1600.0,
              "duration": 1.75
            },
            {
              "id": 420,
              "pitch": 36,
              "velocity": 110,
              "start": 1600.0,
              "duration": 0.4892578125
            },
            {
              "id": 419,
              "pitch": 36,
              "velocity": 110,
              "start": 1600.5,
              "duration": 0.4892578125
            },
            {
              "id": 418,
              "pitch": 36,
              "velocity": 110,
              "start": 1601.0,
              "duration": 0.4892578125
            },
            {
              "id": 417,
              "pitch": 36,
              "velocity": 110,
              "start": 1601.5,
              "duration": 0.4892578125
            },
            {
              "id": 416,
              "pitch": 36,
              "velocity": 110,
              "start": 1602.0,
              "duration": 0.4892578125
            },
            {
              "id": 415,
              "pitch": 36,
              "velocity": 110,
              "start": 1602.5,
              "duration": 0.4892578125
            },
            {
              "id": 414,
              "pitch": 36,
              "velocity": 110,
              "start": 1603.0,
              "duration": 0.4892578125
            },
            {
              "id": 413,
              "pitch": 36,
              "velocity": 110,
              "start": 1603.5,
              "duration": 0.4892578125
            },
            {
              "id": 412,
              "pitch": 72,
              "velocity": 110,
              "start": 1604.0,
              "duration": 0.8330078125
            },
            {
              "id": 411,
              "pitch": 45,
              "velocity": 110,
              "start": 1604.0,
              "duration": 1.3330078125
            },
            {
              "id": 410,
              "pitch": 74,
              "velocity": 110,
              "start": 1605.5,
              "duration": 0.4892578125
            },
            {
              "id": 409,
              "pitch": 45,
              "velocity": 110,
              "start": 1605.5,
              "duration": 2.25
            },
            {
              "id": 408,
              "pitch": 76,
              "velocity": 110,
              "start": 1607.0,
              "duration": 0.8330078125
            },
            {
              "id": 407,
              "pitch": 71,
              "velocity": 110,
              "start": 1608.0,
              "duration": 0.8330078125
            },
            {
              "id": 406,
              "pitch": 43,
              "velocity": 110,
              "start": 1608.0,
              "duration": 1.3330078125
            },
            {
              "id": 405,
              "pitch": 67,
              "velocity": 110,
              "start": 1609.5,
              "duration": 0.4892578125
            },
            {
              "id": 404,
              "pitch": 43,
              "velocity": 110,
              "start": 1609.5,
              "duration": 2.25
            },
            {
              "id": 403,
              "pitch": 64,
              "velocity": 110,
              "start": 1611.0,
              "duration": 0.8330078125
            },
            {
              "id": 402,
              "pitch": 69,
              "velocity": 110,
              "start": 1612.0,
              "duration": 0.8330078125
            },
            {
              "id": 401,
              "pitch": 41,
              "velocity": 110,
              "start": 1612.0,
              "duration": 1.3330078125
            },
            {
              "id": 400,
              "pitch": 71,
              "velocity": 110,
              "start": 1613.5,
              "duration": 0.4892578125
            },
            {
              "id": 399,
              "pitch": 41,
              "velocity": 110,
              "start": 1613.5,
              "duration": 2.25
            },
            {
              "id": 398,
              "pitch": 72,
              "velocity": 110,
              "start": 1615.0,
              "duration": 0.8330078125
            },
            {
              "id": 397,
              "pitch": 67,
              "velocity": 110,
              "start": 1616.0,
              "duration": 0.8330078125
            },
            {
              "id": 396,
              "pitch": 40,
              "velocity": 110,
              "start": 1616.0,
              "duration": 1.3330078125
            },
            {
              "id": 395,
              "pitch": 40,
              "velocity": 110,
              "start": 1617.5,
              "duration": 2.25
            },
            {
              "id": 394,
              "pitch": 65,
              "velocity": 110,
              "start": 1620.0,
              "duration": 0.8330078125
            },
            {
              "id": 393,
              "pitch": 38,
              "velocity": 110,
              "start": 1620.0,
              "duration": 2.75
            },
            {
              "id": 392,
              "pitch": 67,
              "velocity": 110,
              "start": 1621.5,
              "duration": 0.4892578125
            },
            {
              "id": 391,
              "pitch": 69,
              "velocity": 110,
              "start": 1623.0,
              "duration": 0.8330078125
            },
            {
              "id": 390,
              "pitch": 38,
              "velocity": 110,
              "start": 1623.0,
              "duration": 0.8330078125
            },
            {
              "id": 389,
              "pitch": 67,
              "velocity": 110,
              "start": 1624.0,
              "duration": 0.8330078125
            },
            {
              "id": 388,
              "pitch": 40,
              "velocity": 110,
              "start": 1624.0,
              "duration": 2.75
            },
            {
              "id": 387,
              "pitch": 71,
              "velocity": 110,
              "start": 1625.5,
              "duration": 0.4892578125
            },
            {
              "id": 386,
              "pitch": 72,
              "velocity": 110,
              "start": 1627.0,
              "duration": 0.8330078125
            },
            {
              "id": 385,
              "pitch": 40,
              "velocity": 110,
              "start": 1627.0,
              "duration": 0.8330078125
            },
            {
              "id": 384,
              "pitch": 69,
              "velocity": 110,
              "start": 1628.0,
              "duration": 0.8330078125
            },
            {
              "id": 383,
              "pitch": 41,
              "velocity": 110,
              "start": 1628.0,
              "duration": 2.75
            },
            {
              "id": 382,
              "pitch": 72,
              "velocity": 110,
              "start": 1631.0,
              "duration": 0.8330078125
            },
            {
              "id": 381,
              "pitch": 41,
              "velocity": 110,
              "start": 1631.0,
              "duration": 0.8330078125
            },
            {
              "id": 380,
              "pitch": 74,
              "velocity": 110,
              "start": 1632.0,
              "duration": 0.8330078125
            },
            {
              "id": 379,
              "pitch": 43,
              "velocity": 110,
              "start": 1632.0,
              "duration": 3.75
            },
            {
              "id": 378,
              "pitch": 72,
              "velocity": 110,
              "start": 1636.0,
              "duration": 0.4892578125
            },
            {
              "id": 377,
              "pitch": 76,
              "velocity": 110,
              "start": 1636.0,
              "duration": 0.4892578125
            },
            {
              "id": 376,
              "pitch": 48,
              "velocity": 110,
              "start": 1636.0,
              "duration": 0.4892578125
            },
            {
              "id": 375,
              "pitch": 71,
              "velocity": 110,
              "start": 1636.5,
              "duration": 0.4892578125
            },
            {
              "id": 374,
              "pitch": 74,
              "velocity": 110,
              "start": 1636.5,
              "duration": 0.4892578125
            },
            {
              "id": 373,
              "pitch": 48,
              "velocity": 110,
              "start": 1636.5,
              "duration": 0.4892578125
            },
            {
              "id": 372,
              "pitch": 72,
              "velocity": 110,
              "start": 1637.0,
              "duration": 0.4892578125
            },
            {
              "id": 371,
              "pitch": 76,
              "velocity": 110,
              "start": 1637.0,
              "duration": 0.4892578125
            },
            {
              "id": 370,
              "pitch": 48,
              "velocity": 110,
              "start": 1637.0,
              "duration": 0.4892578125
            },
            {
              "id": 369,
              "pitch": 74,
              "velocity": 110,
              "start": 1637.5,
              "duration": 0.4892578125
            },
            {
              "id": 368,
              "pitch": 77,
              "velocity": 110,
              "start": 1637.5,
              "duration": 0.4892578125
            },
            {
              "id": 367,
              "pitch": 48,
              "velocity": 110,
              "start": 1637.5,
              "duration": 0.4892578125
            },
            {
              "id": 366,
              "pitch": 76,
              "velocity": 110,
              "start": 1638.0,
              "duration": 0.8330078125
            },
            {
              "id": 365,
              "pitch": 79,
              "velocity": 110,
              "start": 1638.0,
              "duration": 0.8330078125
            },
            {
              "id": 364,
              "pitch": 47,
              "velocity": 110,
              "start": 1638.0,
              "duration": 0.4892578125
            },
            {
              "id": 363,
              "pitch": 47,
              "velocity": 110,
              "start": 1638.5,
              "duration": 0.4892578125
            },
            {
              "id": 362,
              "pitch": 72,
              "velocity": 110,
              "start": 1639.0,
              "duration": 0.4892578125
            },
            {
              "id": 361,
              "pitch": 76,
              "velocity": 110,
              "start": 1639.0,
              "duration": 0.4892578125
            },
            {
              "id": 360,
              "pitch": 47,
              "velocity": 110,
              "start": 1639.0,
              "duration": 0.4892578125
            },
            {
              "id": 359,
              "pitch": 71,
              "velocity": 110,
              "start": 1639.5,
              "duration": 0.4892578125
            },
            {
              "id": 358,
              "pitch": 74,
              "velocity": 110,
              "start": 1639.5,
              "duration": 0.4892578125
            },
            {
              "id": 357,
              "pitch": 47,
              "velocity": 110,
              "start": 1639.5,
              "duration": 0.4892578125
            },
            {
              "id": 356,
              "pitch": 71,
              "velocity": 110,
              "start": 1640.0,
              "duration": 1.3330078125
            },
            {
              "id": 355,
              "pitch": 74,
              "velocity": 110,
              "start": 1640.0,
              "duration": 1.3330078125
            },
            {
              "id": 354,
              "pitch": 45,
              "velocity": 110,
              "start": 1640.0,
              "duration": 0.4892578125
            },
            {
              "id": 353,
              "pitch": 45,
              "velocity": 110,
              "start": 1640.5,
              "duration": 0.4892578125
            },
            {
              "id": 352,
              "pitch": 45,
              "velocity": 110,
              "start": 1641.0,
              "duration": 0.4892578125
            },
            {
              "id": 351,
              "pitch": 67,
              "velocity": 110,
              "start": 1641.5,
              "duration": 0.4892578125
            },
            {
              "id": 350,
              "pitch": 72,
              "velocity": 110,
              "start": 1641.5,
              "duration": 0.4892578125
            },
            {
              "id": 349,
              "pitch": 45,
              "velocity": 110,
              "start": 1641.5,
              "duration": 0.4892578125
            },
            {
              "id": 348,
              "pitch": 67,
              "velocity": 110,
              "start": 1642.0,
              "duration": 0.8330078125
            },
            {
              "id": 347,
              "pitch": 72,
              "velocity": 110,
              "start": 1642.0,
              "duration": 0.8330078125
            },
            {
              "id": 346,
              "pitch": 43,
              "velocity": 110,
              "start": 1642.0,
              "duration": 0.4892578125
            },
            {
              "id": 345,
              "pitch": 43,
              "velocity": 110,
              "start": 1642.5,
              "duration": 0.4892578125
            },
            {
              "id": 344,
              "pitch": 72,
              "velocity": 110,
              "start": 1643.0,
              "duration": 0.4892578125
            },
            {
              "id": 343,
              "pitch": 76,
              "velocity": 110,
              "start": 1643.0,
              "duration": 0.4892578125
            },
            {
              "id": 342,
              "pitch": 43,
              "velocity": 110,
              "start": 1643.0,
              "duration": 0.4892578125
            },
            {
              "id": 341,
              "pitch": 76,
              "velocity": 110,
              "start": 1643.5,
              "duration": 0.4892578125
            },
            {
              "id": 340,
              "pitch": 79,
              "velocity": 110,
              "start": 1643.5,
              "duration": 0.4892578125
            },
            {
              "id": 339,
              "pitch": 43,
              "velocity": 110,
              "start": 1643.5,
              "duration": 0.4892578125
            },
            {
              "id": 338,
              "pitch": 77,
              "velocity": 110,
              "start": 1644.0,
              "duration": 0.4892578125
            },
            {
              "id": 337,
              "pitch": 81,
              "velocity": 110,
              "start": 1644.0,
              "duration": 0.4892578125
            },
            {
              "id": 336,
              "pitch": 41,
              "velocity": 110,
              "start": 1644.0,
              "duration": 0.4892578125
            },
            {
              "id": 335,
              "pitch": 76,
              "velocity": 110,
              "start": 1644.5,
              "duration": 0.4892578125
            },
            {
              "id": 334,
              "pitch": 79,
              "velocity": 110,
              "start": 1644.5,
              "duration": 0.4892578125
            },
            {
              "id": 333,
              "pitch": 41,
              "velocity": 110,
              "start": 1644.5,
              "duration": 0.4892578125
            },
            {
              "id": 332,
              "pitch": 77,
              "velocity": 110,
              "start": 1645.0,
              "duration": 0.4892578125
            },
            {
              "id": 331,
              "pitch": 81,
              "velocity": 110,
              "start": 1645.0,
              "duration": 0.4892578125
            },
            {
              "id": 330,
              "pitch": 41,
              "velocity": 110,
              "start": 1645.0,
              "duration": 0.4892578125
            },
            {
              "id": 329,
              "pitch": 77,
              "velocity": 110,
              "start": 1645.5,
              "duration": 0.4892578125
            },
            {
              "id": 328,
              "pitch": 83,
              "velocity": 110,
              "start": 1645.5,
              "duration": 0.4892578125
            },
            {
              "id": 327,
              "pitch": 41,
              "velocity": 110,
              "start": 1645.5,
              "duration": 0.4892578125
            },
            {
              "id": 326,
              "pitch": 76,
              "velocity": 110,
              "start": 1646.0,
              "duration": 0.8330078125
            },
            {
              "id": 325,
              "pitch": 84,
              "velocity": 110,
              "start": 1646.0,
              "duration": 0.8330078125
            },
            {
              "id": 324,
              "pitch": 40,
              "velocity": 110,
              "start": 1646.0,
              "duration": 0.4892578125
            },
            {
              "id": 323,
              "pitch": 40,
              "velocity": 110,
              "start": 1646.5,
              "duration": 0.4892578125
            },
            {
              "id": 322,
              "pitch": 76,
              "velocity": 110,
              "start": 1647.0,
              "duration": 0.4892578125
            },
            {
              "id": 321,
              "pitch": 79,
              "velocity": 110,
              "start": 1647.0,
              "duration": 0.4892578125
            },
            {
              "id": 320,
              "pitch": 40,
              "velocity": 110,
              "start": 1647.0,
              "duration": 0.4892578125
            },
            {
              "id": 319,
              "pitch": 74,
              "velocity": 110,
              "start": 1647.5,
              "duration": 0.4892578125
            },
            {
              "id": 318,
              "pitch": 77,
              "velocity": 110,
              "start": 1647.5,
              "duration": 0.4892578125
            },
            {
              "id": 317,
              "pitch": 40,
              "velocity": 110,
              "start": 1647.5,
              "duration": 0.4892578125
            },
            {
              "id": 316,
              "pitch": 72,
              "velocity": 110,
              "start": 1648.0,
              "duration": 0.8330078125
            },
            {
              "id": 315,
              "pitch": 76,
              "velocity": 110,
              "start": 1648.0,
              "duration": 0.8330078125
            },
            {
              "id": 314,
              "pitch": 38,
              "velocity": 110,
              "start": 1648.0,
              "duration": 0.4892578125
            },
            {
              "id": 313,
              "pitch": 38,
              "velocity": 110,
              "start": 1648.5,
              "duration": 0.4892578125
            },
            {
              "id": 312,
              "pitch": 72,
              "velocity": 110,
              "start": 1649.0,
              "duration": 0.4892578125
            },
            {
              "id": 311,
              "pitch": 76,
              "velocity": 110,
              "start": 1649.0,
              "duration": 0.4892578125
            },
            {
              "id": 310,
              "pitch": 38,
              "velocity": 110,
              "start": 1649.0,
              "duration": 0.4892578125
            },
            {
              "id": 309,
              "pitch": 74,
              "velocity": 110,
              "start": 1649.5,
              "duration": 0.4892578125
            },
            {
              "id": 308,
              "pitch": 77,
              "velocity": 110,
              "start": 1649.5,
              "duration": 0.4892578125
            },
            {
              "id": 307,
              "pitch": 38,
              "velocity": 110,
              "start": 1649.5,
              "duration": 0.4892578125
            },
            {
              "id": 306,
              "pitch": 71,
              "velocity": 110,
              "start": 1650.0,
              "duration": 1.75
            },
            {
              "id": 305,
              "pitch": 74,
              "velocity": 110,
              "start": 1650.0,
              "duration": 1.75
            },
            {
              "id": 304,
              "pitch": 43,
              "velocity": 110,
              "start": 1650.0,
              "duration": 0.4892578125
            },
            {
              "id": 303,
              "pitch": 43,
              "velocity": 110,
              "start": 1650.5,
              "duration": 0.4892578125
            },
            {
              "id": 302,
              "pitch": 43,
              "velocity": 110,
              "start": 1651.0,
              "duration": 0.4892578125
            },
            {
              "id": 301,
              "pitch": 43,
              "velocity": 110,
              "start": 1651.5,
              "duration": 0.4892578125
            },
            {
              "id": 300,
              "pitch": 72,
              "velocity": 110,
              "start": 1652.0,
              "duration": 0.4892578125
            },
            {
              "id": 299,
              "pitch": 76,
              "velocity": 110,
              "start": 1652.0,
              "duration": 0.4892578125
            },
            {
              "id": 298,
              "pitch": 48,
              "velocity": 110,
              "start": 1652.0,
              "duration": 0.4892578125
            },
            {
              "id": 297,
              "pitch": 71,
              "velocity": 110,
              "start": 1652.5,
              "duration": 0.4892578125
            },
            {
              "id": 296,
              "pitch": 74,
              "velocity": 110,
              "start": 1652.5,
              "duration": 0.4892578125
            },
            {
              "id": 295,
              "pitch": 48,
              "velocity": 110,
              "start": 1652.5,
              "duration": 0.4892578125
            },
            {
              "id": 294,
              "pitch": 72,
              "velocity": 110,
              "start": 1653.0,
              "duration": 0.4892578125
            },
            {
              "id": 293,
              "pitch": 76,
              "velocity": 110,
              "start": 1653.0,
              "duration": 0.4892578125
            },
            {
              "id": 292,
              "pitch": 48,
              "velocity": 110,
              "start": 1653.0,
              "duration": 0.4892578125
            },
            {
              "id": 291,
              "pitch": 74,
              "velocity": 110,
              "start": 1653.5,
              "duration": 0.4892578125
            },
            {
              "id": 290,
              "pitch": 77,
              "velocity": 110,
              "start": 1653.5,
              "duration": 0.4892578125
            },
            {
              "id": 289,
              "pitch": 48,
              "velocity": 110,
              "start": 1653.5,
              "duration": 0.4892578125
            },
            {
              "id": 288,
              "pitch": 76,
              "velocity": 110,
              "start": 1654.0,
              "duration": 0.8330078125
            },
            {
              "id": 287,
              "pitch": 79,
              "velocity": 110,
              "start": 1654.0,
              "duration": 0.8330078125
            },
            {
              "id": 286,
              "pitch": 47,
              "velocity": 110,
              "start": 1654.0,
              "duration": 0.4892578125
            },
            {
              "id": 285,
              "pitch": 47,
              "velocity": 110,
              "start": 1654.5,
              "duration": 0.4892578125
            },
            {
              "id": 284,
              "pitch": 72,
              "velocity": 110,
              "start": 1655.0,
              "duration": 0.4892578125
            },
            {
              "id": 283,
              "pitch": 76,
              "velocity": 110,
              "start": 1655.0,
              "duration": 0.4892578125
            },
            {
              "id": 282,
              "pitch": 47,
              "velocity": 110,
              "start": 1655.0,
              "duration": 0.4892578125
            },
            {
              "id": 281,
              "pitch": 71,
              "velocity": 110,
              "start": 1655.5,
              "duration": 0.4892578125
            },
            {
              "id": 280,
              "pitch": 74,
              "velocity": 110,
              "start": 1655.5,
              "duration": 0.4892578125
            },
            {
              "id": 279,
              "pitch": 47,
              "velocity": 110,
              "start": 1655.5,
              "duration": 0.4892578125
            },
            {
              "id": 278,
              "pitch": 71,
              "velocity": 110,
              "start": 1656.0,
              "duration": 1.3330078125
            },
            {
              "id": 277,
              "pitch": 74,
              "velocity": 110,
              "start": 1656.0,
              "duration": 1.3330078125
            },
            {
              "id": 276,
              "pitch": 45,
              "velocity": 110,
              "start": 1656.0,
              "duration": 0.4892578125
            },
            {
              "id": 275,
              "pitch": 45,
              "velocity": 110,
              "start": 1656.5,
              "duration": 0.4892578125
            },
            {
              "id": 274,
              "pitch": 45,
              "velocity": 110,
              "start": 1657.0,
              "duration": 0.4892578125
            },
            {
              "id": 273,
              "pitch": 67,
              "velocity": 110,
              "start": 1657.5,
              "duration": 0.4892578125
            },
            {
              "id": 272,
              "pitch": 72,
              "velocity": 110,
              "start": 1657.5,
              "duration": 0.4892578125
            },
            {
              "id": 271,
              "pitch": 45,
              "velocity": 110,
              "start": 1657.5,
              "duration": 0.4892578125
            },
            {
              "id": 270,
              "pitch": 67,
              "velocity": 110,
              "start": 1658.0,
              "duration": 0.8330078125
            },
            {
              "id": 269,
              "pitch": 72,
              "velocity": 110,
              "start": 1658.0,
              "duration": 0.8330078125
            },
            {
              "id": 268,
              "pitch": 43,
              "velocity": 110,
              "start": 1658.0,
              "duration": 0.4892578125
            },
            {
              "id": 267,
              "pitch": 43,
              "velocity": 110,
              "start": 1658.5,
              "duration": 0.4892578125
            },
            {
              "id": 266,
              "pitch": 72,
              "velocity": 110,
              "start": 1659.0,
              "duration": 0.4892578125
            },
            {
              "id": 265,
              "pitch": 76,
              "velocity": 110,
              "start": 1659.0,
              "duration": 0.4892578125
            },
            {
              "id": 264,
              "pitch": 43,
              "velocity": 110,
              "start": 1659.0,
              "duration": 0.4892578125
            },
            {
              "id": 263,
              "pitch": 76,
              "velocity": 110,
              "start": 1659.5,
              "duration": 0.4892578125
            },
            {
              "id": 262,
              "pitch": 79,
              "velocity": 110,
              "start": 1659.5,
              "duration": 0.4892578125
            },
            {
              "id": 261,
              "pitch": 43,
              "velocity": 110,
              "start": 1659.5,
              "duration": 0.4892578125
            },
            {
              "id": 260,
              "pitch": 77,
              "velocity": 110,
              "start": 1660.0,
              "duration": 0.4892578125
            },
            {
              "id": 259,
              "pitch": 81,
              "velocity": 110,
              "start": 1660.0,
              "duration": 0.4892578125
            },
            {
              "id": 258,
              "pitch": 41,
              "velocity": 110,
              "start": 1660.0,
              "duration": 0.4892578125
            },
            {
              "id": 257,
              "pitch": 76,
              "velocity": 110,
              "start": 1660.5,
              "duration": 0.4892578125
            },
            {
              "id": 256,
              "pitch": 79,
              "velocity": 110,
              "start": 1660.5,
              "duration": 0.4892578125
            },
            {
              "id": 255,
              "pitch": 41,
              "velocity": 110,
              "start": 1660.5,
              "duration": 0.4892578125
            },
            {
              "id": 254,
              "pitch": 77,
              "velocity": 110,
              "start": 1661.0,
              "duration": 0.4892578125
            },
            {
              "id": 253,
              "pitch": 81,
              "velocity": 110,
              "start": 1661.0,
              "duration": 0.4892578125
            },
            {
              "id": 252,
              "pitch": 41,
              "velocity": 110,
              "start": 1661.0,
              "duration": 0.4892578125
            },
            {
              "id": 251,
              "pitch": 77,
              "velocity": 110,
              "start": 1661.5,
              "duration": 0.4892578125
            },
            {
              "id": 250,
              "pitch": 83,
              "velocity": 110,
              "start": 1661.5,
              "duration": 0.4892578125
            },
            {
              "id": 249,
              "pitch": 41,
              "velocity": 110,
              "start": 1661.5,
              "duration": 0.4892578125
            },
            {
              "id": 248,
              "pitch": 76,
              "velocity": 110,
              "start": 1662.0,
              "duration": 0.8330078125
            },
            {
              "id": 247,
              "pitch": 84,
              "velocity": 110,
              "start": 1662.0,
              "duration": 0.8330078125
            },
            {
              "id": 246,
              "pitch": 40,
              "velocity": 110,
              "start": 1662.0,
              "duration": 0.4892578125
            },
            {
              "id": 245,
              "pitch": 40,
              "velocity": 110,
              "start": 1662.5,
              "duration": 0.4892578125
            },
            {
              "id": 244,
              "pitch": 76,
              "velocity": 110,
              "start": 1663.0,
              "duration": 0.4892578125
            },
            {
              "id": 243,
              "pitch": 79,
              "velocity": 110,
              "start": 1663.0,
              "duration": 0.4892578125
            },
            {
              "id": 242,
              "pitch": 40,
              "velocity": 110,
              "start": 1663.0,
              "duration": 0.4892578125
            },
            {
              "id": 241,
              "pitch": 74,
              "velocity": 110,
              "start": 1663.5,
              "duration": 0.4892578125
            },
            {
              "id": 240,
              "pitch": 77,
              "velocity": 110,
              "start": 1663.5,
              "duration": 0.4892578125
            },
            {
              "id": 239,
              "pitch": 40,
              "velocity": 110,
              "start": 1663.5,
              "duration": 0.4892578125
            },
            {
              "id": 238,
              "pitch": 72,
              "velocity": 110,
              "start": 1664.0,
              "duration": 0.4892578125
            },
            {
              "id": 237,
              "pitch": 77,
              "velocity": 110,
              "start": 1664.0,
              "duration": 0.4892578125
            },
            {
              "id": 236,
              "pitch": 38,
              "velocity": 110,
              "start": 1664.0,
              "duration": 0.4892578125
            },
            {
              "id": 235,
              "pitch": 72,
              "velocity": 110,
              "start": 1664.5,
              "duration": 0.4892578125
            },
            {
              "id": 234,
              "pitch": 76,
              "velocity": 110,
              "start": 1664.5,
              "duration": 0.4892578125
            },
            {
              "id": 233,
              "pitch": 38,
              "velocity": 110,
              "start": 1664.5,
              "duration": 0.4892578125
            },
            {
              "id": 232,
              "pitch": 71,
              "velocity": 110,
              "start": 1665.0,
              "duration": 0.4892578125
            },
            {
              "id": 231,
              "pitch": 74,
              "velocity": 110,
              "start": 1665.0,
              "duration": 0.4892578125
            },
            {
              "id": 230,
              "pitch": 38,
              "velocity": 110,
              "start": 1665.0,
              "duration": 0.4892578125
            },
            {
              "id": 229,
              "pitch": 67,
              "velocity": 110,
              "start": 1665.5,
              "duration": 0.4892578125
            },
            {
              "id": 228,
              "pitch": 72,
              "velocity": 110,
              "start": 1665.5,
              "duration": 0.4892578125
            },
            {
              "id": 227,
              "pitch": 38,
              "velocity": 110,
              "start": 1665.5,
              "duration": 0.4892578125
            },
            {
              "id": 226,
              "pitch": 74,
              "velocity": 110,
              "start": 1666.0,
              "duration": 0.8330078125
            },
            {
              "id": 225,
              "pitch": 79,
              "velocity": 110,
              "start": 1666.0,
              "duration": 0.8330078125
            },
            {
              "id": 224,
              "pitch": 43,
              "velocity": 110,
              "start": 1666.0,
              "duration": 0.4892578125
            },
            {
              "id": 223,
              "pitch": 43,
              "velocity": 110,
              "start": 1666.5,
              "duration": 0.4892578125
            },
            {
              "id": 222,
              "pitch": 62,
              "velocity": 110,
              "start": 1667.0,
              "duration": 0.8330078125
            },
            {
              "id": 221,
              "pitch": 67,
              "velocity": 110,
              "start": 1667.0,
              "duration": 0.8330078125
            },
            {
              "id": 220,
              "pitch": 43,
              "velocity": 110,
              "start": 1667.0,
              "duration": 0.4892578125
            },
            {
              "id": 219,
              "pitch": 43,
              "velocity": 110,
              "start": 1667.5,
              "duration": 0.4892578125
            },
            {
              "id": 218,
              "pitch": 73,
              "velocity": 110,
              "start": 1668.0,
              "duration": 0.4892578125
            },
            {
              "id": 217,
              "pitch": 77,
              "velocity": 110,
              "start": 1668.0,
              "duration": 0.4892578125
            },
            {
              "id": 216,
              "pitch": 49,
              "velocity": 110,
              "start": 1668.0,
              "duration": 0.4892578125
            },
            {
              "id": 215,
              "pitch": 72,
              "velocity": 110,
              "start": 1668.5,
              "duration": 0.4892578125
            },
            {
              "id": 214,
              "pitch": 75,
              "velocity": 110,
              "start": 1668.5,
              "duration": 0.4892578125
            },
            {
              "id": 213,
              "pitch": 49,
              "velocity": 110,
              "start": 1668.5,
              "duration": 0.4892578125
            },
            {
              "id": 212,
              "pitch": 73,
              "velocity": 110,
              "start": 1669.0,
              "duration": 0.4892578125
            },
            {
              "id": 211,
              "pitch": 77,
              "velocity": 110,
              "start": 1669.0,
              "duration": 0.4892578125
            },
            {
              "id": 210,
              "pitch": 49,
              "velocity": 110,
              "start": 1669.0,
              "duration": 0.4892578125
            },
            {
              "id": 209,
              "pitch": 75,
              "velocity": 110,
              "start": 1669.5,
              "duration": 0.4892578125
            },
            {
              "id": 208,
              "pitch": 78,
              "velocity": 110,
              "start": 1669.5,
              "duration": 0.4892578125
            },
            {
              "id": 207,
              "pitch": 49,
              "velocity": 110,
              "start": 1669.5,
              "duration": 0.4892578125
            },
            {
              "id": 206,
              "pitch": 77,
              "velocity": 110,
              "start": 1670.0,
              "duration": 0.8330078125
            },
            {
              "id": 205,
              "pitch": 80,
              "velocity": 110,
              "start": 1670.0,
              "duration": 0.8330078125
            },
            {
              "id": 204,
              "pitch": 48,
              "velocity": 110,
              "start": 1670.0,
              "duration": 0.4892578125
            },
            {
              "id": 203,
              "pitch": 48,
              "velocity": 110,
              "start": 1670.5,
              "duration": 0.4892578125
            },
            {
              "id": 202,
              "pitch": 73,
              "velocity": 110,
              "start": 1671.0,
              "duration": 0.4892578125
            },
            {
              "id": 201,
              "pitch": 77,
              "velocity": 110,
              "start": 1671.0,
              "duration": 0.4892578125
            },
            {
              "id": 200,
              "pitch": 48,
              "velocity": 110,
              "start": 1671.0,
              "duration": 0.4892578125
            },
            {
              "id": 199,
              "pitch": 72,
              "velocity": 110,
              "start": 1671.5,
              "duration": 0.4892578125
            },
            {
              "id": 198,
              "pitch": 75,
              "velocity": 110,
              "start": 1671.5,
              "duration": 0.4892578125
            },
            {
              "id": 197,
              "pitch": 48,
              "velocity": 110,
              "start": 1671.5,
              "duration": 0.4892578125
            },
            {
              "id": 196,
              "pitch": 72,
              "velocity": 110,
              "start": 1672.0,
              "duration": 1.3330078125
            },
            {
              "id": 195,
              "pitch": 75,
              "velocity": 110,
              "start": 1672.0,
              "duration": 1.3330078125
            },
            {
              "id": 194,
              "pitch": 46,
              "velocity": 110,
              "start": 1672.0,
              "duration": 0.4892578125
            },
            {
              "id": 193,
              "pitch": 46,
              "velocity": 110,
              "start": 1672.5,
              "duration": 0.4892578125
            },
            {
              "id": 192,
              "pitch": 46,
              "velocity": 110,
              "start": 1673.0,
              "duration": 0.4892578125
            },
            {
              "id": 191,
              "pitch": 68,
              "velocity": 110,
              "start": 1673.5,
              "duration": 0.4892578125
            },
            {
              "id": 190,
              "pitch": 73,
              "velocity": 110,
              "start": 1673.5,
              "duration": 0.4892578125
            },
            {
              "id": 189,
              "pitch": 46,
              "velocity": 110,
              "start": 1673.5,
              "duration": 0.4892578125
            },
            {
              "id": 188,
              "pitch": 68,
              "velocity": 110,
              "start": 1674.0,
              "duration": 0.8330078125
            },
            {
              "id": 187,
              "pitch": 73,
              "velocity": 110,
              "start": 1674.0,
              "duration": 0.8330078125
            },
            {
              "id": 186,
              "pitch": 44,
              "velocity": 110,
              "start": 1674.0,
              "duration": 0.4892578125
            },
            {
              "id": 185,
              "pitch": 44,
              "velocity": 110,
              "start": 1674.5,
              "duration": 0.4892578125
            },
            {
              "id": 184,
              "pitch": 73,
              "velocity": 110,
              "start": 1675.0,
              "duration": 0.4892578125
            },
            {
              "id": 183,
              "pitch": 77,
              "velocity": 110,
              "start": 1675.0,
              "duration": 0.4892578125
            },
            {
              "id": 182,
              "pitch": 44,
              "velocity": 110,
              "start": 1675.0,
              "duration": 0.4892578125
            },
            {
              "id": 181,
              "pitch": 77,
              "velocity": 110,
              "start": 1675.5,
              "duration": 0.4892578125
            },
            {
              "id": 180,
              "pitch": 80,
              "velocity": 110,
              "start": 1675.5,
              "duration": 0.4892578125
            },
            {
              "id": 179,
              "pitch": 44,
              "velocity": 110,
              "start": 1675.5,
              "duration": 0.4892578125
            },
            {
              "id": 178,
              "pitch": 78,
              "velocity": 110,
              "start": 1676.0,
              "duration": 0.4892578125
            },
            {
              "id": 177,
              "pitch": 82,
              "velocity": 110,
              "start": 1676.0,
              "duration": 0.4892578125
            },
            {
              "id": 176,
              "pitch": 42,
              "velocity": 110,
              "start": 1676.0,
              "duration": 0.4892578125
            },
            {
              "id": 175,
              "pitch": 77,
              "velocity": 110,
              "start": 1676.5,
              "duration": 0.4892578125
            },
            {
              "id": 174,
              "pitch": 80,
              "velocity": 110,
              "start": 1676.5,
              "duration": 0.4892578125
            },
            {
              "id": 173,
              "pitch": 42,
              "velocity": 110,
              "start": 1676.5,
              "duration": 0.4892578125
            },
            {
              "id": 172,
              "pitch": 78,
              "velocity": 110,
              "start": 1677.0,
              "duration": 0.4892578125
            },
            {
              "id": 171,
              "pitch": 82,
              "velocity": 110,
              "start": 1677.0,
              "duration": 0.4892578125
            },
            {
              "id": 170,
              "pitch": 42,
              "velocity": 110,
              "start": 1677.0,
              "duration": 0.4892578125
            },
            {
              "id": 169,
              "pitch": 78,
              "velocity": 110,
              "start": 1677.5,
              "duration": 0.4892578125
            },
            {
              "id": 168,
              "pitch": 84,
              "velocity": 110,
              "start": 1677.5,
              "duration": 0.4892578125
            },
            {
              "id": 167,
              "pitch": 42,
              "velocity": 110,
              "start": 1677.5,
              "duration": 0.4892578125
            },
            {
              "id": 166,
              "pitch": 77,
              "velocity": 110,
              "start": 1678.0,
              "duration": 0.8330078125
            },
            {
              "id": 165,
              "pitch": 85,
              "velocity": 110,
              "start": 1678.0,
              "duration": 0.8330078125
            },
            {
              "id": 164,
              "pitch": 41,
              "velocity": 110,
              "start": 1678.0,
              "duration": 0.4892578125
            },
            {
              "id": 163,
              "pitch": 41,
              "velocity": 110,
              "start": 1678.5,
              "duration": 0.4892578125
            },
            {
              "id": 162,
              "pitch": 77,
              "velocity": 110,
              "start": 1679.0,
              "duration": 0.4892578125
            },
            {
              "id": 161,
              "pitch": 80,
              "velocity": 110,
              "start": 1679.0,
              "duration": 0.4892578125
            },
            {
              "id": 160,
              "pitch": 41,
              "velocity": 110,
              "start": 1679.0,
              "duration": 0.4892578125
            },
            {
              "id": 159,
              "pitch": 75,
              "velocity": 110,
              "start": 1679.5,
              "duration": 0.4892578125
            },
            {
              "id": 158,
              "pitch": 78,
              "velocity": 110,
              "start": 1679.5,
              "duration": 0.4892578125
            },
            {
              "id": 157,
              "pitch": 41,
              "velocity": 110,
              "start": 1679.5,
              "duration": 0.4892578125
            },
            {
              "id": 156,
              "pitch": 73,
              "velocity": 110,
              "start": 1680.0,
              "duration": 0.8330078125
            },
            {
              "id": 155,
              "pitch": 77,
              "velocity": 110,
              "start": 1680.0,
              "duration": 0.8330078125
            },
            {
              "id": 154,
              "pitch": 39,
              "velocity": 110,
              "start": 1680.0,
              "duration": 0.4892578125
            },
            {
              "id": 153,
              "pitch": 39,
              "velocity": 110,
              "start": 1680.5,
              "duration": 0.4892578125
            },
            {
              "id": 152,
              "pitch": 73,
              "velocity": 110,
              "start": 1681.0,
              "duration": 0.4892578125
            },
            {
              "id": 151,
              "pitch": 77,
              "velocity": 110,
              "start": 1681.0,
              "duration": 0.4892578125
            },
            {
              "id": 150,
              "pitch": 39,
              "velocity": 110,
              "start": 1681.0,
              "duration": 0.4892578125
            },
            {
              "id": 149,
              "pitch": 75,
              "velocity": 110,
              "start": 1681.5,
              "duration": 0.4892578125
            },
            {
              "id": 148,
              "pitch": 78,
              "velocity": 110,
              "start": 1681.5,
              "duration": 0.4892578125
            },
            {
              "id": 147,
              "pitch": 39,
              "velocity": 110,
              "start": 1681.5,
              "duration": 0.4892578125
            },
            {
              "id": 146,
              "pitch": 72,
              "velocity": 110,
              "start": 1682.0,
              "duration": 1.75
            },
            {
              "id": 145,
              "pitch": 75,
              "velocity": 110,
              "start": 1682.0,
              "duration": 1.75
            },
            {
              "id": 144,
              "pitch": 44,
              "velocity": 110,
              "start": 1682.0,
              "duration": 0.4892578125
            },
            {
              "id": 143,
              "pitch": 44,
              "velocity": 110,
              "start": 1682.5,
              "duration": 0.4892578125
            },
            {
              "id": 142,
              "pitch": 44,
              "velocity": 110,
              "start": 1683.0,
              "duration": 0.4892578125
            },
            {
              "id": 141,
              "pitch": 44,
              "velocity": 110,
              "start": 1683.5,
              "duration": 0.4892578125
            },
            {
              "id": 140,
              "pitch": 73,
              "velocity": 110,
              "start": 1684.0,
              "duration": 0.4892578125
            },
            {
              "id": 139,
              "pitch": 77,
              "velocity": 110,
              "start": 1684.0,
              "duration": 0.4892578125
            },
            {
              "id": 138,
              "pitch": 49,
              "velocity": 110,
              "start": 1684.0,
              "duration": 0.4892578125
            },
            {
              "id": 137,
              "pitch": 72,
              "velocity": 110,
              "start": 1684.5,
              "duration": 0.4892578125
            },
            {
              "id": 136,
              "pitch": 75,
              "velocity": 110,
              "start": 1684.5,
              "duration": 0.4892578125
            },
            {
              "id": 135,
              "pitch": 49,
              "velocity": 110,
              "start": 1684.5,
              "duration": 0.4892578125
            },
            {
              "id": 134,
              "pitch": 73,
              "velocity": 110,
              "start": 1685.0,
              "duration": 0.4892578125
            },
            {
              "id": 133,
              "pitch": 77,
              "velocity": 110,
              "start": 1685.0,
              "duration": 0.4892578125
            },
            {
              "id": 132,
              "pitch": 49,
              "velocity": 110,
              "start": 1685.0,
              "duration": 0.4892578125
            },
            {
              "id": 131,
              "pitch": 75,
              "velocity": 110,
              "start": 1685.5,
              "duration": 0.4892578125
            },
            {
              "id": 130,
              "pitch": 78,
              "velocity": 110,
              "start": 1685.5,
              "duration": 0.4892578125
            },
            {
              "id": 129,
              "pitch": 49,
              "velocity": 110,
              "start": 1685.5,
              "duration": 0.4892578125
            },
            {
              "id": 128,
              "pitch": 77,
              "velocity": 110,
              "start": 1686.0,
              "duration": 0.8330078125
            },
            {
              "id": 127,
              "pitch": 80,
              "velocity": 110,
              "start": 1686.0,
              "duration": 0.8330078125
            },
            {
              "id": 126,
              "pitch": 48,
              "velocity": 110,
              "start": 1686.0,
              "duration": 0.4892578125
            },
            {
              "id": 125,
              "pitch": 48,
              "velocity": 110,
              "start": 1686.5,
              "duration": 0.4892578125
            },
            {
              "id": 124,
              "pitch": 73,
              "velocity": 110,
              "start": 1687.0,
              "duration": 0.4892578125
            },
            {
              "id": 123,
              "pitch": 77,
              "velocity": 110,
              "start": 1687.0,
              "duration": 0.4892578125
            },
            {
              "id": 122,
              "pitch": 48,
              "velocity": 110,
              "start": 1687.0,
              "duration": 0.4892578125
            },
            {
              "id": 121,
              "pitch": 72,
              "velocity": 110,
              "start": 1687.5,
              "duration": 0.4892578125
            },
            {
              "id": 120,
              "pitch": 75,
              "velocity": 110,
              "start": 1687.5,
              "duration": 0.4892578125
            },
            {
              "id": 119,
              "pitch": 48,
              "velocity": 110,
              "start": 1687.5,
              "duration": 0.4892578125
            },
            {
              "id": 118,
              "pitch": 72,
              "velocity": 110,
              "start": 1688.0,
              "duration": 1.3330078125
            },
            {
              "id": 117,
              "pitch": 75,
              "velocity": 110,
              "start": 1688.0,
              "duration": 1.3330078125
            },
            {
              "id": 116,
              "pitch": 46,
              "velocity": 110,
              "start": 1688.0,
              "duration": 0.4892578125
            },
            {
              "id": 115,
              "pitch": 46,
              "velocity": 110,
              "start": 1688.5,
              "duration": 0.4892578125
            },
            {
              "id": 114,
              "pitch": 46,
              "velocity": 110,
              "start": 1689.0,
              "duration": 0.4892578125
            },
            {
              "id": 113,
              "pitch": 68,
              "velocity": 110,
              "start": 1689.5,
              "duration": 0.4892578125
            },
            {
              "id": 112,
              "pitch": 73,
              "velocity": 110,
              "start": 1689.5,
              "duration": 0.4892578125
            },
            {
              "id": 111,
              "pitch": 46,
              "velocity": 110,
              "start": 1689.5,
              "duration": 0.4892578125
            },
            {
              "id": 110,
              "pitch": 68,
              "velocity": 110,
              "start": 1690.0,
              "duration": 0.8330078125
            },
            {
              "id": 109,
              "pitch": 73,
              "velocity": 110,
              "start": 1690.0,
              "duration": 0.8330078125
            },
            {
              "id": 108,
              "pitch": 44,
              "velocity": 110,
              "start": 1690.0,
              "duration": 0.4892578125
            },
            {
              "id": 107,
              "pitch": 44,
              "velocity": 110,
              "start": 1690.5,
              "duration": 0.4892578125
            },
            {
              "id": 106,
              "pitch": 73,
              "velocity": 110,
              "start": 1691.0,
              "duration": 0.4892578125
            },
            {
              "id": 105,
              "pitch": 77,
              "velocity": 110,
              "start": 1691.0,
              "duration": 0.4892578125
            },
            {
              "id": 104,
              "pitch": 44,
              "velocity": 110,
              "start": 1691.0,
              "duration": 0.4892578125
            },
            {
              "id": 103,
              "pitch": 77,
              "velocity": 110,
              "start": 1691.5,
              "duration": 0.4892578125
            },
            {
              "id": 102,
              "pitch": 80,
              "velocity": 110,
              "start": 1691.5,
              "duration": 0.4892578125
            },
            {
              "id": 101,
              "pitch": 44,
              "velocity": 110,
              "start": 1691.5,
              "duration": 0.4892578125
            },
            {
              "id": 100,
              "pitch": 78,
              "velocity": 110,
              "start": 1692.0,
              "duration": 0.4892578125
            },
            {
              "id": 99,
              "pitch": 82,
              "velocity": 110,
              "start": 1692.0,
              "duration": 0.4892578125
            },
            {
              "id": 98,
              "pitch": 42,
              "velocity": 110,
              "start": 1692.0,
              "duration": 0.4892578125
            },
            {
              "id": 97,
              "pitch": 77,
              "velocity": 110,
              "start": 1692.5,
              "duration": 0.4892578125
            },
            {
              "id": 96,
              "pitch": 80,
              "velocity": 110,
              "start": 1692.5,
              "duration": 0.4892578125
            },
            {
              "id": 95,
              "pitch": 42,
              "velocity": 110,
              "start": 1692.5,
              "duration": 0.4892578125
            },
            {
              "id": 94,
              "pitch": 78,
              "velocity": 110,
              "start": 1693.0,
              "duration": 0.4892578125
            },
            {
              "id": 93,
              "pitch": 82,
              "velocity": 110,
              "start": 1693.0,
              "duration": 0.4892578125
            },
            {
              "id": 92,
              "pitch": 42,
              "velocity": 110,
              "start": 1693.0,
              "duration": 0.4892578125
            },
            {
              "id": 91,
              "pitch": 78,
              "velocity": 110,
              "start": 1693.5,
              "duration": 0.4892578125
            },
            {
              "id": 90,
              "pitch": 84,
              "velocity": 110,
              "start": 1693.5,
              "duration": 0.4892578125
            },
            {
              "id": 89,
              "pitch": 42,
              "velocity": 110,
              "start": 1693.5,
              "duration": 0.4892578125
            },
            {
              "id": 88,
              "pitch": 77,
              "velocity": 110,
              "start": 1694.0,
              "duration": 0.8330078125
            },
            {
              "id": 87,
              "pitch": 85,
              "velocity": 110,
              "start": 1694.0,
              "duration": 0.8330078125
            },
            {
              "id": 86,
              "pitch": 41,
              "velocity": 110,
              "start": 1694.0,
              "duration": 0.4892578125
            },
            {
              "id": 85,
              "pitch": 41,
              "velocity": 110,
              "start": 1694.5,
              "duration": 0.4892578125
            },
            {
              "id": 84,
              "pitch": 77,
              "velocity": 110,
              "start": 1695.0,
              "duration": 0.4892578125
            },
            {
              "id": 83,
              "pitch": 80,
              "velocity": 110,
              "start": 1695.0,
              "duration": 0.4892578125
            },
            {
              "id": 82,
              "pitch": 41,
              "velocity": 110,
              "start": 1695.0,
              "duration": 0.4892578125
            },
            {
              "id": 81,
              "pitch": 75,
              "velocity": 110,
              "start": 1695.5,
              "duration": 0.4892578125
            },
            {
              "id": 80,
              "pitch": 78,
              "velocity": 110,
              "start": 1695.5,
              "duration": 0.4892578125
            },
            {
              "id": 79,
              "pitch": 41,
              "velocity": 110,
              "start": 1695.5,
              "duration": 0.4892578125
            },
            {
              "id": 78,
              "pitch": 73,
              "velocity": 110,
              "start": 1696.0,
              "duration": 0.4892578125
            },
            {
              "id": 77,
              "pitch": 78,
              "velocity": 110,
              "start": 1696.0,
              "duration": 0.4892578125
            },
            {
              "id": 76,
              "pitch": 39,
              "velocity": 110,
              "start": 1696.0,
              "duration": 0.4892578125
            },
            {
              "id": 75,
              "pitch": 73,
              "velocity": 110,
              "start": 1696.5,
              "duration": 0.4892578125
            },
            {
              "id": 74,
              "pitch": 77,
              "velocity": 110,
              "start": 1696.5,
              "duration": 0.4892578125
            },
            {
              "id": 73,
              "pitch": 39,
              "velocity": 110,
              "start": 1696.5,
              "duration": 0.4892578125
            },
            {
              "id": 72,
              "pitch": 72,
              "velocity": 110,
              "start": 1697.0,
              "duration": 0.4892578125
            },
            {
              "id": 71,
              "pitch": 75,
              "velocity": 110,
              "start": 1697.0,
              "duration": 0.4892578125
            },
            {
              "id": 70,
              "pitch": 39,
              "velocity": 110,
              "start": 1697.0,
              "duration": 0.4892578125
            },
            {
              "id": 69,
              "pitch": 68,
              "velocity": 110,
              "start": 1697.5,
              "duration": 0.4892578125
            },
            {
              "id": 68,
              "pitch": 73,
              "velocity": 110,
              "start": 1697.5,
              "duration": 0.4892578125
            },
            {
              "id": 67,
              "pitch": 39,
              "velocity": 110,
              "start": 1697.5,
              "duration": 0.4892578125
            },
            {
              "id": 66,
              "pitch": 75,
              "velocity": 110,
              "start": 1698.0,
              "duration": 0.8330078125
            },
            {
              "id": 65,
              "pitch": 80,
              "velocity": 110,
              "start": 1698.0,
              "duration": 0.8330078125
            },
            {
              "id": 64,
              "pitch": 44,
              "velocity": 110,
              "start": 1698.0,
              "duration": 0.4892578125
            },
            {
              "id": 63,
              "pitch": 44,
              "velocity": 110,
              "start": 1698.5,
              "duration": 0.4892578125
            },
            {
              "id": 62,
              "pitch": 68,
              "velocity": 110,
              "start": 1699.0,
              "duration": 0.8330078125
            },
            {
              "id": 61,
              "pitch": 72,
              "velocity": 110,
              "start": 1699.0,
              "duration": 0.8330078125
            },
            {
              "id": 60,
              "pitch": 44,
              "velocity": 110,
              "start": 1699.0,
              "duration": 0.4892578125
            },
            {
              "id": 59,
              "pitch": 44,
              "velocity": 110,
              "start": 1699.5,
              "duration": 0.4892578125
            },
            {
              "id": 58,
              "pitch": 56,
              "velocity": 110,
              "start": 1700.0,
              "duration": 1.75
            },
            {
              "id": 57,
              "pitch": 60,
              "velocity": 110,
              "start": 1700.0,
              "duration": 1.75
            },
            {
              "id": 56,
              "pitch": 65,
              "velocity": 110,
              "start": 1700.0,
              "duration": 1.75
            },
            {
              "id": 55,
              "pitch": 37,
              "velocity": 110,
              "start": 1700.0,
              "duration": 3.75
            },
            {
              "id": 54,
              "pitch": 65,
              "velocity": 110,
              "start": 1702.5,
              "duration": 0.4892578125
            },
            {
              "id": 53,
              "pitch": 66,
              "velocity": 110,
              "start": 1703.0,
              "duration": 0.3642578125
            },
            {
              "id": 52,
              "pitch": 68,
              "velocity": 110,
              "start": 1703.375,
              "duration": 0.6142578125
            },
            {
              "id": 51,
              "pitch": 61,
              "velocity": 110,
              "start": 1704.0,
              "duration": 1.75
            },
            {
              "id": 50,
              "pitch": 66,
              "velocity": 110,
              "start": 1704.0,
              "duration": 1.75
            },
            {
              "id": 49,
              "pitch": 70,
              "velocity": 110,
              "start": 1704.0,
              "duration": 1.75
            },
            {
              "id": 48,
              "pitch": 42,
              "velocity": 110,
              "start": 1704.0,
              "duration": 3.75
            },
            {
              "id": 47,
              "pitch": 70,
              "velocity": 110,
              "start": 1706.5,
              "duration": 0.4892578125
            },
            {
              "id": 46,
              "pitch": 68,
              "velocity": 110,
              "start": 1707.0,
              "duration": 0.3642578125
            },
            {
              "id": 45,
              "pitch": 66,
              "velocity": 110,
              "start": 1707.375,
              "duration": 0.6142578125
            },
            {
              "id": 44,
              "pitch": 56,
              "velocity": 110,
              "start": 1708.0,
              "duration": 1.75
            },
            {
              "id": 43,
              "pitch": 60,
              "velocity": 110,
              "start": 1708.0,
              "duration": 1.75
            },
            {
              "id": 42,
              "pitch": 65,
              "velocity": 110,
              "start": 1708.0,
              "duration": 1.75
            },
            {
              "id": 41,
              "pitch": 37,
              "velocity": 110,
              "start": 1708.0,
              "duration": 3.75
            },
            {
              "id": 40,
              "pitch": 65,
              "velocity": 110,
              "start": 1710.5,
              "duration": 0.4892578125
            },
            {
              "id": 39,
              "pitch": 66,
              "velocity": 110,
              "start": 1711.0,
              "duration": 0.3642578125
            },
            {
              "id": 38,
              "pitch": 68,
              "velocity": 110,
              "start": 1711.375,
              "duration": 0.6142578125
            },
            {
              "id": 37,
              "pitch": 61,
              "velocity": 110,
              "start": 1712.0,
              "duration": 1.75
            },
            {
              "id": 36,
              "pitch": 66,
              "velocity": 110,
              "start": 1712.0,
              "duration": 1.75
            },
            {
              "id": 35,
              "pitch": 70,
              "velocity": 110,
              "start": 1712.0,
              "duration": 1.75
            },
            {
              "id": 34,
              "pitch": 42,
              "velocity": 110,
              "start": 1712.0,
              "duration": 3.75
            },
            {
              "id": 33,
              "pitch": 70,
              "velocity": 110,
              "start": 1714.5,
              "duration": 0.4892578125
            },
            {
              "id": 32,
              "pitch": 68,
              "velocity": 110,
              "start": 1715.0,
              "duration": 0.3642578125
            },
            {
              "id": 31,
              "pitch": 66,
              "velocity": 110,
              "start": 1715.375,
              "duration": 0.6142578125
            },
            {
              "id": 30,
              "pitch": 56,
              "velocity": 110,
              "start": 1716.0,
              "duration": 1.75
            },
            {
              "id": 29,
              "pitch": 60,
              "velocity": 110,
              "start": 1716.0,
              "duration": 1.75
            },
            {
              "id": 28,
              "pitch": 65,
              "velocity": 110,
              "start": 1716.0,
              "duration": 1.75
            },
            {
              "id": 27,
              "pitch": 37,
              "velocity": 110,
              "start": 1716.0,
              "duration": 3.75
            },
            {
              "id": 26,
              "pitch": 65,
              "velocity": 110,
              "start": 1718.5,
              "duration": 0.4892578125
            },
            {
              "id": 25,
              "pitch": 66,
              "velocity": 110,
              "start": 1719.0,
              "duration": 0.3642578125
            },
            {
              "id": 24,
              "pitch": 68,
              "velocity": 110,
              "start": 1719.375,
              "duration": 0.6142578125
            },
            {
              "id": 23,
              "pitch": 61,
              "velocity": 110,
              "start": 1720.0,
              "duration": 1.75
            },
            {
              "id": 22,
              "pitch": 66,
              "velocity": 110,
              "start": 1720.0,
              "duration": 1.75
            },
            {
              "id": 21,
              "pitch": 70,
              "velocity": 110,
              "start": 1720.0,
              "duration": 1.75
            },
            {
              "id": 20,
              "pitch": 42,
              "velocity": 110,
              "start": 1720.0,
              "duration": 3.75
            },
            {
              "id": 19,
              "pitch": 66,
              "velocity": 110,
              "start": 1722.0,
              "duration": 2.4892578125
            },
            {
              "id": 18,
              "pitch": 69,
              "velocity": 110,
              "start": 1722.0,
              "duration": 2.4892578125
            },
            {
              "id": 17,
              "pitch": 73,
              "velocity": 110,
              "start": 1722.0,
              "duration": 2.4892578125
            },
            {
              "id": 16,
              "pitch": 37,
              "velocity": 110,
              "start": 1724.375,
              "duration": 0.625
            },
            {
              "id": 15,
              "pitch": 68,
              "velocity": 110,
              "start": 1724.5,
              "duration": 0.1142578125
            },
            {
              "id": 14,
              "pitch": 65,
              "velocity": 110,
              "start": 1724.625,
              "duration": 2.125
            },
            {
              "id": 13,
              "pitch": 73,
              "velocity": 110,
              "start": 1724.625,
              "duration": 2.125
            },
            {
              "id": 12,
              "pitch": 37,
              "velocity": 110,
              "start": 1728.0,
              "duration": 0.8330078125
            }
          ],
          "color": [
            100,
            150,
            200
          ],
          "velocity_offset": 0,
          "transpose": 0,
          "loop_enabled": false,
          "content_len_beats": 1728.8330078125,
          "pattern_id": null,
          "quantize_grid": 0.25,
          "quantize_strength": 1.0,
          "quantize_enabled": false,
          "muted": false,
          "locked": false,
          "groove": null,
          "swing": 0.0,
          "humanize": 0.0,
          "content_offset_beats": 0.0
        }
      ],
      "audio_clips": [],
      "plugin_chain": [
        {
          "id": 5447,
          "uri": "http://drobilla.net/plugins/mda/EPiano",
          "name": "MDA ePiano",
          "backend": "Lv2",
          "bypass": false,
          "params": {
            "Envelope Decay": 0.5,
            "lfo_rate": 0.65,
            "modulation": 0.5,
            "polyphonic": 1.0,
            "env_release": 0.5,
            "stereo_width": 0.5,
            "Velocity Sense": 0.25,
            "fine_tuning": 0.5,
            "Treble Boost": 0.5,
            "LFO Rate": 0.65,
            "Random Tuning": 0.146,
            "hardness": 0.5,
            "vel_sense": 0.25,
            "treble_boost": 0.5,
            "Modulation": 0.5,
            "random_tuning": 0.146,
            "env_decay": 0.5,
            "overdrive": 0.0,
            "Stereo Width": 0.5,
            "Polyphonic": 1.0,
            "Overdrive": 0.0,
            "Envelope Release": 0.5,
            "Hardness": 0.5,
            "Fine Tuning": 0.5
          },
          "preset_name": null,
          "custom_name": null
        }
      ],
      "automation_lanes": [],
      "sends": [],
      "group_id": null,
      "color": null,
      "height": 80.0,
      "minimized": false,
      "record_enabled": false,
      "monitor_enabled": false,
      "input_gain": 1.0,
      "phase_inverted": false,
      "frozen": false,
      "frozen_buffer": null
    }
  ],
  "bpm": 120.0,
  "time_signature": [
    4,
    4
  ],
  "sample_rate": 44100.0,
  "master_volume": 0.8,
  "loop_start": 0.0,
  "loop_end": 4.0,
  "loop_enabled": false,
  "created_at": "2025-10-26T13:44:39.733792512Z",
  "modified_at": "2025-10-26T13:44:39.733796842Z"
}